<?xml version="1.0" encoding="UTF-8" standalone="no"?>
<svg width="182px" height="20px" viewBox="0 0 182 20" version="1.1" xmlns="http://www.w3.org/2000/svg" xmlns:xlink="http://www.w3.org/1999/xlink" xmlns:sketch="http://www.bohemiancoding.com/sketch/ns">
    <!-- Generator: Sketch 3.3.2 (12043) - http://www.bohemiancoding.com/sketch -->
    <title>logotypeLight1</title>
    <desc>Created with Sketch.</desc>
    <defs></defs>
    <g id="Page-1" stroke="none" stroke-width="1" fill="none" fill-rule="evenodd" sketch:type="MSPage">
        <g id="logotypeLight1" sketch:type="MSLayerGroup" transform="translate(-1.000000, 0.000000)" fill="#F8EFDF">
            <path d="M12.1,0 C6.8,0 3.1,2.7 2.6,8.4 L1,9.9 L2.5,11.4 C3,17.1 6.2,19.8 12,19.8 C17.1,19.8 20.9,17.2 21.5,11.5 L23.1,9.9 L21.5,8.3 C21.1,2.7 17.9,0 12.1,0 L12.1,0 Z M12.1,17.3 C9.3,17.3 8.3,15.7 8.1,11.5 L9.7,9.9 L8.1,8.4 C8.3,4.3 9.5,2.5 12.1,2.5 C14.8,2.5 15.9,4.1 16.1,8.3 L14.5,9.9 L16.1,11.5 C15.9,15.6 14.8,17.3 12.1,17.3 L12.1,17.3 Z" id="Shape" sketch:type="MSShapeGroup"></path>
            <path d="M40.7,0.6 C39.2,0.6 36.5,0.5 36.5,0.5 C36.5,0.5 36.6,1.8 36.5,3 L37.2,3 C38.6,3 38.7,3.8 38.3,5.4 C37.8,7.6 36.1,12.3 35.2,15 C34.4,12.5 32.9,7.7 32.3,5.4 C31.9,3.7 32.4,3 33.5,3 L34.3,3 L34.3,0.5 C33.9,0.5 30.9,0.6 29,0.6 C27.1,0.6 23.8,0.5 23.8,0.5 C23.8,0.5 23.9,1.8 23.8,3 L24.4,3 C25.9,3 26.4,3.6 26.9,5.1 C27.2,5.9 27.6,7.1 28,8.5 L27,10.5 L28.9,11.5 C29.8,14.5 30.8,17.7 31.3,19.6 L36.2,19.6 C36.8,17.5 37.8,14.4 38.8,11.5 L40.8,10.5 L39.8,8.5 C40.3,7.2 40.7,6 41,5.2 C41.9,3.4 42.6,3 44.1,3 L44.8,3 L44.8,0.5 C44.3,0.5 42.2,0.6 40.7,0.6 L40.7,0.6 Z" id="Shape1" sketch:type="MSShapeGroup"></path>
            <path d="M63.3,11.9 C63.3,15.6 62.4,16.9 59.6,16.9 L56.7,16.9 C55.7,16.9 55.2,16.5 55.1,15.3 C55,14.5 55,12.7 55,10.7 L55.8,10.7 C57.9,10.7 58.5,11.5 58.5,13.5 L58.5,14.1 C59.5,14 60.5,14.1 60.5,14.1 C60.4,12.7 60.4,11.9 60.4,9.8 C60.4,7.8 60.5,7.2 60.5,5.6 C60.5,5.6 59.5,5.7 58.5,5.6 L58.5,6.3 C58.5,8.2 57.8,9 55.9,9 L55,9 C55,7.1 55,5.3 55.1,4.5 C55.2,3.5 55.6,3 56.7,3 L59.6,3 C62.1,3 63.2,3.7 63.2,7.4 L65.7,7.4 C65.7,5.4 65.7,2.3 65.9,0.3 C64.6,0.5 60.8,0.5 59.7,0.5 L52.8,0.5 C51.6,0.5 48,0.4 47.5,0.4 L47.5,3 L48.6,3 C49.6,3 50.1,3.4 50.2,4.7 C50.2,5.3 50.3,6.7 50.3,8.3 L48.7,9.9 L50.3,11.5 C50.3,13.1 50.3,14.6 50.2,15.1 C50.1,16.2 49.8,16.9 48.5,16.9 L47.5,16.9 L47.5,19.4 C47.7,19.4 51,19.3 52.7,19.3 L59.9,19.3 C61.3,19.3 64.2,19.3 65.8,19.4 C65.8,17 65.9,13.8 66.1,11.8 C65.5,12 63.7,12 63.3,11.9 L63.3,11.9 Z" id="Shape2" sketch:type="MSShapeGroup"></path>
            <path d="M87.8,13.8 C88.3,16 88.1,17.3 87.2,17.3 C86.5,17.3 86.1,16.8 85.7,14.3 C85.4,12.2 84.6,10.8 82.1,10.4 C84.9,10.1 86.8,8.2 86.8,5.6 C86.8,2.3 84.3,0.5 79.8,0.5 L74.2,0.5 C73.1,0.5 69.3,0.4 68.8,0.4 L68.8,3 L70,3 C71,3 71.3,3.4 71.4,4.5 C71.4,5 71.5,6.6 71.5,8.4 L70,9.9 L71.6,11.5 C71.6,13.2 71.6,14.7 71.5,15.2 C71.4,16.4 71,16.8 69.9,16.8 L68.9,16.8 L68.9,19.3 C68.9,19.3 72.1,19.2 74,19.2 C74.9,19.2 79,19.3 79,19.3 L79,16.8 L78,16.8 C77,16.8 76.5,16.3 76.4,15.2 C76.3,14.6 76.3,13 76.3,11.1 L77.2,11.1 C79.1,11.1 80.3,11.7 80.4,14.8 C80.6,18.1 81.5,20 85.2,20 C89.2,20 89.9,17 89.1,13.7 C89.1,13.8 88.1,13.8 87.8,13.8 L87.8,13.8 Z M77.9,9.3 L76.3,9.3 C76.3,7.1 76.4,4.8 76.4,4 C76.4,3.3 76.7,2.9 77.5,2.9 L78.4,2.9 C80.6,2.9 81.4,3.9 81.4,6.1 C81.4,8.3 80.5,9.3 77.9,9.3 L77.9,9.3 Z" id="Shape3" sketch:type="MSShapeGroup"></path>
            <path d="M106.5,11.4 C106.3,16.1 105.2,16.8 102.7,16.8 L101.2,16.8 C100.2,16.8 99.7,16.5 99.6,15.4 C99.6,14.7 99.5,13.2 99.5,11.5 L101.1,9.9 L99.5,8.3 C99.5,6.6 99.5,5.1 99.6,4.6 C99.7,3.4 100.1,3 101.2,3 L102.3,3 L102.3,0.5 C102,0.5 99,0.6 97.2,0.6 C95.4,0.6 92.1,0.5 92.1,0.5 L92.1,3 L93.3,3 C94.3,3 94.6,3.5 94.7,4.6 C94.7,5.1 94.8,6.6 94.8,8.3 L93.2,9.9 L94.8,11.5 C94.8,13.2 94.8,14.6 94.7,15.3 C94.6,16.4 94.4,16.9 93.2,16.9 L92.1,16.9 L92.1,19.4 C93.2,19.4 95.7,19.3 96.8,19.3 L103.1,19.3 C104.4,19.3 107,19.3 108.7,19.4 C108.6,17.5 108.7,13.3 108.8,11.4 C108.6,11.5 106.9,11.5 106.5,11.4 L106.5,11.4 Z" id="Shape4" sketch:type="MSShapeGroup"></path>
            <path d="M154.1,0.6 C152.6,0.6 150.1,0.5 149.8,0.5 L149.8,3 L151.2,3 C152.2,3 152.8,3.4 152.8,4.8 C152.9,6.2 152.9,10.1 152.8,12.3 C150.5,9 146.7,3.4 144.9,0.6 C143,0.7 139,0.7 137.1,0.6 C137.1,0.6 137.2,1.9 137.1,3.1 L138.3,3.1 C139.3,3.1 139.9,3.6 139.9,4.7 C139.9,5.2 140,6.7 140,8.4 L138.4,10 L140,11.6 C140,13.3 140,14.7 139.9,15.4 C139.8,16.4 139.4,17 138.1,17 L137,17 C137,17 137.1,18.3 137,19.5 C137,19.5 139.8,19.4 141.3,19.4 C142.9,19.4 145.6,19.5 145.6,19.5 C145.5,18.3 145.6,17 145.6,17 L144.2,17 C142.9,17 142.5,16.5 142.5,15.4 C142.4,14.1 142.4,9.3 142.4,6.2 C145.2,10.3 149.3,16.4 151.2,19.5 C152.2,19.4 154.3,19.4 155.2,19.5 C155.2,17.6 155.1,14.5 155.1,11.6 L156.7,10 L155.1,8.4 C155.1,6.7 155.1,5.3 155.2,4.8 C155.3,3.5 155.8,3 156.8,3 L158,3 L158,0.5 C158.4,0.5 155.7,0.6 154.1,0.6 L154.1,0.6 Z" id="Shape5" sketch:type="MSShapeGroup"></path>
            <path d="M131,14.5 C130.7,13.9 130.3,12.7 129.7,11.3 L130.6,9.3 L128.6,8.4 C127.4,5.3 126.1,2 125.5,0.3 C125.5,0.3 124,0.4 123.1,0.4 C122.2,0.4 120.7,0.3 120.7,0.3 C120.3,1.3 118.9,5 117.7,8.4 L115.7,9.3 L116.6,11.3 C116,12.9 115.5,14.1 115.4,14.4 C114.7,16.1 114.1,16.8 112.5,16.8 L111.8,16.8 L111.8,19.3 C111.8,19.3 114.6,19.2 116.1,19.2 C117.6,19.2 120.4,19.3 120.4,19.3 L120.4,16.8 L119.4,16.8 C117.9,16.8 117.6,16 118.2,14.2 C118.2,14.2 118.5,13.3 118.9,12.1 L120.1,13.4 L119.7,15.6 L121.7,14.6 L123.6,15.7 L123.3,13.5 L124.6,12.3 C125,13.4 125.3,14.2 125.3,14.2 C125.8,15.9 125.6,16.8 124.2,16.8 L123.1,16.8 L123.1,19.3 C123.1,19.3 126.7,19.2 128.7,19.2 C130.7,19.2 134.3,19.3 134.3,19.3 L134.3,16.8 L133.5,16.8 C132.4,16.9 131.8,16.4 131,14.5 L131,14.5 Z M122.7,11.6 L121.8,9.6 L120.8,11.6 L119.1,11.8 C120,9.3 121.2,5.7 121.8,4.4 C122.3,5.8 123.7,9.5 124.5,11.9 L122.7,11.6 L122.7,11.6 Z" id="Shape6" sketch:type="MSShapeGroup"></path>
            <path d="M182.6,9.9 L181,8.4 C180.5,3 177.8,0.5 171.7,0.5 L166.5,0.5 C164.7,0.5 161.6,0.4 161.2,0.4 L161.2,3 L162.3,3 C163.3,3 163.7,3.4 163.8,4.6 C163.8,5.2 163.9,6.7 163.9,8.4 L162.3,10 L163.9,11.6 C163.9,13.3 163.9,14.8 163.8,15.5 C163.7,16.7 163.4,17 162.1,17 L161.1,17 L161.1,19.5 C161.1,19.5 164.7,19.4 166.4,19.4 L171.7,19.4 C176.6,19.4 180.3,17.3 180.9,11.5 L182.6,9.9 L182.6,9.9 Z M171,16.9 L170,16.9 C169.3,16.9 168.9,16.5 168.8,15.7 C168.8,14.9 168.7,13.3 168.7,11.5 L170.3,9.9 L168.7,8.3 C168.7,6.4 168.7,4.7 168.8,4 C168.8,3.4 169.1,2.9 170,2.9 L170.9,2.9 C174.1,2.9 175.6,4.2 175.8,8.4 L174.3,9.9 L175.8,11.4 C175.6,15.8 174,16.9 171,16.9 L171,16.9 Z" id="Shape7" sketch:type="MSShapeGroup"></path>
        </g>
    </g>
</svg>