<?xml version="1.0" encoding="UTF-8" standalone="no"?>
<svg width="592px" height="179px" viewBox="0 0 592 179" version="1.1" xmlns="http://www.w3.org/2000/svg" xmlns:xlink="http://www.w3.org/1999/xlink" xmlns:sketch="http://www.bohemiancoding.com/sketch/ns">
    <!-- Generator: Sketch 3.3.2 (12043) - http://www.bohemiancoding.com/sketch -->
    <title>overland</title>
    <desc>Created with Sketch.</desc>
    <defs></defs>
    <g id="Page-1" stroke="none" stroke-width="1" fill="none" fill-rule="evenodd" sketch:type="MSPage">
        <g id="overland" sketch:type="MSLayerGroup">
            <path d="M485.4,115.7 L486.4,113.9 L487.2,115.8 L489.2,116.1 L487.7,117.5 L488,119.5 L486.2,118.5 L484.4,119.4 L484.8,117.4 L483.4,116 L485.4,115.7 Z" id="Shape" fill="#FFFFFF" sketch:type="MSShapeGroup"></path>
            <g id="Group" transform="translate(6.000000, 30.000000)" fill="#FFFFFF" sketch:type="MSShapeGroup">
                <g transform="translate(20.000000, 0.000000)" id="Shape">
                    <path d="M442.4,20.8 C442.6,21.5 442.9,22.3 443.1,23.2 C442.6,21.7 442.3,20.7 442.3,20.4 L442.4,20.8 L442.4,20.8 Z"></path>
                    <path d="M116.1,17.6 L116,17.1 L114.4,14.5 L114.6,15.5 C114.8,16.6 116.3,21.5 116.7,22.6 L117,23.5 L114.1,24.3 C110.5,25.4 108.9,26.7 108.4,32.4 C108.1,35.3 107.8,39.7 107.4,45.1 C107.9,45.5 108.4,46 108.9,46.3 C109.2,41.4 109.5,37.1 109.8,34.3 C110.4,28.4 112.1,26.9 115.9,25.8 L118.3,25.1 L118.1,24.7 C117.8,23.7 116.3,18.7 116.1,17.6 L116.1,17.6 Z"></path>
                    <path d="M59.4,40.7 C58.7,40.7 57.8,40.9 56.7,41.2 L54.1,42 L56.4,43.4 L58.5,42.8 C60.4,42.2 61.7,42.2 62.9,42.6 C61.9,41.3 60.8,40.7 59.4,40.7 L59.4,40.7 Z"></path>
                    <path d="M111.3,48.7 C111.3,48.7 108.1,51 107,52.8 C106.5,62.8 106.2,72.3 106.2,78.3 L106.2,79 L105.5,79.2 C103.1,79.8 93.6,82.6 91.2,83.4 L90.8,83.5 C90.6,83.6 90.5,83.6 90.5,83.6 L92.7,85 L93,84.9 C95.4,84.1 104.9,81.3 107.3,80.7 L107.6,80.6 L107.6,80.3 C107.6,73.9 107.9,64 108.4,54.6 C109.5,52.7 112.9,50.3 112.9,50.3 L111.8,48.2 L111.8,48.2 L111.8,48.2 L111.3,48.7 L111.3,48.7 Z"></path>
                    <path d="M76.6,61.9 C75.9,60.9 72.2,60.5 70,60.5 L69.3,60.5 L72,62 C72,62 74.9,62 77.1,62.6 C77,62.4 76.9,62.2 76.7,62 C76.7,62 76.6,62 76.6,61.9 L76.6,61.9 Z"></path>
                    <path d="M95.7,29.9 C95.3,29.9 94.7,30 94.1,30.2 L91.2,31.1 L93.6,32.5 L96,31.8 C96.7,31.6 97.2,31.5 97.7,31.5 C97.2,30.3 96.5,29.9 95.7,29.9 L95.7,29.9 Z"></path>
                    <path d="M86.3,31.5 L86.7,32.4 L83.3,33.4 C82.2,33.7 81.6,34.2 81.3,34.9 C80.9,36 81.3,37.7 82.6,40 C86,45.5 93.2,56.4 97.6,63.1 L97.6,63 C93.1,56.3 87.2,47.1 84.1,42.2 C82.7,39.8 82.3,37.9 82.8,36.7 C83.1,35.9 83.9,35.3 85.1,34.9 L87.9,34.1 L87.7,33.7 C87.3,32.6 85.8,27.6 85.6,26.5 L85.5,26 L83.9,23.4 L84.1,24.4 C84.4,25.5 85.9,30.4 86.3,31.5 L86.3,31.5 Z"></path>
                    <path d="M187.2,41.1 L185.6,38 L185.7,39.1 C186.1,45.5 187.5,55.4 188.5,61.8 L188.7,62.8 L187.7,62.9 C183.2,63.3 174.5,64.6 170.1,65.3 L148.6,68.7 C144.8,69.3 137.7,70.5 135.1,71 C134,71.2 133.3,71.3 133.2,71.3 L132.3,71.4 L132.2,71.4 L134.6,72.8 L135,72.7 C135.1,72.7 135.9,72.6 136.9,72.4 C140.1,71.8 146.7,70.7 150.4,70.1 L171.9,66.7 C176.3,66 185,64.7 189.5,64.3 L190,64.3 L189.9,63.8 C189,57.4 187.7,47.5 187.2,41.1 L187.2,41.1 Z"></path>
                    <path d="M129.6,21.5 C129.3,21.5 128.9,21.5 128.5,21.6 L124.3,22.3 L126.7,23.7 L130.4,23.1 C130.8,23 131.2,23 131.6,23 L132.2,23 C131.4,21.6 130.5,21.5 129.6,21.5 L129.6,21.5 Z"></path>
                    <path d="M167,26.9 C167.3,29.3 167.5,31.4 168.1,35.4 C169,41.2 169.6,43.7 170.4,47.6 L170.7,49.1 L169.7,49.2 C169.4,49.2 166.5,49.6 163.9,50.1 L162.9,50.3 L165.3,51.7 L165.7,51.6 C168.5,51 171.5,50.7 171.5,50.7 L172,50.6 L171.8,49.6 C170.9,45.7 170.4,43.2 169.5,37.4 C168.9,33.4 168.6,31.3 168.4,28.9 C168.3,27.7 168.1,26.4 167.9,24.8 L166.3,21.8 L166.4,22.7 C166.7,24.4 166.9,25.7 167,26.9 L167,26.9 Z"></path>
                    <path d="M156.6,40.9 C155.9,40.9 155,41 154.1,41.1 L152.5,41.4 C153.5,47.4 154.3,52.2 154.8,54 C155.2,55.9 155.8,56.8 156.6,57.2 C156.5,56.9 156.4,56.5 156.3,56.1 C155.8,54.2 154.9,49.2 153.9,42.9 L156,42.6 C157,42.4 157.8,42.4 158.6,42.4 C159.5,42.4 160.2,42.5 160.9,42.7 C159.9,41.4 158.6,40.9 156.6,40.9 L156.6,40.9 Z"></path>
                    <path d="M182.8,25.7 L183,26.6 L173.6,28.1 L176,29.5 L184.4,28.2 L184.3,27.8 C183.3,22.1 182,12.7 181.4,6.5 L181.4,6 L179.8,3.4 L179.9,4.5 C180.4,10.7 181.8,20 182.8,25.7 L182.8,25.7 Z"></path>
                    <path d="M164.9,16.1 C163.9,16.1 162.8,16.2 161.5,16.4 L152.7,17.8 C150.2,18.2 149.3,19.5 149.5,22.1 C149.7,24.2 150.3,28.9 151.2,34.5 L152.4,34.3 C151.7,29.7 151.2,26 151,24.1 C150.7,21.2 151.8,19.7 154.6,19.2 L163.4,17.8 C164.8,17.6 165.9,17.5 166.9,17.5 C168.1,17.5 169.1,17.6 170.1,18 C168.8,16.6 167,16.1 164.9,16.1 L164.9,16.1 Z"></path>
                    <path d="M261.1,41.7 L259.5,39.1 C259.5,39.1 259.5,39.1 259.5,39.2 L259.7,40 C261,44.7 262,51.2 258.7,55.8 C256.5,58.8 252.9,60.5 247.9,60.8 L246.3,60.8 L246.3,60.8 C243.1,60.8 240.6,60.2 238.6,59.2 C241,61.4 244.5,62.5 249.8,62.2 C254.6,62 258.1,60.4 260.2,57.4 C263.4,52.9 262.5,46.6 261.2,42 L261.1,41.7 L261.1,41.7 Z"></path>
                    <path d="M225.6,9.8 L224.6,9.8 L221.8,9.9 C220.2,10 219.6,10.6 219.6,12.4 C219.6,12.7 219.7,19.8 220.1,27.6 L221.5,27.5 C221.2,20.8 221.1,15.1 221.1,14.4 C221.1,12.3 221.8,11.5 223.8,11.4 L226.6,11.3 L227.6,11.3 C229.1,11.3 230.3,11.5 231.3,11.9 C230.1,10.4 228.2,9.8 225.6,9.8 L225.6,9.8 Z"></path>
                    <path d="M199.3,11.5 L194.8,11.7 L197.1,13.2 L201.3,13 L202.4,13 C201.8,11.6 200.9,11.4 199.3,11.5 L199.3,11.5 Z"></path>
                    <path d="M222.2,35.1 L220.5,35.2 C220.8,40.8 221.1,45.2 221.3,46.7 C221.6,48.8 222.2,49.8 223.1,50.3 C223,49.8 222.8,49.3 222.8,48.8 C222.6,47.2 222.2,42.7 221.9,36.8 L224.1,36.7 C226,36.6 227.7,36.7 229,37.2 C227.5,35.2 225.2,34.9 222.2,35.1 L222.2,35.1 Z"></path>
                    <path d="M240.8,31.1 C241.7,31.4 242.6,31.9 243.3,32.4 C249.5,29.9 253.2,24.6 252.8,17.9 C252.6,14.3 251.5,11.4 249.5,9 C250.6,11 251.2,13.2 251.3,15.8 C251.8,23 247.8,28.7 240.8,31.1 L240.8,31.1 Z"></path>
                    <path d="M252.3,50.4 C251.8,49.1 251.3,47.2 250.8,44.5 C250.2,41.2 249.1,38.7 247.4,36.8 C248.2,38.4 248.9,40.2 249.3,42.4 C250.4,48.3 251.4,49.9 252.3,50.4 L252.3,50.4 Z"></path>
                    <path d="M228.7,59.9 C228.6,59.9 216.1,60.4 213.5,60.5 C208.5,60.8 199.9,61.3 198.3,61.4 L197.5,61.5 L197.3,61.5 L199.8,63 L200.2,63 C200.3,63 210,62.3 215.5,62.1 C218.1,62 230.6,61.5 230.7,61.5 L231.1,61.5 L230.7,53 L229.2,50.5 L229.2,50.7 L229.7,60 L228.7,59.9 L228.7,59.9 Z"></path>
                    <path d="M201.4,35.2 C201.4,35.2 201.7,35.4 202.1,35.6 C201.9,35.5 201.7,35.3 201.4,35.2 L201.4,35.2 L201.4,35.2 Z"></path>
                    <path d="M273.6,8.8 L269.1,8.7 L271.6,10.2 L275.6,10.3 C275.9,10.3 276.1,10.3 276.4,10.4 C275.9,9.2 274.9,8.9 273.6,8.8 L273.6,8.8 Z"></path>
                    <path d="M320.9,35.1 C320.4,40.8 319.7,53.4 319.7,59.4 L319.7,60.4 L318.7,60.3 C313.6,59.8 305.7,59.6 301.9,59.4 L282.7,58.8 C279.3,58.7 271.8,58.5 268.4,58.5 L267.5,58.5 L270,60 L270.4,60 C273.7,60 281.2,60.2 284.7,60.3 L303.8,60.9 C307.6,61 315.6,61.3 320.7,61.8 L321.2,61.8 L321.2,61.3 C321.2,55.3 321.9,42.7 322.4,37 L322.4,36.5 L320.9,34 L320.9,35.1 L320.9,35.1 Z"></path>
                    <path d="M292.6,35.2 C292.5,40.5 292.4,44.5 292.4,46.3 C292.4,48.2 292.9,49.1 294,49.5 C293.9,49.1 293.9,48.7 293.9,48.3 C293.9,46.3 294,42 294.1,37.1 C294.4,35.2 299.3,32.3 299.3,32.3 L298.2,30.3 L297.5,30.7 C295.8,31.8 292.9,34 292.6,35.2 L292.6,35.2 Z"></path>
                    <path d="M302,8.8 L302,9.7 L297.7,9.6 L297.3,9.6 C294.8,9.6 293.8,10.6 293.6,13.5 C293.5,15.1 293.3,19.4 293.1,25.3 C293.2,25.9 293.8,26.6 294.6,27.4 L294.6,27.4 C294.8,22 295,17.3 295.2,15.5 C295.5,12.2 296.7,11 299.9,11.2 L303.7,11.3 L303.7,10.9 C303.8,9 303.9,4.4 304,3.4 L304,2.9 L302.5,0.4 L302.4,1.4 C302.2,2.4 302.1,7.3 302,8.8 L302,8.8 Z"></path>
                    <path d="M355.2,55.2 C355.1,55.8 354.9,57.4 354.7,59 L354.6,59.4 C354.4,60.9 354.2,62.4 354.1,62.9 L354,63.8 L353.1,63.7 C353,63.7 344.7,62.4 340.1,61.8 C335.5,61.2 327.1,60.2 327,60.2 L326.5,60.1 L326.1,60.1 L328.7,61.7 L329.1,61.7 C329.2,61.7 337.6,62.7 342.2,63.3 C346.8,63.9 355.2,65.2 355.2,65.2 L355.6,65.3 L355.7,64.9 C355.8,64.3 356,62.7 356.2,61.1 C356.4,59.5 356.7,57.9 356.7,57.3 L356.8,56.9 L355.4,54.5 L355.4,54.5 L355.4,54.5 L355.2,55.2 L355.2,55.2 Z"></path>
                    <path d="M386,44.5 C386.8,47.8 387.5,50.3 387.9,51.9 C388.9,55.4 389.8,57.2 390.9,58.2 C390.4,57.1 389.9,55.8 389.4,54 C389,52.4 388.3,49.7 387.4,46.4 C388.4,44.4 391.1,41.9 391.1,41.9 L390,39.7 L389.4,40.2 C389.5,40.3 387,42.6 386,44.5 L386,44.5 Z"></path>
                    <path d="M377,7.2 C378.1,12.3 380.6,22.9 383.7,35.6 L383.8,35.7 C383.9,36.1 384.4,36.7 385.1,37.2 C382.6,27 379.7,15.2 378.5,9.3 L378.5,9.2 C378.4,9 377.3,7.3 376.8,6.7 L377,6.9 L377,7.2 L377,7.2 Z"></path>
                    <path d="M376.6,6.6 L376.6,6.6 L376.6,6.6 L376.6,6.6 Z"></path>
                    <path d="M361.3,32.9 L361.3,33.2 L363.4,39.4 L364.3,39.7 L363.1,36 L361.3,32.9 Z"></path>
                    <path d="M349.3,46.9 C348.1,49.5 347.8,51.3 348.3,52.4 C348.5,52.8 349,53.2 349.6,53.4 C349.5,52.2 350,50.7 350.9,48.7 C350.9,48.7 352.1,46.3 353.8,43 L352.3,41.2 L349.3,46.9 L349.3,46.9 Z"></path>
                    <path d="M352.5,50.8 L352.6,50.7 L352.5,50.8 L355.3,51.9 L361.1,49.9 L359.1,48.4 L352.5,50.8 Z"></path>
                    <path d="M364.5,45.5 L364.7,52.4 L366.2,53.4 L366,47.3 L368.1,45.7 L367.6,43.3 L364.5,45.5 Z"></path>
                    <path d="M362.7,20.7 C361,24 357,31.8 353.6,38.5 L356,38.6 C358.6,33.5 361.6,27.6 363.5,24 C363.1,22.7 362.9,21.6 362.7,20.7 L362.7,20.7 Z"></path>
                    <path d="M397.1,59.9 L395.8,69.4 L394.9,69.3 C393,69 383.6,67.6 378.1,66.9 C372.1,66.1 361.6,64.9 361.2,64.8 L360.3,64.7 L362.9,66.3 L363.3,66.4 C363.4,66.4 374.2,67.7 380.3,68.5 C386.3,69.3 397,70.9 397.1,70.9 L397.5,71 L398.6,62.5 L397.1,59.9 L397.1,59.9 Z"></path>
                    <path d="M64.8,61 C64.8,61 64.7,61 64.8,61 L64.3,61.6 C63,63.4 61.2,66.6 61.6,67.7 L61.6,67.9 C68.3,89.7 59.7,107.5 38,116.7 C30.7,119.8 23.9,121.3 17.9,121.3 L17.9,121.3 C11.7,121.3 6.1,119.7 1.1,116.5 C11.3,124.4 24.3,124.8 39.8,118.2 C59.6,109.9 70.3,93.4 63.1,70 C63.1,70 63.1,70 63.1,69.9 C62.5,68.1 65.9,63.3 65.9,63.3 L64.8,61 L64.8,61 Z"></path>
                    <path d="M12.6,84.5 L11.4,82.1 L11,82.7 C10.2,83.9 8.2,87.2 8.3,88.6 C10.6,93.7 12.8,97.7 15,100.6 C13.3,97.9 11.6,94.7 9.8,90.8 C9.6,89 12.6,84.5 12.6,84.5 L12.6,84.5 Z"></path>
                    <path d="M9.6,49.3 C-0.6,53.6 -2,62.4 4.6,79.9 C4.8,80.1 5.2,80.3 5.6,80.5 C-0.4,63.9 1.3,55.1 11.4,50.8 C16.5,48.7 20.7,48.5 24.5,50.7 C22,48.6 19.4,47.6 16.6,47.6 C14.5,47.7 12.2,48.2 9.6,49.3 L9.6,49.3 Z"></path>
                    <path d="M58.7,59.1 C57.2,56 55.5,53.3 53.8,50.9 C55.3,53.2 56.7,55.8 58,58.6 C58.1,58.7 58.4,58.9 58.7,59.1 L58.7,59.1 Z"></path>
                    <path d="M492.4,36.6 L487.6,34.8 L490.2,36.5 L494.6,38.2 C494.9,38.3 495.1,38.4 495.3,38.5 C494.7,37.6 493.7,37 492.4,36.6 L492.4,36.6 Z"></path>
                    <path d="M561.5,92.6 L560.8,92.8 C560.8,92.8 556.6,93.7 555.1,95 C548.2,110.8 537.6,118.8 523.4,118.8 C517.9,118.8 511.9,117.6 505.6,115.2 C505.5,115.1 491.4,109.8 484.6,107.2 C478,104.7 464,99.7 463.8,99.7 L463.3,99.5 L465.9,101.2 C465.9,101.2 480,106.2 486.7,108.7 C493.6,111.3 507.7,116.7 507.7,116.7 C527.7,124.2 546.2,121 556.7,96.6 C558.3,95.2 562.8,94.2 562.8,94.2 C562.8,94.2 562.2,93.6 561.5,92.6 L561.5,92.6 Z"></path>
                    <path d="M558.2,86.4 C558.4,88 560.4,90.9 561.1,91.9 L561.4,92.3 C560.6,91 559.8,89.5 559.7,88.3 C563.8,74.6 563,64.1 556.3,55.8 C561.5,63.9 562,73.8 558.2,86.4 L558.2,86.4 Z"></path>
                    <path d="M501.3,97.7 C502.5,94.2 505.3,86.3 508.4,78 C508.4,78 508.4,78 508.5,77.9 C509.2,76.2 515,74.9 515,74.9 C515,74.9 514.5,74.2 513.8,73.2 L513.1,73.4 C511,73.9 507.4,75 506.9,76.1 L506.8,76.2 C503.6,85 500.9,92.5 499.8,95.8 C499,98.1 499.5,99.9 501.1,101 C500.8,100.1 500.9,98.9 501.3,97.7 L501.3,97.7 Z"></path>
                    <path d="M522.5,47.7 C519.8,46.7 518,47.4 516.9,49.9 C515.7,52.6 513.4,58.4 510.4,66.5 L510.4,66.5 C510,67.7 512,70.8 513.3,72.6 L513.6,72.9 C512.7,71.4 511.7,69.4 512,68.4 L512,68.4 C514.7,61.1 517.3,54.7 518.5,51.7 C519.5,49.5 521.3,47.9 524.7,49.2 L528.4,50.6 C530.7,51.4 532.6,52.4 534.3,53.4 C532.3,51.7 529.6,50.3 526.2,49 L522.5,47.7 L522.5,47.7 Z"></path>
                    <path d="M443.1,23.2 C446,32.7 451.1,48.2 454.6,58.6 C454.7,58.2 454.8,57.8 455,57.3 C451.2,46 446.3,31 443.9,22.9 L442.2,20.2 L442.2,20.3 C442.3,20.7 442.6,21.7 443.1,23.2 L443.1,23.2 Z"></path>
                    <path d="M457.3,34.4 L452.3,33 L454.8,34.6 L459.4,35.9 C459.5,35.9 459.7,36 459.8,36 C459.4,35.2 458.5,34.7 457.3,34.4 L457.3,34.4 Z"></path>
                    <path d="M419.9,23.8 L415.6,22.6 L418.2,24.3 L422.1,25.4 C422.2,25.4 422.3,25.5 422.4,25.5 C421.8,24.6 421,24.1 419.9,23.8 L419.9,23.8 Z"></path>
                    <path d="M423.6,62.6 C423.1,64.8 423.4,66 424.9,66.9 C424.8,66.2 424.9,65.5 425.1,64.5 C425.8,61.4 428.8,50.7 431.3,41.9 C430.9,40.8 430.6,39.6 430.2,38.6 C427.6,47.7 424.4,59.4 423.6,62.6 L423.6,62.6 Z"></path>
                    <path d="M429.2,77.2 L429,78.2 L427.8,77.8 C424.7,76.9 419,75.1 415.5,74.1 C411.1,72.9 403.6,70.9 402.8,70.7 L402.3,70.6 C402,70.5 401.8,70.5 401.8,70.5 L404.4,72.1 L404.8,72.2 C404.9,72.2 413,74.3 417.5,75.6 C422,76.9 430,79.3 430.1,79.3 L430.5,79.4 L430.6,79 C431.4,75.4 432.7,71.7 432.7,71.6 L432.8,71.2 L431.4,68.9 L431.1,69.8 C431.1,70.5 430,73.9 429.2,77.2 L429.2,77.2 Z"></path>
                    <path d="M481.4,32.5 C481,33.6 479.6,38.5 479.4,39.6 L479.2,40.6 L474.7,39.3 C474.1,39.1 473.6,39 473.1,39 C471.5,39 470.5,40 469.6,42.4 C469.1,43.7 468,47.4 466.5,52.7 C466.5,53.8 467.8,55.7 468.9,57.1 C468.4,56.2 468,55.3 468,54.7 C469.4,49.7 470.6,45.8 471.1,44.3 C472,41.7 473.2,40.5 475,40.5 C475.5,40.5 476.1,40.6 476.7,40.8 L480.7,41.9 L480.8,41.4 C481,40.3 482.5,35.3 482.8,34.2 L482.8,34.1 C482.8,33.8 481.8,32.2 481.2,31.6 C481.3,31.7 481.3,31.9 481.3,32.1 L481.4,32.5 L481.4,32.5 Z"></path>
                    <path d="M465.4,64.2 C466,62.4 471.6,60.7 471.6,60.7 L470.5,58.9 L469.7,59.1 C467.6,59.7 464.2,61.2 463.8,62.3 L463.7,62.4 C461.1,71.6 458.8,80.1 457.5,85 L457.2,86 L456.2,85.7 C453.5,84.8 447.4,83 444.6,82.4 L444.1,82.3 L446.5,83.9 L446.7,84 C449.5,84.6 455.6,86.4 458.4,87.3 L458.8,87.5 L458.9,87 C460.5,81.7 462.9,72.7 465.4,64.2 C465.3,64.3 465.3,64.2 465.4,64.2 L465.4,64.2 Z"></path>
                    <path d="M259.9,46.8 C259.9,48 259.8,49.2 259.7,50.4 C259.9,49.2 260,48 259.9,46.8 L259.9,46.8 Z"></path>
                </g>
                <g id="Shape">
                    <path d="M131,16.6 L131,16.6 C128.5,17.4 124.9,18.6 122,19.4 C118.1,20.6 110.7,22.5 109.8,22.7 C110,23.2 111.1,26.5 111.9,29.8 L113.8,29.2 C114.5,29 115.2,28.9 115.7,28.9 C118.4,28.9 119.1,31.5 119.3,35.3 C119.6,42.2 118.9,57.5 118.5,64.6 L118.4,66.1 L117.6,64.9 C113.2,58.4 105.3,46.4 101.7,40.5 C100.3,37.9 99.8,35.9 100.4,34.5 C100.8,33.5 101.7,32.9 103.1,32.4 L105.4,31.7 C105,30.5 103.6,25.8 103.3,24.6 C102.9,24.7 101.9,25 100.5,25.5 L100.1,25.6 C96.8,26.7 91.7,28.2 88.1,29.3 C83.1,30.8 74.1,33.2 72.9,33.5 C73.1,34 74.2,37.3 75,40.6 L76.6,40.1 C77.8,39.8 78.7,39.6 79.6,39.6 C82.1,39.6 83.6,41 85.8,44 C87.3,46 89.6,49.3 92.4,53.6 L92.5,53.7 L92.5,53.8 C92.6,55.5 91.5,58.2 90.9,59.5 C92.6,59.6 96.4,59.9 97.5,61.3 L97.6,61.4 C103.1,69.7 108.3,77.7 111.1,82.3 C113.6,81.5 122.9,78.8 125.3,78.1 C125.3,72 125.6,62.5 126.1,52.5 L126.1,52.4 L126.2,52.3 C127,50.8 129.1,49.1 130.2,48.3 C129.3,47.8 127.8,46.8 126.7,45.7 L126.5,45.5 L126.5,45.3 C126.8,39.7 127.2,35.2 127.5,32.3 C128.1,26.1 130,24.5 133.9,23.4 L135.7,22.9 C135.3,21.7 133.9,17 133.6,15.8 C133.1,15.9 132.2,16.2 131,16.6 L131,16.6 Z"></path>
                    <path d="M196.8,40.5 C197.7,46.2 197.5,49.9 196.2,52.4 C194.9,55 192.3,56.4 188,57.1 L179.4,58.5 C178.9,58.6 178.5,58.6 178.1,58.6 C175.7,58.6 174.4,57.3 173.7,54.3 C173.2,52.4 172.3,47.3 171.3,41.1 L171.2,40.6 L173.8,40.2 C174.8,40 175.7,40 176.5,40 C180.6,40 182.5,42 183.4,47.4 L183.7,49.2 C186.2,48.7 188.8,48.4 189.5,48.3 L189.4,47.9 C188.5,44.1 188,41.5 187.1,35.7 C186.5,31.8 186.2,29.7 186,27.2 C185.9,26 185.7,24.7 185.5,23.1 C185.1,23.2 182.3,23.8 179.6,24 L179.9,26.1 C180.8,31.9 179,34.5 173.2,35.4 L170.4,35.8 L170.3,35.3 C169.4,29.4 168.7,24.5 168.5,22.3 C168.2,19.1 169.4,17.4 172.5,16.9 L181.3,15.5 C182.7,15.3 183.9,15.2 184.9,15.2 C190.4,15.2 192.9,18.4 194.3,27.1 L201.7,25.9 C200.7,20.2 199.4,10.9 198.8,4.7 C195.3,5.7 185.2,7.5 180.3,8.2 L159.6,11.5 C157.2,11.9 151.7,12.7 148.4,13.2 C146.3,13.5 144.5,13.8 144,13.9 L145.2,21.2 L148.4,20.7 C148.9,20.6 149.3,20.6 149.7,20.6 C152,20.6 153.3,21.9 154,25.2 C154.4,27.1 155.3,32.3 156.3,38.6 L156.3,38.7 L156.3,38.8 C156,40.5 153.6,42.9 152.5,44 C154,44.7 157.4,46.5 157.8,48.2 C158.2,51.2 158.8,54.9 158.9,56.5 C159.2,59.7 158.6,62 154.7,62.6 L151.9,63 L153.1,70.5 C153.3,70.5 154,70.3 154.9,70.2 C157.6,69.7 164.6,68.5 168.4,67.9 L189.9,64.5 C194.3,63.8 202.9,62.5 207.5,62.1 C206.5,55.6 205.1,45.9 204.7,39.4 C203.4,39.5 198.2,40.3 196.8,40.5 L196.8,40.5 Z"></path>
                    <path d="M278.8,40.3 C278.2,40.4 275.6,40.8 274.8,40.8 C275.6,43.6 276.6,48.6 275.1,50.7 C274.7,51.3 274.1,51.6 273.4,51.6 L273.2,51.6 C270.8,51.6 269.6,49.4 268.3,42.6 C267.1,36.4 264.3,33 259.1,31.7 L257.2,31.2 L259.1,30.7 C266.5,28.8 270.9,23.1 270.5,16 C270,6.8 263.1,1.7 250.9,1.7 C250.1,1.7 249.3,1.7 248.5,1.8 C245.3,2 241.6,2.2 238.3,2.4 C235.6,2.6 233.2,2.7 231.5,2.8 C229.6,2.9 224.9,3.1 220.3,3.3 C217.9,3.4 215.9,3.5 215.3,3.5 L215.7,10.9 L219.4,10.7 L219.9,10.7 C222.8,10.7 223.5,12.4 223.9,15 C224.1,16.6 224.4,21.6 224.8,28.3 L224.8,28.4 L224.8,28.5 C224.5,30.2 221.7,32.5 220.4,33.5 C221.9,34.4 225.1,36.6 225.3,38.3 C225.5,43.2 225.6,46.6 225.6,47.9 C225.5,51.5 224.2,52.9 220.8,53.1 L217.9,53.2 L218.3,60.8 C220.2,60.7 228.6,60.1 233.5,59.9 C236,59.8 247.7,59.3 248.7,59.3 L248.3,51.8 L245.5,51.9 C242.5,52.1 241,50.6 240.5,47.1 C240.3,45.5 239.9,40.9 239.6,35 L239.6,34.5 L242.3,34.4 C248,34.1 251.7,35.4 252.7,45.2 C253.8,55.1 256.6,60.6 268,60.1 C272.7,59.9 276,58.3 278,55.5 C279,54.1 279.6,52.4 279.9,50.7 C280,49.5 280.1,48.3 280.1,47.1 C279.8,44.5 279.4,42.2 278.8,40.3 L278.8,40.3 Z M252,25.8 C250.4,27.4 248,28.2 244,28.5 L239.1,28.7 L239.1,28.2 C238.7,20.3 238.6,13.2 238.6,12.5 C238.6,10.2 239.5,9.1 241.7,8.9 L244.5,8.8 C251,8.5 253.7,11.1 254,18 C254.2,21.7 253.6,24.2 252,25.8 L252,25.8 Z"></path>
                    <path d="M332.6,34.8 C331.6,49.1 327.8,51.2 320.6,50.9 L316.1,50.8 C313.3,50.7 311.5,49.9 311.4,46.3 C311.4,44.5 311.4,40.5 311.6,35.1 L311.6,35 C311.9,33.3 315,31.2 316.4,30.3 C315.1,29.3 312.2,27.1 311.9,25.4 L311.9,25.3 L311.9,25.2 C312.1,19.3 312.3,14.9 312.5,13.3 C312.8,9.7 314.3,8.4 317.7,8.5 L321,8.6 C321.1,6.7 321.2,2.4 321.3,1.2 L319,1.2 C315.8,1.2 309.9,1.1 305.9,1 C300.7,0.8 291.3,0.3 290.4,0.3 L290.2,7.7 L293.7,7.8 C296.5,7.9 297.8,9.4 297.9,12.9 C297.9,14.5 297.9,18.9 297.7,25 C297.4,26.7 294.3,28.9 292.9,29.8 C294.2,30.7 297,32.9 297.4,34.6 L297.4,34.7 L297.4,34.8 C297.2,39.9 297,43.7 296.9,45.4 C296.6,48.8 295.9,50.2 292,50.1 L288.7,50 L288.5,57.6 C291.9,57.6 299.3,57.8 302.8,57.9 L321.9,58.5 C325.8,58.6 333.7,58.9 338.8,59.4 C338.8,53.4 339.5,40.9 340,35.2 C338.7,35.1 333.8,35 332.6,34.8 L332.6,34.8 Z"></path>
                    <path d="M380.9,35.1 L377.9,39.6 L372.4,39.7 L375.8,43.9 L374.1,49.1 L379.2,47.3 L383.7,50.4 L383.5,45 L387.8,41.8 L382.6,40.3 L380.9,35.1 Z"></path>
                    <path d="M413.5,60.4 C410.6,60 408.7,58.6 406.9,52.2 C406.5,50.6 405.8,47.9 404.9,44.6 L404.9,44.4 L405,44.2 C405.8,42.7 407.4,40.9 408.3,40.1 C406.8,39.4 403.3,37.7 402.8,36 L402.8,35.9 C399.6,23.2 397.1,12.6 396.1,7.4 L396,7.4 C392.9,7.1 390.4,6.9 388.8,6.7 C386.4,6.4 382.1,5.6 381.6,5.5 C380.1,8.4 373.5,20.7 367.8,31.5 L367.7,31.6 C366.5,32.8 363.2,33.5 361.7,33.8 C362.3,34.9 363.5,37 363.8,38.6 L363.8,38.8 L363.7,39 C361.5,43.1 360.3,45.3 360,45.9 C357.4,50.5 355.3,52.1 351.9,52.1 C351.4,52.1 350.8,52.1 350.2,52 L348.1,51.7 L347.1,59.2 C347.9,59.3 355.7,60.2 360.1,60.8 C364.5,61.4 372.2,62.6 373.1,62.7 C373.2,62.1 373.4,60.7 373.6,59.2 L373.7,58.8 C373.9,57.3 374.1,55.7 374.2,55.1 L371.1,54.7 C369.2,54.4 368,53.8 367.4,52.8 C366.7,51.4 367,49.4 368.4,46.4 L372.1,39.2 L372.2,38.9 C376.2,31 381.2,21.2 382.4,19 L383,17.8 L383.3,19.1 C383.9,21.7 386.3,32.4 388.1,41 L388.3,41.8 L389.9,49 C390.4,52.4 390.2,54.4 389.3,55.6 C388.5,56.5 387.3,56.8 385.6,56.6 L382.4,56.2 C382.3,57.1 382,59.6 381.6,62.3 C381.5,62.9 381.4,63.4 381.4,63.8 C382.4,63.9 392.5,65.1 398.3,65.9 C403.8,66.6 413.2,68 415.1,68.3 L416.1,60.8 L413.5,60.4 L413.5,60.4 Z"></path>
                    <path d="M77.1,59.1 L77.1,59.1 C69.5,42.9 59.1,35 45.4,35 C39.4,35 32.7,36.5 25.5,39.6 C2.9,49.1 -5.1,67.8 3.7,91 L3.7,91.2 C3.7,92.9 2.2,95.7 1.4,96.9 C2.8,97.1 5.7,97.7 7,98.8 L7.1,98.9 L7.2,99 C14.6,113.2 24.9,120.4 37.7,120.4 L37.7,120.4 C43.6,120.4 50.3,118.9 57.4,115.9 C78.6,107 87,89.6 80.5,68.3 L80.5,68.2 C80,66.6 82,63.3 83,61.9 C81.5,61.3 78.2,60.4 77.1,59.1 L77.1,59.1 Z M53.8,106.9 C51,108.1 48.6,108.6 46.3,108.6 C39.2,108.6 33.7,102.9 27.3,89.1 L27.3,89 C27.1,87.3 28.8,84.3 29.7,82.9 C28.2,82.6 24.9,81.8 23.8,80.5 L23.7,80.3 C16.9,62.4 18.5,52.8 29.2,48.3 C31.9,47.1 34.4,46.6 36.6,46.6 C43.9,46.6 49.4,52.3 55.8,66.2 L55.8,66.3 C56,68 54.3,71 53.4,72.4 C54.9,72.7 58.1,73.4 59.3,74.7 L59.4,74.8 L59.4,74.9 C66.5,93.3 64.9,102.2 53.8,106.9 L53.8,106.9 Z"></path>
                    <path d="M552.9,40.6 C552.2,40.3 550.3,39.6 547.7,38.7 C543,37 536.7,34.7 532.4,33.1 C527.8,31.4 520.8,28.6 516.1,26.8 C514.3,26.1 512.8,25.5 512,25.2 L508.7,34.1 L512.7,35.6 C516.9,37.2 518,39.8 516.6,44.6 C515.9,46.8 513.8,52.7 510.8,60.7 L510.8,60.8 C509.9,62.2 506.4,63.3 504.8,63.7 C505.7,65 507.6,67.9 507.5,69.7 L507.5,69.8 C504.3,78.3 501.7,84.9 500.6,87.5 C499.4,90.3 498.1,92.1 495.5,92.1 C494.4,92.1 493.1,91.8 491.2,91.1 L487.9,89.9 L484.5,99 C487,99.9 498.9,104.1 504.8,106.4 C511.6,109 525.7,114.3 525.8,114.4 C532.1,116.7 537.9,117.9 543.3,117.9 C557.1,117.9 567.5,110 574.2,94.6 L574.2,94.5 L574.3,94.4 C575.6,93.3 578.5,92.4 579.8,92.1 C579,90.9 577.2,88.3 577.1,86.5 L577.1,86.4 L577.1,86.3 C584.2,63.3 576.9,49.6 552.9,40.6 L552.9,40.6 Z M558.2,77.3 L558.1,77.5 C557.1,78.8 553.8,79.8 552.2,80.2 C553.2,81.6 555.3,84.8 554.8,86.5 L554.8,86.7 C549.2,100.3 543.3,106.1 535.2,106.1 C532.4,106.1 529.2,105.4 525.5,104 L521.9,102.7 C518.8,101.5 517.6,98.9 518.7,95.6 C519.8,92.2 522.5,84.7 525.8,75.9 L525.9,75.7 C526.6,74.2 530.3,73.1 532,72.7 C531,71.3 529,68.2 529.4,66.5 L529.4,66.5 L529.4,66.4 C532.5,58.3 534.8,52.3 536,49.7 C537.3,46.7 539.6,45.8 542.8,47 L546.5,48.4 C560,53.2 563.2,61.1 558.2,77.3 L558.2,77.3 Z"></path>
                    <path d="M487.9,28.9 C484.7,28 480.2,26.6 477.5,25.7 C476.5,25.4 475.8,25.2 475.5,25.1 C475.2,26.3 473.9,31 473.5,32.2 L477.6,33.4 C479.9,34 482,35.3 480.9,39.9 C479.9,43.9 477,54.4 475.2,60.4 L474.8,61.9 L474.3,60.4 C470.4,49.1 464.4,30.6 461.5,21.1 C456,19.7 444.2,16.4 438.9,14.7 C438.7,15.5 437.9,18.8 436.9,21.8 L440.3,22.8 C443.3,23.7 444.5,25.7 443.8,28.9 C443.5,30.5 442.2,35.2 440.4,41.6 L440.3,41.8 C439.3,43.2 436.2,44.4 434.7,44.8 C435.7,46 437.8,48.8 437.8,50.6 L437.8,50.7 C436.5,55.2 435.4,58.6 434.9,60.1 C434,62.6 432.8,63.7 430.7,63.7 C430,63.7 429.3,63.6 428.4,63.3 L425.3,62.4 C425.1,63 424.3,66.4 423.2,69.7 C424.3,70 431.6,71.9 435.9,73.1 C439.5,74.1 445.2,75.8 448.3,76.8 L448.4,76.8 C449.2,73.6 450.2,70.3 450.5,69.5 L446.6,68.4 C443.1,67.4 442.1,65.7 442.8,62.3 C443.6,58.9 447.2,45.9 449.9,36.7 L450.3,35.2 L450.8,36.7 C455.4,50.6 461.9,70.7 465.1,81.4 C467.9,82 474,83.7 476.7,84.7 C478,79.8 480.3,71.3 482.9,62 L483,61.9 C483.6,60.3 487.1,59 488.8,58.4 C487.8,57.2 485.6,54.4 485.6,52.6 L485.6,52.5 C487.1,47.2 488.3,43.5 488.7,42.1 C489.7,39.3 491.1,38 493.1,38 C493.7,38 494.3,38.1 494.9,38.3 L498.3,39.3 C498.6,38.1 499.9,33.4 500.3,32.2 C500.2,32.2 499.9,32.1 499.7,32 C497.8,31.5 491.7,30 487.9,28.9 L487.9,28.9 Z"></path>
                </g>
            </g>
            <g id="Group" transform="translate(144.000000, 135.000000)" fill="#FFFFFF" sketch:type="MSShapeGroup">
                <path d="M14.7,0.7 L16.1,0.7 C15.9,1.9 15.6,4.8 15.7,6.8 L14.1,6.8 C13.6,4.1 12.9,1.8 9.1,1.8 C5.7,1.8 4.2,4.1 4.2,9.2 C4.2,15.2 6.2,16.6 8.9,16.6 C12.3,16.6 14.1,14.3 14.3,11 L16,11 C15.7,15.5 13.8,17.9 8.9,17.9 C4,17.9 0.8,15.4 0.8,9.1 C0.8,2.9 4.4,0.4 8.9,0.4 C11.2,0.4 12.3,1.1 12.9,1.4 C14.3,2.2 14.5,2 14.7,0.7 L14.7,0.7 Z" id="Shape"></path>
                <path d="M18.6,9.2 C18.6,3.6 22,0.5 26.6,0.5 C31.9,0.5 34.6,3.6 34.6,9.2 C34.6,14.8 31.2,18 26.6,18 C21.3,18 18.6,14.7 18.6,9.2 L18.6,9.2 Z M31.4,9.2 C31.4,3.9 30,1.8 26.6,1.8 C23.3,1.8 21.8,4.2 21.8,9.2 C21.8,14.5 23,16.6 26.6,16.6 C30.2,16.7 31.4,14.1 31.4,9.2 L31.4,9.2 Z" id="Shape"></path>
                <path d="M38.5,3.8 C38.5,2.8 38.2,2.4 37.3,2.4 L36.2,2.4 L36.2,1 C36.2,1 38.7,1.1 40.1,1.1 C41.5,1.1 43.6,1 44,1 L44,2.4 L42.9,2.4 C41.9,2.4 41.5,2.7 41.5,3.8 L41.5,11 C41.5,15 43,16.3 45.8,16.3 C48.6,16.3 50.2,15.1 50.2,11 L50.2,3.8 C50.2,2.9 49.7,2.4 48.8,2.4 L47.7,2.4 L47.7,1 C47.7,1 49.9,1.1 51.1,1.1 C52.3,1.1 54.1,1 54.5,1 L54.5,2.4 L53.4,2.4 C52.5,2.4 52.2,2.9 52.2,3.8 L52.2,10.7 C52.2,15.5 50.1,17.9 45.6,17.9 C41,17.9 38.5,15.8 38.5,10.6 C38.5,10.7 38.5,5.3 38.5,3.8 L38.5,3.8 Z" id="Shape"></path>
                <path d="M70.4,12.5 C70.5,9.5 70.5,4.9 70.4,3.6 C70.4,2.6 70,2.4 69.1,2.4 L67.6,2.4 L67.6,1 C68,1 69.9,1.1 71.3,1.1 C72.7,1.1 74.9,1 74.9,1 L74.9,2.4 L73.4,2.4 C72.5,2.4 72.2,2.7 72.1,3.6 C72,5 72,14.6 72.1,17.5 L70.3,17.5 C68.3,14.5 64.2,8.5 61.3,4.4 L61.3,15.1 C61.3,15.9 61.6,16.1 62.7,16.1 L64.1,16.1 L64.1,17.6 L60.4,17.6 L56.7,17.6 L56.7,16.1 L58.1,16.1 C59.2,16.1 59.5,15.9 59.5,15.1 C59.6,13.3 59.6,5 59.5,3.6 C59.4,2.7 59.1,2.4 58.2,2.4 L56.7,2.4 L56.7,1 L62.3,1 C64.1,3.7 68.1,9.4 70.4,12.5 L70.4,12.5 Z" id="Shape"></path>
                <path d="M86.1,2.4 L86.1,14.7 C86.1,15.6 86.4,16.1 87.4,16.1 L88.9,16.1 L88.9,17.6 L84.7,17.6 L80.5,17.6 L80.5,16.1 L81.9,16.1 C83,16.1 83.3,15.6 83.3,14.7 C83.4,13.4 83.4,5.6 83.3,2.4 L81.4,2.4 C79.5,2.4 78.9,3.3 78.9,4.6 L78.8,7 L77.2,7 C77.3,5.5 77.2,2.3 77.1,0.9 C77.8,1 79,1 80.8,1 L88.6,1 C90.7,1 91.4,1 92.3,0.9 C92.2,2.4 92.1,5.6 92.2,7 L90.7,7 L90.6,4.6 C90.5,3.2 89.9,2.4 88.1,2.4 L86.1,2.4 L86.1,2.4 Z" id="Shape"></path>
                <path d="M109.6,16.4 C110.7,16.4 110.8,14.8 110.4,12.6 L111.5,12.5 C112.1,15.3 111.8,18 108.8,18 C105.6,18 105,16.2 104.8,13.2 C104.7,10.5 103.5,10 101.9,10 L100.2,10 C100.2,12.1 100.2,14.1 100.3,14.6 C100.4,15.6 100.8,16 101.7,16 L102.8,16 L102.8,17.4 L98.7,17.4 L94.6,17.4 L94.6,15.9 L95.7,15.9 C96.8,15.9 97.3,15.5 97.3,14.5 C97.4,13.2 97.4,4.8 97.3,3.4 C97.3,2.5 96.9,2.2 96.1,2.2 L94.6,2.2 L94.6,1 L98.8,1 L102.8,1 C106.8,1 109.1,2.5 109.1,5.4 C109.1,7.8 107.3,9.4 105.2,9.7 C107,10.2 107.7,11.2 107.9,12.9 C108.3,15.9 108.8,16.4 109.6,16.4 L109.6,16.4 Z M100.2,8.9 L102.1,8.9 C104.9,8.9 105.9,7.9 105.9,5.5 C105.9,3.1 104.9,2.2 102.4,2.2 L101.2,2.2 C100.5,2.2 100.3,2.6 100.3,3.2 C100.2,4 100.2,6.5 100.2,8.9 L100.2,8.9 Z" id="Shape"></path>
                <path d="M122.1,11.8 L122.1,14.8 C122.1,15.8 122.2,16 123.5,16 L125.1,16 L125.1,17.4 L120.7,17.4 L116.2,17.4 L116.2,16 L117.8,16 C119.1,16 119.2,15.7 119.2,14.8 L119.2,11.8 C118,9.5 116,5.7 114.9,3.9 C114.3,2.8 113.6,2.4 112.1,2.4 L111.7,2.4 L111.7,1 C111.7,1 114.5,1.1 116,1.1 C117.6,1.1 120.3,1 120.3,1 L120.3,2.4 L119.1,2.4 C117.7,2.4 117.5,3.1 117.9,4 C118.6,5.4 120.4,8.6 121.4,10.3 C122.4,8.6 123.8,5.6 124.6,4 C125,3.1 125.1,2.4 123.5,2.4 L122.6,2.4 L122.6,1 C122.6,1 124.9,1.1 126.3,1.1 C127.6,1.1 129.9,1 129.9,1 L129.9,2.4 L129.3,2.4 C127.4,2.4 126.9,2.8 126.1,4.1 C125.2,5.9 123.2,9.5 122.1,11.8 L122.1,11.8 Z" id="Shape"></path>
                <path d="M145.6,17.5 L137.6,17.5 L137.6,16.1 L139,16.1 C140.1,16.1 140.4,16 140.4,15.1 C140.5,13.3 140.5,5 140.4,3.6 C140.4,2.7 140,2.4 139.2,2.4 L137.7,2.4 L137.7,1 L141.9,1 L145.5,1 C149.5,1 151.8,2.4 151.8,5.2 C151.8,7 150.8,8.4 149,9 C151,9.5 152.4,10.9 152.4,12.8 C152.3,15.6 150.9,17.5 145.6,17.5 L145.6,17.5 Z M143.2,8.4 L144.8,8.4 C147.6,8.4 148.6,7.6 148.6,5.2 C148.6,3.4 147.6,2.2 145.1,2.2 L144.2,2.2 C143.5,2.2 143.3,2.6 143.3,3.2 C143.2,4 143.2,6.2 143.2,8.4 L143.2,8.4 Z M143.2,9.6 L143.2,15.3 C143.2,16.1 143.6,16.3 144.1,16.3 L145.4,16.3 C148.2,16.3 149.1,15.1 149.1,12.8 C149.1,10.6 147.8,9.6 144.8,9.6 L143.2,9.6 L143.2,9.6 Z" id="Shape"></path>
                <path d="M166.3,12.3 L159.6,12.3 C159.4,13 159.2,13.5 159.1,13.8 C158.7,15.1 158.8,16.1 160.4,16.1 L161.4,16.1 L161.4,17.6 L157.7,17.6 L154,17.6 L154,16.1 L154.9,16.1 C156.2,16.1 156.8,15.6 157.4,14.1 C158,12.6 161.3,3.6 162.3,0.8 C162.3,0.8 163.2,0.9 163.7,0.9 C164.2,0.9 165,0.8 165,0.8 C166,3.6 169.6,12.7 170.2,14.1 C170.8,15.5 171.3,16.1 172.3,16.1 L173.4,16.1 L173.4,17.6 L169.1,17.6 L164.8,17.6 L164.8,16.1 L165.9,16.1 C167,16.1 167.5,15.3 166.9,13.8 L166.3,12.3 L166.3,12.3 Z M162.9,3.3 C162.2,5 160.9,8.6 160,11.1 L165.8,11.1 C164.9,8.5 163.6,5 162.9,3.3 L162.9,3.3 Z" id="Shape"></path>
                <path d="M190.6,16.4 C191.7,16.4 191.8,14.8 191.4,12.6 L192.5,12.5 C193.1,15.3 192.8,18 189.8,18 C186.6,18 186,16.2 185.8,13.2 C185.7,10.5 184.5,10 182.9,10 L181.2,10 C181.2,12.1 181.2,14.1 181.3,14.6 C181.4,15.6 181.8,16 182.7,16 L183.8,16 L183.8,17.4 L179.7,17.4 L175.6,17.4 L175.6,15.9 L176.7,15.9 C177.8,15.9 178.3,15.5 178.3,14.5 C178.4,13.2 178.4,4.8 178.3,3.4 C178.3,2.5 177.9,2.2 177.1,2.2 L175.6,2.2 L175.6,1 L179.8,1 L183.8,1 C187.8,1 190.1,2.5 190.1,5.4 C190.1,7.8 188.3,9.4 186.2,9.7 C188,10.2 188.7,11.2 188.9,12.9 C189.3,15.9 189.8,16.4 190.6,16.4 L190.6,16.4 Z M181.2,8.9 L183.1,8.9 C185.9,8.9 186.9,7.9 186.9,5.5 C186.9,3.1 185.9,2.2 183.4,2.2 L182.2,2.2 C181.5,2.2 181.3,2.6 181.3,3.2 C181.2,4 181.2,6.5 181.2,8.9 L181.2,8.9 Z" id="Shape"></path>
                <path d="M213.2,17.8 C211.9,17.8 210.7,17.6 209.6,16.7 C208.6,17.4 207.3,17.9 205.5,17.9 C202.4,17.9 200.4,16.3 200.4,13.6 C200.4,11.1 202.4,9.6 204.3,9.2 C203.5,7.5 203.2,6.2 203.2,4.9 C203.2,2 204.8,0.7 207.5,0.7 C210,0.7 211.2,2.3 211.2,4.2 C211.2,6.6 209.7,8.5 207.5,9.3 L208.2,10.5 C209.3,12.2 210.1,13.4 210.8,14.3 C211.7,13.3 212,12.2 212.1,11.1 C212.1,10.5 212,9.8 211.1,9.8 L210.4,9.8 L210.4,8.7 C210.4,8.7 212.3,8.8 213.4,8.8 C214.5,8.8 216.4,8.7 216.4,8.7 L216.4,9.8 L215.4,9.8 C214.3,9.8 214,10.4 213.9,10.9 C213.6,12.5 212.8,13.8 211.4,15 C212.6,16.4 213.3,16.5 214.1,16.5 C215.4,16.5 216.3,15.5 216.3,14 L217.1,14.1 C216.8,16 216.3,17.8 213.2,17.8 L213.2,17.8 Z M208.8,16.1 C207.8,15.2 206.8,13.7 205.5,11.6 C205.2,11.1 205,10.7 204.8,10.3 C203.8,10.9 203.1,12 203.1,13.2 C203.1,15.3 204.3,16.6 206.2,16.6 C207.3,16.6 208.1,16.4 208.8,16.1 L208.8,16.1 Z M207.1,8.6 C208.8,7.8 209.2,6.3 209.2,4.4 C209.2,2.6 208.7,1.9 207.5,1.9 C206.3,1.9 205.8,2.6 205.8,4.4 C205.7,5.7 206.1,6.8 207.1,8.6 L207.1,8.6 Z" id="Shape"></path>
                <path d="M236.7,1.5 C238,2.2 238.3,2 238.4,0.8 L239.8,0.8 C239.6,2 239.3,4.9 239.4,6.9 L237.8,6.9 C237.3,4.2 236.6,1.9 232.8,1.9 C229.4,1.9 227.9,4.2 227.9,9.3 C227.9,15.3 230,16.7 232.6,16.7 C235.1,16.7 237,15.4 237,12.6 C237,11 236.8,10.4 235.5,10.4 L234.5,10.4 L234.5,9 C234.5,9 236.9,9.1 238.2,9.1 C239.5,9.1 241.9,9 241.9,9 L241.9,10.4 L241.1,10.4 C240.4,10.4 240.1,10.8 240.1,11.7 C240.1,13 240.1,16.1 240.2,17.8 L238.6,17.8 C238.5,17.2 238.2,16.1 237.9,15.1 C237,16.8 235,18.1 232.6,18.1 C227.8,18.1 224.6,15.6 224.6,9.3 C224.6,3.1 228.2,0.6 232.7,0.6 C234,0.5 235.1,0.7 236.7,1.5 L236.7,1.5 Z" id="Shape"></path>
                <path d="M258.3,16.4 C259.4,16.4 259.5,14.8 259.1,12.6 L260.2,12.5 C260.8,15.3 260.5,18 257.5,18 C254.3,18 253.7,16.2 253.5,13.2 C253.4,10.5 252.2,10 250.6,10 L248.9,10 C248.9,12.1 248.9,14.1 249,14.6 C249.1,15.6 249.5,16 250.4,16 L251.5,16 L251.5,17.4 L247.4,17.4 L243.3,17.4 L243.3,15.9 L244.4,15.9 C245.5,15.9 246,15.5 246,14.5 C246.1,13.2 246.1,4.8 246,3.4 C246,2.5 245.6,2.2 244.8,2.2 L243.3,2.2 L243.3,1 L247.5,1 L251.5,1 C255.5,1 257.8,2.5 257.8,5.4 C257.8,7.8 256,9.4 253.9,9.7 C255.7,10.2 256.4,11.2 256.6,12.9 C257,15.9 257.5,16.4 258.3,16.4 L258.3,16.4 Z M248.9,8.9 L250.8,8.9 C253.6,8.9 254.6,7.9 254.6,5.5 C254.6,3.1 253.6,2.2 251.1,2.2 L249.9,2.2 C249.2,2.2 249,2.6 249,3.2 C248.9,4 248.9,6.5 248.9,8.9 L248.9,8.9 Z" id="Shape"></path>
                <path d="M262.5,16.1 L263.8,16.1 C264.9,16.1 265.2,16 265.2,15.1 C265.3,13.3 265.3,5 265.2,3.6 C265.2,2.7 264.8,2.4 264,2.4 L262.5,2.4 L262.5,1 C262.5,1 265.2,1.1 266.7,1.1 C268.2,1.1 270.5,1 270.8,1 L270.8,2.4 L269.3,2.4 C268.4,2.4 268.1,2.7 268.1,3.6 C268,5 268,13.3 268.1,15.1 C268.1,15.9 268.4,16.1 269.5,16.1 L270.8,16.1 L270.8,17.6 L266.7,17.6 L262.5,17.6 L262.5,16.1 L262.5,16.1 Z" id="Shape"></path>
                <path d="M281.4,2.4 L279.9,2.4 C279,2.4 278.7,2.7 278.6,3.6 C278.5,5 278.5,13.3 278.6,15.1 C278.6,15.8 279,16.1 279.8,16.1 L281.8,16.1 C284.5,16.1 285.6,15.2 285.9,11.1 L287.4,11.1 C287.3,12.7 287.1,16 287.2,17.6 C286.1,17.5 283.8,17.5 282.7,17.5 L277.2,17.5 L273.1,17.5 L273.1,16 L274.5,16 C275.6,16 275.9,15.9 275.9,15 C276,13.2 276,4.9 275.9,3.5 C275.9,2.6 275.5,2.3 274.7,2.3 L273.2,2.3 L273.2,1 C273.2,1 275.9,1.1 277.4,1.1 C278.9,1.1 281,1 281.5,1 L281.5,2.4 L281.4,2.4 Z" id="Shape"></path>
                <path d="M297.7,2.4 L296.2,2.4 C295.3,2.4 295,2.7 294.9,3.6 C294.8,5 294.8,13.3 294.9,15.1 C294.9,15.8 295.3,16.1 296.1,16.1 L298.1,16.1 C300.8,16.1 301.9,15.2 302.2,11.1 L303.7,11.1 C303.6,12.7 303.4,16 303.5,17.6 C302.4,17.5 300.1,17.5 299,17.5 L293.5,17.5 L289.4,17.5 L289.4,16 L290.8,16 C291.9,16 292.2,15.9 292.2,15 C292.3,13.2 292.3,4.9 292.2,3.5 C292.2,2.6 291.8,2.3 291,2.3 L289.5,2.3 L289.5,1 C289.5,1 292.2,1.1 293.7,1.1 C295.2,1.1 297.3,1 297.8,1 L297.8,2.4 L297.7,2.4 Z" id="Shape"></path>
            </g>
            <g id="Group" transform="translate(271.000000, 108.000000)" fill="#FFFFFF" sketch:type="MSShapeGroup">
                <path d="M0.6,11.2 L0.6,0.8 L5.4,0.8 L5.4,2.4 L2.4,2.4 L2.4,5.1 L4.7,5.1 L4.7,6.7 L2.4,6.7 L2.4,9.7 L5.6,9.7 L5.6,11.3 L0.6,11.3 L0.6,11.2 Z" id="Shape"></path>
                <path d="M10.8,3.3 C10.7,2.4 10.3,2.2 9.9,2.2 C9.3,2.2 9,2.6 9,3.2 C9,5 12.6,5.8 12.6,8.6 C12.6,10.3 11.5,11.3 9.8,11.3 C8.1,11.3 7.2,10 7.1,8.4 L8.8,8.2 C8.9,9.2 9.3,9.8 9.9,9.8 C10.5,9.8 10.9,9.5 10.9,8.9 C10.9,6.8 7.3,6.3 7.3,3.3 C7.3,1.6 8.3,0.7 10.1,0.7 C11.6,0.7 12.4,1.7 12.6,3.2 L10.8,3.3 L10.8,3.3 Z" id="Shape"></path>
                <path d="M15.6,2.3 L13.9,2.3 L13.9,0.7 L19.1,0.7 L19.1,2.3 L17.4,2.3 L17.4,11.1 L15.6,11.1 L15.6,2.3 L15.6,2.3 Z" id="Shape"></path>
                <path d="M19.9,11.2 L19.9,9.5 L21.6,9.5 L21.6,11.2 L19.9,11.2 L19.9,11.2 Z" id="Shape"></path>
                <path d="M28.7,2.9 L27.3,2.9 L27.3,1.9 C28.1,1.5 28.8,1.1 29.4,0.6 L30.3,0.6 L30.3,11.1 L28.7,11.1 L28.7,2.9 L28.7,2.9 Z" id="Shape"></path>
                <path d="M33.9,5.6 C33.3,5.1 33,4.3 33,3.5 C33,1.5 33.9,0.6 35.4,0.6 C36.9,0.6 37.8,1.5 37.8,3.5 C37.8,4.3 37.5,5.1 36.9,5.6 C37.8,6.2 38,7 38,8.3 C38,10.3 37.1,11.3 35.5,11.3 C33.8,11.3 33,10.2 33,8.3 C32.9,7 33.1,6.2 33.9,5.6 L33.9,5.6 Z M36.3,8.2 C36.3,7.1 36.1,6.5 35.4,6.5 C34.7,6.5 34.5,7.1 34.5,8.2 C34.5,9.3 34.7,9.9 35.4,9.9 C36.1,9.9 36.3,9.2 36.3,8.2 L36.3,8.2 Z M36.2,3.5 C36.2,2.5 36,2.1 35.4,2.1 C34.9,2.1 34.6,2.5 34.6,3.5 C34.6,4.5 34.8,4.9 35.4,4.9 C35.9,4.9 36.2,4.5 36.2,3.5 L36.2,3.5 Z" id="Shape"></path>
                <path d="M39.7,2.2 L39.7,0.7 L44.4,0.7 L44.4,1.7 L42.3,11.1 L40.6,11.1 L42.7,2.2 L39.7,2.2 L39.7,2.2 Z" id="Shape"></path>
                <path d="M48.5,8.7 L45.4,8.7 L45.4,7.4 L48.4,0.8 L50.1,0.8 L50.1,7.4 L51,7.4 L51,8.7 L50.1,8.7 L50.1,11.2 L48.5,11.2 L48.5,8.7 L48.5,8.7 Z M48.6,7.3 L48.6,3.2 L46.9,7.3 L48.6,7.3 L48.6,7.3 Z" id="Shape"></path>
            </g>
            <path d="M259.5,112.7 L260.4,110.9 L261.3,112.7 L263.3,113.1 L261.8,114.5 L262.1,116.5 L260.3,115.5 L258.5,116.4 L258.9,114.4 L257.4,112.9 L259.5,112.7 Z" id="Shape" fill="#FFFFFF" sketch:type="MSShapeGroup"></path>
            <path d="M332,112.7 L332.9,110.9 L333.8,112.7 L335.8,113.1 L334.3,114.5 L334.6,116.5 L332.8,115.5 L331,116.4 L331.4,114.4 L329.9,112.9 L332,112.7 Z" id="Shape" fill="#FFFFFF" sketch:type="MSShapeGroup"></path>
            <path d="M482.3,150.4 L483.3,148.6 L484.1,150.4 L486.1,150.8 L484.6,152.2 L484.9,154.2 L483.1,153.2 L481.3,154.1 L481.7,152.1 L480.3,150.6 L482.3,150.4 Z" id="Shape" fill="#FFFFFF" sketch:type="MSShapeGroup"></path>
            <path d="M109.6,150.4 L110.6,148.6 L111.4,150.4 L113.4,150.8 L111.9,152.2 L112.2,154.2 L110.4,153.2 L108.6,154.1 L109,152.1 L107.6,150.6 L109.6,150.4 Z" id="Shape" fill="#FFFFFF" sketch:type="MSShapeGroup"></path>
            <g id="Group" stroke="#FFFFFF" stroke-width="0.75" sketch:type="MSShapeGroup">
                <g transform="translate(282.000000, 164.000000)" id="Shape">
                    <path d="M14.6,2.3 L14.6,15"></path>
                    <path d="M15.1,1.8 L19.3,14.1"></path>
                    <path d="M15.7,1.5 L23.7,11.6"></path>
                    <path d="M16.1,0.9 L27,7.8"></path>
                    <path d="M16.7,0.4 L28.6,4"></path>
                    <path d="M14,1.9 L10,14.2"></path>
                    <path d="M13.6,1.4 L5.6,11.7"></path>
                    <path d="M13.1,0.9 L2.3,7.9"></path>
                    <path d="M0.7,4 L12.6,0.4"></path>
                </g>
                <g transform="translate(70.000000, 121.000000)" id="Shape">
                    <path d="M0,37.2 C0,37.2 2.3,30.4 34.6,20.6 C55.6,14.2 64.5,8.7 64.2,3.8 C64,0.7 59.6,2.9 59.4,8.6 C59.2,14 59.4,33.8 59.4,39.1 C59.4,47.4 54.3,49.2 53.2,47.7 C52.2,46.3 54.1,42.7 61.8,42.7 L131.5,42.7 L224,42.7 L226.6,45.2 L229.2,42.7 L322.5,42.7"></path>
                    <path d="M41.3,9.1 C39.7,10.3 40.8,15.2 46.9,12.8 C55.4,9.5 57.3,6.9 58.3,3.9 C59.5,0.3 55.1,-1 55.1,5.1 C55.1,11.2 55.5,38.5 55.5,38.5 C55.5,42.3 51.8,44 50.4,42.9 C48.8,41.6 51.2,38 57.4,37.9 C67.5,37.8 64.8,48.9 64.8,48.9"></path>
                    <path d="M28,22.7 C28,22.7 20.5,24.9 18.3,28.3 C16.2,31.6 18.6,34.3 20.3,34.5"></path>
                </g>
                <g transform="translate(392.000000, 121.000000)" id="Shape">
                    <path d="M131.9,37.2 C131.9,37.2 129.6,30.4 97.3,20.6 C76.3,14.2 67.4,8.7 67.7,3.8 C67.9,0.7 72.3,2.9 72.5,8.6 C72.7,14 72.5,33.8 72.5,39.1 C72.5,47.4 77.6,49.2 78.7,47.7 C79.7,46.3 77.8,42.7 70.1,42.7 L0.4,42.7"></path>
                    <path d="M90.5,9.1 C92.1,10.3 91,15.2 84.9,12.8 C76.4,9.5 74.5,6.9 73.5,3.9 C72.3,0.3 76.7,-1 76.7,5.1 C76.7,11.2 76.3,38.5 76.3,38.5 C76.3,42.3 80,44 81.4,42.9 C83,41.6 80.6,38 74.4,37.9 C64.3,37.8 67,48.9 67,48.9"></path>
                    <path d="M103.8,22.7 C103.8,22.7 111.3,24.9 113.5,28.3 C115.6,31.6 113.2,34.3 111.5,34.5"></path>
                </g>
                <g transform="translate(144.000000, 101.000000)" id="Shape">
                    <path d="M93.8,8.4 C92.9,9.4 93.1,12.1 96,12.4 C98.3,12.6 99.9,10.5 99.5,8.1 C98.8,3.8 93.2,2.6 82.5,5.5 C72.4,8.3 67.7,10 55.8,14.5 C43.5,19.2 33.8,21.8 23.2,23.2 C11.3,24.8 1.2,22.9 0.8,19.1 C0.4,14.9 16.4,10.1 32,10.5 C38.6,10.6 46.5,12 53.8,13.6 C62.4,15.5 68.7,17.1 71.3,17.2 C83.3,17.8 79.3,10.6 67.8,13.6 C62.3,15 57.6,17.2 47.5,20.7 C38.7,23.8 27,27.8 23.7,21.8 C21.8,18.4 24.8,15.2 27.6,15.2 C29.8,15.3 30,16.9 30,16.9"></path>
                    <path d="M89.8,4 L89.8,4 L105.6,2.6 C107.9,2.4 107.8,0.4 107.8,0.4"></path>
                </g>
                <g transform="translate(341.000000, 101.000000)" id="Shape">
                    <path d="M14.4,8.4 C15.3,9.4 15.1,12.1 12.2,12.4 C9.9,12.6 8.3,10.5 8.7,8.1 C9.4,3.8 15,2.6 25.7,5.5 C35.8,8.3 40.5,10 52.4,14.5 C64.7,19.2 74.4,21.8 85,23.2 C96.9,24.8 107,22.9 107.4,19.1 C107.8,14.9 91.8,10.1 76.2,10.5 C69.6,10.6 61.7,12 54.4,13.6 C45.8,15.5 39.5,17.1 36.9,17.2 C24.9,17.8 28.9,10.6 40.4,13.6 C45.9,15 50.6,17.2 60.7,20.7 C69.5,23.8 81.2,27.8 84.5,21.8 C86.4,18.4 83.4,15.2 80.6,15.2 C78.4,15.3 78.2,16.9 78.2,16.9"></path>
                    <path d="M18.3,4 L18.3,4 L2.5,2.6 C0.2,2.4 0.3,0.4 0.3,0.4"></path>
                </g>
                <g transform="translate(0.000000, 16.000000)" id="Shape">
                    <g transform="translate(5.000000, 5.000000)">
                        <path d="M0.9,0.8 L8.4,21.6"></path>
                        <path d="M0.9,0.8 L14.4,18.1"></path>
                        <path d="M0.9,0.8 L19,12.8"></path>
                        <path d="M0.9,0.8 L21.2,7.4"></path>
                    </g>
                    <path d="M118.1,17.8 C114.4,21.3 109.1,15.4 114.7,12.4 C123.3,7.7 141.1,7 141.1,7 C128.9,6.9 51.3,6.8 38.9,6.8 C26.5,6.8 6.2,7.2 2.4,4.8 C-1.4,2.4 2.2,-1.9 4.6,1.7 C7,5.3 6,13.3 6,24.3 C5.9,33.4 6,54.2 6,54.2 C6,61.1 2.7,63.5 2.7,63.5"></path>
                    <path d="M141.1,6.9 C141.1,6.9 117.5,5.8 83,17.8 C42.7,31.8 46.6,46.1 22.6,44.4 C15.2,43.9 16,35.6 28,30.5 C41.8,24.6 66,33.3 76.1,35.2 C86.2,37.1 88.4,28.9 82.5,27.5 C76.7,26.2 61.5,31.5 56.6,35.3 C56.6,35.3 43.1,31.3 33.8,33.2 C24.5,35.1 24.9,40.3 32.4,38.5 C35.9,37.7 47.5,33.1 53.6,25 C58.6,18.3 55.2,12.6 51.3,12.3 C46.9,12.1 44.2,15.3 44.8,18.4 C45.4,21.5 48.5,21.5 48.5,21.5"></path>
                </g>
                <g transform="translate(451.000000, 16.000000)" id="Shape">
                    <g transform="translate(114.000000, 5.000000)">
                        <path d="M21.2,0.8 L13.7,21.6"></path>
                        <path d="M21.2,0.8 L7.7,18.1"></path>
                        <path d="M21.2,0.8 L3.1,12.8"></path>
                        <path d="M21.2,0.8 L0.9,7.4"></path>
                    </g>
                    <path d="M23.1,17.8 C26.8,21.3 32.1,15.4 26.5,12.4 C17.9,7.7 0.1,7 0.1,7 C12.3,6.9 89.9,6.8 102.3,6.8 C114.7,6.8 135,7.2 138.8,4.8 C142.6,2.4 139,-1.9 136.6,1.7 C134.2,5.3 135.2,13.3 135.2,24.3 C135.3,33.4 135.2,54.2 135.2,54.2 C135.2,61.1 138.5,63.5 138.5,63.5"></path>
                    <path d="M0.1,6.9 C0.1,6.9 31.3,6.8 57.8,15.1 C91.7,25.7 93.2,45.6 118.7,44.4 C126.1,44.1 125.3,35.6 113.3,30.5 C99.5,24.6 76.3,28.9 64.4,30.8 C54.3,32.5 50.8,24.3 58,23.1 C63.8,22.1 78.3,29.3 83.3,33.1 C83.3,33.1 98.3,31.2 107.6,33.1 C116.9,35 116.5,40.2 109,38.4 C105.5,37.6 93.9,33 87.8,24.9 C82.8,18.2 86.2,12.5 90.1,12.2 C94.5,12 97.2,15.2 96.6,18.3 C96,21.4 92.9,21.4 92.9,21.4"></path>
                </g>
                <g transform="translate(0.000000, 138.000000)" id="Shape">
                    <path d="M58.9,28 C58.9,28 55.7,25.7 49.9,25.7 L11.1,25.7 C5.7,25.7 3.3,26.2 1.8,27.2 C-1,29.2 1.6,32.7 4,29.8 C5.7,27.9 6,21.5 6,20 L6,11.1 C6,4.4 3.4,0.8 3.4,0.8"></path>
                    <path d="M6.5,25.7 L20.3,21"></path>
                    <path d="M6.4,25.7 L17.8,16.7"></path>
                    <path d="M6.2,25.7 L14,13.4"></path>
                    <path d="M6,25.7 L10.1,11.8"></path>
                </g>
                <g transform="translate(532.000000, 138.000000)" id="Shape">
                    <path d="M0.4,28 C0.4,28 3.6,25.7 9.4,25.7 L48.2,25.7 C53.6,25.7 56,26.2 57.5,27.2 C60.3,29.2 57.7,32.7 55.3,29.8 C53.6,27.9 53.3,21.5 53.3,20 L53.3,11.1 C53.3,4.4 55.9,0.8 55.9,0.8"></path>
                    <path d="M52.8,25.7 L39,21"></path>
                    <path d="M52.9,25.7 L41.5,16.7"></path>
                    <path d="M53.1,25.7 L45.3,13.4"></path>
                    <path d="M53.3,25.7 L49.2,11.8"></path>
                </g>
                <g transform="translate(159.000000, 0.000000)" id="Shape">
                    <g transform="translate(17.000000, 0.000000)">
                        <path d="M256.5,22.2 C256.5,22.2 258.3,28.1 248.9,26.3 C239.7,24.5 184,17.2 122.2,15.6 L119.6,13.1 L117.2,15.6 C70.5,15.6 28.9,19.8 7.1,22.6 L0.8,23.5"></path>
                        <g transform="translate(105.000000, 0.000000)">
                            <path d="M14.5,13.1 L14.6,0.6"></path>
                            <path d="M13.9,13.4 L10,1.4"></path>
                            <path d="M13.4,13.9 L5.6,3.9"></path>
                            <path d="M12.8,14.4 L2.3,7.7"></path>
                            <path d="M12.6,15.1 L0.6,11.5"></path>
                            <path d="M15.1,13.7 L19.3,1.4"></path>
                            <path d="M15.6,14.1 L23.7,3.9"></path>
                            <path d="M16.3,14.5 L26.9,7.7"></path>
                            <path d="M28.6,11.7 L16.6,15.1"></path>
                        </g>
                    </g>
                    <path d="M0.5,21 C0.5,21 -1.3,26.9 8.1,25.1 C9.8,24.8 13.1,24.3 17.6,23.6"></path>
                </g>
            </g>
        </g>
    </g>
</svg>