<?xml version="1.0" encoding="utf-8"?>
<!-- Generator: Adobe Illustrator 18.1.1, SVG Export Plug-In . SVG Version: 6.00 Build 0)  -->
<!DOCTYPE svg PUBLIC "-//W3C//DTD SVG 1.1//EN" "http://www.w3.org/Graphics/SVG/1.1/DTD/svg11.dtd">
<svg version="1.1" id="Layer_1" xmlns="http://www.w3.org/2000/svg" xmlns:xlink="http://www.w3.org/1999/xlink" x="0px" y="0px"
	 viewBox="0 0 612 792" enable-background="new 0 0 612 792" xml:space="preserve">
<g>
	<g>
		<path fill="#FFFFFF" d="M473.3,357.1c0.2,0.7,0.5,1.5,0.7,2.3c-0.5-1.5-0.8-2.4-0.8-2.7L473.3,357.1z"/>
		<path fill="#FFFFFF" d="M155.3,354l-0.1-0.5l-1.6-2.5l0.2,1c0.2,1.1,1.7,5.8,2,6.9l0.3,0.9l-2.8,0.8c-3.5,1.1-5.1,2.3-5.6,7.9
			c-0.3,2.8-0.6,7.1-1,12.4c0.5,0.4,1,0.9,1.5,1.2c0.3-4.8,0.6-9,0.9-11.7c0.6-5.7,2.2-7.2,5.9-8.3l2.3-0.7l-0.2-0.4
			C157,359.9,155.6,355.1,155.3,354z"/>
		<path fill="#FFFFFF" d="M100.2,376.5c-0.7,0-1.6,0.2-2.6,0.5l-2.5,0.8l2.2,1.4l2-0.6c1.9-0.6,3.1-0.6,4.3-0.2
			C102.5,377.1,101.5,376.5,100.2,376.5z"/>
		<path fill="#FFFFFF" d="M150.6,384.3c0,0-3.1,2.2-4.2,4c-0.5,9.7-0.8,19-0.8,24.8v0.7L145,414c-2.3,0.6-11.6,3.3-13.9,4.1
			l-0.4,0.1c-0.2,0.1-0.3,0.1-0.3,0.1l2.1,1.4l0.3-0.1c2.3-0.8,11.6-3.5,13.9-4.1l0.3-0.1v-0.3c0-6.2,0.3-15.9,0.8-25
			c1.1-1.9,4.4-4.2,4.4-4.2l-1.1-2l0,0l0,0L150.6,384.3z"/>
		<path fill="#FFFFFF" d="M116.8,397.2c-0.7-1-4.3-1.4-6.4-1.4h-0.7l2.6,1.5c0,0,2.8,0,5,0.6C117.2,397.7,117.1,397.5,116.8,397.2
			C116.9,397.3,116.8,397.3,116.8,397.2z"/>
		<path fill="#FFFFFF" d="M135.4,366c-0.4,0-1,0.1-1.6,0.3l-2.8,0.9l0,0l0,0l2.3,1.4l2.3-0.7c0.7-0.2,1.2-0.3,1.7-0.3
			C137,366.4,136.3,366,135.4,366z"/>
		<path fill="#FFFFFF" d="M126.3,367.5l0.4,0.9l-3.3,1c-1.1,0.3-1.7,0.8-1.9,1.5c-0.4,1.1,0,2.7,1.3,5c3.3,5.4,10.3,16,14.6,22.5
			v-0.1c-4.4-6.5-10.1-15.5-13.2-20.3c-1.4-2.3-1.8-4.2-1.3-5.4c0.3-0.8,1.1-1.4,2.2-1.8l2.7-0.8l-0.2-0.4c-0.4-1.1-1.9-5.9-2-7
			l-0.1-0.5l-1.6-2.5l0.2,1C124.4,361.7,125.9,366.5,126.3,367.5z"/>
		<path fill="#FFFFFF" d="M224.7,376.9l-1.6-3l0.1,1.1c0.4,6.2,1.8,15.9,2.7,22.1l0.2,1l-1,0.1c-4.4,0.4-12.9,1.7-17.1,2.3
			l-20.9,3.3c-3.7,0.6-10.6,1.8-13.2,2.2c-1.1,0.2-1.8,0.3-1.9,0.3l-0.9,0.1h-0.1l2.3,1.4l0.4-0.1c0.1,0,0.9-0.1,1.9-0.3
			c3.1-0.6,9.5-1.7,13.2-2.2l20.9-3.3c4.3-0.7,12.8-1.9,17.1-2.3h0.5l-0.1-0.5C226.3,392.8,225.1,383.1,224.7,376.9z"/>
		<path fill="#FFFFFF" d="M168.5,357.8c-0.3,0-0.7,0-1.1,0.1l-4.1,0.7l0,0l2.3,1.4l3.6-0.6c0.4-0.1,0.8-0.1,1.2-0.1
			c0.2,0,0.4,0,0.6,0C170.3,357.9,169.3,357.8,168.5,357.8z"/>
		<path fill="#FFFFFF" d="M204.9,363.1c0.3,2.3,0.5,4.4,1.1,8.3c0.9,5.7,1.5,8.1,2.2,11.9l0.3,1.5l-1,0.1c-0.3,0-3.1,0.4-5.7,0.9
			l-1,0.2l2.3,1.4l0.4-0.1c2.7-0.6,5.7-0.9,5.7-0.9l0.5-0.1l-0.2-1c-0.9-3.8-1.4-6.2-2.2-11.9c-0.6-3.9-0.9-5.9-1.1-8.3
			c-0.1-1.2-0.3-2.4-0.5-4l-1.6-2.9l0.1,0.9C204.6,360.6,204.8,361.9,204.9,363.1z"/>
		<path fill="#FFFFFF" d="M201,385.9L201,385.9L201,385.9z"/>
		<path fill="#FFFFFF" d="M194.8,376.7c-0.7,0-1.6,0.1-2.4,0.2l-1.6,0.3c1,5.8,1.8,10.5,2.2,12.3c0.4,1.9,1,2.7,1.8,3.1
			c-0.1-0.3-0.2-0.7-0.3-1.1c-0.5-1.9-1.4-6.7-2.3-12.9l2-0.3c1-0.2,1.8-0.2,2.5-0.2c0.9,0,1.6,0.1,2.2,0.3
			C198,377.2,196.7,376.7,194.8,376.7z"/>
		<path fill="#FFFFFF" d="M220.3,361.9l0.2,0.9l-9.2,1.5l2.3,1.4l8.2-1.3l-0.1-0.4c-1-5.6-2.2-14.7-2.8-20.8v-0.5l-1.6-2.5l0.1,1.1
			C218.1,347.3,219.3,356.4,220.3,361.9z"/>
		<path fill="#FFFFFF" d="M203,352.6c-1,0-2,0.1-3.3,0.3l-8.6,1.4c-2.4,0.4-3.3,1.7-3.1,4.2c0.2,2,0.8,6.6,1.7,12.1l1.2-0.2
			c-0.7-4.5-1.2-8.1-1.4-9.9c-0.3-2.8,0.8-4.3,3.5-4.8l8.6-1.4c1.4-0.2,2.4-0.3,3.4-0.3c1.2,0,2.1,0.1,3.1,0.5
			C206.7,353,205,352.6,203,352.6z"/>
		<path fill="#FFFFFF" d="M296.7,377.5l-1.6-2.5c0,0,0,0,0,0.1l0.2,0.8c1.3,4.6,2.2,10.9-1,15.4c-2.1,2.9-5.7,4.6-10.5,4.9
			c-0.6,0-1.1,0-1.6,0l0,0c-3.1,0-5.6-0.6-7.5-1.6c2.3,2.1,5.7,3.2,10.9,2.9c4.7-0.2,8.1-1.8,10.1-4.7c3.1-4.4,2.2-10.5,1-15
			L296.7,377.5z"/>
		<path fill="#FFFFFF" d="M262,346.4c-0.3,0-0.6,0-1,0l-2.7,0.1c-1.6,0.1-2.1,0.7-2.1,2.4c0,0.3,0.1,7.2,0.5,14.8l1.4-0.1
			c-0.3-6.5-0.4-12.1-0.4-12.8c0-2,0.7-2.8,2.6-2.9l2.7-0.1c0.3,0,0.7,0,1,0c1.5,0,2.6,0.2,3.6,0.6C266.4,347,264.6,346.4,262,346.4
			z"/>
		<path fill="#FFFFFF" d="M236.5,348.1l-4.4,0.2l2.2,1.5l4.1-0.2c0.4,0,0.7,0,1.1,0C238.9,348.2,237.9,348,236.5,348.1z"/>
		<path fill="#FFFFFF" d="M258.7,371.1l-1.7,0.1c0.3,5.5,0.6,9.7,0.8,11.2c0.3,2,0.9,3,1.8,3.5c-0.1-0.5-0.3-1-0.3-1.5
			c-0.2-1.6-0.6-5.9-0.9-11.7l2.1-0.1c1.9-0.1,3.5,0,4.8,0.5C264,371.2,261.7,370.9,258.7,371.1z"/>
		<path fill="#FFFFFF" d="M276.9,367.2c0.9,0.3,1.8,0.8,2.4,1.3c6-2.4,9.6-7.6,9.3-14.1c-0.2-3.5-1.3-6.3-3.2-8.7
			c1.1,1.9,1.7,4.1,1.8,6.6C287.5,359.3,283.6,364.8,276.9,367.2z"/>
		<path fill="#FFFFFF" d="M288,386c-0.5-1.3-1-3.1-1.5-5.7c-0.6-3.2-1.7-5.7-3.3-7.5c0.8,1.6,1.5,3.3,1.9,5.5
			C286.2,383.9,287.1,385.5,288,386z"/>
		<path fill="#FFFFFF" d="M265,395.2c-0.1,0-12.3,0.5-14.8,0.6c-4.9,0.3-13.3,0.8-14.8,0.9l-0.8,0.1c0,0-0.1,0-0.2,0l2.4,1.5h0.4
			c0.1,0,9.5-0.7,14.9-0.9c2.5-0.1,14.7-0.6,14.8-0.6h0.4l-0.4-8.3l-1.5-2.4v0.2l0.5,9.1L265,395.2z"/>
		<path fill="#FFFFFF" d="M238.4,371.2c0,0,0.3,0.2,0.7,0.4C238.9,371.4,238.7,371.3,238.4,371.2L238.4,371.2z"/>
		<path fill="#FFFFFF" d="M308.8,345.4l-4.4-0.1l2.4,1.5l3.9,0.1c0.3,0,0.5,0,0.8,0.1C311,345.8,310,345.5,308.8,345.4z"/>
		<path fill="#FFFFFF" d="M354.9,371.1c-0.5,5.6-1.2,17.8-1.2,23.7v1l-1-0.1c-5-0.5-12.7-0.7-16.4-0.9l-18.7-0.6
			c-3.3-0.1-10.6-0.3-13.9-0.3h-0.9l2.4,1.5h0.4c3.2,0,10.5,0.2,13.9,0.3l18.6,0.6c3.7,0.1,11.5,0.4,16.5,0.9h0.5v-0.5
			c0-5.8,0.7-18.1,1.2-23.7v-0.5l-1.5-2.4V371.1z"/>
		<path fill="#FFFFFF" d="M327.4,371.2c-0.1,5.2-0.2,9.1-0.2,10.8c0,1.9,0.5,2.7,1.6,3.1c-0.1-0.4-0.1-0.8-0.1-1.2
			c0-1.9,0.1-6.1,0.2-10.9c0.3-1.9,5.1-4.7,5.1-4.7l-1.1-1.9l-0.7,0.4C330.4,367.8,327.6,370,327.4,371.2z"/>
		<path fill="#FFFFFF" d="M336.4,345.4v0.9l-4.2-0.1c-0.2,0-0.3,0-0.4,0c-2.4,0-3.4,1-3.6,3.8c-0.1,1.6-0.3,5.7-0.5,11.5
			c0.1,0.6,0.7,1.3,1.5,2l0,0c0.2-5.3,0.4-9.8,0.6-11.6c0.3-3.2,1.5-4.4,4.6-4.2l3.7,0.1v-0.4c0.1-1.9,0.2-6.3,0.3-7.3v-0.5
			l-1.5-2.4l-0.1,1C336.7,339.2,336.5,344,336.4,345.4z"/>
		<path fill="#FFFFFF" d="M388.3,390.6c-0.1,0.6-0.3,2.1-0.5,3.7l-0.1,0.4c-0.2,1.5-0.4,2.9-0.5,3.4l-0.1,0.9l-0.9-0.1
			c-0.1,0-8.2-1.3-12.7-1.9c-4.5-0.6-12.7-1.6-12.8-1.6l-0.5-0.1c-0.2,0-0.3,0-0.4,0l2.5,1.6h0.4c0.1,0,8.3,1,12.8,1.6
			s12.7,1.9,12.7,1.9l0.4,0.1l0.1-0.4c0.1-0.6,0.3-2.1,0.5-3.7s0.5-3.1,0.5-3.7l0.1-0.4l-1.4-2.3l0,0l0,0L388.3,390.6z"/>
		<path fill="#FFFFFF" d="M418.3,380.2c0.8,3.2,1.5,5.7,1.9,7.2c1,3.4,1.9,5.2,2.9,6.1c-0.5-1.1-1-2.3-1.5-4.1
			c-0.4-1.6-1.1-4.2-1.9-7.4c1-1.9,3.6-4.4,3.6-4.4l-1.1-2.1l-0.6,0.5C421.7,376.1,419.3,378.4,418.3,380.2z"/>
		<path fill="#FFFFFF" d="M409.6,343.9c1.1,5,3.5,15.3,6.5,27.7l0.1,0.1c0.1,0.4,0.6,1,1.3,1.5c-2.4-9.9-5.3-21.4-6.4-27.2v-0.1
			c-0.1-0.2-1.2-1.9-1.7-2.4c0.1,0.1,0.1,0.1,0.2,0.2V343.9z"/>
		<path fill="#FFFFFF" d="M409.2,343.3L409.2,343.3L409.2,343.3z"/>
		<polygon fill="#FFFFFF" points="394.2,369 394.2,369.2 396.3,375.2 397.2,375.5 396,371.9 		"/>
		<path fill="#FFFFFF" d="M382.5,382.6c-1.2,2.5-1.5,4.3-1,5.4c0.2,0.4,0.7,0.8,1.3,1c-0.1-1.2,0.4-2.6,1.3-4.6c0,0,1.2-2.3,2.8-5.6
			l-1.5-1.8L382.5,382.6z"/>
		<polygon fill="#FFFFFF" points="385.8,386.4 385.8,386.4 385.8,386.4 388.5,387.5 394,385.5 392.1,384 		"/>
		<polygon fill="#FFFFFF" points="397.3,381.2 397.6,387.9 399,388.9 398.8,382.9 401,381.4 400.5,379 		"/>
		<path fill="#FFFFFF" d="M395.6,357c-1.7,3.2-5.6,10.8-8.9,17.3l2.3,0.1c2.5-5,5.5-10.7,7.3-14.2C396,359,395.8,357.9,395.6,357z"
			/>
		<path fill="#FFFFFF" d="M429.2,395.2l-1.3,9.3l-0.9-0.1c-1.9-0.3-11-1.7-16.4-2.3c-5.8-0.8-16.1-1.9-16.5-2l-0.9-0.1l0,0l2.5,1.6
			l0.4,0.1c0.1,0,10.6,1.3,16.6,2c5.8,0.8,16.3,2.3,16.4,2.3l0.4,0.1l1.1-8.3L429.2,395.2L429.2,395.2z"/>
		<path fill="#FFFFFF" d="M105.3,396.3L105.3,396.3l-0.5,0.6c-1.3,1.8-3,4.9-2.6,5.9v0.2c6.5,21.2-1.9,38.6-23,47.5
			c-7.1,3-13.7,4.5-19.6,4.5l0,0c-6,0-11.5-1.6-16.4-4.7c9.9,7.7,22.6,8.1,37.7,1.7c19.3-8.1,29.7-24.2,22.7-47c0,0,0,0,0-0.1
			c-0.6-1.8,2.7-6.4,2.7-6.4L105.3,396.3z"/>
		<path fill="#FFFFFF" d="M54.5,419.2l-1.2-2.3l-0.4,0.6c-0.8,1.2-2.7,4.4-2.6,5.7c2.2,5,4.4,8.9,6.5,11.7c-1.7-2.6-3.3-5.7-5.1-9.5
			C51.5,423.6,54.5,419.2,54.5,419.2z"/>
		<path fill="#FFFFFF" d="M51.6,384.9c-9.9,4.2-11.3,12.8-4.9,29.8c0.2,0.2,0.6,0.4,1,0.6c-5.8-16.2-4.2-24.7,5.7-28.9
			c5-2,9.1-2.2,12.8-0.1c-2.4-2-5-3-7.7-3C56.4,383.3,54.2,383.8,51.6,384.9z"/>
		<path fill="#FFFFFF" d="M99.4,394.4c-1.5-3-3.1-5.7-4.8-8c1.5,2.2,2.8,4.8,4.1,7.5C98.8,394.1,99.1,394.2,99.4,394.4z"/>
		<path fill="#FFFFFF" d="M522,372.5l-4.7-1.8l2.5,1.7l4.3,1.7c0.3,0.1,0.5,0.2,0.7,0.3C524.2,373.5,523.2,373,522,372.5z"/>
		<polygon fill="#FFFFFF" points="493.5,433.9 493.5,433.9 493.6,433.9 		"/>
		<path fill="#FFFFFF" d="M589.4,427.1l-0.7,0.2c0,0-4.1,0.9-5.6,2.1c-6.7,15.4-17.1,23.2-30.9,23.2c-5.4,0-11.2-1.2-17.3-3.5
			c-0.1-0.1-13.8-5.3-20.5-7.8c-6.4-2.4-20.1-7.3-20.3-7.3l-0.5-0.2l2.5,1.7c0,0,13.7,4.9,20.3,7.3c6.7,2.5,20.5,7.8,20.5,7.8
			c19.5,7.3,37.5,4.2,47.7-19.6c1.6-1.4,5.9-2.3,5.9-2.3S590,428.1,589.4,427.1z"/>
		<path fill="#FFFFFF" d="M586.1,421c0.2,1.6,2.1,4.4,2.8,5.4l0.3,0.4c-0.8-1.3-1.6-2.7-1.7-3.9c4-13.3,3.2-23.6-3.3-31.7
			C589.3,399.1,589.8,408.9,586.1,421z"/>
		<path fill="#FFFFFF" d="M530.6,432.1c1.2-3.4,3.9-11.1,6.9-19.2c0,0,0,0,0.1-0.1c0.7-1.7,6.3-2.9,6.3-2.9s-0.5-0.7-1.2-1.7
			l-0.7,0.2c-2,0.5-5.6,1.6-6,2.6l-0.1,0.1c-3.1,8.6-5.7,15.9-6.8,19.1c-0.8,2.2-0.3,4,1.3,5.1C530.2,434.4,530.3,433.3,530.6,432.1
			z"/>
		<path fill="#FFFFFF" d="M551.3,383.3c-2.6-1-4.4-0.3-5.5,2.1c-1.2,2.6-3.4,8.3-6.3,16.2l0,0c-0.4,1.2,1.6,4.2,2.8,5.9l0.3,0.3
			c-0.9-1.5-1.9-3.4-1.6-4.4l0,0c2.6-7.1,5.2-13.3,6.3-16.3c1-2.1,2.7-3.7,6-2.4l3.6,1.4c2.2,0.8,4.1,1.8,5.7,2.7
			c-1.9-1.7-4.6-3-7.9-4.3L551.3,383.3z"/>
		<path fill="#FFFFFF" d="M473.9,359.5c2.8,9.3,7.8,24.4,11.2,34.5c0.1-0.4,0.2-0.8,0.4-1.3c-3.7-11-8.5-25.6-10.8-33.5l-1.7-2.6
			v0.1C473.3,357,473.5,358,473.9,359.5z"/>
		<path fill="#FFFFFF" d="M487.8,370.4l-4.9-1.4l2.4,1.6l4.5,1.3c0.1,0,0.3,0.1,0.4,0.1C489.8,371.2,488.9,370.7,487.8,370.4z"/>
		<path fill="#FFFFFF" d="M451.3,360l-4.2-1.2l2.5,1.7l3.8,1.1c0.1,0,0.2,0.1,0.3,0.1C453.3,360.8,452.5,360.3,451.3,360z"/>
		<path fill="#FFFFFF" d="M454.9,397.9c-0.5,2.1-0.2,3.3,1.3,4.2c-0.1-0.7,0-1.4,0.2-2.3c0.7-3,3.6-13.4,6-22
			c-0.4-1.1-0.7-2.2-1.1-3.2C458.8,383.3,455.7,394.7,454.9,397.9z"/>
		<path fill="#FFFFFF" d="M460.4,412.1l-0.2,1l-1.2-0.4c-3-0.9-8.6-2.6-12-3.6c-4.3-1.2-11.6-3.1-12.4-3.3l-0.5-0.1
			c-0.3-0.1-0.5-0.1-0.5-0.1l2.5,1.6l0.4,0.1c0.1,0,8,2,12.4,3.3c4.4,1.3,12.2,3.6,12.3,3.6l0.4,0.1l0.1-0.4c0.8-3.5,2-7.1,2-7.2
			l0.1-0.4l-1.4-2.2l-0.3,0.9C462.2,405.5,461.2,408.9,460.4,412.1z"/>
		<path fill="#FFFFFF" d="M511.3,368.5c-0.4,1.1-1.8,5.8-1.9,6.9l-0.2,1l-4.4-1.3c-0.6-0.2-1.1-0.3-1.6-0.3c-1.6,0-2.5,1-3.4,3.3
			c-0.5,1.3-1.6,4.9-3,10c0,1.1,1.3,2.9,2.3,4.3c-0.5-0.9-0.9-1.8-0.9-2.3c1.4-4.9,2.5-8.7,3-10.1c0.9-2.5,2-3.7,3.8-3.7
			c0.5,0,1.1,0.1,1.7,0.3l3.9,1.1l0.1-0.5c0.2-1.1,1.7-5.9,1.9-7v-0.1c0-0.3-1-1.9-1.6-2.4c0.1,0.1,0.1,0.3,0.1,0.5L511.3,368.5z"/>
		<path fill="#FFFFFF" d="M495.7,399.4c0.6-1.8,6-3.4,6-3.4l-1.1-1.8l0,0l0,0l-0.8,0.2c-2,0.6-5.4,2-5.7,3.1l-0.1,0.1
			c-2.5,9-4.8,17.2-6,22l-0.3,1l-1-0.3c-2.6-0.9-8.6-2.6-11.3-3.2l-0.5-0.1l2.3,1.6l0.2,0.1c2.7,0.6,8.7,2.3,11.4,3.2l0.4,0.2
			l0.1-0.5C490.9,416.5,493.3,407.7,495.7,399.4C495.7,399.5,495.7,399.5,495.7,399.4z"/>
		<path fill="#FFFFFF" d="M295.5,382.5c0,1.2-0.1,2.3-0.2,3.5C295.5,384.8,295.5,383.6,295.5,382.5z"/>
	</g>
	<g>
		<g>
			<path fill="#FFFFFF" d="M150.3,353L150.3,353c-2.4,0.8-5.9,1.9-8.8,2.7c-3.8,1.2-11,3-11.9,3.2c0.2,0.5,1.3,3.7,2,6.9l1.9-0.6
				c0.7-0.2,1.4-0.3,1.9-0.3c2.6,0,3.3,2.5,3.5,6.2c0.3,6.7-0.4,21.6-0.8,28.5l-0.1,1.5l-0.8-1.2c-4.3-6.3-12-18-15.5-23.8
				c-1.4-2.5-1.9-4.5-1.3-5.8c0.4-1,1.3-1.6,2.6-2l2.2-0.7c-0.4-1.2-1.8-5.7-2-6.9c-0.4,0.1-1.4,0.4-2.7,0.9l-0.4,0.1
				c-3.2,1.1-8.2,2.5-11.7,3.6c-4.9,1.5-13.6,3.8-14.8,4.1c0.2,0.5,1.3,3.7,2,6.9l1.6-0.5c1.2-0.3,2-0.5,2.9-0.5
				c2.4,0,3.9,1.4,6,4.3c1.5,1.9,3.7,5.2,6.4,9.4l0.1,0.1v0.1c0.1,1.7-1,4.3-1.6,5.6c1.7,0.1,5.4,0.4,6.4,1.8l0.1,0.1
				c5.4,8.1,10.4,15.9,13.2,20.4c2.4-0.8,11.5-3.4,13.8-4.1c0-5.9,0.3-15.2,0.8-24.9v-0.1l0.1-0.1c0.8-1.5,2.8-3.1,3.9-3.9
				c-0.9-0.5-2.3-1.5-3.4-2.5l-0.2-0.2V381c0.3-5.5,0.7-9.8,1-12.7c0.6-6,2.4-7.6,6.2-8.7l1.8-0.5c-0.4-1.2-1.8-5.7-2-6.9
				C152.5,352.3,151.5,352.6,150.3,353z"/>
		</g>
		<g>
			<path fill="#FFFFFF" d="M214.5,376.3c0.9,5.6,0.7,9.2-0.6,11.6c-1.3,2.5-3.8,3.9-8,4.6l-8.4,1.4c-0.5,0.1-0.9,0.1-1.3,0.1
				c-2.3,0-3.6-1.3-4.3-4.2c-0.5-1.9-1.4-6.8-2.3-12.9l-0.1-0.5l2.5-0.4c1-0.2,1.9-0.2,2.6-0.2c4,0,5.8,1.9,6.7,7.2l0.3,1.8
				c2.4-0.5,5-0.8,5.7-0.9l-0.1-0.4c-0.9-3.7-1.4-6.2-2.2-11.9c-0.6-3.8-0.9-5.8-1.1-8.3c-0.1-1.2-0.3-2.4-0.5-4
				c-0.4,0.1-3.1,0.7-5.7,0.9l0.3,2c0.9,5.7-0.9,8.2-6.5,9.1l-2.7,0.4l-0.1-0.5c-0.9-5.7-1.6-10.5-1.8-12.7
				c-0.3-3.1,0.9-4.8,3.9-5.3l8.6-1.4c1.4-0.2,2.5-0.3,3.5-0.3c5.4,0,7.8,3.1,9.2,11.6l7.2-1.2c-1-5.6-2.2-14.6-2.8-20.7
				c-3.4,1-13.3,2.7-18,3.4l-20.1,3.2c-2.3,0.4-7.7,1.2-10.9,1.7c-2,0.3-3.8,0.6-4.3,0.7l1.2,7.1l3.1-0.5c0.5-0.1,0.9-0.1,1.3-0.1
				c2.2,0,3.5,1.3,4.2,4.5c0.4,1.9,1.3,6.9,2.2,13.1v0.1v0.1c-0.3,1.7-2.6,4-3.7,5.1c1.5,0.7,4.8,2.4,5.2,4.1c0.4,2.9,1,6.5,1.1,8.1
				c0.3,3.1-0.3,5.4-4.1,5.9l-2.7,0.4l1.2,7.3c0.2,0,0.9-0.2,1.8-0.3c2.6-0.5,9.5-1.7,13.2-2.2l20.9-3.3c4.3-0.7,12.7-1.9,17.1-2.3
				c-1-6.3-2.3-15.8-2.7-22.1C220.9,375.3,215.8,376.1,214.5,376.3z"/>
		</g>
		<g>
			<path fill="#FFFFFF" d="M294.4,376.1c-0.6,0.1-3.1,0.5-3.9,0.5c0.8,2.7,1.8,7.6,0.3,9.6c-0.4,0.6-1,0.9-1.7,0.9h-0.2
				c-2.3,0-3.5-2.1-4.8-8.8c-1.2-6-3.9-9.4-9-10.6l-1.9-0.5l1.9-0.5c7.2-1.9,11.5-7.4,11.1-14.3c-0.5-9-7.2-13.9-19.1-13.9
				c-0.8,0-1.6,0-2.3,0.1c-3.1,0.2-6.7,0.4-9.9,0.6c-2.6,0.2-5,0.3-6.6,0.4c-1.9,0.1-6.4,0.3-10.9,0.5c-2.3,0.1-4.3,0.2-4.9,0.2
				l0.4,7.2l3.6-0.2c0.2,0,0.4,0,0.5,0c2.8,0,3.5,1.7,3.9,4.2c0.2,1.6,0.5,6.4,0.9,13v0.1v0.1c-0.3,1.7-3,3.9-4.3,4.9
				c1.5,0.9,4.6,3,4.8,4.7c0.2,4.8,0.3,8.1,0.3,9.4c-0.1,3.5-1.4,4.9-4.7,5.1l-2.8,0.1l0.4,7.4c1.9-0.1,10-0.7,14.8-0.9
				c2.4-0.1,13.8-0.6,14.8-0.6l-0.4-7.3l-2.7,0.1c-2.9,0.2-4.4-1.3-4.9-4.7c-0.2-1.6-0.6-6-0.9-11.8v-0.5l2.6-0.1
				c5.6-0.3,9.2,1,10.1,10.5c1.1,9.6,3.8,15,14.9,14.5c4.6-0.2,7.8-1.8,9.7-4.5c1-1.4,1.6-3,1.9-4.7c0.1-1.2,0.2-2.3,0.2-3.5
				C295.4,380.2,294.9,378,294.4,376.1z M268.3,362c-1.6,1.6-3.9,2.3-7.8,2.6l-4.8,0.2v-0.5c-0.4-7.7-0.5-14.6-0.5-15.3
				c0-2.2,0.9-3.3,3-3.5l2.7-0.1c6.3-0.3,9,2.2,9.3,9C270.5,358,269.8,360.4,268.3,362z"/>
		</g>
		<g>
			<path fill="#FFFFFF" d="M346.8,370.8c-1,13.9-4.7,16-11.7,15.7l-4.4-0.1c-2.7-0.1-4.5-0.9-4.6-4.4c0-1.8,0-5.7,0.2-10.9V371
				c0.3-1.7,3.3-3.7,4.7-4.6c-1.3-1-4.1-3.1-4.4-4.8v-0.1v-0.1c0.2-5.7,0.4-10,0.6-11.6c0.3-3.5,1.8-4.8,5.1-4.7l3.2,0.1
				c0.1-1.9,0.2-6,0.3-7.2c-0.3,0-1.2,0-2.2,0c-3.1,0-8.9-0.1-12.8-0.2c-5.1-0.2-14.2-0.7-15.1-0.7l-0.2,7.2l3.4,0.1
				c2.7,0.1,4,1.6,4.1,5c0,1.6,0,5.8-0.2,11.8c-0.3,1.7-3.3,3.8-4.7,4.7c1.3,0.9,4,3,4.4,4.7v0.1v0.1c-0.2,5-0.4,8.7-0.5,10.3
				c-0.3,3.3-1,4.7-4.8,4.6l-3.2-0.1l-0.2,7.4c3.3,0,10.5,0.2,13.9,0.3l18.6,0.6c3.8,0.1,11.5,0.4,16.5,0.9c0-5.8,0.7-18,1.2-23.6
				C352.7,371.1,348,371,346.8,370.8z"/>
		</g>
		<g>
			<polygon fill="#FFFFFF" points="393.8,371.1 390.9,375.4 385.6,375.5 388.9,379.6 387.2,384.7 392.3,382.9 396.6,386 
				396.4,380.7 400.7,377.6 395.6,376.1 			"/>
		</g>
		<g>
			<path fill="#FFFFFF" d="M425.7,395.7c-2.8-0.4-4.7-1.8-6.4-8c-0.4-1.6-1.1-4.2-1.9-7.4v-0.2l0.1-0.2c0.8-1.5,2.3-3.2,3.2-4
				c-1.5-0.7-4.9-2.3-5.4-4v-0.1c-3.1-12.4-5.6-22.7-6.5-27.8h-0.1c-3-0.3-5.5-0.5-7-0.7c-2.3-0.3-6.5-1.1-7-1.2
				c-1.5,2.8-7.9,14.8-13.4,25.3l-0.1,0.1c-1.2,1.2-4.4,1.9-5.8,2.1c0.6,1.1,1.8,3.1,2,4.7v0.2l-0.1,0.2c-2.1,4-3.3,6.1-3.6,6.7
				c-2.5,4.5-4.6,6-7.9,6c-0.5,0-1.1,0-1.7-0.1l-2-0.3l-1,7.3c0.8,0.1,8.4,1,12.7,1.6s11.8,1.8,12.7,1.9c0.1-0.6,0.3-1.9,0.5-3.4
				l0.1-0.4c0.2-1.5,0.4-3,0.5-3.6l-3-0.4c-1.9-0.3-3-0.9-3.6-1.9c-0.7-1.4-0.4-3.3,1-6.2l3.6-7l0,0l0.1-0.3
				c3.9-7.7,8.8-17.2,9.9-19.4l0.6-1.2l0.3,1.3c0.6,2.5,2.9,13,4.7,21.3l0.2,0.8l0,0l1.6,7c0.5,3.3,0.3,5.3-0.6,6.4
				c-0.8,0.9-1.9,1.2-3.6,1l-3.1-0.4c-0.1,0.9-0.4,3.3-0.8,5.9c-0.1,0.6-0.2,1.1-0.2,1.5c1,0.1,10.8,1.3,16.5,2
				c5.4,0.7,14.5,2,16.4,2.3l1-7.3L425.7,395.7z"/>
		</g>
		<g>
			<path fill="#FFFFFF" d="M97.8,394.4L97.8,394.4C90.4,378.7,80.3,371,66.9,371c-5.8,0-12.4,1.5-19.4,4.5
				c-22,9.3-29.8,27.5-21.2,50.1v0.2c0,1.7-1.5,4.4-2.2,5.6c1.4,0.2,4.2,0.8,5.5,1.9l0.1,0.1l0.1,0.1c7.2,13.8,17.2,20.9,29.7,20.9
				l0,0c5.7,0,12.3-1.5,19.2-4.4c20.7-8.7,28.8-25.6,22.5-46.4v-0.1l0,0c-0.5-1.6,1.5-4.8,2.4-6.1
				C102.2,396.6,98.9,395.7,97.8,394.4z M75.2,441c-2.7,1.2-5.1,1.7-7.3,1.7c-6.9,0-12.3-5.6-18.5-19v-0.1c-0.2-1.7,1.5-4.6,2.3-5.9
				c-1.5-0.3-4.7-1.1-5.7-2.3l-0.1-0.2c-6.6-17.4-5.1-26.8,5.4-31.2c2.6-1.2,5.1-1.7,7.2-1.7c7.1,0,12.5,5.6,18.7,19.1v0.1
				c0.2,1.7-1.5,4.6-2.3,5.9c1.5,0.3,4.6,1,5.7,2.2l0.1,0.1v0.1C87.6,427.8,86,436.4,75.2,441z"/>
		</g>
		<g>
			<path fill="#FFFFFF" d="M561.4,376.5c-0.7-0.3-2.5-1-5.1-1.9c-4.6-1.7-10.7-3.9-14.9-5.5c-4.5-1.7-11.3-4.4-15.9-6.1
				c-1.8-0.7-3.2-1.3-4-1.6l-3.2,8.7l3.9,1.5c4.1,1.6,5.2,4.1,3.8,8.8c-0.7,2.1-2.7,7.9-5.7,15.7v0.1c-0.9,1.4-4.3,2.4-5.8,2.8
				c0.9,1.3,2.7,4.1,2.6,5.8v0.1c-3.1,8.3-5.7,14.7-6.7,17.2c-1.2,2.7-2.4,4.5-5,4.5c-1.1,0-2.3-0.3-4.2-1l-3.2-1.2l-3.3,8.9
				c2.4,0.9,14,5,19.8,7.2c6.6,2.5,20.4,7.7,20.5,7.8c6.1,2.2,11.8,3.4,17.1,3.4c13.4,0,23.6-7.7,30.1-22.7V429l0.1-0.1
				c1.3-1.1,4.1-1.9,5.4-2.2c-0.8-1.2-2.5-3.7-2.6-5.5v-0.1V421C591.9,398.5,584.8,385.2,561.4,376.5z M566.7,412.2l-0.1,0.2
				c-1,1.3-4.2,2.2-5.7,2.6c1,1.4,3,4.5,2.5,6.1v0.2c-5.5,13.3-11.2,18.9-19.1,18.9c-2.7,0-5.8-0.7-9.5-2l-3.5-1.3
				c-3-1.2-4.2-3.7-3.1-6.9c1.1-3.3,3.7-10.6,6.9-19.2l0.1-0.2c0.7-1.5,4.3-2.5,5.9-2.9c-1-1.4-2.9-4.4-2.5-6l0,0v-0.1
				c3-7.9,5.3-13.7,6.4-16.3c1.3-2.9,3.5-3.8,6.6-2.6l3.6,1.4C568.3,388.7,571.5,396.4,566.7,412.2z"/>
		</g>
		<g>
			<path fill="#FFFFFF" d="M498.1,365c-3.1-0.9-7.5-2.2-10.1-3.1c-1-0.3-1.7-0.5-1.9-0.6c-0.3,1.2-1.6,5.7-1.9,6.9l4,1.2
				c2.2,0.6,4.3,1.9,3.2,6.3c-1,3.9-3.8,14.1-5.6,20l-0.4,1.5l-0.5-1.5c-3.8-11-9.6-29-12.5-38.3c-5.4-1.4-16.9-4.6-22-6.2
				c-0.2,0.8-1,4-1.9,6.9l3.3,1c2.9,0.9,4.1,2.8,3.4,5.9c-0.3,1.6-1.6,6.1-3.3,12.4l-0.1,0.2c-1,1.4-4,2.5-5.5,2.9
				c1,1.2,3,3.9,3,5.7v0.1c-1.3,4.4-2.3,7.7-2.8,9.2c-0.9,2.4-2,3.5-4.1,3.5c-0.7,0-1.4-0.1-2.2-0.4l-3-0.9c-0.2,0.6-1,3.9-2,7.1
				c1.1,0.3,8.2,2.1,12.4,3.3c3.5,1,9.1,2.6,12.1,3.6h0.1c0.8-3.1,1.8-6.3,2-7.1l-3.8-1.1c-3.4-1-4.4-2.6-3.7-5.9
				c0.8-3.3,4.3-16,6.9-24.9l0.4-1.5l0.5,1.5c4.5,13.5,10.8,33.1,13.9,43.6c2.7,0.6,8.7,2.2,11.3,3.2c1.3-4.8,3.5-13.1,6-22.1
				l0.1-0.1c0.6-1.6,4-2.8,5.7-3.4c-1-1.2-3.1-3.9-3.1-5.7V388c1.5-5.2,2.6-8.8,3-10.1c1-2.7,2.3-4,4.3-4c0.6,0,1.2,0.1,1.8,0.3
				l3.3,1c0.3-1.2,1.6-5.7,1.9-6.9c-0.1,0-0.4-0.1-0.6-0.2C507.7,367.5,501.8,366.1,498.1,365z"/>
		</g>
	</g>
</g>
<g>
	<path fill="#FFFFFF" d="M171.5,439.8h1.4c-0.2,1.2-0.5,4-0.4,5.9c-0.5,0-1.1,0-1.6,0c-0.5-2.6-1.2-4.9-4.9-4.9
		c-3.3,0-4.8,2.2-4.8,7.2c0,5.8,1.9,7.2,4.6,7.2c3.3,0,5.1-2.2,5.3-5.5c0.4,0,1.2,0,1.7,0c-0.3,4.4-2.1,6.7-6.9,6.7
		c-4.8,0-7.9-2.4-7.9-8.6c0-6,3.5-8.5,7.9-8.5c2.2,0,3.3,0.7,3.9,1C171.1,441.3,171.4,441.1,171.5,439.8z"/>
	<path fill="#FFFFFF" d="M175.3,448.1c0-5.5,3.3-8.5,7.8-8.5c5.2,0,7.8,3,7.8,8.5s-3.3,8.6-7.8,8.6
		C178,456.7,175.3,453.5,175.3,448.1z M187.9,448.1c0-5.2-1.4-7.2-4.7-7.2c-3.2,0-4.7,2.3-4.7,7.2c0,5.2,1.2,7.2,4.7,7.2
		C186.6,455.4,187.9,452.9,187.9,448.1z"/>
	<path fill="#FFFFFF" d="M194.7,442.9c0-1-0.3-1.4-1.2-1.4h-1.1v-1.4c0,0,2.4,0.1,3.8,0.1s3.4-0.1,3.8-0.1v1.4H199
		c-1,0-1.4,0.3-1.4,1.4v7c0,3.9,1.5,5.2,4.2,5.2c2.7,0,4.3-1.2,4.3-5.2c0-1.9,0-4.4,0-7c0-0.9-0.5-1.4-1.4-1.4h-1.1v-1.4
		c0,0,2.1,0.1,3.3,0.1c1.2,0,2.9-0.1,3.3-0.1v1.4h-1.1c-0.9,0-1.2,0.5-1.2,1.4c0,2.6,0,5,0,6.7c0,4.7-2,7-6.4,7
		c-4.5,0-6.9-2-6.9-7.1C194.7,449.6,194.8,444.3,194.7,442.9z"/>
	<path fill="#FFFFFF" d="M225.8,451.3c0.1-2.9,0.1-7.4,0-8.7c0-1-0.4-1.2-1.3-1.2H223v-1.4c0.4,0,2.2,0.1,3.6,0.1s3.5-0.1,3.5-0.1
		v1.4h-1.5c-0.9,0-1.2,0.3-1.3,1.2c-0.1,1.4-0.1,10.7,0,13.5c-0.4,0-1.4,0-1.8,0c-1.9-2.9-5.9-8.8-8.8-12.8c0,3.7,0,9.1,0,10.4
		c0,0.8,0.3,1,1.4,1h1.4v1.5c0,0-2.2,0-3.6,0c-1.4,0-3.6,0-3.6,0v-1.5h1.4c1.1,0,1.4-0.2,1.4-1c0.1-1.8,0.1-9.8,0-11.2
		c-0.1-0.9-0.4-1.2-1.3-1.2h-1.5v-1.4c1.3,0,4.1,0,5.5,0C219.7,442.8,223.6,448.3,225.8,451.3z"/>
	<path fill="#FFFFFF" d="M241.1,441.5c0,3.1,0,10.7,0,12c0,0.9,0.3,1.4,1.3,1.4h1.5v1.5c0,0-2.6,0-4.1,0s-4.1,0-4.1,0v-1.5h1.4
		c1.1,0,1.4-0.5,1.4-1.4c0.1-1.3,0.1-8.9,0-12h-1.9c-1.9,0-2.4,0.9-2.4,2.1l-0.1,2.3h-1.6c0.1-1.5,0-4.6-0.1-5.9
		c0.7,0.1,1.9,0.1,3.6,0.1h7.6c2,0,2.7,0,3.6-0.1c-0.1,1.5-0.2,4.6-0.1,5.9h-1.5l-0.1-2.3c-0.1-1.4-0.7-2.1-2.4-2.1H241.1z"/>
	<path fill="#FFFFFF" d="M264,455.1c1.1,0,1.2-1.6,0.8-3.7l1.1-0.1c0.6,2.7,0.3,5.4-2.6,5.4c-3.1,0-3.7-1.8-3.9-4.7
		c-0.1-2.6-1.3-3.1-2.8-3.1h-1.7c0,2,0,4,0.1,4.5c0.1,1,0.5,1.4,1.4,1.4h1.1v1.4c0,0-2.7,0-4,0c-1.5,0-4,0-4,0v-1.3h1.1
		c1.1,0,1.6-0.4,1.6-1.4c0.1-1.3,0.1-9.5,0-10.8c0-0.9-0.4-1.2-1.2-1.2h-1.5v-1.4c0.4,0,3.6,0,4.1,0c1.1,0,2.9,0,3.9,0
		c3.9,0,6.1,1.5,6.1,4.3c0,2.3-1.8,3.9-3.8,4.2c1.8,0.5,2.4,1.5,2.6,3.1C262.7,454.7,263.2,455.1,264,455.1z M254.8,447.8h1.9
		c2.7,0,3.7-1,3.7-3.3s-1-3.2-3.4-3.2h-1.2c-0.7,0-0.9,0.4-0.9,1C254.8,443.1,254.8,445.5,254.8,447.8z"/>
	<path fill="#FFFFFF" d="M276.1,450.7v2.9c0,1,0.1,1.2,1.4,1.2h1.6v1.4c0,0-2.7,0-4.3,0s-4.4,0-4.4,0v-1.3h1.6
		c1.3,0,1.4-0.3,1.4-1.2v-2.9c-1.2-2.2-3.1-5.9-4.2-7.7c-0.6-1.1-1.3-1.5-2.7-1.5H266v-1.4c0,0,2.7,0.1,4.2,0.1
		c1.6,0,4.2-0.1,4.2-0.1v1.4h-1.2c-1.4,0-1.6,0.7-1.2,1.6c0.7,1.4,2.4,4.5,3.4,6.1c1-1.7,2.3-4.6,3.1-6.1c0.4-0.9,0.5-1.6-1.1-1.6
		h-0.9v-1.4c0,0,2.2,0.1,3.6,0.1c1.3,0,3.5-0.1,3.5-0.1v1.4h-0.6c-1.9,0-2.3,0.4-3.1,1.7C279.3,444.9,277.3,448.4,276.1,450.7z"/>
	<path fill="#FFFFFF" d="M299,456.2h-7.8v-1.4h1.4c1.1,0,1.4-0.1,1.4-1c0.1-1.8,0.1-9.8,0-11.2c0-0.9-0.4-1.2-1.2-1.2h-1.5v-1.4
		c0.4,0,3.6,0,4.1,0c1.1,0,2.5,0,3.5,0c3.9,0,6.1,1.4,6.1,4.1c0,1.8-1,3.1-2.7,3.7c1.9,0.5,3.3,1.9,3.3,3.7
		C305.6,454.4,304.2,456.2,299,456.2z M296.8,447.3h1.6c2.7,0,3.7-0.8,3.7-3.1c0-1.8-1-2.9-3.4-2.9h-0.9c-0.7,0-0.9,0.4-0.9,1
		C296.8,443.1,296.8,445.2,296.8,447.3z M296.8,448.5c0,2.3,0,4.7,0,5.6c0,0.8,0.4,1,0.9,1h1.3c2.7,0,3.6-1.2,3.6-3.4
		c0-2.1-1.3-3.1-4.2-3.1H296.8z"/>
	<path fill="#FFFFFF" d="M319.3,451.1c-1.7,0-4.8,0-6.5,0c-0.2,0.7-0.4,1.2-0.5,1.5c-0.4,1.3-0.3,2.2,1.3,2.2h1v1.5c0,0-2.3,0-3.6,0
		s-3.6,0-3.6,0v-1.5h0.9c1.3,0,1.9-0.5,2.4-1.9s3.8-10.2,4.8-13c0,0,0.9,0.1,1.4,0.1s1.3-0.1,1.3-0.1c1,2.7,4.5,11.6,5.1,13
		c0.6,1.4,1.1,1.9,2,1.9h1.1v1.5c0,0-2.6,0-4.2,0s-4.2,0-4.2,0v-1.5h1.1c1.1,0,1.6-0.8,1-2.2L319.3,451.1z M315.9,442.4
		c-0.7,1.7-1.9,5.2-2.8,7.6c1.7,0,4.1,0,5.7,0C317.9,447.4,316.6,444,315.9,442.4z"/>
	<path fill="#FFFFFF" d="M342.9,455.1c1.1,0,1.2-1.6,0.8-3.7l1.1-0.1c0.6,2.7,0.3,5.4-2.6,5.4c-3.1,0-3.7-1.8-3.9-4.7
		c-0.1-2.6-1.3-3.1-2.8-3.1h-1.7c0,2,0,4,0.1,4.5c0.1,1,0.5,1.4,1.4,1.4h1.1v1.4c0,0-2.7,0-4,0c-1.5,0-4,0-4,0v-1.3h1.1
		c1.1,0,1.6-0.4,1.6-1.4c0.1-1.3,0.1-9.5,0-10.8c0-0.9-0.4-1.2-1.2-1.2h-1.5v-1.4c0.4,0,3.6,0,4.1,0c1.1,0,2.9,0,3.9,0
		c3.9,0,6.1,1.5,6.1,4.3c0,2.3-1.8,3.9-3.8,4.2c1.8,0.5,2.4,1.5,2.6,3.1C341.6,454.7,342.1,455.1,342.9,455.1z M333.7,447.8h1.9
		c2.7,0,3.7-1,3.7-3.3s-1-3.2-3.4-3.2h-1.2c-0.7,0-0.9,0.4-0.9,1C333.7,443.1,333.7,445.5,333.7,447.8z"/>
	<path fill="#FFFFFF" d="M365,456.5c-1.3,0-2.4-0.2-3.5-1.1c-1,0.7-2.2,1.2-4,1.2c-3,0-5-1.6-5-4.2c0-2.4,1.9-3.9,3.8-4.3
		c-0.8-1.7-1.1-2.9-1.1-4.2c0-2.8,1.6-4.1,4.2-4.1c2.4,0,3.6,1.6,3.6,3.4c0,2.3-1.5,4.2-3.6,5l0.7,1.2c1.1,1.7,1.9,2.8,2.5,3.7
		c0.9-1,1.2-2,1.3-3.1c0-0.6-0.1-1.3-1-1.3h-0.7v-1.1c0,0,1.9,0.1,2.9,0.1s2.9-0.1,2.9-0.1v1.1h-1c-1.1,0-1.4,0.6-1.5,1.1
		c-0.3,1.6-1.1,2.8-2.4,4c1.2,1.4,1.9,1.5,2.6,1.5c1.3,0,2.1-1,2.1-2.4l0.8,0.1C368.5,454.8,367.9,456.5,365,456.5z M360.7,454.9
		c-1-0.9-1.9-2.3-3.2-4.4c-0.3-0.5-0.5-0.9-0.7-1.3c-1,0.6-1.7,1.7-1.7,2.8c0,2,1.2,3.3,3,3.3C359.2,455.3,360,455.1,360.7,454.9z
		 M359,447.5c1.7-0.8,2-2.2,2-4.1c0-1.8-0.5-2.4-1.7-2.4s-1.7,0.7-1.7,2.4C357.7,444.7,358.1,445.8,359,447.5z"/>
	<path fill="#FFFFFF" d="M387.8,440.6c1.3,0.7,1.6,0.5,1.7-0.7h1.4c-0.2,1.2-0.5,4-0.4,5.9c-0.5,0-1.1,0-1.6,0
		c-0.5-2.6-1.2-4.9-4.9-4.9c-3.3,0-4.8,2.2-4.8,7.2c0,5.8,2,7.2,4.6,7.2c2.4,0,4.3-1.3,4.3-4c0-1.6-0.2-2.1-1.5-2.1h-1v-1.4
		c0,0,2.3,0.1,3.6,0.1c1.3,0,3.6-0.1,3.6-0.1v1.4h-0.8c-0.7,0-1,0.4-1,1.3c0,1.3,0,4.3,0.1,5.9c-0.4,0-1.2,0-1.6,0
		c-0.1-0.6-0.4-1.7-0.7-2.6c-0.9,1.7-2.8,2.9-5.2,2.9c-4.7,0-7.8-2.4-7.8-8.6c0-6,3.5-8.5,7.9-8.5
		C385.3,439.7,386.3,439.8,387.8,440.6z"/>
	<path fill="#FFFFFF" d="M408.8,455.1c1.1,0,1.2-1.6,0.8-3.7l1.1-0.1c0.6,2.7,0.3,5.4-2.6,5.4c-3.1,0-3.7-1.8-3.9-4.7
		c-0.1-2.6-1.3-3.1-2.8-3.1h-1.7c0,2,0,4,0.1,4.5c0.1,1,0.5,1.4,1.4,1.4h1.1v1.4c0,0-2.7,0-4,0c-1.5,0-4,0-4,0v-1.3h1.1
		c1.1,0,1.6-0.4,1.6-1.4c0.1-1.3,0.1-9.5,0-10.8c0-0.9-0.4-1.2-1.2-1.2h-1.5v-1.4c0.4,0,3.6,0,4.1,0c1.1,0,2.9,0,3.9,0
		c3.9,0,6.1,1.5,6.1,4.3c0,2.3-1.8,3.9-3.8,4.2c1.8,0.5,2.4,1.5,2.6,3.1C407.6,454.7,408.1,455.1,408.8,455.1z M399.7,447.8h1.9
		c2.7,0,3.7-1,3.7-3.3s-1-3.2-3.4-3.2h-1.2c-0.7,0-0.9,0.4-0.9,1C399.7,443.1,399.7,445.5,399.7,447.8z"/>
	<path fill="#FFFFFF" d="M412.9,454.9h1.3c1.1,0,1.4-0.1,1.4-1c0.1-1.8,0.1-9.8,0-11.2c0-0.9-0.4-1.2-1.2-1.2h-1.5v-1.4
		c0,0,2.6,0.1,4.1,0.1s3.7-0.1,4-0.1v1.4h-1.5c-0.9,0-1.2,0.3-1.2,1.2c-0.1,1.4-0.1,9.5,0,11.2c0,0.8,0.3,1,1.4,1h1.3v1.5
		c0,0-2.6,0-4,0s-4.1,0-4.1,0L412.9,454.9L412.9,454.9z"/>
	<path fill="#FFFFFF" d="M431.4,441.5h-1.5c-0.9,0-1.2,0.3-1.3,1.2c-0.1,1.4-0.1,9.5,0,11.2c0,0.7,0.4,1,1.2,1h1.9
		c2.6,0,3.7-0.9,4-4.9h1.5c-0.1,1.6-0.3,4.8-0.2,6.3c-1.1-0.1-3.3-0.1-4.4-0.1h-5.4c-1,0-3.3,0-4,0v-1.4h1.4c1.1,0,1.4-0.1,1.4-1
		c0.1-1.8,0.1-9.8,0-11.2c0-0.9-0.4-1.2-1.2-1.2h-1.5v-1.4c0,0,2.6,0.1,4.1,0.1s3.5-0.1,4-0.1L431.4,441.5L431.4,441.5z"/>
	<path fill="#FFFFFF" d="M447.2,441.5h-1.5c-0.9,0-1.2,0.3-1.3,1.2c-0.1,1.4-0.1,9.5,0,11.2c0,0.7,0.4,1,1.2,1h1.9
		c2.6,0,3.7-0.9,4-4.9h1.5c-0.1,1.6-0.3,4.8-0.2,6.3c-1.1-0.1-3.3-0.1-4.4-0.1h-5.4c-1,0-3.3,0-4,0v-1.4h1.4c1.1,0,1.4-0.1,1.4-1
		c0.1-1.8,0.1-9.8,0-11.2c0-0.9-0.4-1.2-1.2-1.2h-1.5v-1.4c0,0,2.6,0.1,4.1,0.1s3.5-0.1,4-0.1L447.2,441.5L447.2,441.5z"/>
</g>
<path fill="#FFFFFF" d="M279.7,411.8"/>
<g>
	<path fill="#FFFFFF" d="M281.5,423.8v-10.1h4.7v1.6h-2.9v2.6h2.2v1.6h-2.2v2.9h3.1v1.6L281.5,423.8L281.5,423.8z"/>
	<path fill="#FFFFFF" d="M291.4,416.1c-0.1-0.9-0.5-1.1-0.9-1.1c-0.6,0-0.9,0.4-0.9,1c0,1.8,3.5,2.5,3.5,5.3c0,1.7-1.1,2.6-2.7,2.6
		c-1.7,0-2.5-1.3-2.6-2.8l1.7-0.2c0.1,1,0.5,1.6,1.1,1.6s1-0.3,1-0.9c0-2-3.5-2.5-3.5-5.5c0-1.7,1-2.5,2.7-2.5c1.5,0,2.2,1,2.4,2.4
		L291.4,416.1z"/>
	<path fill="#FFFFFF" d="M296.2,415.1h-1.7v-1.6h5.1v1.6H298v8.6h-1.8V415.1z"/>
	<path fill="#FFFFFF" d="M300.4,423.8v-1.7h1.7v1.7H300.4z"/>
	<path fill="#FFFFFF" d="M308.9,415.7h-1.4v-1c0.8-0.4,1.5-0.8,2-1.3h0.9v10.2h-1.6V415.7z"/>
	<path fill="#FFFFFF" d="M314,418.3c-0.6-0.5-0.9-1.3-0.9-2c0-1.9,0.9-2.8,2.3-2.8s2.3,0.9,2.3,2.8c0,0.8-0.3,1.6-0.9,2
		c0.9,0.6,1.1,1.4,1.1,2.6c0,1.9-0.9,2.9-2.4,2.9c-1.7,0-2.4-1.1-2.4-2.9C313,419.7,313.2,418.9,314,418.3z M316.3,420.8
		c0-1.1-0.2-1.7-0.9-1.7c-0.7,0-0.9,0.6-0.9,1.7c0,1.1,0.2,1.7,0.9,1.7S316.3,421.8,316.3,420.8z M316.2,416.3c0-1-0.2-1.4-0.8-1.4
		c-0.5,0-0.8,0.4-0.8,1.4s0.2,1.4,0.8,1.4S316.2,417.2,316.2,416.3z"/>
	<path fill="#FFFFFF" d="M319.6,415v-1.5h4.6v1l-2,9.2h-1.7l2-8.7H319.6z"/>
	<path fill="#FFFFFF" d="M328.3,421.3h-3v-1.3l2.9-6.4h1.7v6.4h0.9v1.3h-0.9v2.4h-1.6V421.3z M328.3,420v-4l0,0l-1.7,4H328.3z"/>
</g>
<polygon fill="#FFFFFF" points="269.7,417.4 270.6,415.7 271.5,417.4 273.4,417.8 271.9,419.2 272.2,421.1 270.5,420.2 268.7,421 
	269.1,419.1 267.8,417.6 "/>
<polygon fill="#FFFFFF" points="340.3,417.4 341.3,415.7 342.1,417.4 344,417.8 342.6,419.2 342.9,421.1 341.1,420.2 339.4,421 
	339.8,419.1 338.4,417.6 "/>
<polygon fill="#FFFFFF" points="486.8,454.2 487.8,452.4 488.6,454.2 490.6,454.6 489.1,455.9 489.4,457.9 487.7,456.9 485.8,457.8 
	486.2,455.8 484.8,454.4 "/>
<polygon fill="#FFFFFF" points="123.6,454.2 124.6,452.4 125.4,454.2 127.4,454.6 126,455.9 126.2,457.9 124.5,456.9 122.7,457.8 
	123.1,455.8 121.7,454.4 "/>
<path fill="#FFFFFF" d="M356.9,467.2"/>
<g>
	<path fill="#FFFFFF" d="M493.7,445.2c-8.5-2.6-15.1-5.1-19.8-7.4c0-1.2,0-2.3,0-3.3c1.7,1.2,4,2.5,7.5,3.8c4.3,1.7,5.9-0.3,6.2-1
		c0.6-1.2,0.5-2.6-0.4-3.3c-0.2-0.1-0.4-0.1-0.5,0.1c-0.1,0.2-0.1,0.4,0.1,0.5c0.5,0.4,0.7,1.4,0.2,2.3c-0.8,1.4-2.8,1.7-5.3,0.7
		c-3.8-1.5-6.2-2.8-7.8-4c0-1.3,0-2.4,0-3.1c0-3.3-1.2-4.1-1.7-4.4c-0.6-0.3-1.2-0.1-1.7,0.3c-0.5,0.5-1,1.6-0.5,3
		c0.5,1.6,1.4,3.1,3.1,4.5c0,1,0,2.2,0,3.4c-1.3-0.7-2.4-1.3-3.3-2c0-0.6,0-1.1,0-1.6c-0.1-4.1-2.4-6.4-3.9-6.4c0,0,0,0,0,0
		c-0.7,0-1.4,0.5-1.5,1.7c-0.1,2.2,1.4,4.4,4.7,6.6c0.1,4.9,0,14.5,0,21.1c0,2.1,0,3.9,0,5.3c-1.7,0.3-3,1.1-3.9,2.3
		c-0.5,0.7-0.9,1.4-1.1,2.2h-64.5h-0.3h-90.8L306,469l-2.4-2.3H148.5c-0.3-0.8-0.6-1.5-1.1-2.2c-1-1.2-2.3-2-4-2.3
		c0-1.4,0-3.2,0-5.3c0-6.6-0.1-16.2,0-21.1c3.3-2.3,4.9-4.5,4.7-6.6c-0.1-1.3-0.8-1.7-1.5-1.7c-1.5,0-3.8,2.3-3.9,6.4
		c0,0.4,0,1,0,1.6c-0.9,0.6-2,1.3-3.2,1.9c0-1.2,0-2.4,0-3.4c1.7-1.4,2.5-2.9,3.1-4.5c0.5-1.5,0.1-2.5-0.5-3
		c-0.5-0.4-1.1-0.5-1.7-0.3c-0.5,0.2-1.7,1.1-1.7,4.4c0,0.7,0,1.8,0,3.1c-1.6,1.2-4,2.6-7.8,4c-2.5,1-4.5,0.8-5.3-0.7
		c-0.5-0.9-0.3-1.9,0.2-2.3c0.2-0.1,0.2-0.4,0.1-0.5c-0.1-0.2-0.4-0.2-0.5-0.1c-0.9,0.7-1.1,2.1-0.4,3.3c0.4,0.7,1.9,2.7,6.2,1
		c3.5-1.3,5.8-2.6,7.5-3.8c0,1,0,2.1,0,3.2c-4.7,2.4-11.3,4.9-19.9,7.5c-31.3,9.5-33.9,16.1-34,16.4c-0.1,0.2,0,0.4,0.2,0.5
		c0.2,0.1,0.4,0,0.5-0.2c0-0.1,1.9-4.5,19.6-11.2c-1,0.7-1.8,1.4-2.3,2.2c-1,1.5-1.1,3.1-0.5,4.5c0.5,1.1,1.6,2,2.7,2.2c0,0,0,0,0,0
		c0.2,0,0.3-0.1,0.4-0.3c0-0.2-0.1-0.4-0.3-0.4c-0.7-0.1-1.6-0.7-2.1-1.7c-0.5-1.1-0.4-2.5,0.4-3.7c2-3.2,9.2-5.3,9.2-5.3
		c0.1,0,0.1,0,0.1-0.1c1.9-0.6,4-1.3,6.2-2c8.4-2.6,14.9-5,19.7-7.4c0.1,8.6,0.3,20.6,0.3,23.7c-3,0.5-4.8,2-5.3,3.4
		c-0.3,0.8-0.1,1.5,0.5,2c0.7,0.5,1.8,0.5,2.8,0c1.3-0.6,2.7-2.2,2.7-4.6c0,0,0,0,0-0.1c0.5-0.1,1-0.1,1.5-0.1c0.5,0,1,0,1.5,0.1
		c0,0.3,0,0.5,0,0.7c0,1.3-0.1,2.4-0.3,3.4c-4,0.6-5.3,2.4-5.6,3.1c-0.4,0.8-0.4,1.6,0,2.2c0.3,0.4,0.8,0.6,1.4,0.6
		c0.3,0,0.6-0.1,0.9-0.2c1.5-0.5,3.1-2.1,3.9-5c0.7-0.1,1.6-0.1,2.5-0.1h2.7c0.7,2.7,0,5.5,0,5.6c0,0.2,0.1,0.4,0.3,0.5
		c0,0,0.1,0,0.1,0c0.2,0,0.3-0.1,0.4-0.3c0-0.2,0.7-3,0-5.8h154.7l0.1,0.1l-11.2,3.4c-0.2,0.1-0.3,0.3-0.3,0.5
		c0,0.2,0.2,0.3,0.4,0.3c0,0,0.1,0,0.1,0l11.3-3.4l-10.1,6.5c-0.2,0.1-0.2,0.3-0.1,0.5c0.1,0.1,0.2,0.2,0.3,0.2c0.1,0,0.1,0,0.2-0.1
		l10.4-6.7l-7.7,9.9c-0.1,0.2-0.1,0.4,0.1,0.5c0.1,0.1,0.1,0.1,0.2,0.1c0.1,0,0.2,0,0.3-0.1l7.4-9.6l-3.8,11.6
		c-0.1,0.2,0,0.4,0.2,0.5c0,0,0.1,0,0.1,0c0.2,0,0.3-0.1,0.4-0.3l3.8-11.8l0,0c0,0,0,0,0,0V482c0,0.2,0.2,0.4,0.4,0.4
		s0.4-0.2,0.4-0.4v-12l3.9,11.3c0.1,0.2,0.2,0.3,0.4,0.3c0,0,0.1,0,0.1,0c0.2-0.1,0.3-0.3,0.2-0.5l-3.9-11.5l7.5,9.4
		c0.1,0.1,0.2,0.1,0.3,0.1c0.1,0,0.2,0,0.2-0.1c0.2-0.1,0.2-0.4,0.1-0.5l-7.7-9.7l0,0l10.3,6.5c0.1,0,0.1,0.1,0.2,0.1
		c0.1,0,0.2-0.1,0.3-0.2c0.1-0.2,0.1-0.4-0.1-0.5l-10.2-6.4l0,0l11.4,3.5c0,0,0.1,0,0.1,0c0.2,0,0.3-0.1,0.4-0.3
		c0.1-0.2-0.1-0.4-0.3-0.5l-11-3.3l0.1-0.1h90.5h0.3h64.3c-0.7,2.8,0,5.6,0,5.8c0,0.2,0.2,0.3,0.4,0.3c0,0,0.1,0,0.1,0
		c0.2,0,0.3-0.3,0.3-0.5c0,0-0.7-2.9,0-5.6h2.6c0.9,0,1.7,0.1,2.5,0.1c0.8,3,2.5,4.6,3.9,5c0.3,0.1,0.6,0.2,0.9,0.2
		c0.6,0,1.1-0.2,1.4-0.6c0.4-0.6,0.4-1.4,0-2.2c-0.3-0.6-1.6-2.5-5.6-3.1c-0.2-1-0.3-2.1-0.3-3.4c0-0.2,0-0.4,0-0.7
		c0.5-0.1,0.9-0.1,1.4-0.1c0,0,0.1,0,0.1,0c0.5,0,1,0,1.5,0.1c0,0.1,0,0.1,0,0.1c0,2.4,1.4,4,2.7,4.6c1.1,0.5,2.2,0.5,2.8,0
		c0.6-0.5,0.8-1.2,0.5-2c-0.5-1.4-2.3-2.8-5.3-3.4c0-3.1,0.2-15,0.3-23.7c4.7,2.4,11.2,4.8,19.6,7.3c2.2,0.7,4.3,1.3,6.2,2
		c0,0,0.1,0.1,0.1,0.1c0.1,0,7.2,2.1,9.2,5.3c1,1.6,0.8,2.9,0.4,3.7c-0.5,1-1.4,1.6-2.1,1.7c-0.2,0-0.4,0.2-0.3,0.4
		c0,0.2,0.2,0.3,0.4,0.3c0,0,0,0,0,0c1-0.1,2.1-1,2.7-2.2c0.7-1.4,0.5-3-0.5-4.5c-0.5-0.8-1.4-1.6-2.3-2.2
		c17.6,6.7,19.6,11.2,19.6,11.2c0.1,0.2,0.3,0.3,0.5,0.2c0.2-0.1,0.3-0.3,0.2-0.5C527.6,461.4,525,454.7,493.7,445.2z M470.9,429.2
		c-0.4-1.1-0.1-1.9,0.3-2.3c0.2-0.1,0.3-0.2,0.5-0.2c0.1,0,0.2,0,0.3,0.1c0.6,0.3,1.3,1.4,1.3,3.7c0,0.6,0,1.5,0,2.5
		C471.8,431.7,471.3,430.4,470.9,429.2z M465.1,429.2c0-0.5,0.2-1,0.7-1c0,0,0,0,0,0c1,0,3.1,2,3.2,5.7c0,0.3,0,0.6,0,1
		C466.4,433,465,431.1,465.1,429.2z M143.3,433.9c0.1-3.7,2.1-5.7,3.2-5.7c0,0,0,0,0,0c0.6,0,0.7,0.6,0.7,1c0.1,1.8-1.2,3.7-4,5.7
		C143.3,434.6,143.3,434.2,143.3,433.9z M140.5,426.8c0.1,0,0.2-0.1,0.3-0.1c0.2,0,0.4,0.1,0.5,0.2c0.4,0.3,0.6,1.1,0.3,2.3
		c-0.4,1.2-1,2.5-2.4,3.8c0-1,0-1.9,0-2.5C139.2,428.2,139.9,427.1,140.5,426.8z M138.7,472c-0.7,0.2-1.2,0.1-1.5-0.2
		c-0.2-0.3-0.2-0.9,0-1.4c0.5-1,2-2.1,4.8-2.6C141.3,470.2,139.9,471.6,138.7,472z M136.5,467c-0.8,0.4-1.6,0.4-2,0.1
		c-0.4-0.3-0.4-0.8-0.2-1.1c0.3-1,1.8-2.3,4.6-2.8C138.9,465.1,137.7,466.4,136.5,467z M141.1,462.1c-0.5,0-1,0-1.5,0.1
		c0-3.3-0.2-15.4-0.3-24c1.2-0.6,2.3-1.2,3.2-1.9c-0.1,5.1,0,14.2,0,20.6c0,2,0,3.8,0,5.2C142.1,462.1,141.6,462.1,141.1,462.1z
		 M145.3,466.8c-0.8,0-1.6,0-2.3,0.1c0.2-1,0.3-2,0.3-3.2c0-0.2,0-0.4,0-0.6c1.5,0.3,2.6,1,3.4,2c0.4,0.5,0.7,1.1,0.9,1.7H145.3z
		 M475.1,470.4c0.3,0.5,0.3,1,0,1.4c-0.2,0.3-0.8,0.4-1.5,0.2c-1.2-0.4-2.6-1.7-3.3-4.2C473.1,468.3,474.6,469.4,475.1,470.4z
		 M469.4,466.9c-0.7-0.1-1.4-0.1-2.3-0.1h-2.3c0.2-0.6,0.5-1.2,0.9-1.7c0.8-1,1.9-1.7,3.4-2c0,0.2,0,0.4,0,0.6
		C469.1,464.8,469.2,465.9,469.4,466.9z M478.2,465.9c0.1,0.3,0.2,0.8-0.2,1.1c-0.4,0.3-1.2,0.3-2-0.1c-1.1-0.5-2.3-1.9-2.3-3.9
		C476.4,463.6,477.9,464.9,478.2,465.9z M472.9,462.2c-0.5-0.1-1-0.1-1.5-0.1c-0.6,0-1.1,0-1.6,0.1c0-1.4,0-3.2,0-5.2
		c0-6.4,0.1-15.6,0-20.6c1,0.6,2.1,1.3,3.3,1.9C473.1,446.8,472.9,458.9,472.9,462.2z"/>
	<path fill="#FFFFFF" d="M158.9,426.9c3.2,2.5,11.6,3.4,20.9,2.2c0.4-0.1,0.8-0.1,1.2-0.2c1.4,1.3,3.5,1.8,5.8,1.8
		c5.1,0,11.7-2.3,16.7-4.1c3.9-1.4,7-2.5,9.6-3.5c1.6-0.6,3-1.1,4.3-1.6c4.3,1,7.4,1.6,9.1,1.7c3.9,0.2,6.7-0.5,7.3-1.8
		c0.3-0.5,0.2-1.1-0.2-1.6c-1.2-1.5-5.3-2.3-10.6-0.9c-1.9,0.5-3.7,1.1-5.7,1.8c-0.6-0.1-1.2-0.3-1.9-0.4c-0.6-0.1-1.3-0.3-2-0.5
		c10.3-3.9,14.9-5.5,24.1-8c6.9-1.9,11.9-2,14.4-0.4c1,0.6,1.5,1.5,1.7,2.7c0.2,1.1-0.1,2.2-0.8,2.9c-0.6,0.6-1.4,0.9-2.2,0.8
		c-1.1-0.1-1.8-0.6-2.1-1.4c-0.3-0.7-0.1-1.5,0.2-1.9c0.1-0.2,0.1-0.4,0-0.5c-0.2-0.1-0.4-0.1-0.5,0c-0.6,0.6-0.7,1.7-0.4,2.6
		c0.2,0.6,0.9,1.7,2.8,1.9c1.1,0.1,2.1-0.3,2.8-1.1c0.8-0.9,1.2-2.2,1-3.5c-0.2-1.4-0.9-2.4-2.1-3.2c-0.6-0.4-1.3-0.7-2.2-0.9
		l9.9-0.9c2.1-0.2,2.5-1.7,2.5-2.5c0-0.2-0.2-0.4-0.4-0.4c-0.2,0-0.4,0.2-0.4,0.4c0,0.1,0.1,1.6-1.8,1.8l-15.4,1.4
		c-0.1,0-0.1,0-0.2,0.1c-2.1,0.2-4.4,0.7-7.1,1.4c-9.5,2.6-14.2,4.3-25.2,8.5c-0.8-0.2-1.7-0.4-2.6-0.6c-8.9-2-15.9-2.9-21.3-3
		c-12.3-0.3-26.3,2.8-29.9,6.7c-0.6,0.7-0.9,1.4-0.9,2.1C157.7,425.5,158.1,426.2,158.9,426.9z M223.3,419.7c5.6-1.5,9-0.4,9.8,0.7
		c0.3,0.4,0.2,0.7,0.1,0.7c-0.4,0.8-2.4,1.6-6.6,1.4c-1.5-0.1-4.1-0.6-7.8-1.4C220.4,420.5,221.8,420,223.3,419.7z M212.3,420.3
		c1.1,0.2,2.1,0.5,3.1,0.7c0.3,0.1,0.5,0.1,0.8,0.2c-1,0.4-2.1,0.8-3.2,1.2c-2.7,1-5.7,2.1-9.6,3.5c-6.9,2.4-16.9,6-21.3,2.9
		c9.5-1.4,18.5-3.9,29.6-8.2C211.9,420.4,212.1,420.4,212.3,420.3z M159,423.1c3-3.2,14.8-6.5,27.5-6.5c0.6,0,1.2,0,1.8,0
		c5.4,0.1,12.3,1.1,21.2,3c0.5,0.1,1,0.2,1.5,0.3c-11.2,4.2-20.2,6.7-29.7,8.1c-0.3-0.3-0.5-0.6-0.7-1c-0.7-1.3-0.7-2.6,0-3.8
		c0.7-1.3,2.1-2.1,3.5-2.1c1.8,0.1,2,1.3,2,1.3c0,0.2,0.2,0.4,0.4,0.3c0.2,0,0.4-0.2,0.3-0.4c-0.1-0.6-0.7-1.9-2.7-2
		c-1.6,0-3.3,1-4.1,2.5c-0.8,1.4-0.8,3,0,4.5c0.1,0.3,0.3,0.5,0.5,0.7c-0.2,0-0.5,0.1-0.7,0.1c-8.9,1.2-17.3,0.4-20.3-2
		c-0.6-0.5-1-1.1-1.1-1.7C158.3,424.1,158.5,423.6,159,423.1z"/>
	<path fill="#FFFFFF" d="M423.4,415.9c-5.4,0.1-12.4,1.1-21.3,3c-0.9,0.2-1.7,0.4-2.6,0.6c-11.1-4.2-15.7-5.8-25.2-8.5
		c-2.7-0.7-5-1.2-7.1-1.4c0,0-0.1-0.1-0.2-0.1l-15.4-1.4c-1.8-0.2-1.8-1.6-1.8-1.8c0-0.2-0.1-0.4-0.4-0.4c-0.2,0-0.4,0.2-0.4,0.4
		c0,0.8,0.4,2.4,2.5,2.5l9.9,0.9c-0.8,0.2-1.6,0.5-2.2,0.9c-1.2,0.7-1.8,1.8-2.1,3.2c-0.2,1.3,0.1,2.6,1,3.5
		c0.7,0.8,1.7,1.2,2.8,1.1c1.8-0.2,2.5-1.3,2.8-1.9c0.4-0.9,0.2-2-0.4-2.6c-0.1-0.2-0.4-0.2-0.5,0s-0.2,0.4,0,0.5
		c0.3,0.4,0.5,1.1,0.2,1.9c-0.3,0.8-1.1,1.3-2.1,1.4c-0.9,0.1-1.7-0.2-2.2-0.8c-0.7-0.7-1-1.8-0.8-2.9c0.2-1.2,0.8-2,1.7-2.7
		c2.5-1.6,7.4-1.4,14.4,0.4c9.2,2.6,13.8,4.2,24.1,8c-0.7,0.2-1.4,0.3-2,0.5c-0.7,0.1-1.3,0.3-1.9,0.4c-2-0.7-3.8-1.3-5.7-1.8
		c-5.4-1.4-9.4-0.6-10.6,0.9c-0.4,0.5-0.5,1-0.2,1.6c0.7,1.3,3.4,2,7.3,1.8c1.7-0.1,4.8-0.7,9.1-1.7c1.3,0.5,2.7,1,4.3,1.6
		c2.7,1,5.7,2.1,9.6,3.5c5,1.8,11.6,4.1,16.7,4.1c2.4,0,4.4-0.5,5.8-1.8c0.4,0.1,0.8,0.1,1.2,0.2c9.3,1.2,17.7,0.4,20.9-2.2
		c0.8-0.6,1.3-1.4,1.4-2.2c0.1-0.7-0.2-1.4-0.9-2.1C449.6,418.7,435.7,415.6,423.4,415.9z M385.1,422.4c-4.3,0.2-6.2-0.6-6.6-1.4
		c0-0.1-0.2-0.4,0.1-0.7c0.5-0.7,2.2-1.4,4.8-1.4c1.4,0,3.1,0.2,5,0.7c1.5,0.4,2.9,0.8,4.5,1.3C389.2,421.8,386.5,422.4,385.1,422.4
		z M408.4,425.9c-3.9-1.4-6.9-2.5-9.6-3.5c-1.2-0.4-2.2-0.8-3.2-1.2c0.2-0.1,0.5-0.1,0.8-0.2c1-0.2,2-0.5,3.1-0.7
		c0.2,0.1,0.4,0.2,0.6,0.2c11.2,4.3,20.2,6.8,29.6,8.2C425.3,431.8,415.3,428.3,408.4,425.9z M452.7,423.1c0.5,0.5,0.7,1,0.7,1.5
		c-0.1,0.6-0.4,1.1-1.1,1.7c-3,2.4-11.4,3.2-20.3,2c-0.2,0-0.5-0.1-0.7-0.1c0.2-0.2,0.3-0.5,0.5-0.7c0.8-1.5,0.8-3.1,0-4.5
		c-0.9-1.5-2.5-2.5-4.2-2.5c0,0,0,0,0,0c-1.9,0.1-2.6,1.3-2.7,2c0,0.2,0.1,0.4,0.3,0.4c0.2,0,0.4-0.1,0.4-0.3c0,0,0.2-1.2,2-1.3
		c1.4,0,2.8,0.8,3.5,2.1c0.7,1.2,0.7,2.5,0,3.8c-0.2,0.4-0.4,0.7-0.7,1c-9.5-1.4-18.5-3.8-29.7-8.1c0.5-0.1,1-0.2,1.5-0.3
		c8.9-1.9,15.8-2.9,21.2-3C436.8,416.3,449.6,419.8,452.7,423.1z"/>
	<path fill="#FFFFFF" d="M100.6,354.1c0.4-2.1-0.9-3.9-3.4-4.5c-4.2-0.9-13,1.5-19.4,4.3c-1.7-0.4-3.5-0.8-5.4-1.2
		c5.9-3.7,13.8-7.8,25.4-11.8c19.3-6.7,35.1-9.2,45.1-10.1c-5,0.8-10.7,2.1-14.5,4.2c-2.3,1.3-2.6,2.9-2.6,3.7c0.1,1.3,1,2.5,2.3,3
		c1.4,0.5,2.8,0.2,4-0.9c0.2-0.1,0.2-0.4,0-0.5c-0.1-0.1-0.4-0.2-0.5,0c-1,0.9-2.1,1.2-3.2,0.7c-1-0.4-1.8-1.4-1.8-2.4
		c-0.1-1.2,0.7-2.2,2.2-3c8.2-4.5,25.4-5.2,25.6-5.2l0-0.1c0.2,0,0.4-0.2,0.4-0.4c0-0.2-0.2-0.4-0.4-0.4c-0.1,0-1.9-0.1-5.3,0.1
		c-20.7-0.1-82.8-0.2-94.3-0.2c-1.4,0-3,0-4.6,0c-9.2,0-21,0.1-27.2-0.9c-0.2-1.6-0.6-2.9-1.3-3.9c-0.8-1.1-1.8-1.7-2.7-1.5
		c-0.9,0.2-1.5,0.9-1.7,1.8c-0.2,1.2,0.4,2.4,1.7,3.2c0.7,0.4,1.8,0.8,3.3,1c0.3,2.7,0.2,6.1,0.1,10.3c-0.1,2.2-0.1,4.7-0.1,7.4
		c-0.1,8.8,0,28.9,0,29.1c0,6.4-3,8.7-3.1,8.8c-0.2,0.1-0.2,0.4-0.1,0.5c0.1,0.1,0.2,0.2,0.3,0.2c0.1,0,0.2,0,0.2-0.1
		c0.1-0.1,3.4-2.5,3.4-9.4c0-0.2-0.1-20.4,0-29.1c0-2.6,0.1-5.1,0.1-7.3c0.1-3,0.1-5.6,0-7.8l6.3,17.5c0.1,0.2,0.2,0.2,0.4,0.2
		c0,0,0.1,0,0.1,0c0.2-0.1,0.3-0.3,0.2-0.5l-6.5-18.1l11.8,15c0.1,0.1,0.2,0.1,0.3,0.1c0.1,0,0.2,0,0.2-0.1c0.2-0.1,0.2-0.4,0.1-0.5
		l-11.8-15L40,340.9c0.1,0,0.1,0.1,0.2,0.1c0.1,0,0.2-0.1,0.3-0.2c0.1-0.2,0.1-0.4-0.1-0.5l-15.4-10.2l17.3,5.6c0,0,0.1,0,0.1,0
		c0.2,0,0.3-0.1,0.4-0.3c0.1-0.2,0-0.4-0.2-0.5l-16.1-5.2c6.5,0.5,15.7,0.5,23.6,0.5c1.6,0,3.2,0,4.6,0c10.2,0,59.4,0.1,85.2,0.1
		c-10.1,1.1-24.8,3.7-42.4,9.9c-12.1,4.2-20.2,8.5-26.2,12.3c-1.8-0.4-3.6-0.7-5.5-1c1.2-1.1,2.4-2.4,3.4-3.7
		c2.5-3.3,3.2-6.8,1.9-9.7c-0.9-1.9-2.6-3.2-4.4-3.3c-2.2-0.1-4.3,0.7-5.5,2.2c-1,1.2-1.5,2.7-1.2,4.2c0.6,3.3,3.9,3.3,4,3.3
		c0.2,0,0.4-0.2,0.4-0.4s-0.2-0.4-0.4-0.4c-0.1,0-2.7,0-3.2-2.7c-0.2-1.3,0.1-2.6,1-3.6c1.1-1.3,2.9-2,4.9-1.9
		c1.6,0.1,3,1.2,3.8,2.9c1.2,2.6,0.5,5.8-1.8,8.9c-1.1,1.4-2.4,2.8-3.8,4c-7.6-1.1-15.3-1.2-21,1.2c-7.7,3.3-10.6,7.7-10.1,10.7
		c0.3,2,2.2,3.3,4.9,3.5c1.3,0.1,2.5,0.1,3.6,0.1c10,0,14.7-3.4,21.4-8.3c0.9-0.6,1.8-1.3,2.7-2c3.1,0.6,5.2,1.2,5.3,1.3L72,358
		l0.2-0.1c1.3-1,3.3-2.1,5.8-3.2c1.8,0.4,3.5,0.9,5.1,1.3c3.1,0.8,5.8,1.5,7.9,1.9C96.5,358.9,100,356.8,100.6,354.1z M19.4,327.6
		c-1.5-0.9-1.5-2-1.4-2.4c0.1-0.6,0.5-1.1,1.1-1.2c0.1,0,0.2,0,0.2,0c0.6,0,1.2,0.4,1.7,1.2c0.6,0.9,0.9,2,1.2,3.4
		C20.9,328.2,20,327.9,19.4,327.6z M63.3,358.1c-7.6,5.5-12.2,8.9-24.5,8c-2.4-0.2-4-1.2-4.2-2.9c-0.4-2.6,2.4-6.9,9.6-9.9
		c3.3-1.4,7.1-1.9,11.3-1.9c2.8,0,5.8,0.3,8.7,0.7c-1.3,1.1-2.7,2.1-4.1,3c-3.5-0.4-7.2-0.4-10.5,0.2c-4.6,0.9-6.6,2.6-7,3.9
		c-0.2,0.6-0.1,1.1,0.3,1.5c0.9,0.9,2.9,1.1,5.5,0.5c1.6-0.4,6.7-2.1,11.9-5.4c1.8,0.2,3.6,0.5,5.2,0.8
		C64.7,357.1,64,357.6,63.3,358.1z M59,355.6c-4.5,2.7-8.9,4.3-10.8,4.7c-2.8,0.7-4.3,0.3-4.8-0.3c-0.2-0.2-0.3-0.5-0.2-0.8
		c0.4-1.1,2.5-2.6,6.5-3.4c1.7-0.3,3.6-0.5,5.4-0.5C56.5,355.4,57.8,355.5,59,355.6z M66.3,355.9c-1.5-0.3-3.2-0.6-5-0.8
		c1.3-0.9,2.6-1.9,3.9-3c1.8,0.3,3.6,0.6,5.3,0.9C69,354.1,67.6,355,66.3,355.9z M71.8,357.2c-0.5-0.2-2.2-0.6-4.5-1.1
		c1.3-0.9,2.7-1.8,4.2-2.8c1.8,0.4,3.5,0.8,5.2,1.2C74.7,355.4,73,356.3,71.8,357.2z M79,354.2c6.2-2.6,14.2-4.7,18-3.9
		c2.3,0.6,3.1,2.2,2.8,3.6c-0.5,2.3-3.7,4.2-8.9,3.2c-2.1-0.4-4.7-1.1-7.8-1.9C81.8,355,80.5,354.6,79,354.2z"/>
	<path fill="#FFFFFF" d="M537.4,355.9l0.2,0c0.1,0,2.4-0.3,5.7-0.5c0.1,0.1,0.2,0.2,0.3,0.3c7.9,6.3,14.3,11.3,26.3,11.3
		c0.7,0,1.4,0,2.1-0.1c2.7-0.1,4.6-1.4,4.9-3.4c0.6-3.1-2.3-7.6-10.1-10.9c-6.3-2.7-14.4-3.2-22.5-2.9c-0.8-0.8-1.5-1.6-2.1-2.5
		c-2.3-3.1-3-6.3-1.8-8.9c0.8-1.7,2.2-2.8,3.8-2.9c2-0.1,3.8,0.6,4.9,1.9c0.9,1,1.3,2.3,1,3.6c-0.5,2.7-3.1,2.7-3.2,2.7
		c-0.2,0-0.4,0.2-0.4,0.4c0,0.2,0.2,0.4,0.4,0.4c0,0,3.3,0,4-3.3c0.3-1.5-0.1-3-1.2-4.2c-1.3-1.5-3.3-2.3-5.5-2.2
		c-1.8,0.1-3.5,1.4-4.4,3.3c-1.3,2.8-0.6,6.3,1.9,9.7c0.5,0.7,1.1,1.4,1.7,2.1c-1.8,0.1-3.7,0.2-5.5,0.4
		c-6.2-4.5-13.7-9.1-25.1-12.6c-13.8-4.3-29-6.3-40.1-7.2c26.2-0.1,73.5-0.1,83.4-0.1c1.4,0,3,0,4.6,0c7.9,0,17.1,0.1,23.5-0.5
		l-16,5.2c-0.2,0.1-0.3,0.3-0.2,0.5c0.1,0.2,0.2,0.3,0.4,0.3c0,0,0.1,0,0.1,0l17.2-5.6l-15.3,10.2c-0.2,0.1-0.2,0.3-0.1,0.5
		c0.1,0.1,0.2,0.2,0.3,0.2c0.1,0,0.1,0,0.2-0.1l15.6-10.4l-11.7,15c-0.1,0.2-0.1,0.4,0.1,0.5c0.1,0.1,0.1,0.1,0.2,0.1
		c0.1,0,0.2,0,0.3-0.1l11.7-15l-6.4,18.1c-0.1,0.2,0,0.4,0.2,0.5c0,0,0.1,0,0.1,0c0.2,0,0.3-0.1,0.4-0.2l6.3-17.8
		c-0.1,2.3,0,5,0,8.1c0.1,2.2,0.1,4.7,0.1,7.3c0.1,8.8,0,28.9,0,29.1c0,6.8,3.2,9.3,3.4,9.4c0.1,0,0.1,0.1,0.2,0.1
		c0.1,0,0.2-0.1,0.3-0.2c0.1-0.2,0.1-0.4-0.1-0.5c0,0-3.1-2.3-3.1-8.8c0-0.2,0.1-20.4,0-29.1c0-2.6-0.1-5.1-0.1-7.4
		c-0.1-4.2-0.2-7.7,0.1-10.3c1.5-0.3,2.6-0.6,3.3-1c1.3-0.8,2-2,1.8-3.2c-0.2-0.9-0.8-1.6-1.7-1.8c-1-0.2-2,0.3-2.7,1.5
		c-0.7,1-1.1,2.3-1.3,3.9l-0.2,0.1c-6.2,0.9-17.9,0.9-27,0.9c-1.6,0-3.2,0-4.6,0c-11.8,0-76.5,0.1-95.7,0.2
		c-2.4-0.1-3.8-0.1-3.9-0.1c-0.2,0-0.4,0.2-0.4,0.4c0,0.2,0.2,0.4,0.4,0.4l0,0.1c0.2,0,17.4,0.7,25.6,5.2c1.5,0.8,2.2,1.9,2.2,3
		c-0.1,1-0.8,2-1.8,2.4c-1.1,0.4-2.3,0.2-3.2-0.7c-0.1-0.1-0.4-0.1-0.5,0c-0.1,0.2-0.1,0.4,0,0.5c1.2,1.1,2.6,1.4,4,0.9
		c1.3-0.5,2.2-1.7,2.3-3c0-0.8-0.2-2.5-2.6-3.7c-4-2.2-10-3.5-15.2-4.3c11.2,0.7,29.2,2.5,45.4,7.6c10.9,3.4,18.2,7.7,24.2,12
		c-2,0.2-4,0.5-5.9,0.7c-6.1-3.2-14-6.4-18.1-5.7c-2,0.3-3.4,1.2-3.8,2.5c-0.4,1.1-0.1,2.3,0.7,3.4c1.4,1.7,4.6,3.2,9.5,2.4l2.2-0.4
		c2.8-0.4,6-1,9.4-1.4c2.7,1.4,5,2.8,6.5,4L537.4,355.9z M589.7,325.1c0.5-0.8,1.1-1.2,1.7-1.2c0.1,0,0.2,0,0.2,0
		c0.5,0.1,1,0.6,1.1,1.2c0.1,0.4,0.1,1.5-1.4,2.4c-0.6,0.4-1.5,0.6-2.8,0.9C588.8,327.1,589.1,325.9,589.7,325.1z M521.2,352.5
		l-2.2,0.4c-4.5,0.8-7.5-0.6-8.8-2.1c-0.7-0.8-0.9-1.8-0.6-2.6c0.4-1,1.5-1.8,3.3-2c0.3-0.1,0.7-0.1,1.1-0.1
		c3.8,0,10.2,2.5,15.6,5.2C526.5,351.6,523.7,352.1,521.2,352.5z M566.5,353.3c7.3,3.1,10.1,7.4,9.6,10.1c-0.3,1.7-1.8,2.7-4.2,2.8
		c-13,0.6-19.5-4.4-27.6-10.9c1.6-0.1,3.4-0.2,5.2-0.2c5.5,3.6,11.1,5.6,12.8,6c2.6,0.6,4.7,0.5,5.5-0.5c0.4-0.4,0.5-1,0.3-1.5
		c-0.4-1.3-2.5-3-7-3.9c-3.4-0.7-7.5-0.9-11.4-0.8c-1.7-1.1-3.3-2.4-4.8-3.8C552.8,350.1,560.6,350.7,566.5,353.3z M551,355
		c3.5,0,7.1,0.2,10.1,0.8c4,0.8,6.1,2.3,6.5,3.4c0.1,0.3,0,0.6-0.2,0.8c-0.5,0.5-2,0.9-4.8,0.3C560.5,359.8,555.8,358,551,355z
		 M544,350.5c1.4,1.4,3,2.7,4.5,3.8c-1.8,0-3.5,0.1-5.1,0.2c-1.5-1.2-3.1-2.4-4.7-3.7C540.5,350.7,542.2,350.6,544,350.5z
		 M537.6,351c1.7,1.2,3.2,2.5,4.7,3.6c-2.5,0.2-4.3,0.4-4.8,0.5c-1.3-0.9-3.3-2.2-5.6-3.4C533.8,351.4,535.7,351.2,537.6,351z"/>
	<path fill="#FFFFFF" d="M65.5,466.8H27.7c-0.9,0-1.6,0-2.3,0l11.4-3.9c0.2-0.1,0.3-0.3,0.2-0.5s-0.3-0.3-0.5-0.2L25,466.1l9.5-7.5
		c0.2-0.1,0.2-0.4,0.1-0.5s-0.4-0.2-0.5-0.1l-9.8,7.7l6.6-10.4c0.1-0.2,0.1-0.4-0.1-0.5c-0.2-0.1-0.4-0.1-0.5,0.1l-6.5,10.3
		l3.4-11.5c0.1-0.2-0.1-0.4-0.3-0.5c-0.2-0.1-0.4,0.1-0.5,0.3l-3.5,11.9c0.2-2,0.2-3.7,0.2-3.8v-8.7c0-6.6-2.5-10.1-2.6-10.3
		c-0.1-0.2-0.4-0.2-0.5-0.1c-0.2,0.1-0.2,0.4-0.1,0.5c0,0,2.5,3.5,2.5,9.8v8.7c0,0.9-0.1,3.3-0.5,5.5c-1.5,0.2-2.6,0.6-3.4,1.2
		c-1,0.7-1.5,1.7-1.3,2.7c0.1,0.8,0.7,1.3,1.4,1.5c0.2,0,0.3,0.1,0.5,0.1c0.7,0,1.5-0.4,2.1-1.2c0.7-0.8,1.1-2.1,1.4-3.6
		c1.4-0.2,3.1-0.3,5.2-0.3h37.8c5.4,0,8.5,2.1,8.6,2.2c0.2,0.1,0.4,0.1,0.5-0.1c0.1-0.2,0.1-0.4-0.1-0.5
		C74.3,469,71.2,466.8,65.5,466.8z M20.5,470.9c-0.6,0.7-1.3,1.1-1.8,0.9c-0.4-0.1-0.7-0.5-0.8-0.9c-0.1-0.7,0.2-1.4,1-1.9
		c0.7-0.5,1.6-0.8,2.9-1C21.4,469.2,21,470.3,20.5,470.9z"/>
	<path fill="#FFFFFF" d="M591.6,468.3c-0.8-0.6-1.9-0.9-3.4-1.2c-0.4-2.2-0.5-4.6-0.5-5.5v-8.7c0-6.3,2.4-9.8,2.5-9.8
		c0.1-0.2,0.1-0.4-0.1-0.5c-0.2-0.1-0.4-0.1-0.5,0.1c-0.1,0.1-2.6,3.7-2.6,10.3v8.7c0,0,0,1.8,0.2,3.8l-3.6-11.9
		c-0.1-0.2-0.3-0.3-0.5-0.3c-0.2,0.1-0.3,0.3-0.3,0.5l3.6,11.8l-6.7-10.5c-0.1-0.2-0.3-0.2-0.5-0.1c-0.2,0.1-0.2,0.3-0.1,0.5
		l6.5,10.3l-9.7-7.6c-0.2-0.1-0.4-0.1-0.5,0.1c-0.1,0.2-0.1,0.4,0.1,0.5l9.6,7.5l-11.7-4c-0.2-0.1-0.4,0-0.5,0.2
		c-0.1,0.2,0,0.4,0.2,0.5l11.4,3.9c-0.7,0-1.4,0-2.2,0h-37.8c-5.7,0-8.9,2.2-9,2.3c-0.2,0.1-0.2,0.4-0.1,0.5
		c0.1,0.2,0.4,0.2,0.5,0.1c0,0,3.1-2.2,8.6-2.2h37.8c2.1,0,3.8,0.1,5.2,0.3c0.3,1.5,0.8,2.8,1.4,3.6c0.7,0.8,1.4,1.2,2.1,1.2
		c0.2,0,0.3,0,0.5-0.1c0.7-0.2,1.2-0.8,1.4-1.5C593,470,592.6,469,591.6,468.3z M592.1,470.9c-0.1,0.5-0.4,0.8-0.8,0.9
		c-0.6,0.1-1.2-0.2-1.8-0.9c-0.5-0.6-0.9-1.7-1.2-3c1.3,0.2,2.2,0.6,2.8,1C591.9,469.4,592.3,470.2,592.1,470.9z"/>
	<path fill="#FFFFFF" d="M176.7,332.8c0.9,0,2-0.1,3.2-0.3c1.3-0.2,3.4-0.6,6.4-1l2.9-0.4l0.2-0.1l6-0.9c16-2,58.4-6.8,107.2-6.8
		h0.2l2.2-2.3c0,0,1.6,1.5,1.6,1.5c0,0.1,0.8,0.8,0.8,0.8l0.1,0c60.6,1.6,114.4,8.7,123.4,10.4c1.2,0.2,2.2,0.3,3.2,0.3
		c1.9,0,3.2-0.5,4-1.3c1.3-1.4,0.7-3.4,0.7-3.5c-0.1-0.2-0.3-0.3-0.5-0.2c-0.2,0.1-0.3,0.3-0.2,0.5c0,0,0.5,1.6-0.5,2.7
		c-1,1.1-3.2,1.4-6.5,0.8c-9-1.8-62.6-8.8-123.2-10.4l10.8-3.1c0.2-0.1,0.3-0.3,0.3-0.5c-0.1-0.2-0.3-0.3-0.5-0.3l-11.4,3.2
		l10.1-6.4c0.2-0.1,0.2-0.3,0.1-0.5c-0.1-0.2-0.3-0.2-0.5-0.1l-10.3,6.5l-0.1-0.1l7.7-9.7c0.1-0.2,0.1-0.4-0.1-0.5s-0.4-0.1-0.5,0.1
		l-7.6,9.6l0,0l4.1-11.7c0.1-0.2,0-0.4-0.2-0.5c-0.2-0.1-0.4,0-0.5,0.2l-3.9,11.3l0.1-11.9c0-0.2-0.2-0.4-0.4-0.4
		c-0.2,0-0.4,0.2-0.4,0.4l-0.1,11.9l-3.8-11.3c-0.1-0.2-0.3-0.3-0.5-0.2c-0.2,0.1-0.3,0.3-0.2,0.5l3.9,11.6l-7.5-9.5
		c-0.1-0.2-0.4-0.2-0.5-0.1c-0.2,0.1-0.2,0.4-0.1,0.5l7.6,9.7l-0.1,0.1c0,0,0,0-0.1-0.1l-10.2-6.5c-0.2-0.1-0.4-0.1-0.5,0.1
		c-0.1,0.2-0.1,0.4,0.1,0.5l10.1,6.5l-11.5-3.4c-0.2-0.1-0.4,0.1-0.5,0.3c-0.1,0.2,0.1,0.4,0.3,0.5l10.9,3.3
		c-48.7,0-90.9,4.8-106.8,6.8l-6.1,0.9l-0.2,0.1l-2.8,0.4c-3,0.5-5.1,0.8-6.4,1c-3.2,0.6-5.4,0.3-6.5-0.8c-1-1.1-0.5-2.7-0.5-2.7
		c0.1-0.2-0.1-0.4-0.3-0.5c-0.2-0.1-0.4,0.1-0.5,0.2c0,0.1-0.6,2,0.7,3.5C173.5,332.3,174.8,332.8,176.7,332.8z"/>
</g>
</svg>
