<svg xmlns:inkscape="http://www.inkscape.org/namespaces/inkscape" xmlns:rdf="http://www.w3.org/1999/02/22-rdf-syntax-ns#" xmlns="http://www.w3.org/2000/svg" sodipodi:docname="overland.svg" viewBox="0 0 628.127 193.213" height="193.2pt" width="628.1pt" version="1.1" xmlns:cc="http://creativecommons.org/ns#" xmlns:dc="http://purl.org/dc/elements/1.1/" inkscape:version="0.91 r13725" xmlns:sodipodi="http://sodipodi.sourceforge.net/DTD/sodipodi-0.dtd">
<sodipodi:namedview bordercolor="#666666" inkscape:pageshadow="2" guidetolerance="10" pagecolor="#060606" gridtolerance="10" inkscape:window-maximized="1" inkscape:zoom="1.1643154" objecttolerance="10" borderopacity="1" inkscape:current-layer="svg2" inkscape:cx="391.61441" inkscape:cy="121.90199" inkscape:window-y="27" inkscape:window-x="0" inkscape:window-width="1366" showgrid="false" inkscape:pageopacity="0" inkscape:window-height="703"/>
<defs>
<clipPath id="c">
<path d="m303 161h22v32.2h-22z"/>
</clipPath>
<clipPath id="b">
<path d="m303 161h27v32.2h-27z"/>
</clipPath>
<clipPath id="a">
<path d="m298 161h26v32.2h-26z"/>
</clipPath>
</defs>
<path d="m485.7 56.72c0.2226 0.7461 0.4648 1.551 0.7226 2.398-0.4531-1.5-0.75-2.5-0.8438-2.805z" inkscape:connector-curvature="0" fill="#383028"/>
<g fill="#fff">
<path d="m159.4 53.46-0.1016-0.4531-1.629-2.629 0.2148 0.9727c0.2422 1.117 1.684 6.039 2.086 7.113l0.3477 0.9414-2.871 0.8398c-3.59 1.055-5.18 2.406-5.723 8.066-0.3047 2.863-0.6406 7.262-0.9727 12.75 0.4766 0.4336 1.023 0.8555 1.551 1.234 0.3008-4.875 0.6211-9.152 0.9297-12.02 0.5664-5.914 2.332-7.402 6.078-8.5l2.355-0.6914-0.1602-0.4336c-0.4062-1.082-1.863-6.051-2.105-7.184" inkscape:connector-curvature="0"/>
<path d="m102.8 76.59c-0.7383 0-1.617 0.1523-2.691 0.4688l-2.578 0.7539 2.336 1.383 2.105-0.6133c1.891-0.5586 3.238-0.6328 4.398-0.2305-1.141-1.195-2.172-1.762-3.57-1.762" inkscape:connector-curvature="0"/>
<path d="m154.6 84.58c-0.0312 0.02344-3.18 2.297-4.258 4.055-0.4961 9.961-0.793 19.49-0.793 25.51v0.7226l-0.7031 0.1797c-2.398 0.6172-11.86 3.391-14.27 4.18l-0.4297 0.1445c-0.1602 0.0547-0.2539 0.0859-0.2539 0.0859l2.207 1.406 0.3242-0.1094c2.418-0.793 11.91-3.574 14.3-4.188l0.3242-0.082v-0.3359c0.004-6.41 0.3398-16.35 0.8008-25.66 1.082-1.883 4.465-4.309 4.465-4.309l-1.07-2.062c-0.004 0-0.008 0-0.0117 0.0039h0.008z" inkscape:connector-curvature="0"/>
<path d="m119.9 97.82c-0.7188-1.004-4.41-1.406-6.566-1.418l-0.7227-0.0039 2.73 1.508s2.941 0.01953 5.051 0.6016c-0.1211-0.1836-0.2422-0.3672-0.3672-0.5508-0.0312-0.02734-0.0781-0.07031-0.125-0.1367" inkscape:connector-curvature="0"/>
<path d="m139 65.84c-0.4492 0-0.9805 0.08984-1.621 0.2773l-2.945 0.8633v-0.0039l-0.008 0.0039 2.387 1.371 2.434-0.7109c0.6562-0.1914 1.227-0.2891 1.73-0.2891-0.4531-1.188-1.125-1.512-1.977-1.512" inkscape:connector-curvature="0"/>
<path d="m129.6 67.37 0.3476 0.9414-3.348 0.9805c-1.082 0.3164-1.738 0.7969-2.016 1.473-0.4375 1.062-0.004 2.82 1.254 5.082 3.395 5.469 10.57 16.45 15.04 23.12 0.004-0.02734 0.004-0.05859 0.008-0.08594-4.5-6.72-10.5-15.88-13.5-20.79-1.352-2.43-1.785-4.289-1.277-5.512 0.3359-0.8281 1.102-1.402 2.336-1.766l2.832-0.8281-0.1602-0.4375c-0.4062-1.09-1.863-6.059-2.109-7.184l-0.0977-0.4531-1.621-2.613 0.207 0.957c0.2422 1.117 1.684 6.039 2.086 7.113" inkscape:connector-curvature="0"/>
<path d="m230.6 76.98-1.574-3.105 0.0703 1.066c0.4141 6.449 1.766 16.27 2.797 22.73l0.1602 0.9883-1 0.08984c-4.531 0.3945-13.2 1.691-17.61 2.398l-21.54 3.441c-3.805 0.6094-10.87 1.844-13.53 2.305-1.07 0.1875-1.781 0.3125-1.926 0.3359l-0.8516 0.1367c-0.0312 0.0117-0.0547 0.0156-0.0703 0.0195l2.422 1.422 0.4297-0.0703c0.1406-0.0234 0.8516-0.1445 1.914-0.332 3.191-0.5586 9.832-1.715 13.54-2.309l21.54-3.441c4.41-0.707 13.08-2.004 17.64-2.402l0.4609-0.0391-0.0742-0.4609c-1.031-6.465-2.387-16.31-2.801-22.77" inkscape:connector-curvature="0"/>
<path d="m172.9 57.39c-0.3242 0-0.6836 0.03125-1.09 0.09766l-4.18 0.668-0.0117 0.0039 2.414 1.43 3.699-0.5938c0.4336-0.06641 0.8164-0.1016 1.172-0.1016 0.1953 0 0.3789 0.01172 0.5625 0.03125-0.7422-1.379-1.664-1.535-2.566-1.535" inkscape:connector-curvature="0"/>
<path d="m210.3 62.84c0.2656 2.441 0.4922 4.527 1.121 8.449 0.9297 5.816 1.488 8.348 2.336 12.18l0.332 1.504-1.043 0.1055c-0.3242 0.03516-3.195 0.3594-5.793 0.9258l-0.9531 0.2109 2.402 1.402 0.4492-0.09766c2.781-0.6094 5.816-0.9297 5.848-0.9336l0.4805-0.05078-0.207-0.9531c-0.8516-3.852-1.414-6.395-2.344-12.21-0.6328-3.953-0.8594-6.047-1.121-8.477-0.1328-1.215-0.2695-2.492-0.4727-4.102l-1.617-2.977 0.1133 0.9102c0.1992 1.617 0.3398 2.895 0.4688 4.113" inkscape:connector-curvature="0"/>
<path d="m199.9 76.77c-0.7422 0-1.562 0.07422-2.516 0.2266l-1.617 0.2578c0.9688 5.996 1.832 10.81 2.27 12.64 0.4219 1.852 1.043 2.773 1.828 3.207-0.1133-0.332-0.2188-0.6875-0.3086-1.086-0.457-1.902-1.355-6.93-2.359-13.18l2.113-0.3398c0.9726-0.1562 1.82-0.2305 2.594-0.2305 0.8711 0 1.625 0.1016 2.293 0.3047-0.9531-1.293-2.301-1.809-4.297-1.809" inkscape:connector-curvature="0"/>
<path d="m226.1 61.62 0.1641 0.9336-9.359 1.496 2.391 1.438 8.391-1.344-0.0742-0.4336c-1-5.68-2.3-15.08-2.9-21.34l-0.0469-0.5234-1.555-2.625 0.0977 1.102c0.5664 6.234 1.918 15.62 2.902 21.29" inkscape:connector-curvature="0"/>
<path d="m208.3 52.05c-0.957 0-2.07 0.1055-3.414 0.3203l-8.762 1.402c-2.52 0.4023-3.434 1.652-3.156 4.312 0.1953 2.133 0.8398 6.75 1.738 12.41l1.152-0.1836c-0.7148-4.641-1.219-8.332-1.383-10.18-0.3086-2.918 0.7969-4.414 3.574-4.859l8.762-1.402c1.359-0.2148 2.504-0.3242 3.492-0.3242 1.172 0 2.246 0.1445 3.219 0.5312-1.391-1.586-3.125-2.035-5.223-2.035" inkscape:connector-curvature="0"/>
<path d="m304.5 77.57-1.641-2.582s0.004 0.02344 0.008 0.05469l0.2266 0.7852c1.348 4.652 2.262 11.17-1.035 15.79-2.172 3.047-5.797 4.723-10.78 4.977-0.5508 0.02734-1.082 0.04297-1.594 0.04297-3.195 0-5.691-0.5547-7.664-1.574 2.363 2.203 5.879 3.309 11.23 3.035 4.824-0.2461 8.324-1.848 10.4-4.766 3.18-4.461 2.277-10.82 0.9609-15.36z" inkscape:connector-curvature="0"/>
<path d="m268.9 45.68c-0.3125 0-0.6406 0.0078-0.9766 0.02344l-2.816 0.1445c-1.629 0.08203-2.199 0.7461-2.176 2.535 0.004 0.3008 0.1445 7.406 0.5195 15.2l1.41-0.07422c-0.2969-6.707-0.4141-12.41-0.4297-13.11-0.0234-2.066 0.7461-2.945 2.652-3.043l2.816-0.1406c0.3476-0.01953 0.6836-0.02734 1.004-0.02734 1.461 0 2.684 0.1836 3.703 0.5703-1.184-1.453-3.016-2.074-5.707-2.074" inkscape:connector-curvature="0"/>
<path d="m242.7 47.4-4.531 0.2266 2.348 1.484 4.16-0.207c0.4023-0.02344 0.75-0.01172 1.074 0.01953-0.543-1.441-1.484-1.609-3.051-1.523" inkscape:connector-curvature="0"/>
<path d="m265.5 70.99-1.719 0.08594c0.293 5.605 0.6055 9.98 0.8242 11.48 0.3047 2.105 0.9414 3.137 1.844 3.605-0.1406-0.4531-0.25-0.957-0.3359-1.527-0.2266-1.559-0.5547-6.145-0.8555-12.03l2.219-0.1094c1.914-0.1016 3.562-0.0039 4.945 0.5312-1.598-1.918-3.902-2.195-6.922-2.035" inkscape:connector-curvature="0"/>
<path d="m284.2 67.05c0.9219 0.3359 1.762 0.7539 2.531 1.25 6.223-2.465 9.867-7.797 9.527-14.48-0.1836-3.578-1.32-6.535-3.301-8.852 1.051 1.957 1.664 4.234 1.797 6.82 0.3594 7.121-3.645 12.84-10.55 15.26" inkscape:connector-curvature="0"/>
<path d="m295.6 86.31c-0.5195-1.301-1.02-3.195-1.547-5.938-0.6055-3.285-1.711-5.812-3.375-7.688 0.8477 1.566 1.465 3.422 1.863 5.59 1.129 5.879 2.109 7.57 3.059 8.035" inkscape:connector-curvature="0"/>
<path d="m272 95.82c-0.1055 0.0039-12.62 0.4727-15.24 0.6055-5.004 0.2539-13.58 0.8281-15.24 0.9375l-0.832 0.05859c-0.0469 0.0078-0.1094 0.01563-0.1523 0.02344l2.457 1.457 0.4375-0.03125c0.0977-0.0039 9.828-0.6641 15.31-0.9414 2.617-0.1328 15.12-0.6016 15.25-0.6055l0.4375-0.01953-0.4336-8.488-1.516-2.52-0.004 0.1914 0.4727 9.297z" inkscape:connector-curvature="0"/>
</g>
<path d="m244.7 71.11s0.293 0.168 0.7305 0.4414c-0.2109-0.168-0.4297-0.3359-0.6524-0.5-0.043 0.03516-0.0781 0.05859-0.0781 0.05859" inkscape:connector-curvature="0" fill="#383028"/>
<g fill="#fff">
<path d="m316.9 44.74-4.477-0.1406 2.504 1.52 3.996 0.125c0.2695 0.0078 0.5195 0.03516 0.7539 0.07813-0.5312-1.211-1.477-1.543-2.777-1.582" inkscape:connector-curvature="0"/>
<path d="m364.2 70.98c-0.5039 5.719-1.156 18.3-1.176 24.28l-0.004 1.023-1.02-0.09766c-5.1-0.49-13-0.74-16.8-0.86l-19.2-0.6c-3.445-0.1133-10.94-0.2578-14.32-0.2852l-0.9062-0.0078 2.473 1.508h0.4414c3.348 0.02734 10.85 0.1758 14.34 0.2852l19.09 0.6016c3.84 0.1211 11.82 0.3711 16.93 0.8594l0.4727 0.04687 0.004-0.4727c0.0156-6.004 0.6719-18.6 1.176-24.32l0.043-0.4922-1.457-2.504z" inkscape:connector-curvature="0"/>
<path d="m336 71.1c-0.1406 5.332-0.2031 9.273-0.1797 11.1 0.0312 1.941 0.543 2.828 1.613 3.227-0.0625-0.3594-0.1016-0.7578-0.1094-1.215-0.0274-1.973 0.0508-6.273 0.1797-11.16 0.332-1.871 5.18-4.801 5.18-4.801l-1.086-1.977-0.6602 0.4023c-1.785 1.078-4.68 3.219-4.938 4.426" inkscape:connector-curvature="0"/>
<path d="m345.3 44.7-0.0312 0.9336-4.328-0.1367c-0.1562-0.0078-0.3008-0.0078-0.4414-0.0078-2.531 0-3.508 1.016-3.727 3.879-0.1406 1.625-0.3398 5.934-0.5469 11.83 0.1289 0.5742 0.7344 1.328 1.512 2.09-0.004-0.01172-0.008-0.02734-0.0117-0.04297 0.1875-5.402 0.3984-10.14 0.5508-11.91 0.2539-3.301 1.527-4.469 4.684-4.336l3.832 0.1172 0.0117-0.4297c0.0586-1.906 0.207-6.453 0.3164-7.512l0.0469-0.4609-1.449-2.477-0.1055 0.9844c-0.1094 1.09-0.2656 5.996-0.3125 7.477" inkscape:connector-curvature="0"/>
<path d="m398.5 91.11c-0.0781 0.5664-0.3086 2.152-0.5391 3.754l-0.0547 0.3555c-0.2188 1.52-0.4336 2.984-0.5039 3.527l-0.125 0.9414-0.9414-0.1445c-0.0664-0.0078-8.402-1.281-13.03-1.895-4.625-0.6133-13-1.559-13.08-1.566l-0.5156-0.05859c-0.1524-0.01563-0.3047-0.02734-0.4336-0.04297l2.57 1.559 0.4375 0.05078c0.0859 0.0078 8.457 0.9531 13.09 1.566 4.625 0.6133 12.96 1.883 13.04 1.895l0.4336 0.0703 0.0586-0.4375c0.0742-0.5742 0.3125-2.195 0.5469-3.812 0.2344-1.625 0.4727-3.25 0.5469-3.824l0.0586-0.4297-1.441-2.445c0 0.0039 0 0.0078-0.004 0.01172h0.004z" inkscape:connector-curvature="0"/>
<path d="m429.3 80.39c0.832 3.285 1.496 5.848 1.918 7.422 0.9688 3.484 1.898 5.328 3.023 6.328-0.5156-1.059-1.008-2.422-1.5-4.191-0.4414-1.629-1.137-4.32-1.973-7.617 0.9961-1.977 3.734-4.527 3.734-4.527l-1.105-2.156-0.5547 0.5195c-0.0274 0.02344-2.535 2.375-3.543 4.223" inkscape:connector-curvature="0"/>
<path d="m420.4 43.08c1.066 5.109 3.574 15.71 6.715 28.38l0.0508 0.1406c0.1055 0.4414 0.6289 0.9609 1.34 1.477-2.6-10.24-5.4-22.02-6.6-27.89l-0.0469-0.125c-0.0976-0.1719-1.199-1.949-1.734-2.457 0.0586 0.05859 0.1172 0.1172 0.168 0.207z" inkscape:connector-curvature="0"/>
</g>
<path d="m420 42.49c0.0156 0.01172 0.0312 0.01953 0.0469 0.03125-0.0156-0.01172-0.0312-0.02344-0.0469-0.03125" inkscape:connector-curvature="0" fill="#383028"/>
<path d="m404.6 68.85 0.0586 0.2344 2.09 6.262 0.8945 0.2578-1.238-3.715z" inkscape:connector-curvature="0" fill="#383028"/>
<g fill="#fff">
<path d="m392.6 82.77c-1.215 2.582-1.547 4.422-0.9844 5.453 0.2344 0.4297 0.6523 0.7617 1.254 1.008-0.0625-1.156 0.3555-2.699 1.285-4.684 0 0 1.199-2.348 2.895-5.676l-1.527-1.832z" inkscape:connector-curvature="0"/>
<path d="m395.9 86.66 0.004-0.01172-0.0273 0.01172 2.812 1.188 5.777-2.094-2.039-1.461z" inkscape:connector-curvature="0"/>
<path d="m407.8 81.4 0.2305 6.891 1.473 1.051-0.207-6.184 2.152-1.59-0.5156-2.367z" inkscape:connector-curvature="0"/>
<path d="m406 56.62c-1.734 3.332-5.695 11.08-9.113 17.79l2.402 0.1172c2.621-5.133 5.633-11.03 7.461-14.57-0.293-1.32-0.5508-2.465-0.75-3.336" inkscape:connector-curvature="0"/>
<path d="m440.5 95.77-1.254 9.477-0.9375-0.1367c-1.906-0.2812-11.34-1.672-16.82-2.395-5.969-0.793-16.5-2.027-16.95-2.078l-0.9258-0.1094 2.551 1.562 0.4375 0.0508c0.0937 0.0117 10.86 1.273 16.95 2.082 6.012 0.793 16.72 2.379 16.82 2.395l0.4375 0.0664 1.125-8.512-1.441-2.418z" inkscape:connector-curvature="0"/>
<path d="m108.1 96.88c-0.0156 0.01563-0.0273 0.02734-0.043 0.03906l-0.4102 0.5742c-1.262 1.781-3.125 5.02-2.746 6.129l0.0312 0.1562c6.711 21.84-1.902 39.64-23.64 48.79-7.281 3.062-14.05 4.617-20.13 4.617-6.188 0-11.79-1.609-16.77-4.801 10.23 7.891 23.19 8.258 38.71 1.727 19.76-8.316 30.54-24.85 23.34-48.24-0.004-0.0273 0.004-0.043-0.004-0.0742-0.6055-1.77 2.812-6.582 2.812-6.582z" inkscape:connector-curvature="0"/>
<path d="m55.93 120.4-1.152-2.359-0.4336 0.6367c-0.793 1.168-2.789 4.477-2.656 5.949 2.336 5.102 4.539 9.051 6.738 11.99-1.723-2.68-3.441-5.949-5.227-9.852-0.2695-1.938 2.73-6.363 2.73-6.363" inkscape:connector-curvature="0"/>
<path d="m52.96 85.24c-10.19 4.289-11.64 13.15-5 30.58 0.2305 0.2305 0.5742 0.4453 0.9805 0.6484-6.039-16.62-4.316-25.42 5.828-29.69 5.086-2.141 9.293-2.277 13.14-0.08984-2.496-2.113-5.082-3.082-7.93-3.082-2.113 0-4.41 0.5312-7.02 1.629" inkscape:connector-curvature="0"/>
</g>
<path d="m102 94.96c-1.531-3.055-3.172-5.801-4.93-8.23 1.484 2.312 2.879 4.859 4.195 7.652 0.1719 0.2031 0.4258 0.3945 0.7344 0.5781" inkscape:connector-curvature="0" fill="#383028"/>
<path d="m535.7 72.46-4.824-1.809 2.582 1.688 4.422 1.652c0.2656 0.1016 0.5117 0.207 0.75 0.3164-0.6-0.76-1.6-1.36-2.9-1.85" inkscape:connector-curvature="0" fill="#383028"/>
<g fill="#fff">
<path d="m604.9 128.5-0.7344 0.1602c-0.043 0.0117-4.238 0.9453-5.75 2.219-6.863 15.82-17.55 23.85-31.74 23.85-5.457 0-11.46-1.211-17.84-3.598-0.1445-0.0547-14.18-5.426-21-7.98-6.609-2.473-20.65-7.48-20.79-7.531l-0.4609-0.1641 2.633 1.695s14.11 5.035 20.8 7.535c6.906 2.586 21 7.98 21 7.98 19.96 7.465 38.46 4.301 48.99-20.09 1.559-1.414 6.059-2.406 6.059-2.406s-0.5391-0.707-1.164-1.676" inkscape:connector-curvature="0"/>
<path d="m601.5 122.3c0.1641 1.621 2.152 4.543 2.918 5.547l0.2734 0.3594c-0.7812-1.25-1.625-2.84-1.695-3.957 4.141-13.65 3.262-24.25-3.348-32.51 5.125 7.965 5.652 17.96 1.852 30.56" inkscape:connector-curvature="0"/>
<path d="m544.6 133.6c1.152-3.516 3.977-11.38 7.062-19.71 0.0195-0.0312 0.043-0.043 0.0586-0.082 0.7422-1.719 6.508-2.984 6.508-2.984s-0.5391-0.707-1.164-1.676l-0.7344 0.1602c-2.129 0.4688-5.688 1.617-6.152 2.695l-0.0781 0.1328c-3.238 8.758-5.93 16.27-7.027 19.62-0.7578 2.254-0.2773 4.086 1.309 5.207-0.2578-0.9648-0.207-2.09 0.2188-3.359" inkscape:connector-curvature="0"/>
<path d="m565.8 83.61c-2.684-1.004-4.5-0.3047-5.578 2.203-1.168 2.656-3.48 8.539-6.52 16.58l-0.0117 0.043c-0.3555 1.188 1.59 4.348 2.902 6.062l0.25 0.3281c-0.9336-1.492-1.949-3.457-1.629-4.523 0.004-0.0117 0-0.0156 0.004-0.0234 2.738-7.258 5.254-13.72 6.547-16.66 0.957-2.227 2.762-3.766 6.215-2.473l3.668 1.371c2.254 0.8438 4.211 1.773 5.898 2.824-2.051-1.684-4.723-3.102-8.078-4.355z" inkscape:connector-curvature="0"/>
<path d="m486.4 59.12c2.891 9.496 7.953 24.97 11.52 35.44 0.1172-0.4102 0.2422-0.832 0.3672-1.266-3.793-11.25-8.684-26.32-11.09-34.43l-1.672-2.652 0.0273 0.09766c0.0937 0.3047 0.3906 1.305 0.8438 2.805" inkscape:connector-curvature="0"/>
<path d="m500.6 70.28-5.004-1.418 2.551 1.637 4.594 1.305c0.1445 0.03906 0.2656 0.09375 0.3984 0.1406-0.457-0.8633-1.344-1.324-2.539-1.664" inkscape:connector-curvature="0"/>
<path d="m463.2 59.66-4.352-1.234 2.617 1.656 3.875 1.102c0.1094 0.03125 0.2109 0.06641 0.3203 0.1055-0.4-0.76-1.2-1.3-2.4-1.64" inkscape:connector-curvature="0"/>
<path d="m466.9 98.51c-0.5078 2.215-0.1875 3.434 1.324 4.266-0.0859-0.6641-0.0234-1.441 0.1953-2.379 0.7344-3.098 3.68-13.79 6.203-22.57-0.375-1.137-0.7422-2.25-1.102-3.332-2.625 9.082-5.855 20.79-6.621 24.01" inkscape:connector-curvature="0"/>
<path d="m472.5 113.1-0.2266 0.9688-1.156-0.3555c-3.082-0.9375-8.785-2.66-12.34-3.668-4.375-1.242-11.87-3.215-12.71-3.434l-0.5-0.1328c-0.2891-0.0625-0.4531-0.0977-0.4531-0.0977l2.633 1.633 0.4453 0.1133c0.082 0.0234 8.152 2.145 12.72 3.438 4.492 1.277 12.47 3.711 12.55 3.734l0.4375 0.1367 0.2-0.4c0.8438-3.574 2.082-7.344 2.094-7.383l0.1406-0.4297-1.375-2.312-0.2969 0.8945c-0.2148 0.6641-1.309 4.074-2.082 7.344" inkscape:connector-curvature="0"/>
<path d="m524.7 68.38c-0.3906 1.074-1.789 6.008-2.023 7.133l-0.2031 0.9805-4.477-1.27c-0.5938-0.168-1.109-0.25-1.57-0.25-1.57 0-2.602 1.023-3.449 3.434-0.4609 1.34-1.555 4.996-3.086 10.29-0.004 1.09 1.301 3.004 2.379 4.371-0.5234-0.8906-0.9062-1.777-0.875-2.445 1.445-4.996 2.617-8.918 3.113-10.38 0.918-2.605 2.129-3.77 3.922-3.77 0.5078 0 1.066 0.08984 1.707 0.2695l3.957 1.125 0.0937-0.457c0.2383-1.133 1.652-6.113 2.047-7.199l0.0234-0.1484c0-0.2773-0.9883-1.895-1.641-2.539 0.0937 0.1328 0.1406 0.2969 0.1406 0.5352z" inkscape:connector-curvature="0"/>
<path d="m508.7 100.1c0.5977-1.773 6.234-3.512 6.234-3.512l-1.105-1.762h-0.008l0.008 0.0078-0.75 0.2305c-2.086 0.6445-5.535 2.078-5.91 3.191l-0.0508 0.1172c-2.602 9.211-4.934 17.68-6.219 22.61l-0.2539 0.9766-0.9531-0.3281c-2.723-0.9414-8.809-2.668-11.63-3.301l-0.5078-0.1133 2.379 1.574 0.2422 0.0547c2.836 0.6328 8.949 2.367 11.68 3.316l0.4414 0.1523 0.1172-0.4531c1.387-5.324 3.875-14.31 6.254-22.71 0.008-0.0156 0.0195-0.0195 0.0273-0.043" inkscape:connector-curvature="0"/>
</g>
<path d="m303.3 82.66c-0.008 1.191-0.0586 2.406-0.1758 3.559 0.1836-1.164 0.2344-2.363 0.1758-3.559" inkscape:connector-curvature="0" fill="#383028"/>
<g fill="#fff">
<path d="m154.3 52.48-0.0859 0.02734c-2.41 0.7812-6.059 1.961-8.898 2.797-3.945 1.156-11.34 3.09-12.18 3.309 0.1836 0.5156 1.34 3.789 2.082 7.109l1.918-0.5625c0.7344-0.2148 1.355-0.3203 1.902-0.3203 2.738 0 3.414 2.562 3.582 6.41 0.3398 6.91-0.3945 22.16-0.8281 29.25l-0.0898 1.473-0.8281-1.223c-4.371-6.477-12.27-18.55-15.9-24.4-1.441-2.594-1.883-4.598-1.316-5.973 0.3945-0.9727 1.266-1.645 2.656-2.051l2.32-0.6797c-0.4336-1.195-1.801-5.867-2.086-7.109-0.4297 0.1289-1.426 0.4453-2.758 0.8633l-0.4219 0.1367c-3.328 1.051-8.355 2.641-12.04 3.719-5.004 1.469-13.98 3.871-15.2 4.199 0.1758 0.5156 1.266 3.789 2.086 7.109l1.598-0.4727c1.168-0.3398 2.141-0.5078 2.977-0.5078 2.492 0 3.973 1.402 6.168 4.352 1.48 2.043 3.766 5.344 6.617 9.559l0.082 0.1172 0.004 0.1445c0.0586 1.699-1.004 4.391-1.551 5.656 1.695 0.07031 5.523 0.3828 6.582 1.781l0.1328 0.1367c5.492 8.273 10.67 16.29 13.53 20.93 2.48-0.8086 11.75-3.527 14.23-4.168 0.004-6.066 0.3047-15.64 0.8008-25.63l0.008-0.1211 0.0586-0.1016c0.8476-1.477 2.949-3.207 3.996-4.016-0.8633-0.5273-2.402-1.531-3.516-2.605l-0.168-0.1602 0.0156-0.2305c0.332-5.605 0.6758-10.11 0.9883-13.02 0.5898-6.156 2.547-7.785 6.438-8.926l1.84-0.5391c-0.4336-1.199-1.801-5.867-2.086-7.109-0.4648 0.1406-1.426 0.4492-2.652 0.8477" inkscape:connector-curvature="0"/>
<path d="m220.1 76.36c0.9102 5.723 0.7383 9.391-0.5508 11.89-1.328 2.562-3.855 4.016-8.203 4.711l-8.598 1.371c-0.4922 0.08203-0.9297 0.1172-1.34 0.1172-2.363 0-3.668-1.289-4.355-4.316-0.457-1.898-1.363-6.961-2.363-13.21l-0.082-0.4961 2.609-0.418c1.004-0.1602 1.879-0.2344 2.672-0.2344 4.121 0 6 2.008 6.941 7.414l0.293 1.816c2.48-0.5391 5.102-0.8477 5.754-0.9219l-0.0898-0.4062c-0.8477-3.844-1.41-6.387-2.348-12.23-0.6289-3.949-0.8555-6.047-1.121-8.473-0.1328-1.223-0.2656-2.477-0.4648-4.051-0.4219 0.08984-3.18 0.6602-5.918 0.9453l0.3281 2.059c0.9336 5.84-0.8672 8.355-6.648 9.281l-2.77 0.4414-0.082-0.4922c-0.9414-5.914-1.621-10.76-1.82-12.97-0.3359-3.195 0.9336-4.91 3.992-5.402l8.766-1.402c1.395-0.2188 2.562-0.3281 3.57-0.3281 5.473 0 8.035 3.215 9.426 11.86l7.398-1.184c-0.9-5.7-2.2-15.01-2.8-21.25-3.535 1.023-13.63 2.758-18.5 3.539l-20.72 3.312c-2.391 0.3828-7.93 1.195-11.24 1.68-2.145 0.3164-3.875 0.5703-4.445 0.6602l1.172 7.316 3.207-0.5156c0.4648-0.07031 0.8711-0.1055 1.25-0.1055 2.336 0 3.586 1.32 4.32 4.57 0.4141 1.934 1.305 7.062 2.32 13.39l0.0117 0.07813-0.0117 0.08203c-0.2812 1.672-2.695 4.094-3.84 5.168 1.52 0.7344 4.871 2.523 5.316 4.215 0.4453 2.949 0.9844 6.73 1.113 8.293 0.2695 3.223-0.3438 5.492-4.215 6.113l-2.801 0.4492 1.199 7.477c0.2383-0.0391 0.8984-0.1524 1.84-0.3164 2.66-0.4648 9.73-1.699 13.54-2.312l21.54-3.441c4.398-0.7031 13.03-1.996 17.61-2.398-1.031-6.453-2.371-16.21-2.793-22.67-1.387 0.2969-6.57 1.125-7.965 1.273" inkscape:connector-curvature="0"/>
<path d="m275.4 61.73c-1.562 1.633-4.031 2.449-8 2.648l-4.875 0.25-0.0273-0.5c-0.3906-7.867-0.5312-14.95-0.5469-15.73-0.0273-2.348 0.9375-3.441 3.129-3.551l2.816-0.1445c6.461-0.3398 9.152 2.27 9.504 9.223 0.1914 3.707-0.4453 6.188-2 7.809m26.76 14.44c-0.582 0.1211-3.164 0.4648-3.988 0.5195 0.7539 2.832 1.766 7.801 0.2539 9.879-0.418 0.5703-0.9883 0.875-1.703 0.9102l-0.2188 0.0078c-2.383 0-3.562-2.191-4.875-9.023-1.152-6.227-4.004-9.594-9.246-10.93l-1.883-0.4766 1.879-0.4922c7.387-1.934 11.75-7.57 11.39-14.71-0.4688-9.238-7.441-14.33-19.63-14.33-0.7656 0-1.566 0.02344-2.371 0.0625-3.164 0.1602-6.863 0.375-10.18 0.5625-2.672 0.1562-5.102 0.2969-6.797 0.3828-1.898 0.09375-6.555 0.2773-11.16 0.4531-2.418 0.09375-4.414 0.1719-5.023 0.1992l0.375 7.402 3.66-0.1836c0.1875-0.01172 0.3672-0.01953 0.543-0.01953 2.852 0 3.637 1.656 3.98 4.328 0.1797 1.625 0.5 6.586 0.8555 13.29l0.004 0.05469-0.008 0.05469c-0.2812 1.664-3.086 3.965-4.387 4.953 1.457 0.8984 4.684 3.074 4.875 4.82 0.2188 4.887 0.332 8.27 0.3203 9.562-0.0664 3.582-1.41 5.039-4.789 5.215l-2.914 0.1484 0.3828 7.562c1.879-0.125 10.3-0.6875 15.25-0.9375 2.516-0.1289 14.16-0.5664 15.18-0.6055l-0.3789-7.48-2.832 0.1406c-3 0.15-4.6-1.3-5.1-4.81-0.3-1.58-0.6-6.2-0.9-12.08l-0.0274-0.5 2.723-0.1367c5.699-0.3047 9.402 0.9844 10.41 10.75 1.082 9.895 3.879 15.44 15.3 14.86 4.66-0.2383 8.031-1.77 10.02-4.559 1.027-1.438 1.602-3.09 1.875-4.816 0.1172-1.152 0.168-2.367 0.1758-3.559-0.1094-2.293-0.5859-4.559-1.145-6.492" inkscape:connector-curvature="0"/>
<path d="m355.9 70.75c-0.9 14.33-4.7 16.36-12 16.13l-4.473-0.1406c-2.832-0.08594-4.598-0.875-4.66-4.527-0.0234-1.84 0.0391-5.812 0.1836-11.18l0.008-0.07031c0.293-1.66 3.363-3.824 4.766-4.738-1.32-0.9531-4.152-3.18-4.465-4.891l-0.0117-0.05469 0.004-0.05469c0.207-5.941 0.4102-10.29 0.5508-11.93 0.2734-3.578 1.754-4.93 5.203-4.789l3.324 0.1016c0.0586-1.898 0.1992-6.207 0.3086-7.402-0.3359-0.0078-1.176-0.01562-2.328-0.02344-3.199-0.02734-9.098-0.08203-13.11-0.207-5.23-0.1641-14.59-0.6836-15.51-0.7344l-0.2305 7.402 3.492 0.1055c2.805 0.08984 4.066 1.609 4.227 5.086 0.0469 1.59-0.0273 5.984-0.1992 12.07-0.2695 1.719-3.367 3.91-4.777 4.828 1.297 0.9414 4.066 3.113 4.449 4.809l0.0156 0.06641-0.004 0.0625c-0.1875 5.117-0.3672 8.879-0.5039 10.59-0.2734 3.41-0.9961 4.844-4.859 4.727l-3.332-0.1016-0.2383 7.566c3.422 0.02734 10.85 0.1758 14.28 0.2852l19.09 0.6016c3.879 0.1211 11.79 0.3672 16.88 0.8555 0.0234-6.008 0.6719-18.46 1.172-24.21-1.164 0.04297-6-0.1094-7.238-0.2266" inkscape:connector-curvature="0"/>
<path d="m404.2 71.01-3.047 4.504-5.438 0.04297 3.34 4.289-1.641 5.188 5.113-1.855 4.426 3.164-0.1836-5.438 4.375-3.23-5.223-1.508z" inkscape:connector-curvature="0"/>
<path d="m436.9 96.27c-2.902-0.3828-4.812-1.805-6.59-8.191-0.4336-1.613-1.117-4.25-1.973-7.625l-0.0469-0.1836 0.0859-0.168c0.7539-1.496 2.422-3.27 3.293-4.137-1.543-0.6875-4.957-2.375-5.457-4.059l-0.0352-0.08984c-3.152-12.71-5.668-23.33-6.742-28.48-0.0351-0.0039-0.082-0.0078-0.1211-0.01172-3.141-0.2578-5.625-0.5039-7.18-0.7109-2.449-0.3242-6.707-1.109-7.238-1.207-1.539 2.91-8.109 15.24-13.85 25.97l-0.082 0.1133c-1.191 1.211-4.473 1.902-6 2.168 0.6289 1.051 1.801 3.168 2.148 4.828l0.0352 0.1758-0.0859 0.1641c-2.211 4.121-3.395 6.324-3.734 6.93-2.566 4.602-4.688 6.23-8.105 6.23-0.5274 0-1.105-0.04297-1.719-0.125l-2.07-0.2734-0.9961 7.508c0.8203 0.09375 8.625 0.9766 13.03 1.562 4.391 0.582 12.14 1.758 12.98 1.887 0.082-0.5898 0.2852-2.004 0.4961-3.469l0.0547-0.3555c0.2227-1.535 0.4453-3.059 0.5273-3.676l-3.059-0.4062c-1.91-0.25-3.117-0.8867-3.695-1.938-0.7422-1.363-0.4336-3.387 0.9648-6.371l3.688-7.23 0.1406-0.2773c4.016-7.871 9.043-17.7 10.2-19.86l0.6211-1.164 0.3086 1.281c0.6172 2.574 2.977 13.34 4.84 21.92l0.1797 0.8242 1.559 7.168c0.543 3.355 0.3398 5.445-0.6406 6.598-0.7578 0.8906-1.988 1.203-3.688 0.9766l-3.215-0.4297c-0.0664 0.8711-0.418 3.418-0.7969 6.059-0.0899 0.6289-0.1602 1.148-0.2031 1.453 1.02 0.1172 11.1 1.305 16.89 2.074 5.488 0.7227 14.93 2.113 16.77 2.387l0.9961-7.512z" inkscape:connector-curvature="0"/>
<path d="m77.18 142.8c-2.773 1.168-5.215 1.734-7.469 1.734-7.133 0-12.63-5.656-18.97-19.52l-0.04297-0.1406c-0.2305-1.672 1.539-4.719 2.398-6.074-1.52-0.2969-4.766-1.066-5.938-2.355l-0.1-0.2c-6.83-17.92-5.18-27.48 5.51-31.98 2.738-1.152 5.16-1.711 7.41-1.711 7.266 0 12.83 5.684 19.21 19.62l0.03906 0.1406c0.2344 1.672-1.531 4.719-2.383 6.074 1.473 0.293 4.68 1.047 5.883 2.281l0.07031 0.0742 0.03906 0.0977c7.027 18.29 5.441 27.23-5.66 31.9m23.26-47.82-0.0586-0.09766c-7.5-16.16-17.84-24.01-31.53-24.01-5.961 0-12.66 1.547-19.92 4.602-22.64 9.53-30.58 28.23-21.79 51.33l0.03125 0.1758c0 1.691-1.512 4.473-2.25 5.73 1.371 0.2305 4.258 0.8203 5.641 1.855l0.08984 0.0664 0.05469 0.1016c7.398 14.21 17.67 21.41 30.53 21.42h0.0039c5.941 0 12.58-1.527 19.74-4.539 21.21-9 29.61-26.4 23.11-47.7l-0.0273-0.0781v-0.0508c-0.4727-1.633 1.484-4.852 2.469-6.332-1.547-0.3398-4.883-1.207-5.957-2.574" inkscape:connector-curvature="0"/>
<path d="m581.6 113.2-0.082 0.1562c-1.02 1.348-4.344 2.324-5.883 2.711 0.9844 1.387 3.082 4.598 2.625 6.297l-0.0391 0.2109c-5.629 13.61-11.49 19.42-19.6 19.42-2.773 0-5.953-0.6875-9.727-2.102l-3.562-1.332c-3.086-1.152-4.27-3.809-3.164-7.109 1.105-3.367 3.812-10.93 7.07-19.73l0.0937-0.1602c0.7383-1.539 4.363-2.609 6.09-3.043-0.9766-1.375-3.043-4.543-2.637-6.246v-0.008l0.0234-0.0937c3.066-8.129 5.398-14.05 6.574-16.73 1.277-2.977 3.633-3.941 6.848-2.738l3.668 1.371c13.46 5.039 16.63 12.93 11.7 29.13m-5.4-36.65c-0.6914-0.2578-2.648-0.9766-5.176-1.902-4.652-1.703-11.02-4.035-15.26-5.621-4.625-1.727-11.63-4.461-16.27-6.27-1.84-0.7148-3.309-1.289-4.113-1.598l-3.32 8.879 3.953 1.477c4.152 1.555 5.328 4.238 3.941 8.98-0.6875 2.211-2.785 8.074-5.754 16.09l-0.043 0.08594c-0.8711 1.441-4.395 2.48-5.992 2.891 0.9258 1.301 2.848 4.242 2.672 5.973l-0.0274 0.125c-3.199 8.48-5.781 15.11-6.906 17.73-1.188 2.781-2.516 4.633-5.137 4.633-1.098 0-2.414-0.3086-4.258-1l-3.309-1.238-3.398 9.09c2.527 0.9023 14.4 5.152 20.32 7.367 6.828 2.555 20.86 7.926 21 7.98 6.262 2.344 12.14 3.531 17.48 3.531 13.79 0 24.18-7.855 30.87-23.35l0.043-0.0977 0.082-0.0742c1.254-1.141 4.172-1.992 5.547-2.348-0.8438-1.191-2.578-3.84-2.684-5.562l-0.004-0.0898 0.0234-0.0859c6.9-22.94-0.4-36.57-24.4-45.55" inkscape:connector-curvature="0"/>
<path d="m511.2 64.8c-3.211-0.9102-7.73-2.324-10.43-3.168-0.9727-0.3008-1.68-0.5234-1.953-0.6055-0.2734 1.246-1.602 5.934-2.023 7.133l4.078 1.156c2.254 0.6406 4.41 1.918 3.309 6.527-0.9688 3.996-3.945 14.48-5.719 20.51l-0.5 1.5-0.5-1.48c-3.9-11.33-9.9-29.82-12.7-39.34-5.504-1.395-17.28-4.734-22.63-6.422-0.1875 0.8398-0.957 4.148-2.02 7.125l3.359 0.9531c3.02 0.8594 4.164 2.871 3.5 6.148-0.3281 1.648-1.562 6.293-3.387 12.74l-0.0742 0.1523c-0.9844 1.383-4.141 2.559-5.617 3.051 1.016 1.23 3.137 4.016 3.098 5.754l-0.0234 0.1289c-1.312 4.48-2.352 7.898-2.852 9.371-0.8476 2.492-2.137 3.602-4.172 3.602-0.6719 0-1.434-0.1211-2.332-0.375l-3.121-0.8867c-0.1562 0.6445-0.9961 4.047-2.066 7.285 1.129 0.2969 8.379 2.207 12.66 3.422 3.562 1.012 9.273 2.738 12.36 3.676l0.1328 0.0391c0.7617-3.207 1.82-6.523 2.066-7.285l-4.1-1.1c-3.492-0.9883-4.551-2.711-3.766-6.129 0.8164-3.43 4.391-16.35 7.086-25.61l0.4492-1.543 0.5078 1.523c4.637 13.95 11.05 34 14.32 44.74 2.836 0.6367 8.855 2.344 11.62 3.297 1.289-4.941 3.617-13.4 6.238-22.65l0.0586-0.1445c0.6367-1.582 4.133-2.945 5.809-3.516-1.043-1.234-3.23-4.047-3.152-5.781l0.0195-0.1172c1.543-5.34 2.652-9.035 3.117-10.4 0.9922-2.801 2.387-4.105 4.398-4.105 0.5547 0 1.156 0.09375 1.844 0.2891l3.441 0.9766c0.2734-1.242 1.598-5.91 2.02-7.121-0.1367-0.04297-0.3516-0.09766-0.5781-0.1523-2.1-0.53-8.2-2.09-12-3.17" inkscape:connector-curvature="0"/>
</g>
<g stroke-miterlimit="10" stroke-opacity="0" fill="none">
<path d="m154.3 52.48-0.0859 0.02734c-2.41 0.7813-6.059 1.961-8.898 2.797-3.945 1.156-11.34 3.09-12.18 3.309 0.1836 0.5156 1.34 3.789 2.082 7.109l1.918-0.5625c0.7344-0.2148 1.355-0.3203 1.902-0.3203 2.738 0 3.414 2.562 3.582 6.41 0.3398 6.91-0.3945 22.16-0.8281 29.25l-0.0898 1.473-0.8281-1.223c-4.371-6.477-12.27-18.55-15.9-24.4-1.441-2.594-1.883-4.598-1.316-5.973 0.3945-0.9727 1.266-1.645 2.656-2.051l2.32-0.6797c-0.4336-1.195-1.801-5.867-2.086-7.109-0.4297 0.1289-1.426 0.4453-2.758 0.8633l-0.4219 0.1367c-3.328 1.051-8.355 2.641-12.04 3.719-5.004 1.469-13.98 3.871-15.2 4.199 0.1758 0.5156 1.266 3.789 2.086 7.109l1.598-0.4727c1.168-0.3398 2.141-0.5078 2.977-0.5078 2.492 0 3.973 1.402 6.168 4.352 1.48 2.043 3.766 5.344 6.617 9.559l0.082 0.1172 0.004 0.1445c0.0586 1.699-1.004 4.391-1.551 5.656 1.695 0.07031 5.523 0.3828 6.582 1.781l0.1328 0.1367c5.492 8.273 10.67 16.29 13.53 20.93 2.48-0.8086 11.75-3.527 14.23-4.168 0.004-6.066 0.3047-15.64 0.8008-25.63l0.008-0.1211 0.0586-0.1016c0.8477-1.477 2.949-3.207 3.996-4.016-0.8633-0.5273-2.402-1.531-3.516-2.605l-0.168-0.1602 0.0156-0.2305c0.332-5.605 0.6758-10.11 0.9883-13.02 0.5898-6.156 2.547-7.785 6.438-8.926l1.84-0.5391c-0.4336-1.199-1.801-5.867-2.086-7.109-0.4648 0.1406-1.426 0.4492-2.652 0.8477z" inkscape:connector-curvature="0"/>
<path d="m220.1 76.36c0.9102 5.723 0.7383 9.391-0.5508 11.89-1.328 2.562-3.855 4.016-8.203 4.711l-8.598 1.371c-0.4922 0.08203-0.9297 0.1172-1.34 0.1172-2.363 0-3.668-1.289-4.355-4.316-0.457-1.898-1.363-6.961-2.363-13.21l-0.082-0.4961 2.609-0.418c1.004-0.1602 1.879-0.2344 2.672-0.2344 4.121 0 6 2.008 6.941 7.414l0.293 1.816c2.48-0.5391 5.102-0.8477 5.754-0.9219l-0.0898-0.4062c-0.8477-3.844-1.41-6.387-2.348-12.23-0.6289-3.949-0.8555-6.047-1.121-8.473-0.1328-1.223-0.2656-2.477-0.4648-4.051-0.4219 0.08984-3.18 0.6602-5.918 0.9453l0.3281 2.059c0.9336 5.84-0.8672 8.355-6.648 9.281l-2.77 0.4414-0.082-0.4922c-0.9414-5.914-1.621-10.76-1.82-12.97-0.3359-3.195 0.9336-4.91 3.992-5.402l8.766-1.402c1.395-0.2188 2.562-0.3281 3.57-0.3281 5.473 0 8.035 3.215 9.426 11.86l7.398-1.184c-0.9-5.7-2.2-15.01-2.8-21.25-3.535 1.023-13.63 2.758-18.5 3.539l-20.72 3.312c-2.391 0.3828-7.93 1.195-11.24 1.68-2.145 0.3164-3.875 0.5703-4.445 0.6602l1.172 7.316 3.207-0.5156c0.4648-0.07031 0.8711-0.1055 1.25-0.1055 2.336 0 3.586 1.32 4.32 4.57 0.4141 1.934 1.305 7.062 2.32 13.39l0.0117 0.07813-0.0117 0.08203c-0.2812 1.672-2.695 4.094-3.84 5.168 1.52 0.7344 4.871 2.523 5.316 4.215 0.4453 2.949 0.9844 6.73 1.113 8.293 0.2695 3.223-0.3438 5.492-4.215 6.113l-2.801 0.4492 1.199 7.477c0.2383-0.0391 0.8984-0.1524 1.84-0.3164 2.66-0.4648 9.73-1.699 13.54-2.312l21.54-3.441c4.398-0.7031 13.03-1.996 17.61-2.398-1.031-6.453-2.371-16.21-2.793-22.67-1.387 0.2969-6.57 1.125-7.965 1.273z" inkscape:connector-curvature="0"/>
<path d="m275.4 61.73c-1.562 1.633-4.031 2.449-8 2.648l-4.875 0.25-0.0273-0.5c-0.3906-7.867-0.5312-14.95-0.5469-15.73-0.0273-2.348 0.9375-3.441 3.129-3.551l2.816-0.1445c6.461-0.3398 9.152 2.27 9.504 9.223 0.1914 3.707-0.4453 6.188-2 7.809zm26.76 14.44c-0.582 0.1211-3.164 0.4648-3.988 0.5195 0.7539 2.832 1.766 7.801 0.2539 9.879-0.418 0.5703-0.9883 0.875-1.703 0.9102l-0.2188 0.0078c-2.383 0-3.562-2.191-4.875-9.023-1.152-6.227-4.004-9.594-9.246-10.93l-1.883-0.4766 1.879-0.4922c7.387-1.934 11.75-7.57 11.39-14.71-0.4688-9.238-7.441-14.33-19.63-14.33-0.7656 0-1.566 0.02344-2.371 0.0625-3.164 0.1602-6.863 0.375-10.18 0.5625-2.672 0.1562-5.102 0.2969-6.797 0.3828-1.898 0.09375-6.555 0.2773-11.16 0.4531-2.418 0.09375-4.414 0.1719-5.023 0.1992l0.375 7.402 3.66-0.1836c0.1875-0.01172 0.3672-0.01953 0.543-0.01953 2.852 0 3.637 1.656 3.98 4.328 0.1797 1.625 0.5 6.586 0.8555 13.29l0.004 0.05469-0.008 0.05469c-0.2812 1.664-3.086 3.965-4.387 4.953 1.457 0.8984 4.684 3.074 4.875 4.82 0.2188 4.887 0.332 8.27 0.3203 9.562-0.0664 3.582-1.41 5.039-4.789 5.215l-2.914 0.1484 0.3828 7.562c1.879-0.125 10.3-0.6875 15.25-0.9375 2.516-0.1289 14.16-0.5664 15.18-0.6055l-0.3789-7.48-2.832 0.1406c-2.949 0.1797-4.539-1.277-5.047-4.789-0.2266-1.57-0.5586-6.195-0.8594-12.07l-0.0273-0.5 2.723-0.1367c5.699-0.3047 9.402 0.9844 10.41 10.75 1.082 9.895 3.879 15.44 15.3 14.86 4.66-0.2383 8.031-1.77 10.02-4.559 1.027-1.438 1.602-3.09 1.875-4.816 0.1172-1.152 0.168-2.367 0.1758-3.559-0.1094-2.293-0.5859-4.559-1.145-6.492z" inkscape:connector-curvature="0"/>
<path d="m77.18 142.8c-2.773 1.168-5.215 1.734-7.469 1.734-7.133 0-12.63-5.656-18.97-19.52l-0.04297-0.1406c-0.2305-1.672 1.539-4.719 2.398-6.074-1.52-0.2969-4.766-1.066-5.938-2.355l-0.09766-0.1562c-6.83-17.92-5.18-27.48 5.51-31.98 2.738-1.152 5.16-1.711 7.41-1.711 7.266 0 12.83 5.684 19.21 19.62l0.03907 0.1406c0.2344 1.672-1.531 4.719-2.383 6.074 1.473 0.293 4.68 1.047 5.883 2.281l0.07031 0.0742 0.03906 0.0977c7.027 18.29 5.441 27.23-5.66 31.9zm23.26-47.82-0.0586-0.09766c-7.5-16.16-17.84-24.01-31.53-24.01-5.961 0-12.66 1.547-19.92 4.602-22.64 9.53-30.58 28.23-21.79 51.33l0.03125 0.1758c0 1.691-1.512 4.473-2.25 5.73 1.371 0.2305 4.258 0.8203 5.641 1.855l0.08984 0.0664 0.05469 0.1016c7.398 14.21 17.67 21.41 30.53 21.42h0.0039c5.941 0 12.58-1.527 19.74-4.539 21.21-9 29.61-26.4 23.11-47.7l-0.0273-0.0781v-0.0508c-0.4726-1.633 1.484-4.852 2.469-6.332-1.547-0.3398-4.883-1.207-5.957-2.574z" inkscape:connector-curvature="0"/>
</g>
<g fill="#fff">
<path d="m176 141.6h1.438c-0.2188 1.223-0.4805 4.145-0.3594 6.059-0.4805-0.0508-1.102-0.0508-1.582 0-0.4531-2.66-1.246-4.98-4.957-4.98-3.445 0-4.883 2.297-4.883 7.398 0 5.984 2.012 7.445 4.691 7.445 3.449 0 5.195-2.25 5.387-5.578 0.4102 0.0469 1.246 0.0469 1.652 0-0.3086 4.523-2.203 6.895-7.062 6.895-4.906 0-8.066-2.465-8.066-8.762 0-6.152 3.566-8.715 8.066-8.715 2.25 0 3.449 0.7188 3.949 0.9805 1.297 0.6953 1.582 0.5039 1.727-0.7422" inkscape:connector-curvature="0"/>
<path d="m192.8 150.1c0-5.316-1.414-7.398-4.812-7.398-3.258 0-4.789 2.418-4.789 7.422 0 5.266 1.199 7.445 4.789 7.445 3.543 0 4.812-2.516 4.812-7.469m-12.83 0.0234c0-5.629 3.375-8.715 8.02-8.715 5.316 0 8.02 3.137 8.02 8.691 0 5.602-3.375 8.785-8.02 8.785-5.293 0-8.02-3.23-8.02-8.762" inkscape:connector-curvature="0"/>
<path d="m199.8 144.7c-0.0234-1.031-0.3125-1.414-1.246-1.414h-1.102v-1.414s2.492 0.0742 3.902 0.0742c1.414 0 3.52-0.0742 3.902-0.0742v1.414h-1.102c-0.957 0-1.414 0.2891-1.414 1.414v7.156c0 3.949 1.512 5.316 4.336 5.316 2.801 0 4.359-1.223 4.359-5.316 0-2.035 0.0469-4.453 0-7.156-0.0273-0.9336-0.5312-1.414-1.391-1.414h-1.102v-1.414s2.203 0.0742 3.449 0.0742c1.242 0 3.039-0.0742 3.422-0.0742v1.414h-1.125c-0.8633 0-1.219 0.5039-1.246 1.438-0.0469 2.68 0 5.121 0 6.941 0 4.766-2.129 7.23-6.582 7.23-4.645 0-7.062-2.082-7.062-7.254 0 0 0.0469-5.457 0-6.941" inkscape:connector-curvature="0"/>
<path d="m231.7 153.4c0.0742-3.016 0.0742-7.586 0-8.879-0.0469-0.9609-0.4062-1.223-1.27-1.223h-1.531v-1.414c0.3828 0 2.348 0.0742 3.664 0.0742s3.641-0.0742 3.641-0.0742v1.414h-1.535c-0.8633 0-1.219 0.2617-1.27 1.223-0.0703 1.387-0.0703 11.01 0 13.88-0.4297-0.0469-1.41-0.0469-1.844 0-2.031-3.039-6.125-9.023-9.023-13.14-0.0234 3.781-0.0234 9.336 0.0469 10.75 0.0234 0.8164 0.3359 0.9844 1.438 0.9844h1.387v1.461s-2.348-0.0508-3.66-0.0508c-1.316 0-3.664 0.0508-3.664 0.0508v-1.461h1.363c1.102 0 1.414-0.168 1.438-0.9844 0.0703-1.77 0.0937-10.1 0-11.52-0.0742-0.9336-0.4102-1.195-1.27-1.195h-1.508v-1.414c1.34 0.0508 4.238 0.0508 5.578 0 1.793 2.73 5.77 8.406 8.02 11.52" inkscape:connector-curvature="0"/>
<path d="m247.4 143.3c-0.0508 3.16-0.0508 10.99 0.0195 12.26 0.0508 0.9102 0.2656 1.438 1.344 1.438h1.461v1.461s-2.656-0.0508-4.168-0.0508c-1.508 0-4.188 0.0508-4.188 0.0508v-1.461h1.363c1.055 0 1.391-0.5273 1.438-1.438 0.0703-1.27 0.0703-9.098 0-12.26h-1.891c-1.867 0-2.465 0.8633-2.539 2.25l-0.0937 2.371h-1.582c0.0703-1.461 0-4.668-0.1211-6.129 0.6953 0.0703 1.941 0.0937 3.738 0.0937h7.754c2.133 0 2.801-0.0234 3.688-0.0937-0.1211 1.461-0.1914 4.668-0.1211 6.129h-1.531l-0.0937-2.371c-0.0742-1.387-0.6719-2.25-2.539-2.25z" inkscape:connector-curvature="0"/>
<path d="m261.5 149.8h1.938c2.852 0 3.832-1.004 3.832-3.445 0-2.418-0.9805-3.281-3.52-3.281h-1.242c-0.6953 0-0.9102 0.3594-0.9336 0.957-0.0508 0.9102-0.0742 3.352-0.0742 5.77m9.41 7.492c1.102 0 1.223-1.602 0.8125-3.828l1.102-0.1211c0.6484 2.824 0.2656 5.531-2.727 5.531-3.184 0-3.832-1.773-4-4.762-0.1445-2.66-1.316-3.164-2.922-3.164h-1.676c0 2.109 0.0234 4.07 0.0742 4.645 0.0703 1.031 0.5274 1.438 1.363 1.438h1.148v1.414s-2.824-0.0508-4.094-0.0508c-1.484 0-4.094 0.0508-4.094 0.0508v-1.461h1.148c1.078 0 1.582-0.3594 1.629-1.414 0.0742-1.34 0.0742-9.672 0-11.08-0.0469-0.9375-0.3828-1.199-1.246-1.199h-1.531v-1.414c0.3828 0 3.734 0.0508 4.191 0.0508 1.098 0 3.039-0.0234 4.047-0.0234 4.043 0 6.32 1.461 6.32 4.402 0 2.395-1.773 4.023-3.93 4.285 1.844 0.4805 2.492 1.535 2.707 3.234 0.3828 2.992 0.8633 3.469 1.676 3.469" inkscape:connector-curvature="0"/>
<path d="m283.4 152.7v3.039c0 0.9805 0.1211 1.246 1.414 1.246h1.629v1.438s-2.828-0.0508-4.434-0.0508c-1.602 0-4.449 0.0508-4.449 0.0508v-1.438h1.602c1.316 0 1.438-0.3125 1.438-1.246v-3.016c-1.176-2.324-3.207-6.059-4.285-7.922-0.6445-1.082-1.316-1.535-2.777-1.535h-0.3828v-1.414s2.777 0.0742 4.332 0.0742c1.559 0 4.336-0.0742 4.336-0.0742v1.414h-1.199c-1.387 0-1.629 0.6719-1.199 1.605 0.6992 1.41 2.469 4.621 3.473 6.27 0.9609-1.746 2.441-4.668 3.188-6.27 0.4062-0.9102 0.5-1.605-1.055-1.605h-0.8633v-1.414s2.348 0.0742 3.664 0.0742 3.637-0.0742 3.637-0.0742v1.414h-0.6211c-1.891 0-2.441 0.4062-3.184 1.676-1.078 1.82-3.086 5.484-4.262 7.758" inkscape:connector-curvature="0"/>
<path d="m304.6 150.5c0 2.441 0 4.812 0.0508 5.746 0.0234 0.7891 0.3594 0.957 0.8828 0.957h1.293c2.777 0 3.688-1.172 3.688-3.52 0-2.156-1.316-3.184-4.309-3.184zm0-1.148h1.559c2.848 0 3.828-0.7656 3.828-3.234 0-1.844-1.004-3.039-3.492-3.039h-0.9141c-0.668 0-0.9062 0.3828-0.9297 0.957-0.0508 0.8398-0.0508 3.039-0.0508 5.316m2.371 9.047h-7.996v-1.41h1.363c1.102 0 1.391-0.1445 1.414-0.9844 0.0703-1.77 0.0703-10.1 0-11.54-0.0469-0.9336-0.3828-1.172-1.246-1.172h-1.531v-1.414c0.3828 0 3.664 0.0508 4.188 0.0508 1.105 0 2.586-0.0234 3.594-0.0234 4.023 0 6.273 1.387 6.273 4.164 0 1.773-0.9844 3.207-2.781 3.785 2.016 0.5 3.379 1.863 3.379 3.758 0 2.918-1.414 4.785-6.656 4.785" inkscape:connector-curvature="0"/>
<path d="m324.2 144.2c-0.6719 1.699-1.961 5.266-2.871 7.828 1.699 0.0234 4.188 0.0234 5.84 0-0.9336-2.562-2.273-6.129-2.969-7.828m3.426 9.074c-1.75-0.0508-4.91-0.0508-6.73 0-0.2383 0.668-0.4297 1.219-0.5039 1.484-0.4062 1.34-0.2617 2.25 1.297 2.25h1.027l-0.0234 1.461s-2.371-0.0508-3.688-0.0508c-1.316 0-3.688 0.0508-3.688 0.0508v-1.461h0.8867c1.34 0 1.891-0.5273 2.465-1.988 0.5742-1.461 3.879-10.46 4.887-13.26 0 0 0.8828 0.0703 1.363 0.0703 0.4805 0 1.34-0.0703 1.34-0.0703 0.957 2.824 4.574 11.88 5.195 13.29 0.625 1.414 1.102 1.965 2.082 1.965h1.078v1.461s-2.73-0.0508-4.262-0.0508c-1.531 0-4.285 0.0508-4.285 0.0508l0.0234-1.461h1.055c1.148 0 1.555-0.8164 1.004-2.301z" inkscape:connector-curvature="0"/>
<path d="m342.5 149.8h1.938c2.852 0 3.832-1.004 3.832-3.445 0-2.418-0.9805-3.281-3.52-3.281h-1.242c-0.6953 0-0.9102 0.3594-0.9336 0.957-0.0508 0.9102-0.0742 3.352-0.0742 5.77m9.41 7.492c1.102 0 1.219-1.602 0.8125-3.828l1.102-0.1211c0.6484 2.824 0.2656 5.531-2.73 5.531-3.184 0-3.828-1.773-3.996-4.762-0.1445-2.66-1.316-3.164-2.922-3.164h-1.676c0 2.109 0.0234 4.07 0.0742 4.645 0.0703 1.031 0.5234 1.438 1.363 1.438h1.148v1.414s-2.824-0.0508-4.094-0.0508c-1.484 0-4.094 0.0508-4.094 0.0508v-1.461h1.148c1.078 0 1.582-0.3594 1.629-1.414 0.0703-1.34 0.0703-9.672 0-11.08-0.0469-0.9375-0.3828-1.199-1.246-1.199h-1.531v-1.414c0.3828 0 3.734 0.0508 4.191 0.0508 1.098 0 3.039-0.0234 4.043-0.0234 4.047 0 6.32 1.461 6.32 4.402 0 2.395-1.77 4.023-3.926 4.285 1.844 0.4805 2.492 1.535 2.707 3.234 0.3828 2.992 0.8594 3.469 1.676 3.469" inkscape:connector-curvature="0"/>
<path d="m368.4 149.5c1.676-0.8398 2.105-2.273 2.105-4.215 0-1.77-0.5039-2.516-1.723-2.516-1.223 0-1.746 0.7461-1.746 2.516 0 1.27 0.3828 2.418 1.363 4.215m1.723 7.445c-0.9805-0.9336-2.035-2.371-3.254-4.527-0.2656-0.4531-0.5274-0.8828-0.7422-1.293-0.9844 0.6016-1.703 1.676-1.703 2.945 0 2.133 1.223 3.398 3.137 3.375 1.031 0 1.867-0.1914 2.562-0.5m4.406 1.723c-1.34 0-2.465-0.2383-3.617-1.055-0.9805 0.7422-2.32 1.246-4.094 1.246-3.062 0-5.098-1.555-5.098-4.285 0-2.465 1.961-3.949 3.902-4.43-0.7891-1.652-1.148-2.969-1.148-4.332 0-2.875 1.629-4.191 4.309-4.191 2.488 0 3.734 1.605 3.734 3.52 0 2.371-1.531 4.309-3.711 5.102l0.7422 1.195c1.055 1.723 1.867 2.945 2.562 3.832 0.8633-0.957 1.219-2.109 1.316-3.234 0.0469-0.5742-0.0703-1.266-1.031-1.266h-0.7422v-1.125s1.891 0.0703 2.969 0.0703 2.969-0.0703 2.969-0.0703v1.125h-0.9805c-1.148 0-1.387 0.5976-1.484 1.074-0.3359 1.582-1.102 2.945-2.465 4.094 1.219 1.438 1.914 1.531 2.68 1.531 1.293 0 2.156-1.004 2.156-2.535l0.7891 0.1445c-0.168 1.844-0.7422 3.59-3.758 3.59" inkscape:connector-curvature="0"/>
<path d="m398 142.4c1.293 0.6953 1.582 0.5039 1.727-0.7422h1.434c-0.2148 1.223-0.4766 4.141-0.3594 6.059-0.4766-0.0469-1.102-0.0469-1.578 0-0.457-2.66-1.246-4.98-4.957-4.98-3.449 0-4.883 2.297-4.883 7.398 0 5.984 2.105 7.445 4.691 7.445 2.465 0 4.383-1.27 4.383-4.141 0-1.559-0.1914-2.227-1.535-2.227h-1.027v-1.367s2.371 0.0742 3.688 0.0742c1.316 0 3.688-0.0742 3.688-0.0742v1.367h-0.8164c-0.6914 0-0.957 0.3594-0.957 1.266 0 1.27 0 4.359 0.1445 6.109-0.3828-0.0508-1.223-0.0508-1.605 0-0.1172-0.6016-0.4062-1.75-0.668-2.684-0.8633 1.676-2.875 2.992-5.34 2.992-4.836 0-8.047-2.465-8.047-8.762 0-6.152 3.594-8.715 8.094-8.715 1.293 0 2.371 0.168 3.926 0.9805" inkscape:connector-curvature="0"/>
<path d="m410.2 149.8h1.941c2.848 0 3.832-1.004 3.832-3.445 0-2.418-0.9844-3.281-3.52-3.281h-1.246c-0.6953 0-0.9102 0.3594-0.9336 0.957-0.0508 0.9102-0.0742 3.352-0.0742 5.77m9.41 7.492c1.102 0 1.223-1.602 0.8125-3.828l1.102-0.1211c0.6484 2.824 0.2656 5.531-2.727 5.531-3.184 0-3.832-1.773-4-4.762-0.1445-2.66-1.316-3.164-2.922-3.164h-1.676c0 2.109 0.0234 4.07 0.0742 4.645 0.0703 1.031 0.5274 1.438 1.363 1.438h1.148v1.414s-2.824-0.0508-4.094-0.0508c-1.484 0-4.094 0.0508-4.094 0.0508v-1.461h1.148c1.078 0 1.582-0.3594 1.629-1.414 0.0742-1.34 0.0742-9.672 0-11.08-0.0469-0.9375-0.3828-1.199-1.242-1.199h-1.535v-1.414c0.3828 0 3.734 0.0508 4.191 0.0508 1.102 0 3.039-0.0234 4.047-0.0234 4.043 0 6.32 1.461 6.32 4.402 0 2.395-1.773 4.023-3.93 4.285 1.844 0.4805 2.492 1.535 2.707 3.234 0.3828 2.992 0.8633 3.469 1.676 3.469" inkscape:connector-curvature="0"/>
<path d="m423.8 157h1.316c1.078 0 1.367-0.1445 1.391-0.957 0.0703-1.797 0.0703-10.13 0-11.54-0.0508-0.9336-0.3828-1.195-1.246-1.195h-1.461v-1.41s2.684 0.0703 4.168 0.0703c1.48 0 3.758-0.0703 4.141-0.0703v1.41h-1.461c-0.8633 0-1.172 0.2617-1.246 1.195-0.0937 1.414-0.0703 9.746 0 11.54 0.0234 0.8125 0.3125 0.957 1.414 0.957h1.293v1.461s-2.66-0.0508-4.141-0.0508c-1.484 0-4.168 0.0508-4.168 0.0508z" inkscape:connector-curvature="0"/>
<path d="m442.7 143.3h-1.508c-0.8867 0-1.219 0.2617-1.27 1.195-0.0703 1.414-0.0703 9.746 0 11.54 0.0274 0.7422 0.4297 0.957 1.176 0.957h2.012c2.656 0 3.828-0.8633 4.066-4.957h1.461c-0.1406 1.555-0.2852 4.91-0.2383 6.465-1.125-0.0977-3.445-0.0977-4.477-0.0977h-5.484c-0.957 0-3.445 0.0273-4.066 0.0508v-1.461h1.387c1.102 0 1.363-0.1445 1.387-0.9844 0.0742-1.77 0.0742-10.1 0-11.52-0.0469-0.9336-0.3828-1.195-1.242-1.195h-1.512v-1.414s2.684 0.0742 4.168 0.0742 3.641-0.0742 4.141-0.0742z" inkscape:connector-curvature="0"/>
<path d="m459 143.3h-1.508c-0.8867 0-1.219 0.2617-1.27 1.195-0.0703 1.414-0.0703 9.746 0 11.54 0.0273 0.7422 0.4336 0.957 1.176 0.957h2.012c2.656 0 3.828-0.8633 4.066-4.957h1.461c-0.1406 1.555-0.2852 4.91-0.2383 6.465-1.125-0.0977-3.445-0.0977-4.477-0.0977h-5.484c-0.957 0-3.445 0.0273-4.066 0.0508v-1.461h1.387c1.102 0 1.363-0.1445 1.387-0.9844 0.0742-1.77 0.0742-10.1 0-11.52-0.0469-0.9336-0.3828-1.195-1.242-1.195h-1.512v-1.414s2.684 0.0742 4.168 0.0742 3.641-0.0742 4.141-0.0742z" inkscape:connector-curvature="0"/>
<path d="m288.9 125.1v-10.38h4.77v1.555h-2.988v2.672h2.301v1.551h-2.301v3.047h3.191v1.555z" inkscape:connector-curvature="0"/>
<path d="m299.1 117.2c-0.0703-0.8906-0.543-1.148-0.9453-1.148-0.5781 0-0.8945 0.375-0.8945 1.02 0 1.77 3.625 2.617 3.625 5.434 0 1.711-1.152 2.66-2.816 2.66-1.656 0-2.605-1.324-2.676-2.875l1.695-0.2461c0.0742 1.051 0.4883 1.566 1.066 1.566 0.6172 0 1.035-0.3281 1.035-0.9492 0-2.055-3.625-2.602-3.625-5.574 0-1.652 1.008-2.59 2.762-2.59 1.449 0 2.312 1.051 2.469 2.516z" inkscape:connector-curvature="0"/>
<path d="m304 116.2h-1.727v-1.555h5.234v1.555h-1.727v8.824h-1.781z" inkscape:connector-curvature="0"/>
<path d="m308.3 123.4h1.695v1.695h-1.695z" inkscape:connector-curvature="0"/>
<path d="m317 116.8h-1.41v-0.9609c0.7891-0.4023 1.523-0.8359 2.113-1.34h0.9062v10.52h-1.609z" inkscape:connector-curvature="0"/>
<path d="m324.5 117.4c0-1.004-0.2305-1.422-0.7774-1.422s-0.7734 0.418-0.7734 1.422c0 1.008 0.2266 1.426 0.7734 1.426 0.5469 0 0.7774-0.418 0.7774-1.426m0.1445 4.699c0-1.074-0.2305-1.723-0.9219-1.723-0.6875 0-0.918 0.6484-0.918 1.723 0 1.078 0.2305 1.727 0.918 1.727 0.6914 0 0.9219-0.6484 0.9219-1.727m-2.375-2.543c-0.6289-0.4609-0.9336-1.262-0.9336-2.07 0-2.012 0.9219-2.918 2.387-2.918s2.387 0.9062 2.387 2.918c0 0.8086-0.3008 1.609-0.9336 2.07 0.875 0.5625 1.078 1.395 1.078 2.66 0 1.957-0.8633 3.02-2.531 3.02s-2.531-1.062-2.531-3.02c0-1.266 0.2031-2.098 1.078-2.66" inkscape:connector-curvature="0"/>
<path d="m328 116.1v-1.465h4.688v1.008l-2.113 9.371h-1.68l2.082-8.914z" inkscape:connector-curvature="0"/>
<path d="m336.9 121.2v-4.055h-0.0274l-1.742 4.055zm-0.0274 1.324h-3.105v-1.324l3.016-6.555h1.727v6.555h0.9492v1.324h-0.9492v2.5h-1.637z" inkscape:connector-curvature="0"/>
<path d="m276.8 118.6 0.9492-1.805 0.8555 1.855 2.008 0.3438-1.496 1.387 0.293 2.016-1.781-0.9961-1.828 0.9023 0.3984-2-1.422-1.461z" inkscape:connector-curvature="0"/>
<path d="m349.3 118.6 0.9492-1.805 0.8555 1.855 2.008 0.3438-1.496 1.387 0.2891 2.016-1.777-0.9961-1.832 0.9023 0.3984-2-1.422-1.461z" inkscape:connector-curvature="0"/>
<path d="m499.6 156.3 0.9492-1.805 0.8555 1.852 2.008 0.3476-1.496 1.387 0.2891 2.016-1.777-0.9961-1.832 0.9024 0.3984-2-1.422-1.461z" inkscape:connector-curvature="0"/>
<path d="m126.9 156.3 0.9531-1.805 0.8516 1.852 2.008 0.3476-1.496 1.387 0.293 2.016-1.781-0.9961-1.828 0.9024 0.3984-2-1.422-1.461z" inkscape:connector-curvature="0"/>
</g>
<g clip-path="url(#c)" stroke="#fff">
<path d="m0.0001312 0.0009438 0.01953-12.71" transform="matrix(1 0 0 -1 314 172.2)" inkscape:connector-curvature="0" stroke="#fff" stroke-linecap="round" stroke-miterlimit="10" stroke-width=".75" fill="none"/>
</g>
<g clip-path="url(#b)" stroke="#fff">
<path d="m-0.0006625-0.001269 4.203-12.37" transform="matrix(1 0 0 -1 314.5 171.7)" inkscape:connector-curvature="0" stroke="#fff" stroke-linecap="round" stroke-miterlimit="10" stroke-width=".75" fill="none"/>
</g>
<g stroke="#fff" stroke-linecap="round" stroke-miterlimit="10" stroke-width=".75" fill="none">
<path d="m315 171.4 7.984 10.11" inkscape:connector-curvature="0"/>
<path d="m315.4 170.8 10.88 6.91" inkscape:connector-curvature="0"/>
<path d="m316 170.3 11.95 3.562" inkscape:connector-curvature="0"/>
</g>
<g clip-path="url(#a)" stroke="#fff">
<path d="m-0.001856 0.00145-4.055-12.31" transform="matrix(1 0 0 -1 313.3 171.8)" inkscape:connector-curvature="0" stroke="#fff" stroke-linecap="round" stroke-miterlimit="10" stroke-width=".75" fill="none"/>
</g>
<g stroke="#fff" stroke-linecap="round" stroke-miterlimit="10" stroke-width=".75" fill="none">
<path d="m312.9 171.3-7.945 10.3" inkscape:connector-curvature="0"/>
<path d="m312.4 170.8-10.8 6.977" inkscape:connector-curvature="0"/>
<path d="m300 173.9 11.96-3.562" inkscape:connector-curvature="0"/>
<path d="m87.32 164.1s2.285-6.758 34.56-16.57c21.05-6.402 29.93-11.92 29.59-16.8-0.2148-3.109-4.605-0.8633-4.812 4.828-0.1953 5.41-0.0352 25.21-0.0352 30.54 0 8.266-5.078 10.14-6.223 8.559-0.9961-1.379 0.9375-5.023 8.598-5.023h162.4l2.578 2.5 2.551-2.5h93.29" inkscape:connector-curvature="0"/>
<path d="m128.7 136c-1.637 1.199-0.5078 6.141 5.598 3.746 8.5-3.344 10.38-5.887 11.4-8.934 1.207-3.586-3.234-4.871-3.234 1.199s0.3555 33.41 0.3555 33.41c-0.0352 3.84-3.746 5.473-5.059 4.352-1.555-1.324 0.8086-4.906 6.98-4.957 10.06-0.0781 7.383 11.04 7.383 11.04" inkscape:connector-curvature="0"/>
<path d="m115.4 149.6s-7.496 2.18-9.707 5.578c-2.145 3.305 0.3398 5.992 2.043 6.191" inkscape:connector-curvature="0"/>
<path d="m541.2 164.1s-2.285-6.758-34.56-16.57c-21.05-6.402-29.93-11.92-29.59-16.8 0.2148-3.109 4.605-0.8633 4.812 4.828 0.1953 5.41 0.0391 25.21 0.0391 30.54 0 8.266 5.074 10.14 6.219 8.559 0.9961-1.379-0.9375-5.023-8.598-5.023h-69.73" inkscape:connector-curvature="0"/>
<path d="m499.9 136c1.637 1.199 0.5078 6.141-5.594 3.746-8.504-3.344-10.38-5.887-11.4-8.934-1.207-3.586 3.234-4.871 3.234 1.199s-0.3555 33.41-0.3555 33.41c0.0352 3.84 3.746 5.473 5.059 4.352 1.555-1.324-0.8086-4.906-6.98-4.957-10.06-0.0781-7.383 11.04-7.383 11.04" inkscape:connector-curvature="0"/>
<path d="m513.1 149.6s7.496 2.18 9.707 5.578c2.145 3.305-0.3398 5.992-2.043 6.191" inkscape:connector-curvature="0"/>
<path d="m255.1 115.3c-0.9258 0.9648-0.6836 3.738 2.223 4.008 2.297 0.2109 3.887-1.883 3.48-4.316-0.7266-4.324-6.32-5.543-17.04-2.594-10.11 2.785-14.78 4.496-26.68 9.043-12.32 4.711-22.04 7.289-32.58 8.684-11.88 1.566-21.98-0.3359-22.38-4.066-0.4453-4.207 15.62-8.957 31.19-8.645 6.648 0.1328 14.5 1.453 21.76 3.078 8.578 1.918 14.89 3.504 17.5 3.625 11.98 0.5625 8.035-6.578-3.543-3.559-5.496 1.438-10.23 3.555-20.28 7.074-8.797 3.074-20.49 7.141-23.79 1.086-1.867-3.422 1.098-6.641 3.949-6.555 2.164 0.0664 2.406 1.75 2.406 1.75" inkscape:connector-curvature="0"/>
<path d="m251.2 110.9 15.77-1.371c2.277-0.1914 2.215-2.172 2.215-2.172" inkscape:connector-curvature="0"/>
<path d="m372.7 115.3c0.9258 0.9648 0.6836 3.738-2.223 4.008-2.297 0.2109-3.891-1.883-3.48-4.316 0.7266-4.324 6.32-5.543 17.04-2.594 10.11 2.785 14.79 4.496 26.69 9.043 12.32 4.711 22.04 7.289 32.58 8.684 11.87 1.566 21.98-0.3359 22.37-4.066 0.4492-4.207-15.62-8.957-31.19-8.645-6.648 0.1328-14.49 1.453-21.76 3.078-8.578 1.918-14.9 3.504-17.5 3.625-11.99 0.5625-8.035-6.578 3.543-3.559 5.496 1.438 10.23 3.555 20.28 7.074 8.797 3.074 20.48 7.141 23.79 1.086 1.867-3.422-1.094-6.641-3.945-6.555-2.168 0.0664-2.41 1.75-2.41 1.75" inkscape:connector-curvature="0"/>
<path d="m376.6 110.9-15.77-1.371c-2.277-0.1914-2.215-2.172-2.215-2.172" inkscape:connector-curvature="0"/>
<path d="m23.25 27.68 7.496 20.84" inkscape:connector-curvature="0"/>
<path d="m23.25 27.68 13.5 17.36" inkscape:connector-curvature="0"/>
<path d="m23.25 27.68 18.07 12.02" inkscape:connector-curvature="0"/>
<path d="m23.25 27.68 20.32 6.594" inkscape:connector-curvature="0"/>
<path d="m135.4 39.7c-3.688 3.512-8.969-2.383-3.43-5.426 8.59-4.719 26.44-5.445 26.44-5.445-12.17-0.1172-89.8-0.1992-102.2-0.1992-12.37 0-32.75 0.4023-36.52-1.996-3.773-2.391-0.1992-6.73 2.191-3.141 2.398 3.59 1.449 11.62 1.379 22.6-0.0586 9.062 0 29.89 0 29.89 0 6.918-3.305 9.312-3.305 9.312" inkscape:connector-curvature="0"/>
<path d="m158.4 28.83s-23.64-1.102-58.1 10.87c-40.33 14.01-36.42 28.29-60.45 26.62-7.371-0.5117-6.59-8.809 5.445-13.94 13.82-5.887 37.95 2.77 48.11 4.672 10.08 1.883 12.29-6.34 6.398-7.688-5.773-1.32-21.02 3.992-25.94 7.832 0 0-13.48-3.988-22.76-2.09-9.17 1.9-8.75 7.06-1.32 5.32 3.52-0.83 15.11-5.4 21.19-13.48 5.02-6.664 1.648-12.43-2.312-12.66-4.367-0.2461-7.121 2.996-6.52 6.066 0.5977 3.07 3.668 3.07 3.668 3.07" inkscape:connector-curvature="0"/>
<path d="m603.5 27.68-7.496 20.84" inkscape:connector-curvature="0"/>
<path d="m603.5 27.68-13.5 17.36" inkscape:connector-curvature="0"/>
<path d="m603.5 27.68-18 12.02" inkscape:connector-curvature="0"/>
<path d="m603.5 27.68-20.32 6.594" inkscape:connector-curvature="0"/>
<path d="m491.4 39.7c3.684 3.512 8.969-2.383 3.43-5.426-8.59-4.719-26.44-5.445-26.44-5.445 12.17-0.1172 89.8-0.1992 102.2-0.1992 12.37 0 32.75 0.4023 36.52-1.996 3.77-2.391 0.1992-6.73-2.195-3.141-2.395 3.59-1.445 11.62-1.375 22.6 0.0547 9.062 0 29.89 0 29.89 0 6.918 3.305 9.312 3.305 9.312" inkscape:connector-curvature="0"/>
<path d="m468.4 28.83s31.22-0.125 57.69 8.176c33.86 10.61 35.36 30.52 60.86 29.31 7.383-0.3477 6.59-8.809-5.449-13.94-13.82-5.887-37.04-1.609-48.93 0.3438-10.12 1.66-13.55-6.492-6.395-7.688 5.84-0.9727 20.33 6.195 25.25 10.04 0 0 14.99-1.863 24.27 0.03516 9.277 1.895 8.855 7.055 1.422 5.312-3.52-0.8242-15.11-5.395-21.19-13.48-5.016-6.664-1.645-12.43 2.316-12.66 4.367-0.2461 7.121 2.996 6.52 6.066-0.5976 3.07-3.668 3.07-3.668 3.07" inkscape:connector-curvature="0"/>
<path d="m76.18 171.9s-3.191-2.262-8.977-2.262h-38.78c-5.352 0-7.812 0.4531-9.336 1.539-2.82 2-0.2305 5.453 2.223 2.586 1.66-1.938 1.973-8.316 1.973-9.812v-8.914c0-6.684-2.574-10.27-2.574-10.27" inkscape:connector-curvature="0"/>
<path d="m23.82 169.6 13.8-4.688" inkscape:connector-curvature="0"/>
<path d="m23.69 169.6 11.43-9" inkscape:connector-curvature="0"/>
<path d="m23.5 169.6 7.812-12.3" inkscape:connector-curvature="0"/>
<path d="m23.29 169.6 4.156-13.97" inkscape:connector-curvature="0"/>
<path d="m549.8 171.9s3.195-2.262 8.98-2.262h38.78c5.355 0 7.812 0.4531 9.336 1.539 2.82 2 0.2344 5.453-2.223 2.586-1.656-1.938-1.973-8.316-1.973-9.812v-8.914c0-6.684 2.574-10.27 2.574-10.27" inkscape:connector-curvature="0"/>
<path d="m602.1 169.6-13.8-4.688" inkscape:connector-curvature="0"/>
<path d="m602.3 169.6-11.44-9.035" inkscape:connector-curvature="0"/>
<path d="m602.4 169.6-7.812-12.3" inkscape:connector-curvature="0"/>
<path d="m602.7 169.6-4.156-13.97" inkscape:connector-curvature="0"/>
<path d="m449.8 28.14s1.777 5.926-7.598 4.102c-9.203-1.789-64.91-9.117-126.7-10.69l-2.613-2.496-2.426 2.465c-46.7 0-88.28 4.23-110.1 7.035l-6.309 0.9297" inkscape:connector-curvature="0"/>
<path d="m312.9 19.05 0.1-12.54" inkscape:connector-curvature="0"/>
<path d="m312.3 19.29-4-11.97" inkscape:connector-curvature="0"/>
<path d="m311.8 19.84-7.9-10.05" inkscape:connector-curvature="0"/>
<path d="m311.1 20.34-10.5-6.76" inkscape:connector-curvature="0"/>
<path d="m310.9 21.05-12-3.61" inkscape:connector-curvature="0"/>
<path d="m313.4 19.6 4.3-12.29" inkscape:connector-curvature="0"/>
<path d="m313.9 20.04 8.1-10.22" inkscape:connector-curvature="0"/>
<path d="m314.6 20.36 10.69-6.707" inkscape:connector-curvature="0"/>
<path d="m326.9 17.6-11.99 3.379" inkscape:connector-curvature="0"/>
<path d="m176.9 26.86s-1.773 5.922 7.598 4.102c1.691-0.332 4.953-0.8477 9.539-1.48" inkscape:connector-curvature="0"/>
</g>
</svg>
