<?xml version="1.0" encoding="UTF-8" standalone="no"?>
<svg
   xmlns:dc="http://purl.org/dc/elements/1.1/"
   xmlns:cc="http://creativecommons.org/ns#"
   xmlns:rdf="http://www.w3.org/1999/02/22-rdf-syntax-ns#"
   xmlns:svg="http://www.w3.org/2000/svg"
   xmlns="http://www.w3.org/2000/svg"
   xmlns:sodipodi="http://sodipodi.sourceforge.net/DTD/sodipodi-0.dtd"
   xmlns:inkscape="http://www.inkscape.org/namespaces/inkscape"
   id="svg2"
   version="1.1"
   viewBox="0 0 628.127 193.213"
   height="193.213pt"
   width="628.127pt"
   inkscape:version="0.91 r13725"
   sodipodi:docname="overland-working.svg">
  <sodipodi:namedview
     pagecolor="#060606"
     bordercolor="#666666"
     borderopacity="1"
     objecttolerance="10"
     gridtolerance="10"
     guidetolerance="10"
     inkscape:pageopacity="0"
     inkscape:pageshadow="2"
     inkscape:window-width="1366"
     inkscape:window-height="703"
     id="namedview3977"
     showgrid="false"
     inkscape:zoom="1.1643154"
     inkscape:cx="391.61441"
     inkscape:cy="121.90199"
     inkscape:window-x="0"
     inkscape:window-y="27"
     inkscape:window-maximized="1"
     inkscape:current-layer="svg2" />
  <metadata
     id="metadata342">
    <rdf:RDF>
      <cc:Work
         rdf:about="">
        <dc:format>image/svg+xml</dc:format>
        <dc:type
           rdf:resource="http://purl.org/dc/dcmitype/StillImage" />
        <dc:title></dc:title>
      </cc:Work>
    </rdf:RDF>
  </metadata>
  <defs
     id="defs4">
    <clipPath
       id="clip1">
      <path
         id="path7"
         d="M 303 161 L 325 161 L 325 193.214844 L 303 193.214844 Z M 303 161 " />
    </clipPath>
    <clipPath
       id="clip2">
      <path
         id="path10"
         d="M 303 161 L 330 161 L 330 193.214844 L 303 193.214844 Z M 303 161 " />
    </clipPath>
    <clipPath
       id="clip3">
      <path
         id="path13"
         d="M 298 161 L 324 161 L 324 193.214844 L 298 193.214844 Z M 298 161 " />
    </clipPath>
  </defs>
  <path
     inkscape:connector-curvature="0"
     style="fill:#383028;fill-opacity:1;fill-rule:nonzero;stroke:none"
     d="m 485.69922,56.71875 c 0.22265,0.746094 0.46484,1.550781 0.72265,2.398438 -0.45312,-1.5 -0.75,-2.5 -0.84375,-2.804688 z m 0,0"
     id="path16" />
  <path
     inkscape:connector-curvature="0"
     style="fill:#ffffff;fill-opacity:1;fill-rule:nonzero;stroke:none"
     d="m 159.41797,53.457031 -0.10156,-0.453125 -1.62891,-2.628906 0.21484,0.972656 c 0.24219,1.117188 1.6836,6.039063 2.08594,7.113282 l 0.34766,0.941406 -2.8711,0.839844 c -3.58984,1.054687 -5.17968,2.40625 -5.72265,8.066406 -0.30469,2.863281 -0.64063,7.261718 -0.97266,12.746094 0.47656,0.433593 1.02344,0.855468 1.55078,1.234374 0.30078,-4.875 0.6211,-9.152343 0.92969,-12.023437 0.56641,-5.914063 2.33203,-7.402344 6.07812,-8.5 l 2.35547,-0.691406 -0.16015,-0.433594 c -0.40625,-1.082031 -1.86328,-6.050781 -2.10547,-7.183594"
     id="path18" />
  <path
     inkscape:connector-curvature="0"
     style="fill:#ffffff;fill-opacity:1;fill-rule:nonzero;stroke:none"
     d="m 102.77344,76.59375 c -0.73828,0 -1.61719,0.152344 -2.69141,0.46875 l -2.578124,0.753906 2.335938,1.382813 2.105466,-0.613281 c 1.89063,-0.558594 3.23828,-0.632813 4.39844,-0.230469 -1.14062,-1.195313 -2.17187,-1.761719 -3.57031,-1.761719"
     id="path20" />
  <path
     inkscape:connector-curvature="0"
     style="fill:#ffffff;fill-opacity:1;fill-rule:nonzero;stroke:none"
     d="m 154.61719,84.582031 c -0.0312,0.02344 -3.17969,2.296875 -4.25782,4.054688 -0.49609,9.960937 -0.79296,19.488281 -0.79296,25.511721 l 0,0.72265 -0.70313,0.17969 c -2.39844,0.61719 -11.86328,3.39063 -14.26562,4.17969 l -0.42969,0.14453 c -0.16016,0.0547 -0.25391,0.0859 -0.25391,0.0859 l 2.20703,1.40625 0.32422,-0.10938 c 2.41797,-0.79297 11.90625,-3.57422 14.29688,-4.1875 l 0.32422,-0.082 0,-0.33594 c 0.004,-6.41015 0.33984,-16.347652 0.80078,-25.664059 1.08203,-1.882812 4.46484,-4.308593 4.46484,-4.308593 l -1.07031,-2.0625 c -0.004,0 -0.008,0 -0.0117,0.0039 l 0.008,0 z m 0,0"
     id="path22" />
  <path
     inkscape:connector-curvature="0"
     style="fill:#ffffff;fill-opacity:1;fill-rule:nonzero;stroke:none"
     d="m 119.89063,97.820312 c -0.71875,-1.003906 -4.41016,-1.40625 -6.56641,-1.417968 l -0.72266,-0.0039 2.73047,1.507812 c 0,0 2.94141,0.01953 5.05078,0.601562 -0.12109,-0.183593 -0.24218,-0.367187 -0.36718,-0.550781 -0.0312,-0.02734 -0.0781,-0.07031 -0.125,-0.136719"
     id="path24" />
  <path
     inkscape:connector-curvature="0"
     style="fill:#ffffff;fill-opacity:1;fill-rule:nonzero;stroke:none"
     d="m 139.02734,65.84375 c -0.44922,0 -0.98047,0.08984 -1.62109,0.277344 l -2.94531,0.863281 0,-0.0039 -0.008,0.0039 2.38672,1.371094 2.4336,-0.710938 c 0.65625,-0.191406 1.22656,-0.289062 1.73047,-0.289062 -0.45313,-1.1875 -1.125,-1.511719 -1.97657,-1.511719"
     id="path26" />
  <path
     inkscape:connector-curvature="0"
     style="fill:#ffffff;fill-opacity:1;fill-rule:nonzero;stroke:none"
     d="m 129.58594,67.371094 0.34765,0.941406 -3.34765,0.980469 c -1.08203,0.316406 -1.73828,0.796875 -2.01563,1.472656 -0.4375,1.0625 -0.004,2.820313 1.25391,5.082031 3.39453,5.46875 10.5664,16.445313 15.04297,23.117188 0.004,-0.02734 0.004,-0.05859 0.008,-0.08594 C 136.40625,92.164062 130.43359,83 127.39063,78.09375 c -1.35157,-2.429688 -1.78516,-4.289062 -1.27735,-5.511719 0.33594,-0.828125 1.10156,-1.402343 2.33594,-1.765625 l 2.83203,-0.828125 -0.16016,-0.4375 c -0.40625,-1.089843 -1.86328,-6.058593 -2.10937,-7.183593 l -0.0977,-0.453126 -1.62109,-2.613281 0.20703,0.957031 c 0.24219,1.117188 1.68359,6.039063 2.08594,7.113282"
     id="path28" />
  <path
     inkscape:connector-curvature="0"
     style="fill:#ffffff;fill-opacity:1;fill-rule:nonzero;stroke:none"
     d="m 230.57031,76.976562 -1.57422,-3.105468 0.0703,1.066406 c 0.41406,6.449219 1.76562,16.273438 2.79687,22.730469 l 0.16016,0.988281 -1,0.08984 c -4.53125,0.394531 -13.19922,1.69141 -17.60547,2.39844 l -21.53906,3.44141 c -3.80469,0.60937 -10.86719,1.84375 -13.52735,2.30469 -1.07031,0.1875 -1.78125,0.3125 -1.92578,0.33593 l -0.85156,0.13672 c -0.0312,0.0117 -0.0547,0.0156 -0.0703,0.0195 l 2.42187,1.42188 0.42969,-0.0703 c 0.14062,-0.0234 0.85156,-0.14454 1.91406,-0.33204 3.19141,-0.55859 9.83203,-1.71484 13.53516,-2.30859 l 21.53515,-3.44141 c 4.41016,-0.70703 13.08203,-2.0039 17.64453,-2.40234 l 0.46094,-0.0391 -0.0742,-0.460944 c -1.03125,-6.464844 -2.38672,-16.3125 -2.80078,-22.773438"
     id="path30" />
  <path
     inkscape:connector-curvature="0"
     style="fill:#ffffff;fill-opacity:1;fill-rule:nonzero;stroke:none"
     d="m 172.92578,57.386719 c -0.32422,0 -0.68359,0.03125 -1.08984,0.09766 l -4.17969,0.667969 -0.0117,0.0039 2.41406,1.429688 3.69922,-0.59375 c 0.4336,-0.06641 0.81641,-0.101563 1.17188,-0.101563 0.19531,0 0.3789,0.01172 0.5625,0.03125 -0.74219,-1.378906 -1.66407,-1.535156 -2.56641,-1.535156"
     id="path32" />
  <path
     inkscape:connector-curvature="0"
     style="fill:#ffffff;fill-opacity:1;fill-rule:nonzero;stroke:none"
     d="m 210.31641,62.835938 c 0.26562,2.441406 0.49218,4.527343 1.12109,8.449218 0.92969,5.816406 1.48828,8.347656 2.33594,12.175782 l 0.33203,1.503906 -1.04297,0.105468 c -0.32422,0.03516 -3.19531,0.359376 -5.79297,0.925782 l -0.95312,0.210937 2.40234,1.402344 0.44922,-0.09766 c 2.78125,-0.609375 5.8164,-0.929688 5.84765,-0.933594 l 0.48047,-0.05078 -0.20703,-0.953125 c -0.85156,-3.851563 -1.41406,-6.394531 -2.34375,-12.207031 -0.63281,-3.953126 -0.85937,-6.046876 -1.12109,-8.476563 -0.13281,-1.214844 -0.26953,-2.492187 -0.47266,-4.101563 l -1.61719,-2.976562 0.11329,0.910156 c 0.19921,1.617188 0.33984,2.894532 0.46875,4.113282"
     id="path34" />
  <path
     inkscape:connector-curvature="0"
     style="fill:#ffffff;fill-opacity:1;fill-rule:nonzero;stroke:none"
     d="m 199.89453,76.773438 c -0.74219,0 -1.5625,0.07422 -2.51562,0.226562 l -1.61719,0.257812 c 0.96875,5.996094 1.83203,10.8125 2.26953,12.644532 0.42187,1.851562 1.04297,2.773437 1.82812,3.207031 -0.11328,-0.332031 -0.21875,-0.6875 -0.30859,-1.085937 -0.45703,-1.902344 -1.35547,-6.929688 -2.35937,-13.175782 l 2.11328,-0.339844 c 0.97265,-0.15625 1.82031,-0.230468 2.59375,-0.230468 0.87109,0 1.625,0.101562 2.29297,0.304687 -0.95313,-1.292969 -2.30079,-1.808593 -4.29688,-1.808593"
     id="path36" />
  <path
     inkscape:connector-curvature="0"
     style="fill:#ffffff;fill-opacity:1;fill-rule:nonzero;stroke:none"
     d="m 226.09766,61.621094 0.16406,0.933594 -9.35938,1.496093 2.39063,1.4375 8.39062,-1.34375 -0.0742,-0.433593 C 226.625,58.042969 225.26953,48.640625 224.69922,42.375 l -0.0469,-0.523438 -1.55468,-2.625 0.0977,1.101563 c 0.56641,6.234375 1.91797,15.625 2.90235,21.292969"
     id="path38" />
  <path
     inkscape:connector-curvature="0"
     style="fill:#ffffff;fill-opacity:1;fill-rule:nonzero;stroke:none"
     d="m 208.27734,52.050781 c -0.95703,0 -2.07031,0.105469 -3.41406,0.320313 l -8.76172,1.402344 c -2.51953,0.402343 -3.43359,1.652343 -3.15625,4.3125 0.19531,2.132812 0.83985,6.75 1.73828,12.414062 l 1.15235,-0.183594 c -0.71485,-4.640625 -1.21875,-8.332031 -1.38282,-10.175781 -0.30859,-2.917969 0.79688,-4.414063 3.57422,-4.859375 l 8.76172,-1.402344 c 1.35938,-0.214844 2.50391,-0.324218 3.49219,-0.324218 1.17187,0 2.24609,0.144531 3.21875,0.53125 -1.39063,-1.585938 -3.125,-2.035157 -5.22266,-2.035157"
     id="path40" />
  <path
     inkscape:connector-curvature="0"
     style="fill:#ffffff;fill-opacity:1;fill-rule:nonzero;stroke:none"
     d="m 304.47656,77.566406 -1.64062,-2.582031 c 0,0 0.004,0.02344 0.008,0.05469 l 0.22656,0.785157 c 1.34766,4.652343 2.26172,11.171875 -1.03515,15.792969 -2.17188,3.046874 -5.79688,4.722656 -10.78125,4.976562 -0.55079,0.02734 -1.08204,0.04297 -1.59375,0.04297 -3.19532,0 -5.69141,-0.554688 -7.66407,-1.574219 2.36328,2.203125 5.87891,3.308594 11.23438,3.035156 4.82422,-0.246094 8.32422,-1.847656 10.40234,-4.765625 3.17969,-4.460937 2.27735,-10.816406 0.96094,-15.363281 z m 0,0"
     id="path42" />
  <path
     inkscape:connector-curvature="0"
     style="fill:#ffffff;fill-opacity:1;fill-rule:nonzero;stroke:none"
     d="m 268.88672,45.675781 c -0.3125,0 -0.64063,0.0078 -0.97656,0.02344 l -2.81641,0.144531 c -1.62891,0.08203 -2.19922,0.746094 -2.17578,2.535156 0.004,0.300782 0.14453,7.40625 0.51953,15.199219 l 1.41016,-0.07422 c -0.29688,-6.707031 -0.41407,-12.40625 -0.42969,-13.113281 -0.0234,-2.066406 0.74609,-2.945313 2.65234,-3.042969 l 2.81641,-0.140625 c 0.34765,-0.01953 0.68359,-0.02734 1.0039,-0.02734 1.46094,0 2.6836,0.183593 3.70313,0.570312 -1.18359,-1.453125 -3.01563,-2.074219 -5.70703,-2.074219"
     id="path44" />
  <path
     inkscape:connector-curvature="0"
     style="fill:#ffffff;fill-opacity:1;fill-rule:nonzero;stroke:none"
     d="m 242.66797,47.398438 -4.53125,0.226562 2.34765,1.484375 4.16016,-0.207031 c 0.40234,-0.02344 0.75,-0.01172 1.07422,0.01953 -0.54297,-1.441406 -1.48438,-1.609375 -3.05078,-1.523437"
     id="path46" />
  <path
     inkscape:connector-curvature="0"
     style="fill:#ffffff;fill-opacity:1;fill-rule:nonzero;stroke:none"
     d="m 265.53906,70.988281 -1.71875,0.08594 c 0.29297,5.605469 0.60547,9.980469 0.82422,11.476562 0.30469,2.105469 0.94141,3.136719 1.84375,3.605469 -0.14062,-0.453125 -0.25,-0.957031 -0.33594,-1.527344 -0.22656,-1.558594 -0.55468,-6.144531 -0.85547,-12.027344 l 2.21875,-0.109374 c 1.91407,-0.101563 3.5625,-0.0039 4.94532,0.53125 -1.59766,-1.917969 -3.90235,-2.195313 -6.92188,-2.035157"
     id="path48" />
  <path
     inkscape:connector-curvature="0"
     style="fill:#ffffff;fill-opacity:1;fill-rule:nonzero;stroke:none"
     d="m 284.17969,67.050781 c 0.92187,0.335938 1.76172,0.753907 2.53125,1.25 6.22265,-2.464843 9.86718,-7.796875 9.52734,-14.476562 -0.18359,-3.578125 -1.32031,-6.535157 -3.30078,-8.851563 1.05078,1.957032 1.66406,4.234375 1.79687,6.820313 0.35938,7.121093 -3.64453,12.839843 -10.55468,15.257812"
     id="path50" />
  <path
     inkscape:connector-curvature="0"
     style="fill:#ffffff;fill-opacity:1;fill-rule:nonzero;stroke:none"
     d="m 295.63672,86.308594 c -0.51953,-1.300782 -1.01953,-3.195313 -1.54688,-5.9375 -0.60547,-3.285156 -1.71093,-5.8125 -3.375,-7.6875 0.84766,1.566406 1.46485,3.421875 1.86328,5.589844 1.12891,5.878906 2.10938,7.570312 3.0586,8.035156"
     id="path52" />
  <path
     inkscape:connector-curvature="0"
     style="fill:#ffffff;fill-opacity:1;fill-rule:nonzero;stroke:none"
     d="m 272.01953,95.824219 c -0.10547,0.0039 -12.625,0.472656 -15.24219,0.605469 -5.0039,0.253906 -13.57812,0.828124 -15.24218,0.9375 l -0.83204,0.05859 c -0.0469,0.0078 -0.10937,0.01563 -0.15234,0.02344 l 2.45703,1.457031 0.4375,-0.03125 c 0.0977,-0.0039 9.82813,-0.664062 15.3125,-0.941406 2.61719,-0.132813 15.11719,-0.601563 15.2461,-0.605469 l 0.4375,-0.01953 -0.4336,-8.488282 -1.51562,-2.519531 -0.004,0.191407 0.47266,9.296874 z m 0,0"
     id="path54" />
  <path
     inkscape:connector-curvature="0"
     style="fill:#383028;fill-opacity:1;fill-rule:nonzero;stroke:none"
     d="m 244.69922,71.109375 c 0,0 0.29297,0.167969 0.73047,0.441406 -0.21094,-0.167969 -0.42969,-0.335937 -0.65235,-0.5 -0.043,0.03516 -0.0781,0.05859 -0.0781,0.05859"
     id="path56" />
  <path
     inkscape:connector-curvature="0"
     style="fill:#ffffff;fill-opacity:1;fill-rule:nonzero;stroke:none"
     d="m 316.94531,44.742188 -4.47656,-0.140626 2.50391,1.519532 3.99609,0.125 c 0.26953,0.0078 0.51953,0.03516 0.75391,0.07813 -0.53125,-1.210938 -1.47657,-1.542969 -2.77735,-1.582031"
     id="path58" />
  <path
     inkscape:connector-curvature="0"
     style="fill:#ffffff;fill-opacity:1;fill-rule:nonzero;stroke:none"
     d="m 364.1875,70.984375 c -0.50391,5.71875 -1.15625,18.296875 -1.17578,24.277344 l -0.004,1.023437 -1.01953,-0.09766 C 356.9296,95.699215 348.98038,95.449215 345.16007,95.328121 L 326,94.730469 c -3.44531,-0.113281 -10.94141,-0.257813 -14.32422,-0.285157 l -0.90625,-0.0078 2.47266,1.507812 0.4414,0 c 3.34766,0.02734 10.85157,0.175782 14.33594,0.285157 l 19.09375,0.601562 c 3.83984,0.121094 11.82422,0.371094 16.92578,0.859375 l 0.47266,0.04687 0.004,-0.472656 c 0.0156,-6.003906 0.67188,-18.601563 1.17579,-24.324219 l 0.043,-0.492187 -1.45703,-2.503907 z m 0,0"
     id="path60" />
  <path
     inkscape:connector-curvature="0"
     style="fill:#ffffff;fill-opacity:1;fill-rule:nonzero;stroke:none"
     d="m 335.96875,71.097656 c -0.14063,5.332032 -0.20313,9.273438 -0.17969,11.097656 0.0312,1.941407 0.54297,2.828126 1.61328,3.226563 -0.0625,-0.359375 -0.10156,-0.757813 -0.10937,-1.214844 -0.0274,-1.972656 0.0508,-6.273437 0.17969,-11.160156 0.33203,-1.871094 5.17968,-4.800781 5.17968,-4.800781 l -1.08593,-1.976563 -0.66016,0.402344 c -1.78516,1.078125 -4.67969,3.21875 -4.9375,4.425781"
     id="path62" />
  <path
     inkscape:connector-curvature="0"
     style="fill:#ffffff;fill-opacity:1;fill-rule:nonzero;stroke:none"
     d="m 345.34766,44.699219 -0.0312,0.933593 -4.32813,-0.136718 c -0.15625,-0.0078 -0.30078,-0.0078 -0.44141,-0.0078 -2.53125,0 -3.50781,1.015625 -3.72656,3.878907 -0.14062,1.625 -0.33984,5.933593 -0.54687,11.828124 0.1289,0.574219 0.73437,1.328126 1.51172,2.089844 -0.004,-0.01172 -0.008,-0.02734 -0.0117,-0.04297 0.1875,-5.402344 0.39843,-10.144532 0.55078,-11.90625 0.2539,-3.300782 1.52734,-4.46875 4.68359,-4.335938 l 3.83203,0.117188 0.0117,-0.429688 c 0.0586,-1.90625 0.20703,-6.453125 0.31641,-7.511719 l 0.0469,-0.460937 -1.44922,-2.476563 -0.10546,0.984375 c -0.10938,1.089844 -0.26563,5.996094 -0.3125,7.476563"
     id="path64" />
  <path
     inkscape:connector-curvature="0"
     style="fill:#ffffff;fill-opacity:1;fill-rule:nonzero;stroke:none"
     d="m 398.5,91.113281 c -0.0781,0.566407 -0.30859,2.152344 -0.53906,3.753907 l -0.0547,0.355468 c -0.21875,1.519532 -0.43359,2.984375 -0.50391,3.527344 l -0.125,0.941406 -0.9414,-0.144531 c -0.0664,-0.0078 -8.40235,-1.28125 -13.03125,-1.894531 -4.625,-0.613282 -13.00391,-1.558594 -13.07813,-1.566406 l -0.51562,-0.05859 c -0.15235,-0.01563 -0.30469,-0.02734 -0.4336,-0.04297 l 2.57032,1.558594 0.4375,0.05078 c 0.0859,0.0078 8.45703,0.953125 13.08984,1.566406 4.625,0.613282 12.95703,1.882812 13.04297,1.894532 l 0.43359,0.0703 0.0586,-0.4375 c 0.0742,-0.57422 0.3125,-2.19531 0.54687,-3.812498 0.23438,-1.625 0.47266,-3.25 0.54688,-3.824219 l 0.0586,-0.429687 -1.44141,-2.445313 c 0,0.0039 0,0.0078 -0.004,0.01172 l 0.004,0 z m 0,0"
     id="path66" />
  <path
     inkscape:connector-curvature="0"
     style="fill:#ffffff;fill-opacity:1;fill-rule:nonzero;stroke:none"
     d="m 429.32422,80.386719 c 0.83203,3.285156 1.49609,5.847656 1.91797,7.421875 0.96875,3.484375 1.89843,5.328125 3.02343,6.328125 -0.51562,-1.058594 -1.00781,-2.421875 -1.5,-4.191407 -0.4414,-1.628906 -1.13671,-4.320312 -1.97265,-7.617187 0.99609,-1.976563 3.73437,-4.527344 3.73437,-4.527344 l -1.10547,-2.15625 -0.55468,0.519531 c -0.0274,0.02344 -2.53516,2.375 -3.54297,4.222657"
     id="path68" />
  <path
     inkscape:connector-curvature="0"
     style="fill:#ffffff;fill-opacity:1;fill-rule:nonzero;stroke:none"
     d="m 420.37109,43.078125 c 1.06641,5.109375 3.57422,15.714844 6.71485,28.375 l 0.0508,0.140625 c 0.10547,0.441406 0.6289,0.960938 1.33984,1.476562 C 425.94141,62.839844 423.10937,51.0625 421.88672,45.1875 l -0.0469,-0.125 c -0.0976,-0.171875 -1.19922,-1.949219 -1.73437,-2.457031 0.0586,0.05859 0.11719,0.117187 0.16797,0.207031 z m 0,0"
     id="path70" />
  <path
     inkscape:connector-curvature="0"
     style="fill:#383028;fill-opacity:1;fill-rule:nonzero;stroke:none"
     d="m 419.95703,42.488281 c 0.0156,0.01172 0.0312,0.01953 0.0469,0.03125 -0.0156,-0.01172 -0.0312,-0.02344 -0.0469,-0.03125"
     id="path72" />
  <path
     inkscape:connector-curvature="0"
     style="fill:#383028;fill-opacity:1;fill-rule:nonzero;stroke:none"
     d="m 404.58594,68.851562 0.0586,0.234376 2.08984,6.261718 0.89454,0.257813 -1.23829,-3.714844 z m 0,0"
     id="path74" />
  <path
     inkscape:connector-curvature="0"
     style="fill:#ffffff;fill-opacity:1;fill-rule:nonzero;stroke:none"
     d="m 392.60937,82.769531 c -1.21484,2.582031 -1.54687,4.421875 -0.98437,5.453125 0.23437,0.429688 0.65234,0.761719 1.25391,1.007813 -0.0625,-1.15625 0.35546,-2.699219 1.28515,-4.683594 0,0 1.19922,-2.347656 2.89453,-5.675781 l -1.52734,-1.832032 z m 0,0"
     id="path76" />
  <path
     inkscape:connector-curvature="0"
     style="fill:#ffffff;fill-opacity:1;fill-rule:nonzero;stroke:none"
     d="m 395.87891,86.664062 0.004,-0.01172 -0.0273,0.01172 2.8125,1.1875 5.77734,-2.09375 -2.03906,-1.460937 z m 0,0"
     id="path78" />
  <path
     inkscape:connector-curvature="0"
     style="fill:#ffffff;fill-opacity:1;fill-rule:nonzero;stroke:none"
     d="m 407.82031,81.398438 0.23047,6.890624 1.47266,1.050782 -0.20703,-6.183594 2.15234,-1.589844 -0.51563,-2.367187 z m 0,0"
     id="path80" />
  <path
     inkscape:connector-curvature="0"
     style="fill:#ffffff;fill-opacity:1;fill-rule:nonzero;stroke:none"
     d="m 405.98828,56.621094 c -1.73437,3.332031 -5.69531,11.078125 -9.11328,17.785156 l 2.40234,0.117188 c 2.6211,-5.132813 5.63282,-11.027344 7.46094,-14.566407 -0.29297,-1.320312 -0.55078,-2.464843 -0.75,-3.335937"
     id="path82" />
  <path
     inkscape:connector-curvature="0"
     style="fill:#ffffff;fill-opacity:1;fill-rule:nonzero;stroke:none"
     d="m 440.46875,95.765625 -1.25391,9.476565 -0.9375,-0.13672 c -1.90625,-0.28125 -11.33984,-1.67188 -16.82031,-2.39453 -5.96875,-0.79297 -16.49609,-2.02735 -16.94531,-2.07813 l -0.92578,-0.10937 2.55078,1.5625 0.4375,0.0508 c 0.0937,0.0117 10.86328,1.27344 16.95312,2.08203 6.01172,0.79297 16.71875,2.37891 16.82422,2.39453 l 0.4375,0.0664 1.125,-8.511721 -1.4414,-2.417969 z m 0,0"
     id="path84" />
  <path
     inkscape:connector-curvature="0"
     style="fill:#ffffff;fill-opacity:1;fill-rule:nonzero;stroke:none"
     d="m 108.10156,96.875 c -0.0156,0.01563 -0.0273,0.02734 -0.043,0.03906 l -0.41015,0.574219 c -1.26172,1.78125 -3.125,5.019531 -2.7461,6.128911 l 0.0312,0.15625 c 6.71094,21.84375 -1.90234,39.63672 -23.644528,48.78515 -7.28125,3.0625 -14.054687,4.61719 -20.128906,4.61719 -6.1875,0 -11.789062,-1.60937 -16.773437,-4.80078 10.230469,7.89062 23.191406,8.25781 38.714843,1.72656 19.757818,-8.3164 30.535158,-24.85156 23.335938,-48.24218 -0.004,-0.0273 0.004,-0.043 -0.004,-0.0742 -0.60546,-1.76953 2.8125,-6.582037 2.8125,-6.582037 z m 0,0"
     id="path86" />
  <path
     inkscape:connector-curvature="0"
     style="fill:#ffffff;fill-opacity:1;fill-rule:nonzero;stroke:none"
     d="m 55.929688,120.42969 -1.152344,-2.35938 -0.433594,0.63672 c -0.792969,1.16797 -2.789062,4.47656 -2.65625,5.94922 2.335938,5.10156 4.539062,9.05078 6.738281,11.98828 -1.722656,-2.67969 -3.441406,-5.94922 -5.226562,-9.85156 -0.269531,-1.9375 2.730469,-6.36328 2.730469,-6.36328"
     id="path88" />
  <path
     inkscape:connector-curvature="0"
     style="fill:#ffffff;fill-opacity:1;fill-rule:nonzero;stroke:none"
     d="m 52.964844,85.238281 c -10.191406,4.289063 -11.640625,13.148438 -5,30.582029 0.230468,0.23047 0.574218,0.44532 0.980468,0.64844 -6.039062,-16.621094 -4.316406,-25.417969 5.828126,-29.6875 5.085937,-2.140625 9.292968,-2.277344 13.140624,-0.08984 -2.496093,-2.113281 -5.082031,-3.082031 -7.929687,-3.082031 -2.113281,0 -4.410156,0.53125 -7.019531,1.628906"
     id="path90" />
  <path
     inkscape:connector-curvature="0"
     style="fill:#383028;fill-opacity:1;fill-rule:nonzero;stroke:none"
     d="m 102,94.964844 c -1.53125,-3.054688 -3.171875,-5.800782 -4.929688,-8.230469 1.484376,2.3125 2.878907,4.859375 4.195318,7.652344 0.17187,0.203125 0.42578,0.394531 0.73437,0.578125"
     id="path92" />
  <path
     inkscape:connector-curvature="0"
     style="fill:#383028;fill-opacity:1;fill-rule:nonzero;stroke:none"
     d="m 535.70312,72.457031 -4.82421,-1.808593 2.58203,1.6875 4.42187,1.652343 c 0.26563,0.101563 0.51172,0.207031 0.75,0.316407 C 538,73.546875 537.03516,72.953125 535.70312,72.457031"
     id="path94" />
  <path
     inkscape:connector-curvature="0"
     style="fill:#ffffff;fill-opacity:1;fill-rule:nonzero;stroke:none"
     d="m 604.87891,128.52734 -0.73438,0.16016 c -0.043,0.0117 -4.23828,0.94531 -5.75,2.21875 -6.86328,15.82422 -17.54687,23.85156 -31.74219,23.85156 -5.45703,0 -11.45703,-1.21094 -17.83593,-3.59765 -0.14454,-0.0547 -14.17579,-5.42579 -21,-7.98047 -6.60938,-2.47266 -20.64844,-7.48047 -20.78907,-7.53125 l -0.46093,-0.16407 2.63281,1.69532 c 0,0 14.10937,5.03515 20.79687,7.53515 6.90625,2.58594 21,7.98047 21,7.98047 19.95703,7.46485 38.45703,4.30078 48.98828,-20.08594 1.5586,-1.41406 6.0586,-2.40625 6.0586,-2.40625 0,0 -0.53906,-0.70703 -1.16406,-1.67578"
     id="path96" />
  <path
     inkscape:connector-curvature="0"
     style="fill:#ffffff;fill-opacity:1;fill-rule:nonzero;stroke:none"
     d="m 601.51562,122.34766 c 0.16407,1.62109 2.15235,4.54297 2.91797,5.54687 l 0.27344,0.35938 c -0.78125,-1.25 -1.625,-2.83985 -1.69531,-3.95703 4.14062,-13.65235 3.26172,-24.2461 -3.34766,-32.507818 5.125,7.964844 5.65235,17.964848 1.85156,30.558598"
     id="path98" />
  <path
     inkscape:connector-curvature="0"
     style="fill:#ffffff;fill-opacity:1;fill-rule:nonzero;stroke:none"
     d="m 544.61719,133.58203 c 1.15234,-3.51562 3.97656,-11.375 7.0625,-19.71094 0.0195,-0.0312 0.043,-0.043 0.0586,-0.082 0.74219,-1.71875 6.50781,-2.98437 6.50781,-2.98437 0,0 -0.53906,-0.70703 -1.16406,-1.67578 l -0.73437,0.16015 c -2.12891,0.46875 -5.6875,1.61719 -6.15235,2.69532 l -0.0781,0.13281 c -3.23828,8.75781 -5.92969,16.26953 -7.02735,19.61718 -0.75781,2.25391 -0.27734,4.08594 1.3086,5.20704 -0.25782,-0.96485 -0.20703,-2.08985 0.21875,-3.35938"
     id="path100" />
  <path
     inkscape:connector-curvature="0"
     style="fill:#ffffff;fill-opacity:1;fill-rule:nonzero;stroke:none"
     d="m 565.84766,83.609375 c -2.6836,-1.003906 -4.5,-0.304687 -5.57813,2.203125 -1.16797,2.65625 -3.48047,8.539062 -6.51953,16.57813 l -0.0117,0.043 c -0.35547,1.1875 1.58984,4.34766 2.90234,6.0625 l 0.25,0.32813 c -0.93359,-1.49219 -1.94921,-3.45703 -1.6289,-4.52344 0.004,-0.0117 0,-0.0156 0.004,-0.0234 2.73829,-7.257809 5.25391,-13.722652 6.54688,-16.660152 0.95703,-2.226563 2.76172,-3.765626 6.21484,-2.472657 l 3.66797,1.371094 c 2.25391,0.84375 4.21094,1.773437 5.89844,2.824219 -2.05078,-1.683594 -4.72266,-3.101563 -8.07813,-4.355469 z m 0,0"
     id="path102" />
  <path
     inkscape:connector-curvature="0"
     style="fill:#ffffff;fill-opacity:1;fill-rule:nonzero;stroke:none"
     d="m 486.42187,59.117188 c 2.89063,9.496093 7.95313,24.96875 11.52344,35.441406 0.11719,-0.410156 0.24219,-0.832032 0.36719,-1.265625 -3.79297,-11.253907 -8.68359,-26.316407 -11.08984,-34.425781 l -1.67188,-2.652344 0.0273,0.09766 c 0.0937,0.304688 0.39063,1.304688 0.84375,2.804688"
     id="path104" />
  <path
     inkscape:connector-curvature="0"
     style="fill:#ffffff;fill-opacity:1;fill-rule:nonzero;stroke:none"
     d="m 500.60156,70.28125 -5.0039,-1.417969 2.55078,1.636719 4.59375,1.304688 c 0.14453,0.03906 0.26562,0.09375 0.39843,0.140624 -0.45703,-0.863281 -1.34375,-1.324218 -2.53906,-1.664062"
     id="path106" />
  <path
     inkscape:connector-curvature="0"
     style="fill:#ffffff;fill-opacity:1;fill-rule:nonzero;stroke:none"
     d="m 463.18359,59.664062 -4.35156,-1.234374 2.61719,1.65625 3.875,1.101562 c 0.10937,0.03125 0.21094,0.06641 0.32031,0.105469 C 465.17578,60.535156 464.36719,60 463.18359,59.664062"
     id="path108" />
  <path
     inkscape:connector-curvature="0"
     style="fill:#ffffff;fill-opacity:1;fill-rule:nonzero;stroke:none"
     d="m 466.92187,98.507812 c -0.50781,2.214848 -0.1875,3.433598 1.32422,4.265628 -0.0859,-0.66406 -0.0234,-1.44141 0.19532,-2.37891 0.73437,-3.097655 3.67968,-13.785155 6.20312,-22.566405 -0.375,-1.136719 -0.74219,-2.25 -1.10156,-3.332031 -2.625,9.082031 -5.85547,20.785156 -6.6211,24.011718"
     id="path110" />
  <path
     inkscape:connector-curvature="0"
     style="fill:#ffffff;fill-opacity:1;fill-rule:nonzero;stroke:none"
     d="m 472.51953,113.11328 -0.22656,0.96875 -1.15625,-0.35547 c -3.08203,-0.9375 -8.78516,-2.66015 -12.33985,-3.66797 -4.375,-1.24218 -11.86718,-3.21484 -12.70703,-3.43359 l -0.5,-0.13281 c -0.28906,-0.0625 -0.45312,-0.0977 -0.45312,-0.0977 l 2.63281,1.63281 0.44531,0.11329 c 0.082,0.0234 8.15235,2.14453 12.72266,3.4375 4.49219,1.27734 12.47266,3.71093 12.55469,3.73437 l 0.4375,0.13672 L 474.03906,115 c 0.84375,-3.57422 2.08203,-7.34375 2.09375,-7.38281 l 0.14063,-0.42969 -1.375,-2.3125 -0.29688,0.89453 c -0.21484,0.66406 -1.30859,4.07422 -2.08203,7.34375"
     id="path112" />
  <path
     inkscape:connector-curvature="0"
     style="fill:#ffffff;fill-opacity:1;fill-rule:nonzero;stroke:none"
     d="m 524.69531,68.375 c -0.39062,1.074219 -1.78906,6.007812 -2.02344,7.132812 l -0.20312,0.980469 -4.47656,-1.269531 c -0.59375,-0.167969 -1.10938,-0.25 -1.57032,-0.25 -1.57031,0 -2.60156,1.023438 -3.44921,3.433594 -0.46094,1.339844 -1.55469,4.996094 -3.08594,10.285156 -0.004,1.089844 1.30078,3.003906 2.3789,4.371094 -0.52343,-0.890625 -0.90625,-1.777344 -0.875,-2.445313 1.44532,-4.996093 2.61719,-8.917969 3.11329,-10.375 0.91796,-2.605469 2.1289,-3.769531 3.92187,-3.769531 0.50781,0 1.06641,0.08984 1.70703,0.269531 l 3.95703,1.125 0.0937,-0.457031 c 0.23828,-1.132812 1.65235,-6.113281 2.04688,-7.199219 l 0.0234,-0.148437 c 0,-0.277344 -0.98829,-1.894532 -1.64063,-2.539063 0.0937,0.132813 0.14063,0.296875 0.14063,0.535157 z m 0,0"
     id="path114" />
  <path
     inkscape:connector-curvature="0"
     style="fill:#ffffff;fill-opacity:1;fill-rule:nonzero;stroke:none"
     d="m 508.68359,100.12891 c 0.59766,-1.773441 6.23438,-3.511722 6.23438,-3.511722 l -1.10547,-1.761719 -0.008,0 0.008,0.0078 -0.75,0.230469 c -2.08594,0.644531 -5.53516,2.078125 -5.91016,3.191406 l -0.0508,0.117188 c -2.60156,9.210938 -4.93359,17.683598 -6.21875,22.605468 l -0.2539,0.97657 -0.95313,-0.32813 c -2.72266,-0.94141 -8.80859,-2.66797 -11.62891,-3.30078 l -0.50781,-0.11328 2.37891,1.57422 0.24219,0.0547 c 2.83593,0.63282 8.94921,2.36719 11.68359,3.31641 l 0.44141,0.15234 0.11718,-0.45312 c 1.38672,-5.32422 3.875,-14.30859 6.25391,-22.71484 0.008,-0.0156 0.0195,-0.0195 0.0273,-0.043"
     id="path116" />
  <path
     inkscape:connector-curvature="0"
     style="fill:#383028;fill-opacity:1;fill-rule:nonzero;stroke:none"
     d="m 303.26953,82.660156 c -0.008,1.191406 -0.0586,2.40625 -0.17578,3.558594 0.18359,-1.164062 0.23437,-2.363281 0.17578,-3.558594"
     id="path118" />
  <path
     inkscape:connector-curvature="0"
     style="fill:#ffffff;fill-opacity:1;fill-rule:nonzero;stroke:none"
     d="m 154.28516,52.480469 -0.0859,0.02734 c -2.41016,0.78125 -6.0586,1.960938 -8.89844,2.796876 -3.94531,1.15625 -11.33594,3.089843 -12.17578,3.308593 0.18359,0.515625 1.33984,3.789063 2.08203,7.109375 l 1.91797,-0.5625 c 0.73437,-0.214844 1.35547,-0.320312 1.90234,-0.320312 2.73828,0 3.41407,2.5625 3.58203,6.410156 0.33985,6.910156 -0.39453,22.160156 -0.82812,29.253913 l -0.0898,1.47265 -0.82813,-1.22265 c -4.37109,-6.476569 -12.26953,-18.546882 -15.90234,-24.398444 -1.44141,-2.59375 -1.88281,-4.597657 -1.31641,-5.972657 0.39453,-0.972656 1.26563,-1.644531 2.65625,-2.050781 l 2.32031,-0.679687 c -0.43359,-1.195313 -1.80078,-5.867188 -2.08593,-7.109375 -0.42969,0.128906 -1.42578,0.445312 -2.75782,0.863281 l -0.42187,0.136719 c -3.32813,1.050781 -8.35547,2.640625 -12.03906,3.71875 -5.00391,1.46875 -13.976566,3.871093 -15.203129,4.199219 0.175781,0.515624 1.265625,3.789062 2.085938,7.109374 l 1.597656,-0.472656 c 1.167965,-0.339844 2.140625,-0.507812 2.976565,-0.507812 2.49219,0 3.97265,1.402344 6.16797,4.351562 1.48047,2.042969 3.76562,5.34375 6.61718,9.558594 l 0.082,0.117188 0.004,0.144531 c 0.0586,1.699219 -1.0039,4.390625 -1.55078,5.65625 1.69531,0.07031 5.52344,0.382812 6.58203,1.78125 l 0.13281,0.136719 c 5.49219,8.273445 10.67188,16.285155 13.52735,20.925785 2.48047,-0.80859 11.7539,-3.52734 14.22656,-4.16797 0.004,-6.06641 0.30469,-15.640628 0.80078,-25.632815 l 0.008,-0.121094 0.0586,-0.101563 c 0.84765,-1.476562 2.94922,-3.207031 3.99609,-4.015625 -0.86328,-0.527344 -2.40234,-1.53125 -3.51562,-2.605468 l -0.16797,-0.160157 0.0156,-0.230469 c 0.33203,-5.605468 0.67578,-10.105468 0.98828,-13.019531 0.58985,-6.15625 2.54688,-7.785156 6.4375,-8.925781 l 1.83985,-0.539062 c -0.4336,-1.199219 -1.80078,-5.867188 -2.08594,-7.109376 -0.46484,0.140626 -1.42578,0.449219 -2.65234,0.847657"
     id="path120" />
  <path
     inkscape:connector-curvature="0"
     style="fill:#ffffff;fill-opacity:1;fill-rule:nonzero;stroke:none"
     d="m 220.10547,76.359375 c 0.91015,5.722656 0.73828,9.390625 -0.55078,11.886719 -1.32813,2.5625 -3.85547,4.015625 -8.20313,4.710937 l -8.59765,1.371094 c -0.49219,0.08203 -0.92969,0.117187 -1.33985,0.117187 -2.36328,0 -3.66797,-1.289062 -4.35547,-4.316406 -0.45703,-1.898437 -1.36328,-6.960937 -2.36328,-13.207031 l -0.082,-0.496094 2.60938,-0.417969 c 1.0039,-0.160156 1.8789,-0.234374 2.67187,-0.234374 4.12109,0 6,2.007812 6.94141,7.414062 l 0.29297,1.816406 c 2.48046,-0.539062 5.10156,-0.847656 5.7539,-0.921875 l -0.0898,-0.40625 c -0.84766,-3.84375 -1.41016,-6.386719 -2.34766,-12.230469 -0.6289,-3.949218 -0.85547,-6.046874 -1.12109,-8.472656 -0.13281,-1.222656 -0.26563,-2.476562 -0.46485,-4.050781 -0.42187,0.08984 -3.17968,0.660156 -5.91796,0.945313 l 0.32812,2.058593 c 0.93359,5.839844 -0.86719,8.355469 -6.64844,9.28125 l -2.76953,0.441407 -0.082,-0.492188 c -0.94141,-5.914062 -1.62109,-10.761719 -1.82031,-12.972656 -0.33594,-3.195313 0.93359,-4.910156 3.99219,-5.402344 l 8.76562,-1.402344 c 1.39453,-0.21875 2.5625,-0.328125 3.57031,-0.328125 5.47266,0 8.03516,3.214844 9.42578,11.859375 l 7.39844,-1.183594 C 224.11719,56.054688 222.77344,46.738281 222.20312,40.5 c -3.53515,1.023438 -13.6289,2.757812 -18.5039,3.539062 l -20.71875,3.3125 c -2.39063,0.382813 -7.92969,1.195313 -11.23828,1.679688 -2.14453,0.316406 -3.875,0.570312 -4.44532,0.660156 l 1.17188,7.316406 3.20703,-0.515624 c 0.46484,-0.07031 0.87109,-0.105469 1.25,-0.105469 2.33594,0 3.58594,1.320312 4.32031,4.570312 0.41407,1.933594 1.30469,7.0625 2.32032,13.390625 l 0.0117,0.07813 -0.0117,0.08203 c -0.28125,1.671876 -2.69532,4.09375 -3.83985,5.167969 1.51953,0.734375 4.8711,2.523438 5.31641,4.214844 0.44531,2.949219 0.98437,6.730469 1.11328,8.292969 0.26953,3.222656 -0.34375,5.492187 -4.21484,6.113281 l -2.80079,0.449219 1.19922,7.476562 c 0.23828,-0.0391 0.89844,-0.15235 1.83985,-0.31641 2.66015,-0.46484 9.73047,-1.69922 13.54297,-2.3125 l 21.53515,-3.44141 c 4.39844,-0.703117 13.02735,-1.996086 17.60547,-2.39843 -1.03125,-6.453125 -2.37109,-16.210937 -2.79297,-22.667968 -1.38672,0.296874 -6.57031,1.125 -7.96484,1.273437"
     id="path122" />
  <path
     inkscape:connector-curvature="0"
     style="fill:#ffffff;fill-opacity:1;fill-rule:nonzero;stroke:none"
     d="m 275.36328,61.730469 c -1.5625,1.632812 -4.03125,2.449219 -8,2.648437 l -4.875,0.25 -0.0273,-0.5 c -0.39063,-7.867187 -0.53125,-14.953125 -0.54688,-15.734375 -0.0273,-2.347656 0.9375,-3.441406 3.12891,-3.550781 l 2.8164,-0.144531 c 6.46094,-0.339844 9.15235,2.269531 9.50391,9.222656 0.19141,3.707031 -0.44531,6.1875 -2,7.808594 m 26.76172,14.4375 c -0.58203,0.121093 -3.16406,0.464843 -3.98828,0.519531 0.7539,2.832031 1.76562,7.800781 0.2539,9.878906 -0.41796,0.570313 -0.98828,0.875 -1.70312,0.910156 l -0.21875,0.0078 c -2.38281,0 -3.5625,-2.191406 -4.875,-9.023437 -1.15234,-6.226563 -4.00391,-9.59375 -9.24609,-10.929688 l -1.88282,-0.476562 1.87891,-0.492188 c 7.38672,-1.933594 11.75391,-7.570312 11.39062,-14.714844 -0.46875,-9.238281 -7.4414,-14.328125 -19.6289,-14.328125 -0.76563,0 -1.56641,0.02344 -2.3711,0.0625 -3.16406,0.160157 -6.86328,0.375 -10.17968,0.5625 -2.67188,0.15625 -5.10157,0.296875 -6.79688,0.382813 -1.89844,0.09375 -6.55469,0.277344 -11.15625,0.453125 -2.41797,0.09375 -4.41406,0.171875 -5.02344,0.199219 l 0.375,7.402343 3.66016,-0.183593 c 0.1875,-0.01172 0.36719,-0.01953 0.54297,-0.01953 2.85156,0 3.63672,1.65625 3.98047,4.328125 0.17969,1.625 0.5,6.585938 0.85547,13.289063 l 0.004,0.05469 -0.008,0.05469 c -0.28125,1.664062 -3.08594,3.964843 -4.38672,4.953125 1.45703,0.898437 4.6836,3.074218 4.875,4.820312 0.21875,4.886719 0.33203,8.269532 0.32031,9.5625 -0.0664,3.582032 -1.41015,5.039063 -4.78906,5.214844 l -2.91406,0.148438 0.38281,7.5625 c 1.87891,-0.125 10.30078,-0.6875 15.25,-0.9375 2.51563,-0.128907 14.16016,-0.566407 15.1836,-0.605469 l -0.37891,-7.480469 -2.83203,0.140625 C 265.75,87.664062 264.16016,86.207031 263.65234,82.695312 263.42578,81.125 263.09375,76.5 262.79297,70.625 l -0.0274,-0.5 2.72266,-0.136719 c 5.69922,-0.304687 9.40234,0.984375 10.41406,10.75 1.08203,9.894531 3.87891,15.4375 15.30078,14.855469 4.66016,-0.238281 8.03125,-1.769531 10.01563,-4.558594 1.02734,-1.4375 1.60156,-3.089844 1.875,-4.816406 0.11719,-1.152344 0.16797,-2.367188 0.17578,-3.558594 -0.10937,-2.292968 -0.58594,-4.558594 -1.14453,-6.492187"
     id="path124" />
  <path
     inkscape:connector-curvature="0"
     style="fill:#ffffff;fill-opacity:1;fill-rule:nonzero;stroke:none"
     d="M 355.94141,70.746094 C 354.97266,85.082031 351.17187,87.113281 343.91797,86.875 l -4.47266,-0.140625 c -2.83203,-0.08594 -4.59765,-0.875 -4.66015,-4.527344 -0.0234,-1.839843 0.0391,-5.8125 0.18359,-11.179687 l 0.008,-0.07031 c 0.29297,-1.660156 3.36328,-3.824219 4.76563,-4.738281 -1.32032,-0.953125 -4.15235,-3.179688 -4.46485,-4.890625 l -0.0117,-0.05469 0.004,-0.05469 c 0.20703,-5.941406 0.41016,-10.292969 0.55078,-11.933594 0.27344,-3.578125 1.75391,-4.929687 5.20313,-4.789062 l 3.32422,0.101562 c 0.0586,-1.898437 0.19921,-6.207031 0.30859,-7.402344 -0.33594,-0.0078 -1.17578,-0.01562 -2.32813,-0.02344 -3.19921,-0.02734 -9.09765,-0.08203 -13.10546,-0.207031 -5.23047,-0.164063 -14.59375,-0.683594 -15.50782,-0.734375 l -0.23047,7.402343 3.49219,0.105469 c 2.80469,0.08984 4.06641,1.609375 4.22656,5.085938 0.0469,1.589843 -0.0273,5.984375 -0.19921,12.070312 -0.26954,1.71875 -3.36719,3.910157 -4.77735,4.828125 1.29688,0.941406 4.06641,3.113282 4.44922,4.808594 l 0.0156,0.06641 -0.004,0.0625 c -0.1875,5.117188 -0.36719,8.878906 -0.50391,10.589844 -0.27343,3.410156 -0.99609,4.84375 -4.85937,4.726562 l -3.33203,-0.101562 -0.23828,7.566406 c 3.42187,0.02734 10.85156,0.175782 14.27734,0.285156 l 19.09375,0.601563 c 3.87891,0.121094 11.79297,0.367187 16.88281,0.855469 0.0234,-6.007813 0.67188,-18.460938 1.17188,-24.210938 -1.16407,0.04297 -6,-0.109375 -7.23828,-0.226562"
     id="path126" />
  <path
     inkscape:connector-curvature="0"
     style="fill:#ffffff;fill-opacity:1;fill-rule:nonzero;stroke:none"
     d="m 404.23047,71.007812 -3.04688,4.503907 -5.4375,0.04297 3.33985,4.289062 -1.64063,5.1875 5.11328,-1.855469 4.42578,3.164063 -0.18359,-5.4375 4.375,-3.230469 -5.22266,-1.507813 z m 0,0"
     id="path128" />
  <path
     inkscape:connector-curvature="0"
     style="fill:#ffffff;fill-opacity:1;fill-rule:nonzero;stroke:none"
     d="m 436.86719,96.265625 c -2.90235,-0.382813 -4.8125,-1.804687 -6.58985,-8.191406 -0.43359,-1.613281 -1.11718,-4.25 -1.97265,-7.625 l -0.0469,-0.183594 0.0859,-0.167969 c 0.75391,-1.496094 2.42187,-3.269531 3.29297,-4.136718 -1.54297,-0.6875 -4.95703,-2.375 -5.45703,-4.058594 l -0.0352,-0.08984 c -3.15234,-12.707031 -5.66797,-23.328125 -6.74219,-28.476562 -0.0351,-0.0039 -0.082,-0.0078 -0.12109,-0.01172 -3.14063,-0.257813 -5.625,-0.503907 -7.17969,-0.710938 -2.44922,-0.324219 -6.70703,-1.109375 -7.23828,-1.207031 -1.53906,2.910156 -8.10937,15.242188 -13.84766,25.972656 l -0.082,0.113282 c -1.1914,1.210937 -4.47265,1.902343 -6,2.167968 0.62891,1.050782 1.80078,3.167969 2.14844,4.828125 l 0.0352,0.175781 -0.0859,0.164063 c -2.21094,4.121094 -3.39453,6.324219 -3.73438,6.929687 -2.5664,4.601563 -4.6875,6.230469 -8.10546,6.230469 -0.52735,0 -1.10547,-0.04297 -1.71875,-0.125 l -2.07032,-0.273437 -0.99609,7.507812 c 0.82031,0.09375 8.625,0.976563 13.03125,1.5625 4.39062,0.582032 12.14062,1.757813 12.98047,1.886719 0.082,-0.589844 0.28515,-2.003906 0.49609,-3.46875 l 0.0547,-0.355469 c 0.22266,-1.535156 0.44531,-3.058594 0.52734,-3.675781 l -3.05859,-0.40625 c -1.91016,-0.25 -3.11719,-0.886719 -3.69531,-1.9375 -0.74219,-1.363281 -0.4336,-3.386719 0.96484,-6.371094 l 3.6875,-7.230469 0.14063,-0.277343 c 4.01562,-7.871094 9.04296,-17.703125 10.19531,-19.863281 l 0.62109,-1.164063 0.3086,1.28125 c 0.61718,2.574219 2.97656,13.339844 4.83984,21.917969 l 0.17969,0.824218 1.55859,7.167969 c 0.54297,3.355469 0.33984,5.445313 -0.64062,6.597657 -0.75782,0.890624 -1.98829,1.203124 -3.6875,0.976562 l -3.21485,-0.429688 c -0.0664,0.871094 -0.41797,3.417969 -0.79687,6.058594 -0.0899,0.628906 -0.16016,1.148438 -0.20313,1.453125 1.01953,0.117188 11.09766,1.304686 16.89063,2.074216 5.48828,0.72266 14.92578,2.11328 16.76562,2.38672 l 0.9961,-7.511717 z m 0,0"
     id="path130" />
  <path
     inkscape:connector-curvature="0"
     style="fill:#ffffff;fill-opacity:1;fill-rule:nonzero;stroke:none"
     d="m 77.179688,142.78906 c -2.773438,1.16797 -5.214844,1.73438 -7.46875,1.73438 -7.132813,0 -12.628907,-5.65625 -18.96875,-19.52344 l -0.04297,-0.14062 c -0.230469,-1.67188 1.539062,-4.71875 2.398437,-6.07422 -1.519531,-0.29688 -4.765625,-1.06641 -5.9375,-2.35547 L 47.0625,116.27344 C 40.226562,98.375 41.878906,88.816406 52.574219,84.316406 c 2.738281,-1.152344 5.160156,-1.710937 7.410156,-1.710937 7.265625,0 12.828125,5.683593 19.207031,19.617191 l 0.03906,0.14062 c 0.234375,1.67188 -1.53125,4.71875 -2.382813,6.07422 1.472656,0.29297 4.679688,1.04688 5.882813,2.28125 l 0.07031,0.0742 0.03906,0.0977 c 7.027344,18.28515 5.441406,27.23046 -5.660156,31.89843 m 23.26172,-47.824216 -0.0586,-0.09766 C 92.804688,78.71875 82.464844,70.871094 68.773438,70.871094 c -5.960938,0 -12.664063,1.546875 -19.921876,4.601562 C 26.214844,84.996094 18.269531,103.71484 27.0625,126.82813 l 0.03125,0.17578 c 0,1.6914 -1.511719,4.47265 -2.25,5.73046 1.371094,0.23047 4.257812,0.82032 5.640625,1.85547 l 0.08984,0.0664 0.05469,0.10156 c 7.398438,14.21094 17.671875,21.41406 30.527344,21.41797 l 0.0039,0 c 5.941406,0 12.582032,-1.52734 19.742188,-4.53906 C 102.12109,142.70703 110.52344,125.34375 103.95703,104 l -0.0273,-0.0781 0,-0.0508 c -0.47266,-1.63281 1.48437,-4.851559 2.46875,-6.332028 -1.54688,-0.339843 -4.88281,-1.207031 -5.95703,-2.574218"
     id="path132" />
  <path
     inkscape:connector-curvature="0"
     style="fill:#ffffff;fill-opacity:1;fill-rule:nonzero;stroke:none"
     d="m 581.56641,113.16797 -0.082,0.15625 c -1.01953,1.34766 -4.34375,2.32422 -5.88281,2.71094 0.98438,1.38672 3.08203,4.59765 2.625,6.29687 l -0.0391,0.21094 c -5.62891,13.60937 -11.48828,19.41797 -19.59766,19.41797 -2.77343,0 -5.95312,-0.6875 -9.72656,-2.10157 l -3.5625,-1.33203 c -3.08594,-1.15234 -4.26953,-3.80859 -3.16406,-7.10937 1.10547,-3.36719 3.8125,-10.92578 7.07031,-19.72656 l 0.0937,-0.16016 c 0.73828,-1.53906 4.36328,-2.60937 6.08984,-3.04297 -0.97656,-1.375 -3.04296,-4.54297 -2.63671,-6.24609 l 0,-0.008 0.0234,-0.0937 c 3.06641,-8.128911 5.39844,-14.054692 6.57422,-16.730474 1.27735,-2.976562 3.63281,-3.941406 6.84766,-2.738281 l 3.66797,1.371094 c 13.46484,5.039062 16.63281,12.929687 11.69922,29.125001 M 576.2382,76.550641 c -0.69141,-0.257812 -2.64844,-0.976562 -5.17578,-1.902343 -4.65234,-1.703126 -11.01953,-4.035157 -15.25781,-5.621094 -4.625,-1.726563 -11.63282,-4.460938 -16.26953,-6.269532 -1.83985,-0.714843 -3.3086,-1.289062 -4.11329,-1.597656 l -3.32031,8.878906 3.95313,1.476563 c 4.15234,1.554687 5.32812,4.238281 3.9414,8.980469 -0.6875,2.210937 -2.78515,8.074218 -5.7539,16.09375 l -0.043,0.08594 c -0.8711,1.441407 -4.39453,2.480469 -5.99219,2.890625 0.92578,1.300781 2.84766,4.242181 2.67188,5.972651 l -0.0274,0.125 c -3.19922,8.48047 -5.78125,15.10547 -6.90625,17.72657 -1.1875,2.78125 -2.51562,4.63281 -5.13672,4.63281 -1.09765,0 -2.41406,-0.3086 -4.25781,-1 l -3.30859,-1.23828 -3.39844,9.08984 c 2.52734,0.90234 14.40234,5.15234 20.32422,7.36719 6.82812,2.55468 20.85937,7.92578 21.0039,7.98047 6.26172,2.34375 12.14454,3.53125 17.48047,3.53125 13.79297,0 24.17969,-7.85547 30.86719,-23.34766 l 0.043,-0.0977 0.082,-0.0742 c 1.25391,-1.14062 4.17188,-1.99218 5.54688,-2.34765 -0.84375,-1.19141 -2.57813,-3.83984 -2.6836,-5.5625 l -0.004,-0.0898 0.0234,-0.0859 C 607.4958,99.163985 600.23018,85.527267 576.23799,76.550704"
     id="path134" />
  <path
     inkscape:connector-curvature="0"
     style="fill:#ffffff;fill-opacity:1;fill-rule:nonzero;stroke:none"
     d="m 511.20703,64.800781 c -3.21094,-0.910156 -7.73047,-2.324219 -10.43359,-3.167969 -0.97266,-0.300781 -1.67969,-0.523437 -1.95313,-0.605468 -0.27344,1.246094 -1.60156,5.933594 -2.02344,7.132812 l 4.07813,1.15625 c 2.25391,0.640625 4.41016,1.917969 3.30859,6.527344 -0.96875,3.996094 -3.94531,14.480469 -5.71875,20.511719 L 498.01953,97.863281 497.50781,96.375 C 493.62109,85.050781 487.57422,66.558594 484.75,57.042969 c -5.50391,-1.394531 -17.28125,-4.734375 -22.63281,-6.421875 -0.1875,0.839844 -0.95703,4.148437 -2.01953,7.125 l 3.35937,0.953125 c 3.01953,0.859375 4.16406,2.871093 3.5,6.148437 -0.32812,1.648438 -1.5625,6.292969 -3.38672,12.742188 l -0.0742,0.152344 c -0.98437,1.382812 -4.14062,2.558593 -5.61718,3.050781 1.01562,1.230469 3.13671,4.015625 3.09765,5.753906 l -0.0234,0.128906 c -1.3125,4.480469 -2.35156,7.898438 -2.85156,9.371094 -0.84765,2.492187 -2.13672,3.601563 -4.17187,3.601563 -0.67188,0 -1.4336,-0.121094 -2.33203,-0.375 l -3.1211,-0.886719 c -0.15625,0.644531 -0.99609,4.046871 -2.0664,7.285161 1.1289,0.29687 8.3789,2.20703 12.66015,3.42187 3.5625,1.01172 9.27344,2.73828 12.35938,3.67578 l 0.13281,0.0391 c 0.76172,-3.20703 1.82031,-6.52343 2.06641,-7.28515 L 469.711,104.4102 c -3.49219,-0.98828 -4.55078,-2.71094 -3.76563,-6.12891 0.81641,-3.429688 4.39063,-16.351562 7.08594,-25.613281 l 0.44922,-1.542969 0.50781,1.523438 c 4.63672,13.945312 11.05469,34.000002 14.32031,44.738282 2.83594,0.63672 8.85547,2.34375 11.625,3.29687 1.28907,-4.9414 3.61719,-13.40234 6.23828,-22.65234 l 0.0586,-0.144531 c 0.63672,-1.582031 4.13281,-2.945313 5.80859,-3.515625 -1.04297,-1.234375 -3.23047,-4.046875 -3.15234,-5.78125 l 0.0195,-0.117188 c 1.54297,-5.339844 2.65234,-9.035156 3.11719,-10.402344 0.99218,-2.800781 2.38672,-4.105468 4.39843,-4.105468 0.55469,0 1.15625,0.09375 1.84375,0.289062 l 3.44141,0.976563 c 0.27344,-1.242188 1.59766,-5.910157 2.01953,-7.121094 -0.13672,-0.04297 -0.35156,-0.09766 -0.57812,-0.152344 C 521.13281,67.441406 515,65.878906 511.20703,64.800781"
     id="path136" />
  <path
     inkscape:connector-curvature="0"
     style="fill:none;stroke:#bfb3ae;stroke-width:0.75;stroke-linecap:round;stroke-linejoin:miter;stroke-miterlimit:10;stroke-opacity:0"
     d="m 154.28516,52.480469 -0.0859,0.02734 c -2.41016,0.781251 -6.0586,1.960938 -8.89844,2.796876 -3.94531,1.15625 -11.33594,3.089843 -12.17578,3.308593 0.18359,0.515625 1.33984,3.789063 2.08203,7.109375 l 1.91797,-0.5625 c 0.73437,-0.214843 1.35547,-0.320312 1.90234,-0.320312 2.73828,0 3.41407,2.5625 3.58203,6.410156 0.33985,6.910156 -0.39453,22.160156 -0.82812,29.25391 l -0.0898,1.47265 -0.82812,-1.22265 c -4.3711,-6.476566 -12.26954,-18.546879 -15.90235,-24.398441 -1.4414,-2.59375 -1.88281,-4.597656 -1.3164,-5.972656 0.39453,-0.972657 1.26562,-1.644532 2.65625,-2.050782 l 2.32031,-0.679687 c -0.4336,-1.195313 -1.80078,-5.867188 -2.08594,-7.109375 -0.42969,0.128906 -1.42578,0.445312 -2.75781,0.863281 l -0.42188,0.136719 c -3.32812,1.050781 -8.35547,2.640625 -12.03906,3.71875 -5.00391,1.46875 -13.976562,3.871094 -15.203125,4.199219 0.175782,0.515625 1.265625,3.789062 2.085938,7.109375 l 1.597656,-0.472657 c 1.167971,-0.339843 2.140621,-0.507812 2.976561,-0.507812 2.49219,0 3.97266,1.402344 6.16797,4.351562 1.48047,2.042969 3.76563,5.34375 6.61719,9.558594 l 0.082,0.117188 0.004,0.144531 c 0.0586,1.699219 -1.00391,4.390625 -1.55078,5.65625 1.69531,0.07031 5.52344,0.382812 6.58203,1.78125 l 0.13281,0.136719 c 5.49219,8.273442 10.67188,16.285152 13.52734,20.925782 2.48047,-0.80859 11.75391,-3.52734 14.22657,-4.16797 0.004,-6.06641 0.30468,-15.640625 0.80078,-25.632812 l 0.008,-0.121094 0.0586,-0.101563 c 0.84766,-1.476562 2.94922,-3.207031 3.9961,-4.015625 -0.86329,-0.527343 -2.40235,-1.53125 -3.51563,-2.605468 l -0.16797,-0.160157 0.0156,-0.230468 c 0.33203,-5.605469 0.67578,-10.105469 0.98828,-13.019532 0.58984,-6.15625 2.54687,-7.785156 6.4375,-8.925781 l 1.83984,-0.539062 c -0.43359,-1.199219 -1.80077,-5.867188 -2.08593,-7.109375 -0.46484,0.140625 -1.42578,0.449218 -2.65234,0.847656 z m 0,0"
     id="path138" />
  <path
     inkscape:connector-curvature="0"
     style="fill:none;stroke:#ffffff;stroke-width:0.75;stroke-linecap:round;stroke-linejoin:miter;stroke-miterlimit:10;stroke-opacity:0"
     d="m 220.10547,76.359375 c 0.91015,5.722656 0.73828,9.390625 -0.55078,11.886719 -1.32813,2.5625 -3.85547,4.015625 -8.20313,4.710937 l -8.59765,1.371094 c -0.49219,0.08203 -0.92969,0.117188 -1.33985,0.117188 -2.36328,0 -3.66797,-1.289063 -4.35547,-4.316407 -0.45703,-1.898437 -1.36328,-6.960937 -2.36328,-13.207031 l -0.082,-0.496094 2.60938,-0.417968 c 1.0039,-0.160157 1.8789,-0.234375 2.67187,-0.234375 4.1211,0 6,2.007812 6.94141,7.414062 l 0.29297,1.816406 c 2.48047,-0.539062 5.10156,-0.847656 5.7539,-0.921875 l -0.0898,-0.40625 c -0.84766,-3.84375 -1.41016,-6.386718 -2.34766,-12.230468 -0.6289,-3.949219 -0.85546,-6.046875 -1.12109,-8.472657 -0.13281,-1.222656 -0.26562,-2.476562 -0.46484,-4.050781 -0.42188,0.08984 -3.17969,0.660156 -5.91797,0.945313 l 0.32812,2.058593 c 0.9336,5.839844 -0.86718,8.355469 -6.64843,9.28125 l -2.76954,0.441407 -0.082,-0.492188 c -0.9414,-5.914062 -1.62109,-10.761719 -1.82031,-12.972656 -0.33594,-3.195313 0.9336,-4.910156 3.99219,-5.402344 l 8.76562,-1.402344 c 1.39454,-0.21875 2.5625,-0.328125 3.57032,-0.328125 5.47265,0 8.03515,3.214844 9.42578,11.859375 l 7.39844,-1.183593 C 224.11719,56.054688 222.77344,46.738281 222.20312,40.5 c -3.53515,1.023438 -13.6289,2.757813 -18.5039,3.539063 l -20.71875,3.3125 c -2.39063,0.382812 -7.92969,1.195312 -11.23828,1.679687 -2.14453,0.316406 -3.875,0.570313 -4.44532,0.660156 l 1.17188,7.316407 3.20703,-0.515625 c 0.46484,-0.07031 0.87109,-0.105469 1.25,-0.105469 2.33594,0 3.58594,1.320312 4.32031,4.570312 0.41407,1.933594 1.30469,7.0625 2.32032,13.390625 l 0.0117,0.07813 -0.0117,0.08203 c -0.28125,1.671875 -2.69532,4.09375 -3.83985,5.167968 1.51953,0.734375 4.8711,2.523438 5.31641,4.214844 0.44531,2.949219 0.98437,6.730469 1.11328,8.292969 0.26953,3.222656 -0.34375,5.492187 -4.21484,6.113281 l -2.80079,0.449219 1.19922,7.476566 c 0.23828,-0.0391 0.89844,-0.15235 1.83985,-0.31641 2.66015,-0.46484 9.73047,-1.69922 13.54297,-2.3125 l 21.53515,-3.44141 c 4.39844,-0.703121 13.02735,-1.99609 17.60547,-2.398434 -1.03125,-6.453125 -2.37109,-16.210937 -2.79297,-22.667968 -1.38672,0.296875 -6.57031,1.125 -7.96484,1.273437 z m 0,0"
     id="path142" />
  <path
     inkscape:connector-curvature="0"
     style="fill:none;stroke:#bfb3ae;stroke-width:0.75;stroke-linecap:round;stroke-linejoin:miter;stroke-miterlimit:10;stroke-opacity:0"
     d="m 275.36328,61.730469 c -1.5625,1.632812 -4.03125,2.449219 -8,2.648437 l -4.875,0.25 -0.0273,-0.5 c -0.39062,-7.867187 -0.53125,-14.953125 -0.54687,-15.734375 -0.0273,-2.347656 0.9375,-3.441406 3.1289,-3.550781 l 2.81641,-0.144531 c 6.46093,-0.339844 9.15234,2.269531 9.5039,9.222656 0.19141,3.707031 -0.44531,6.1875 -2,7.808594 z m 26.76172,14.4375 c -0.58203,0.121094 -3.16406,0.464844 -3.98828,0.519531 0.7539,2.832031 1.76562,7.800781 0.2539,9.878906 -0.41796,0.570313 -0.98828,0.875 -1.70312,0.910157 l -0.21875,0.0078 c -2.38281,0 -3.5625,-2.191406 -4.875,-9.023437 -1.15234,-6.226563 -4.00391,-9.59375 -9.24609,-10.929688 l -1.88282,-0.47655 1.87891,-0.492188 c 7.38672,-1.933594 11.75391,-7.570312 11.39062,-14.714844 -0.46875,-9.238281 -7.4414,-14.328125 -19.6289,-14.328125 -0.76563,0 -1.56641,0.02344 -2.3711,0.0625 -3.16406,0.160157 -6.86328,0.375 -10.17968,0.5625 -2.67188,0.15625 -5.10157,0.296875 -6.79688,0.382813 -1.89844,0.09375 -6.55469,0.277344 -11.15625,0.453125 -2.41797,0.09375 -4.41406,0.171875 -5.02344,0.199219 l 0.375,7.402343 3.66016,-0.183593 c 0.1875,-0.01172 0.36719,-0.01953 0.54297,-0.01953 2.85156,0 3.63672,1.65625 3.98047,4.328125 0.17969,1.625 0.5,6.585938 0.85547,13.289063 l 0.004,0.05469 -0.008,0.05469 c -0.28125,1.664062 -3.08594,3.964844 -4.38672,4.953125 1.45703,0.898437 4.68359,3.074219 4.875,4.820312 0.21875,4.886719 0.33203,8.269532 0.32031,9.5625 -0.0664,3.582032 -1.41015,5.039063 -4.78906,5.214844 l -2.91406,0.148438 0.38281,7.5625 c 1.87891,-0.125 10.30078,-0.6875 15.25,-0.9375 2.51562,-0.128907 14.16016,-0.566407 15.18359,-0.605469 l -0.3789,-7.480469 -2.83203,0.140625 c -2.94922,0.179688 -4.53907,-1.277344 -5.04688,-4.789062 -0.22656,-1.570313 -0.55859,-6.195313 -0.85937,-12.070313 l -0.0273,-0.5 2.72265,-0.136719 c 5.69922,-0.304687 9.40235,0.984375 10.41406,10.75 1.08204,9.894532 3.87891,15.4375 15.30079,14.855469 4.66015,-0.238281 8.03125,-1.769531 10.01562,-4.558594 1.02734,-1.4375 1.60156,-3.089843 1.875,-4.816406 0.11719,-1.152344 0.16797,-2.367187 0.17578,-3.558594 -0.10937,-2.292968 -0.58594,-4.558593 -1.14453,-6.492187 z m 0,0"
     id="path146" />
  <path
     inkscape:connector-curvature="0"
     style="fill:none;stroke:#bfb3ae;stroke-width:0.75;stroke-linecap:round;stroke-linejoin:miter;stroke-miterlimit:10;stroke-opacity:0"
     d="m 77.179687,142.78906 c -2.773437,1.16797 -5.214843,1.73438 -7.468749,1.73438 -7.132813,0 -12.628907,-5.65625 -18.96875,-19.52344 l -0.04297,-0.14063 c -0.230469,-1.67187 1.539062,-4.71875 2.398437,-6.07421 -1.519531,-0.29688 -4.765625,-1.06641 -5.9375,-2.35547 l -0.09766,-0.15625 C 40.226558,98.375 41.878901,88.816406 52.574214,84.316406 c 2.738281,-1.152343 5.160156,-1.710937 7.410156,-1.710937 7.265625,0 12.828125,5.683594 19.207031,19.617191 l 0.03907,0.14062 c 0.234375,1.67188 -1.53125,4.71875 -2.382813,6.07422 1.472657,0.29297 4.679688,1.04687 5.882813,2.28125 l 0.07031,0.0742 0.03906,0.0977 c 7.027344,18.28515 5.441406,27.23046 -5.660157,31.89843 z m 23.261723,-47.824216 -0.0586,-0.09766 C 92.804688,78.71875 82.464844,70.871094 68.773438,70.871094 c -5.960938,0 -12.664063,1.546875 -19.921875,4.601562 C 26.214844,84.996094 18.269531,103.71484 27.0625,126.82812 l 0.03125,0.17579 c 0,1.6914 -1.511719,4.47265 -2.25,5.73046 1.371094,0.23047 4.257813,0.82032 5.640625,1.85547 l 0.08984,0.0664 0.05469,0.10156 c 7.398438,14.21094 17.671875,21.41406 30.527344,21.41797 l 0.0039,0 c 5.941407,0 12.582032,-1.52734 19.742188,-4.53906 C 102.12109,142.70703 110.52343,125.34375 103.95702,104 l -0.0273,-0.0781 0,-0.0508 c -0.47265,-1.63281 1.48438,-4.851563 2.46875,-6.332031 -1.54687,-0.339844 -4.88281,-1.207032 -5.95703,-2.574219 z m 0,0"
     id="path162" />
  <path
     inkscape:connector-curvature="0"
     style="fill:#ffffff;fill-opacity:1;fill-rule:nonzero;stroke:none"
     d="m 176.02344,141.63672 1.4375,0 c -0.21875,1.22265 -0.48047,4.14453 -0.35938,6.05859 -0.48047,-0.0508 -1.10156,-0.0508 -1.58203,0 -0.45312,-2.66015 -1.24609,-4.98047 -4.95703,-4.98047 -3.44531,0 -4.88281,2.29688 -4.88281,7.39844 0,5.98438 2.01172,7.44531 4.6914,7.44531 3.44922,0 5.19532,-2.25 5.38672,-5.57812 0.41016,0.0469 1.2461,0.0469 1.65235,0 -0.3086,4.52344 -2.20313,6.89453 -7.0625,6.89453 -4.90625,0 -8.06641,-2.46484 -8.06641,-8.76172 0,-6.15234 3.56641,-8.71484 8.06641,-8.71484 2.25,0 3.44921,0.71875 3.94921,0.98047 1.29688,0.69531 1.58204,0.5039 1.72657,-0.74219"
     id="path174" />
  <path
     inkscape:connector-curvature="0"
     style="fill:#ffffff;fill-opacity:1;fill-rule:nonzero;stroke:none"
     d="m 192.77344,150.08984 c 0,-5.3164 -1.41407,-7.39843 -4.8125,-7.39843 -3.25782,0 -4.78907,2.41796 -4.78907,7.42187 0,5.26563 1.19922,7.44531 4.78907,7.44531 3.54297,0 4.8125,-2.51562 4.8125,-7.46875 m -12.83203,0.0234 c 0,-5.62891 3.375,-8.71484 8.01953,-8.71484 5.3164,0 8.01953,3.13672 8.01953,8.6914 0,5.60157 -3.375,8.78516 -8.01953,8.78516 -5.29297,0 -8.01953,-3.23047 -8.01953,-8.76172"
     id="path176" />
  <path
     inkscape:connector-curvature="0"
     style="fill:#ffffff;fill-opacity:1;fill-rule:nonzero;stroke:none"
     d="m 199.81641,144.70312 c -0.0234,-1.03125 -0.3125,-1.41406 -1.2461,-1.41406 l -1.10156,0 0,-1.41406 c 0,0 2.49219,0.0742 3.90234,0.0742 1.41407,0 3.51953,-0.0742 3.90235,-0.0742 l 0,1.41406 -1.10157,0 c -0.95703,0 -1.41406,0.28906 -1.41406,1.41406 l 0,7.15625 c 0,3.94922 1.51172,5.31641 4.33594,5.31641 2.80078,0 4.35937,-1.22266 4.35937,-5.31641 0,-2.03515 0.0469,-4.45312 0,-7.15625 -0.0273,-0.93359 -0.53125,-1.41406 -1.39062,-1.41406 l -1.10156,0 0,-1.41406 c 0,0 2.20312,0.0742 3.44922,0.0742 1.24218,0 3.03906,-0.0742 3.42187,-0.0742 l 0,1.41406 -1.125,0 c -0.86328,0 -1.21875,0.50391 -1.24609,1.4375 -0.0469,2.67969 0,5.1211 0,6.94141 0,4.76562 -2.12891,7.23047 -6.58203,7.23047 -4.64454,0 -7.0625,-2.08203 -7.0625,-7.25391 0,0 0.0469,-5.45703 0,-6.94141"
     id="path178" />
  <path
     inkscape:connector-curvature="0"
     style="fill:#ffffff;fill-opacity:1;fill-rule:nonzero;stroke:none"
     d="m 231.70312,153.39062 c 0.0742,-3.01562 0.0742,-7.58593 0,-8.8789 -0.0469,-0.96094 -0.40625,-1.22266 -1.26953,-1.22266 l -1.53125,0 0,-1.41406 c 0.38282,0 2.34766,0.0742 3.66407,0.0742 1.3164,0 3.64062,-0.0742 3.64062,-0.0742 l 0,1.41406 -1.53516,0 c -0.86328,0 -1.21875,0.26172 -1.26953,1.22266 -0.0703,1.38672 -0.0703,11.01172 0,13.88281 -0.42968,-0.0469 -1.41015,-0.0469 -1.84375,0 -2.03125,-3.03906 -6.125,-9.02344 -9.02343,-13.14062 -0.0234,3.78125 -0.0234,9.33593 0.0469,10.74609 0.0234,0.81641 0.33594,0.98437 1.4375,0.98437 l 1.38672,0 0,1.46094 c 0,0 -2.34766,-0.0508 -3.66016,-0.0508 -1.3164,0 -3.66406,0.0508 -3.66406,0.0508 l 0,-1.46094 1.36328,0 c 1.10156,0 1.41406,-0.16796 1.4375,-0.98437 0.0703,-1.76953 0.0937,-10.10156 0,-11.51563 -0.0742,-0.93359 -0.41015,-1.19531 -1.26953,-1.19531 l -1.50781,0 0,-1.41406 c 1.33984,0.0508 4.23828,0.0508 5.57812,0 1.79297,2.73047 5.76953,8.40625 8.01953,11.51562"
     id="path180" />
  <path
     inkscape:connector-curvature="0"
     style="fill:#ffffff;fill-opacity:1;fill-rule:nonzero;stroke:none"
     d="m 247.42187,143.28906 c -0.0508,3.16016 -0.0508,10.98828 0.0195,12.25781 0.0508,0.91016 0.26562,1.4375 1.34375,1.4375 l 1.46093,0 0,1.46094 c 0,0 -2.65625,-0.0508 -4.16797,-0.0508 -1.50781,0 -4.1875,0.0508 -4.1875,0.0508 l 0,-1.46094 1.36329,0 c 1.05468,0 1.39062,-0.52734 1.4375,-1.4375 0.0703,-1.26953 0.0703,-9.09765 0,-12.25781 l -1.89063,0 c -1.86719,0 -2.46484,0.86328 -2.53906,2.25 l -0.0937,2.3711 -1.58203,0 c 0.0703,-1.46094 0,-4.66797 -0.1211,-6.12891 0.69532,0.0703 1.94141,0.0937 3.73828,0.0937 l 7.75391,0 c 2.13281,0 2.80078,-0.0234 3.6875,-0.0937 -0.12109,1.46094 -0.19141,4.66797 -0.12109,6.12891 l -1.53125,0 -0.0937,-2.3711 c -0.0742,-1.38672 -0.67188,-2.25 -2.53907,-2.25 z m 0,0"
     id="path182" />
  <path
     inkscape:connector-curvature="0"
     style="fill:#ffffff;fill-opacity:1;fill-rule:nonzero;stroke:none"
     d="m 261.50391,149.80078 1.9375,0 c 2.85156,0 3.83203,-1.00391 3.83203,-3.44531 0,-2.41797 -0.98047,-3.28125 -3.51953,-3.28125 l -1.24219,0 c -0.69531,0 -0.91016,0.35937 -0.9336,0.95703 -0.0508,0.91016 -0.0742,3.35156 -0.0742,5.76953 m 9.41015,7.49219 c 1.10156,0 1.22266,-1.60156 0.8125,-3.82813 l 1.10156,-0.12109 c 0.64844,2.82422 0.26563,5.53125 -2.72656,5.53125 -3.18359,0 -3.83203,-1.77344 -4,-4.76172 -0.14453,-2.66016 -1.3164,-3.16406 -2.92187,-3.16406 l -1.67578,0 c 0,2.10937 0.0234,4.07031 0.0742,4.64453 0.0703,1.03125 0.52735,1.4375 1.36329,1.4375 l 1.14843,0 0,1.41406 c 0,0 -2.82422,-0.0508 -4.09375,-0.0508 -1.48437,0 -4.09375,0.0508 -4.09375,0.0508 l 0,-1.46094 1.14844,0 c 1.07813,0 1.58203,-0.35937 1.62891,-1.41406 0.0742,-1.33984 0.0742,-9.67187 0,-11.08203 -0.0469,-0.9375 -0.38282,-1.19922 -1.2461,-1.19922 l -1.53125,0 0,-1.41406 c 0.38282,0 3.73438,0.0508 4.19141,0.0508 1.09766,0 3.03906,-0.0234 4.04687,-0.0234 4.04297,0 6.32032,1.46094 6.32032,4.40235 0,2.39453 -1.77344,4.02343 -3.92969,4.28515 1.84375,0.48047 2.49219,1.53516 2.70703,3.23438 0.38281,2.99219 0.86328,3.46875 1.67578,3.46875"
     id="path184" />
  <path
     inkscape:connector-curvature="0"
     style="fill:#ffffff;fill-opacity:1;fill-rule:nonzero;stroke:none"
     d="m 283.38281,152.72266 0,3.03906 c 0,0.98047 0.1211,1.24609 1.41406,1.24609 l 1.62891,0 0,1.4375 c 0,0 -2.82812,-0.0508 -4.43359,-0.0508 -1.60157,0 -4.44922,0.0508 -4.44922,0.0508 l 0,-1.4375 1.60156,0 c 1.31641,0 1.4375,-0.3125 1.4375,-1.24609 l 0,-3.01563 c -1.17578,-2.32422 -3.20703,-6.05859 -4.28516,-7.92187 -0.64453,-1.08203 -1.3164,-1.53516 -2.77734,-1.53516 l -0.38281,0 0,-1.41406 c 0,0 2.77734,0.0742 4.33203,0.0742 1.55859,0 4.33594,-0.0742 4.33594,-0.0742 l 0,1.41406 -1.19922,0 c -1.38672,0 -1.62891,0.67188 -1.19922,1.60547 0.69922,1.41016 2.46875,4.62109 3.47266,6.26953 0.96093,-1.74609 2.4414,-4.66797 3.1875,-6.26953 0.40625,-0.91016 0.5,-1.60547 -1.05469,-1.60547 l -0.86328,0 0,-1.41406 c 0,0 2.34765,0.0742 3.66406,0.0742 1.31641,0 3.63672,-0.0742 3.63672,-0.0742 l 0,1.41406 -0.6211,0 c -1.89062,0 -2.4414,0.40625 -3.18359,1.67578 -1.07812,1.82032 -3.08594,5.48438 -4.26172,7.75782"
     id="path186" />
  <path
     inkscape:connector-curvature="0"
     style="fill:#ffffff;fill-opacity:1;fill-rule:nonzero;stroke:none"
     d="m 304.57422,150.49609 c 0,2.44141 0,4.8125 0.0508,5.7461 0.0234,0.78906 0.35937,0.95703 0.88281,0.95703 l 1.29297,0 c 2.77734,0 3.6875,-1.17188 3.6875,-3.51953 0,-2.15625 -1.31641,-3.1836 -4.30859,-3.1836 z m 0,-1.14843 1.55859,0 c 2.84766,0 3.82813,-0.76563 3.82813,-3.23438 0,-1.84375 -1.00391,-3.03906 -3.49219,-3.03906 l -0.91406,0 c -0.66797,0 -0.90625,0.38281 -0.92969,0.95703 -0.0508,0.83984 -0.0508,3.03906 -0.0508,5.31641 m 2.37109,9.04687 -7.99609,0 0,-1.41016 1.36328,0 c 1.10156,0 1.39062,-0.14453 1.41406,-0.98437 0.0703,-1.76953 0.0703,-10.10156 0,-11.53906 -0.0469,-0.9336 -0.38281,-1.17188 -1.24609,-1.17188 l -1.53125,0 0,-1.41406 c 0.38281,0 3.66406,0.0508 4.1875,0.0508 1.10547,0 2.58594,-0.0234 3.59375,-0.0234 4.02344,0 6.27344,1.38672 6.27344,4.16407 0,1.77343 -0.98438,3.20703 -2.78125,3.78515 2.01562,0.5 3.3789,1.86328 3.3789,3.75781 0,2.91797 -1.41406,4.78516 -6.65625,4.78516"
     id="path188" />
  <path
     inkscape:connector-curvature="0"
     style="fill:#ffffff;fill-opacity:1;fill-rule:nonzero;stroke:none"
     d="m 324.23047,144.17578 c -0.67188,1.69922 -1.96094,5.26563 -2.8711,7.82813 1.69922,0.0234 4.1875,0.0234 5.83985,0 -0.9336,-2.5625 -2.27344,-6.12891 -2.96875,-7.82813 m 3.42578,9.07422 c -1.75,-0.0508 -4.91016,-0.0508 -6.73047,0 -0.23828,0.66797 -0.42969,1.21875 -0.50391,1.48437 -0.40625,1.33985 -0.26171,2.25 1.29688,2.25 l 1.02734,0 -0.0234,1.46094 c 0,0 -2.3711,-0.0508 -3.6875,-0.0508 -1.31641,0 -3.6875,0.0508 -3.6875,0.0508 l 0,-1.46094 0.88671,0 c 1.33985,0 1.89063,-0.52734 2.46485,-1.98828 0.57422,-1.46093 3.8789,-10.46093 4.88672,-13.26172 0,0 0.88281,0.0703 1.36328,0.0703 0.48047,0 1.33984,-0.0703 1.33984,-0.0703 0.95703,2.82422 4.57422,11.875 5.19531,13.28516 0.625,1.41406 1.10157,1.96484 2.08204,1.96484 l 1.07812,0 0,1.46094 c 0,0 -2.73047,-0.0508 -4.26172,-0.0508 -1.53125,0 -4.28515,0.0508 -4.28515,0.0508 l 0.0234,-1.46094 1.05469,0 c 1.14844,0 1.55469,-0.8164 1.00391,-2.30078 z m 0,0"
     id="path190" />
  <path
     inkscape:connector-curvature="0"
     style="fill:#ffffff;fill-opacity:1;fill-rule:nonzero;stroke:none"
     d="m 342.50781,149.80078 1.9375,0 c 2.85156,0 3.83203,-1.00391 3.83203,-3.44531 0,-2.41797 -0.98047,-3.28125 -3.51953,-3.28125 l -1.24219,0 c -0.69531,0 -0.91015,0.35937 -0.93359,0.95703 -0.0508,0.91016 -0.0742,3.35156 -0.0742,5.76953 m 9.41016,7.49219 c 1.10156,0 1.21875,-1.60156 0.8125,-3.82813 l 1.10156,-0.12109 c 0.64844,2.82422 0.26563,5.53125 -2.73047,5.53125 -3.18359,0 -3.82812,-1.77344 -3.99609,-4.76172 -0.14453,-2.66016 -1.31641,-3.16406 -2.92188,-3.16406 l -1.67578,0 c 0,2.10937 0.0234,4.07031 0.0742,4.64453 0.0703,1.03125 0.52344,1.4375 1.36328,1.4375 l 1.14844,0 0,1.41406 c 0,0 -2.82422,-0.0508 -4.09375,-0.0508 -1.48438,0 -4.09375,0.0508 -4.09375,0.0508 l 0,-1.46094 1.14844,0 c 1.07812,0 1.58203,-0.35937 1.6289,-1.41406 0.0703,-1.33984 0.0703,-9.67187 0,-11.08203 -0.0469,-0.9375 -0.38281,-1.19922 -1.24609,-1.19922 l -1.53125,0 0,-1.41406 c 0.38281,0 3.73437,0.0508 4.19141,0.0508 1.09765,0 3.03906,-0.0234 4.04296,-0.0234 4.04688,0 6.32032,1.46094 6.32032,4.40235 0,2.39453 -1.76953,4.02343 -3.92578,4.28515 1.84375,0.48047 2.49218,1.53516 2.70703,3.23438 0.38281,2.99219 0.85937,3.46875 1.67578,3.46875"
     id="path192" />
  <path
     inkscape:connector-curvature="0"
     style="fill:#ffffff;fill-opacity:1;fill-rule:nonzero;stroke:none"
     d="m 368.44141,149.51562 c 1.67578,-0.83984 2.10546,-2.27343 2.10546,-4.21484 0,-1.76953 -0.5039,-2.51562 -1.72265,-2.51562 -1.22266,0 -1.7461,0.74609 -1.7461,2.51562 0,1.26953 0.38282,2.41797 1.36329,4.21484 m 1.72265,7.44532 c -0.98047,-0.9336 -2.03515,-2.3711 -3.2539,-4.52735 -0.26563,-0.45312 -0.52735,-0.88281 -0.74219,-1.29297 -0.98438,0.60157 -1.70313,1.67579 -1.70313,2.94532 0,2.13281 1.22266,3.39843 3.13672,3.375 1.03125,0 1.86719,-0.19141 2.5625,-0.5 m 4.40625,1.72265 c -1.33984,0 -2.46484,-0.23828 -3.61719,-1.05468 -0.98046,0.74218 -2.32031,1.24609 -4.09375,1.24609 -3.0625,0 -5.09765,-1.55469 -5.09765,-4.28516 0,-2.46484 1.96094,-3.94922 3.90234,-4.42968 -0.78906,-1.65235 -1.14844,-2.96875 -1.14844,-4.33204 0,-2.875 1.62891,-4.1914 4.3086,-4.1914 2.48828,0 3.73437,1.60547 3.73437,3.51953 0,2.37109 -1.53125,4.30859 -3.71093,5.10156 l 0.74218,1.19531 c 1.05469,1.72266 1.86719,2.94532 2.5625,3.83204 0.86328,-0.95704 1.21875,-2.10938 1.31641,-3.23438 0.0469,-0.57422 -0.0703,-1.26562 -1.03125,-1.26562 l -0.74219,0 0,-1.125 c 0,0 1.89063,0.0703 2.96875,0.0703 1.07813,0 2.96875,-0.0703 2.96875,-0.0703 l 0,1.125 -0.98047,0 c -1.14843,0 -1.38672,0.59765 -1.48437,1.07421 -0.33594,1.58204 -1.10156,2.94532 -2.46485,4.09375 1.21875,1.4375 1.91407,1.53125 2.67969,1.53125 1.29297,0 2.15625,-1.0039 2.15625,-2.53515 l 0.78906,0.14453 c -0.16796,1.84375 -0.74218,3.58984 -3.75781,3.58984"
     id="path194" />
  <path
     inkscape:connector-curvature="0"
     style="fill:#ffffff;fill-opacity:1;fill-rule:nonzero;stroke:none"
     d="m 398.01172,142.37891 c 1.29297,0.69531 1.58203,0.5039 1.72656,-0.74219 l 1.43359,0 c -0.21484,1.22265 -0.47656,4.14062 -0.35937,6.05859 -0.47656,-0.0469 -1.10156,-0.0469 -1.57813,0 -0.45703,-2.66015 -1.24609,-4.98047 -4.95703,-4.98047 -3.44922,0 -4.88281,2.29688 -4.88281,7.39844 0,5.98438 2.10547,7.44531 4.69141,7.44531 2.46484,0 4.38281,-1.26953 4.38281,-4.14062 0,-1.5586 -0.19141,-2.22656 -1.53516,-2.22656 l -1.02734,0 0,-1.36719 c 0,0 2.37109,0.0742 3.6875,0.0742 1.31641,0 3.6875,-0.0742 3.6875,-0.0742 l 0,1.36719 -0.81641,0 c -0.6914,0 -0.95703,0.35937 -0.95703,1.26562 0,1.26953 0,4.35938 0.14453,6.10938 -0.38281,-0.0508 -1.22265,-0.0508 -1.60547,0 -0.11718,-0.60157 -0.40625,-1.75 -0.66796,-2.6836 -0.86329,1.67578 -2.875,2.99219 -5.33985,2.99219 -4.83594,0 -8.04687,-2.46484 -8.04687,-8.76172 0,-6.15234 3.59375,-8.71484 8.09375,-8.71484 1.29297,0 2.37109,0.16797 3.92578,0.98047"
     id="path196" />
  <path
     inkscape:connector-curvature="0"
     style="fill:#ffffff;fill-opacity:1;fill-rule:nonzero;stroke:none"
     d="m 410.20312,149.80078 1.94141,0 c 2.84766,0 3.83203,-1.00391 3.83203,-3.44531 0,-2.41797 -0.98437,-3.28125 -3.51953,-3.28125 l -1.24609,0 c -0.69532,0 -0.91016,0.35937 -0.9336,0.95703 -0.0508,0.91016 -0.0742,3.35156 -0.0742,5.76953 m 9.41016,7.49219 c 1.10156,0 1.22266,-1.60156 0.8125,-3.82813 l 1.10156,-0.12109 c 0.64844,2.82422 0.26563,5.53125 -2.72656,5.53125 -3.18359,0 -3.83203,-1.77344 -4,-4.76172 -0.14453,-2.66016 -1.31641,-3.16406 -2.92187,-3.16406 l -1.67579,0 c 0,2.10937 0.0234,4.07031 0.0742,4.64453 0.0703,1.03125 0.52735,1.4375 1.36328,1.4375 l 1.14844,0 0,1.41406 c 0,0 -2.82422,-0.0508 -4.09375,-0.0508 -1.48437,0 -4.09375,0.0508 -4.09375,0.0508 l 0,-1.46094 1.14844,0 c 1.07812,0 1.58203,-0.35937 1.62891,-1.41406 0.0742,-1.33984 0.0742,-9.67187 0,-11.08203 -0.0469,-0.9375 -0.38282,-1.19922 -1.24219,-1.19922 l -1.53516,0 0,-1.41406 c 0.38281,0 3.73438,0.0508 4.19141,0.0508 1.10156,0 3.03906,-0.0234 4.04687,-0.0234 4.04297,0 6.32032,1.46094 6.32032,4.40235 0,2.39453 -1.77344,4.02343 -3.92969,4.28515 1.84375,0.48047 2.49219,1.53516 2.70703,3.23438 0.38281,2.99219 0.86328,3.46875 1.67578,3.46875"
     id="path198" />
  <path
     inkscape:connector-curvature="0"
     style="fill:#ffffff;fill-opacity:1;fill-rule:nonzero;stroke:none"
     d="m 423.82812,156.98437 1.31641,0 c 1.07813,0 1.36719,-0.14453 1.39063,-0.95703 0.0703,-1.79687 0.0703,-10.1289 0,-11.54297 -0.0508,-0.93359 -0.38282,-1.19531 -1.2461,-1.19531 l -1.46094,0 0,-1.41015 c 0,0 2.6836,0.0703 4.16797,0.0703 1.48047,0 3.75782,-0.0703 4.14063,-0.0703 l 0,1.41015 -1.46094,0 c -0.86328,0 -1.17187,0.26172 -1.24609,1.19531 -0.0937,1.41407 -0.0703,9.7461 0,11.54297 0.0234,0.8125 0.3125,0.95703 1.41406,0.95703 l 1.29297,0 0,1.46094 c 0,0 -2.66016,-0.0508 -4.14063,-0.0508 -1.48437,0 -4.16797,0.0508 -4.16797,0.0508 z m 0,0"
     id="path200" />
  <path
     inkscape:connector-curvature="0"
     style="fill:#ffffff;fill-opacity:1;fill-rule:nonzero;stroke:none"
     d="m 442.71094,143.28906 -1.50782,0 c -0.88671,0 -1.21875,0.26172 -1.26953,1.19531 -0.0703,1.41407 -0.0703,9.7461 0,11.54297 0.0274,0.74219 0.42969,0.95703 1.17578,0.95703 l 2.01172,0 c 2.65625,0 3.82813,-0.86328 4.06641,-4.95703 l 1.46094,0 c -0.14063,1.55469 -0.28516,4.91016 -0.23828,6.46485 -1.125,-0.0977 -3.44532,-0.0977 -4.47657,-0.0977 l -5.48437,0 c -0.95703,0 -3.44531,0.0273 -4.06641,0.0508 l 0,-1.46094 1.38672,0 c 1.10156,0 1.36328,-0.14453 1.38672,-0.98437 0.0742,-1.76953 0.0742,-10.10156 0,-11.51563 -0.0469,-0.93359 -0.38281,-1.19531 -1.24219,-1.19531 l -1.51172,0 0,-1.41406 c 0,0 2.6836,0.0742 4.16797,0.0742 1.48438,0 3.64063,-0.0742 4.14063,-0.0742 z m 0,0"
     id="path202" />
  <path
     inkscape:connector-curvature="0"
     style="fill:#ffffff;fill-opacity:1;fill-rule:nonzero;stroke:none"
     d="m 458.98828,143.28906 -1.50781,0 c -0.88672,0 -1.21875,0.26172 -1.26953,1.19531 -0.0703,1.41407 -0.0703,9.7461 0,11.54297 0.0273,0.74219 0.43359,0.95703 1.17578,0.95703 l 2.01172,0 c 2.65625,0 3.82812,-0.86328 4.0664,-4.95703 l 1.46094,0 c -0.14062,1.55469 -0.28516,4.91016 -0.23828,6.46485 -1.125,-0.0977 -3.44531,-0.0977 -4.47656,-0.0977 l -5.48438,0 c -0.95703,0 -3.44531,0.0273 -4.0664,0.0508 l 0,-1.46094 1.38671,0 c 1.10157,0 1.36329,-0.14453 1.38672,-0.98437 0.0742,-1.76953 0.0742,-10.10156 0,-11.51563 -0.0469,-0.93359 -0.38281,-1.19531 -1.24218,-1.19531 l -1.51172,0 0,-1.41406 c 0,0 2.68359,0.0742 4.16797,0.0742 1.48437,0 3.64062,-0.0742 4.14062,-0.0742 z m 0,0"
     id="path204" />
  <path
     inkscape:connector-curvature="0"
     style="fill:#ffffff;fill-opacity:1;fill-rule:nonzero;stroke:none"
     d="m 288.89844,125.05469 0,-10.37891 4.76953,0 0,1.55469 -2.98828,0 0,2.67187 2.30078,0 0,1.55079 -2.30078,0 0,3.04687 3.1914,0 0,1.55469 z m 0,0"
     id="path206" />
  <path
     inkscape:connector-curvature="0"
     style="fill:#ffffff;fill-opacity:1;fill-rule:nonzero;stroke:none"
     d="m 299.08594,117.23438 c -0.0703,-0.89063 -0.54297,-1.14844 -0.94532,-1.14844 -0.57812,0 -0.89453,0.375 -0.89453,1.01953 0,1.76953 3.625,2.61719 3.625,5.43359 0,1.71094 -1.15234,2.66016 -2.8164,2.66016 -1.65625,0 -2.60547,-1.32422 -2.67578,-2.875 l 1.69531,-0.24609 c 0.0742,1.05078 0.48828,1.5664 1.0664,1.5664 0.61719,0 1.03516,-0.32812 1.03516,-0.94922 0,-2.05468 -3.625,-2.60156 -3.625,-5.57422 0,-1.65234 1.00781,-2.58984 2.76172,-2.58984 1.44922,0 2.3125,1.05078 2.46875,2.51563 z m 0,0"
     id="path208" />
  <path
     inkscape:connector-curvature="0"
     style="fill:#ffffff;fill-opacity:1;fill-rule:nonzero;stroke:none"
     d="m 303.96094,116.23047 -1.72657,0 0,-1.55469 5.23438,0 0,1.55469 -1.72656,0 0,8.82422 -1.78125,0 z m 0,0"
     id="path210" />
  <path
     inkscape:connector-curvature="0"
     style="fill:#ffffff;fill-opacity:1;fill-rule:nonzero;stroke:none"
     d="m 308.26953,123.35938 1.69531,0 0,1.69531 -1.69531,0 z m 0,0"
     id="path212" />
  <path
     inkscape:connector-curvature="0"
     style="fill:#ffffff;fill-opacity:1;fill-rule:nonzero;stroke:none"
     d="m 317.01953,116.83203 -1.41016,0 0,-0.96094 c 0.78907,-0.40234 1.52344,-0.83593 2.11329,-1.33984 l 0.90625,0 0,10.52344 -1.60938,0 z m 0,0"
     id="path214" />
  <path
     inkscape:connector-curvature="0"
     style="fill:#ffffff;fill-opacity:1;fill-rule:nonzero;stroke:none"
     d="m 324.50391,117.36328 c 0,-1.0039 -0.23047,-1.42187 -0.77735,-1.42187 -0.54687,0 -0.77344,0.41797 -0.77344,1.42187 0,1.00781 0.22657,1.42578 0.77344,1.42578 0.54688,0 0.77735,-0.41797 0.77735,-1.42578 m 0.14453,4.69922 c 0,-1.07422 -0.23047,-1.72266 -0.92188,-1.72266 -0.6875,0 -0.91797,0.64844 -0.91797,1.72266 0,1.07813 0.23047,1.72656 0.91797,1.72656 0.69141,0 0.92188,-0.64843 0.92188,-1.72656 m -2.375,-2.54297 c -0.62891,-0.46094 -0.9336,-1.26172 -0.9336,-2.07031 0,-2.01172 0.92188,-2.91797 2.38672,-2.91797 1.46485,0 2.38672,0.90625 2.38672,2.91797 0,0.80859 -0.30078,1.60937 -0.93359,2.07031 0.875,0.5625 1.07812,1.39453 1.07812,2.66016 0,1.95703 -0.86328,3.01953 -2.53125,3.01953 -1.66797,0 -2.53125,-1.0625 -2.53125,-3.01953 0,-1.26563 0.20313,-2.09766 1.07813,-2.66016"
     id="path216" />
  <path
     inkscape:connector-curvature="0"
     style="fill:#ffffff;fill-opacity:1;fill-rule:nonzero;stroke:none"
     d="m 327.98828,116.14063 0,-1.46485 4.6875,0 0,1.00781 -2.11328,9.3711 -1.67969,0 2.08203,-8.91406 z m 0,0"
     id="path218" />
  <path
     inkscape:connector-curvature="0"
     style="fill:#ffffff;fill-opacity:1;fill-rule:nonzero;stroke:none"
     d="m 336.89844,121.23047 0,-4.05469 -0.0274,0 -1.74218,4.05469 z m -0.0274,1.32422 -3.10547,0 0,-1.32422 3.01563,-6.55469 1.72656,0 0,6.55469 0.94922,0 0,1.32422 -0.94922,0 0,2.5 -1.63672,0 z m 0,0"
     id="path220" />
  <path
     inkscape:connector-curvature="0"
     style="fill:#ffffff;fill-opacity:1;fill-rule:nonzero;stroke:none"
     d="m 276.79687,118.59766 0.94922,-1.80469 0.85547,1.85547 2.00781,0.34375 -1.49609,1.38672 0.29297,2.01562 -1.78125,-0.99609 -1.82813,0.90234 0.39844,-2 -1.42187,-1.46094 z m 0,0"
     id="path222" />
  <path
     inkscape:connector-curvature="0"
     style="fill:#ffffff;fill-opacity:1;fill-rule:nonzero;stroke:none"
     d="m 349.30078,118.59766 0.94922,-1.80469 0.85547,1.85547 2.00781,0.34375 -1.49609,1.38672 0.28906,2.01562 -1.77734,-0.99609 -1.83204,0.90234 0.39844,-2 -1.42187,-1.46094 z m 0,0"
     id="path224" />
  <path
     inkscape:connector-curvature="0"
     style="fill:#ffffff;fill-opacity:1;fill-rule:nonzero;stroke:none"
     d="m 499.64844,156.30078 0.94922,-1.80469 0.85546,1.85157 2.00782,0.34765 -1.4961,1.38672 0.28907,2.01563 -1.77735,-0.9961 -1.83203,0.90235 0.39844,-2 -1.42188,-1.46094 z m 0,0"
     id="path226" />
  <path
     inkscape:connector-curvature="0"
     style="fill:#ffffff;fill-opacity:1;fill-rule:nonzero;stroke:none"
     d="m 126.9375,156.30078 0.95313,-1.80469 0.85156,1.85157 2.00781,0.34765 -1.49609,1.38672 0.29296,2.01563 -1.78124,-0.9961 -1.82813,0.90235 0.39844,-2 -1.42188,-1.46094 z m 0,0"
     id="path228" />
  <g
     style="clip-rule:nonzero;stroke:#ffffff;stroke-opacity:1"
     clip-path="url(#clip1)"
     id="g230">
    <path
       inkscape:connector-curvature="0"
       style="fill:none;stroke:#ffffff;stroke-width:0.75;stroke-linecap:round;stroke-linejoin:miter;stroke-miterlimit:10;stroke-opacity:1"
       d="M 1.3125e-4,9.4375e-4 0.0196625,-12.7139"
       transform="matrix(1,0,0,-1,313.9569,172.1611)"
       id="path232" />
  </g>
  <g
     style="clip-rule:nonzero;stroke:#ffffff;stroke-opacity:1"
     clip-path="url(#clip2)"
     id="g234">
    <path
       inkscape:connector-curvature="0"
       style="fill:none;stroke:#ffffff;stroke-width:0.75;stroke-linecap:round;stroke-linejoin:miter;stroke-miterlimit:10;stroke-opacity:1"
       d="M -6.625e-4,-0.00126875 4.202463,-12.368456"
       transform="matrix(1,0,0,-1,314.4616,171.6667)"
       id="path236" />
  </g>
  <path
     inkscape:connector-curvature="0"
     style="fill:none;stroke:#ffffff;stroke-width:0.75;stroke-linecap:round;stroke-linejoin:miter;stroke-miterlimit:10;stroke-opacity:1"
     d="m 315.02344,171.43359 7.98437,10.10938"
     id="path238" />
  <path
     inkscape:connector-curvature="0"
     style="fill:none;stroke:#ffffff;stroke-width:0.75;stroke-linecap:round;stroke-linejoin:miter;stroke-miterlimit:10;stroke-opacity:1"
     d="m 315.43359,170.82422 10.88282,6.91015"
     id="path240" />
  <path
     inkscape:connector-curvature="0"
     style="fill:none;stroke:#ffffff;stroke-width:0.75;stroke-linecap:round;stroke-linejoin:miter;stroke-miterlimit:10;stroke-opacity:1"
     d="m 316,170.30078 11.94531,3.5625"
     id="path242" />
  <g
     style="clip-rule:nonzero;stroke:#ffffff;stroke-opacity:1"
     clip-path="url(#clip3)"
     id="g244">
    <path
       inkscape:connector-curvature="0"
       style="fill:none;stroke:#ffffff;stroke-width:0.75;stroke-linecap:round;stroke-linejoin:miter;stroke-miterlimit:10;stroke-opacity:1"
       d="M -0.00185625,0.00145 -4.056544,-12.314956"
       transform="matrix(1,0,0,-1,313.3417,171.7827)"
       id="path246" />
  </g>
  <path
     inkscape:connector-curvature="0"
     style="fill:none;stroke:#ffffff;stroke-width:0.75;stroke-linecap:round;stroke-linejoin:miter;stroke-miterlimit:10;stroke-opacity:1"
     d="m 312.88672,171.30859 -7.94531,10.30078"
     id="path248" />
  <path
     inkscape:connector-curvature="0"
     style="fill:none;stroke:#ffffff;stroke-width:0.75;stroke-linecap:round;stroke-linejoin:miter;stroke-miterlimit:10;stroke-opacity:1"
     d="m 312.43359,170.82422 -10.79687,6.97656"
     id="path250" />
  <path
     inkscape:connector-curvature="0"
     style="fill:none;stroke:#ffffff;stroke-width:0.75;stroke-linecap:round;stroke-linejoin:miter;stroke-miterlimit:10;stroke-opacity:1"
     d="m 300.00781,173.86328 11.96485,-3.5625"
     id="path252" />
  <path
     inkscape:connector-curvature="0"
     style="fill:none;stroke:#ffffff;stroke-width:0.75;stroke-linecap:round;stroke-linejoin:miter;stroke-miterlimit:10;stroke-opacity:1"
     d="m 87.320312,164.12891 c 0,0 2.285157,-6.75782 34.558598,-16.57422 21.04687,-6.40235 29.93359,-11.92188 29.59375,-16.79688 -0.21485,-3.10937 -4.60547,-0.86328 -4.8125,4.82813 -0.19532,5.41015 -0.0352,25.20703 -0.0352,30.53906 0,8.26562 -5.07813,10.14062 -6.22266,8.55859 -0.99609,-1.3789 0.9375,-5.02343 8.59766,-5.02343 l 162.37891,0 2.57812,2.5 2.55078,-2.5 93.28516,0"
     id="path254" />
  <path
     inkscape:connector-curvature="0"
     style="fill:none;stroke:#ffffff;stroke-width:0.75;stroke-linecap:round;stroke-linejoin:miter;stroke-miterlimit:10;stroke-opacity:1"
     d="m 128.65625,136.02734 c -1.63672,1.19922 -0.50781,6.14063 5.59766,3.7461 8.5,-3.34375 10.375,-5.88672 11.39843,-8.9336 1.20703,-3.58593 -3.23437,-4.87109 -3.23437,1.19922 0,6.07031 0.35547,33.41406 0.35547,33.41406 -0.0352,3.83985 -3.7461,5.47266 -5.0586,4.35157 -1.55468,-1.32422 0.8086,-4.90625 6.98047,-4.95703 10.0625,-0.0781 7.38281,11.04296 7.38281,11.04296"
     id="path256" />
  <path
     inkscape:connector-curvature="0"
     style="fill:none;stroke:#ffffff;stroke-width:0.75;stroke-linecap:round;stroke-linejoin:miter;stroke-miterlimit:10;stroke-opacity:1"
     d="m 115.37891,149.62109 c 0,0 -7.4961,2.17969 -9.70703,5.57813 -2.14454,3.30469 0.33984,5.99219 2.04296,6.1914"
     id="path258" />
  <path
     inkscape:connector-curvature="0"
     style="fill:none;stroke:#ffffff;stroke-width:0.75;stroke-linecap:round;stroke-linejoin:miter;stroke-miterlimit:10;stroke-opacity:1"
     d="m 541.19922,164.12891 c 0,0 -2.28516,-6.75782 -34.55859,-16.57422 -21.04688,-6.40235 -29.9336,-11.92188 -29.59376,-16.79688 0.21485,-3.10937 4.60547,-0.86328 4.8125,4.82813 0.19532,5.41015 0.0391,25.20703 0.0391,30.53906 0,8.26562 5.07422,10.14062 6.21875,8.55859 0.9961,-1.3789 -0.9375,-5.02343 -8.59765,-5.02343 l -69.72656,0"
     id="path260" />
  <path
     inkscape:connector-curvature="0"
     style="fill:none;stroke:#ffffff;stroke-width:0.75;stroke-linecap:round;stroke-linejoin:miter;stroke-miterlimit:10;stroke-opacity:1"
     d="m 499.86328,136.02734 c 1.63672,1.19922 0.50781,6.14063 -5.59375,3.7461 -8.50391,-3.34375 -10.37891,-5.88672 -11.40234,-8.9336 -1.20703,-3.58593 3.23437,-4.87109 3.23437,1.19922 0,6.07031 -0.35547,33.41406 -0.35547,33.41406 0.0352,3.83985 3.7461,5.47266 5.0586,4.35157 1.55468,-1.32422 -0.8086,-4.90625 -6.98047,-4.95703 -10.0625,-0.0781 -7.38281,11.04296 -7.38281,11.04296"
     id="path262" />
  <path
     inkscape:connector-curvature="0"
     style="fill:none;stroke:#ffffff;stroke-width:0.75;stroke-linecap:round;stroke-linejoin:miter;stroke-miterlimit:10;stroke-opacity:1"
     d="m 513.14062,149.62109 c 0,0 7.4961,2.17969 9.70704,5.57813 2.14453,3.30469 -0.33985,5.99219 -2.04297,6.1914"
     id="path264" />
  <path
     inkscape:connector-curvature="0"
     style="fill:none;stroke:#ffffff;stroke-width:0.75;stroke-linecap:round;stroke-linejoin:miter;stroke-miterlimit:10;stroke-opacity:1"
     d="m 255.08594,115.26953 c -0.92578,0.96485 -0.6836,3.73828 2.22265,4.00781 2.29688,0.21094 3.88672,-1.88281 3.48047,-4.3164 -0.72656,-4.32422 -6.32031,-5.54297 -17.04297,-2.59375 -10.11328,2.78515 -14.78125,4.49609 -26.68359,9.04297 -12.31641,4.71093 -22.04297,7.28906 -32.58203,8.68359 -11.875,1.56641 -21.97656,-0.33594 -22.375,-4.06641 -0.44531,-4.20703 15.625,-8.95703 31.1875,-8.64453 6.64844,0.13282 14.49609,1.45313 21.76172,3.07813 8.57812,1.91797 14.89453,3.5039 17.49609,3.625 11.98438,0.5625 8.03516,-6.57813 -3.54297,-3.5586 -5.49609,1.4375 -10.22656,3.55469 -20.28125,7.07422 -8.79687,3.07422 -20.48828,7.14063 -23.79297,1.08594 -1.86718,-3.42187 1.09766,-6.64062 3.94922,-6.55469 2.16406,0.0664 2.40625,1.75 2.40625,1.75"
     id="path266" />
  <path
     inkscape:connector-curvature="0"
     style="fill:none;stroke:#ffffff;stroke-width:0.75;stroke-linecap:round;stroke-linejoin:miter;stroke-miterlimit:10;stroke-opacity:1"
     d="m 251.17969,110.88281 15.76562,-1.37109 c 2.27735,-0.19141 2.21485,-2.17188 2.21485,-2.17188"
     id="path268" />
  <path
     inkscape:connector-curvature="0"
     style="fill:none;stroke:#ffffff;stroke-width:0.75;stroke-linecap:round;stroke-linejoin:miter;stroke-miterlimit:10;stroke-opacity:1"
     d="m 372.73047,115.26953 c 0.92578,0.96485 0.68359,3.73828 -2.22266,4.00781 -2.29687,0.21094 -3.89062,-1.88281 -3.48047,-4.3164 0.72657,-4.32422 6.32032,-5.54297 17.03907,-2.59375 10.11328,2.78515 14.78515,4.49609 26.6875,9.04297 12.3164,4.71093 22.03906,7.28906 32.58203,8.68359 11.87109,1.56641 21.97656,-0.33594 22.37109,-4.06641 0.44922,-4.20703 -15.625,-8.95703 -31.1875,-8.64453 -6.64844,0.13282 -14.49219,1.45313 -21.75781,3.07813 -8.57813,1.91797 -14.89844,3.5039 -17.4961,3.625 -11.98828,0.5625 -8.03515,-6.57813 3.54297,-3.5586 5.4961,1.4375 10.22657,3.55469 20.28125,7.07422 8.79688,3.07422 20.48438,7.14063 23.78907,1.08594 1.86718,-3.42187 -1.09375,-6.64062 -3.94532,-6.55469 -2.16797,0.0664 -2.41015,1.75 -2.41015,1.75"
     id="path270" />
  <path
     inkscape:connector-curvature="0"
     style="fill:none;stroke:#ffffff;stroke-width:0.75;stroke-linecap:round;stroke-linejoin:miter;stroke-miterlimit:10;stroke-opacity:1"
     d="m 376.63672,110.88281 -15.76953,-1.37109 c -2.27735,-0.19141 -2.21485,-2.17188 -2.21485,-2.17188"
     id="path272" />
  <path
     inkscape:connector-curvature="0"
     style="fill:none;stroke:#ffffff;stroke-width:0.75;stroke-linecap:round;stroke-linejoin:miter;stroke-miterlimit:10;stroke-opacity:1"
     d="m 23.25,27.679687 7.496094,20.843751"
     id="path274" />
  <path
     inkscape:connector-curvature="0"
     style="fill:none;stroke:#ffffff;stroke-width:0.75;stroke-linecap:round;stroke-linejoin:miter;stroke-miterlimit:10;stroke-opacity:1"
     d="M 23.25,27.679687 36.753906,45.035156"
     id="path276" />
  <path
     inkscape:connector-curvature="0"
     style="fill:none;stroke:#ffffff;stroke-width:0.75;stroke-linecap:round;stroke-linejoin:miter;stroke-miterlimit:10;stroke-opacity:1"
     d="M 23.25,27.679687 41.324219,39.699219"
     id="path278" />
  <path
     inkscape:connector-curvature="0"
     style="fill:none;stroke:#ffffff;stroke-width:0.75;stroke-linecap:round;stroke-linejoin:miter;stroke-miterlimit:10;stroke-opacity:1"
     d="m 23.25,27.679687 20.324219,6.593751"
     id="path280" />
  <path
     inkscape:connector-curvature="0"
     style="fill:none;stroke:#ffffff;stroke-width:0.75;stroke-linecap:round;stroke-linejoin:miter;stroke-miterlimit:10;stroke-opacity:1"
     d="m 135.39062,39.699219 c -3.6875,3.511719 -8.96874,-2.382813 -3.42968,-5.425781 8.58984,-4.71875 26.4375,-5.445313 26.4375,-5.445313 -12.17188,-0.117187 -89.796878,-0.199219 -102.167971,-0.199219 -12.371094,0 -32.746089,0.402344 -36.515629,-1.996093 -3.77343,-2.390625 -0.19921,-6.730469 2.19141,-3.140625 2.39844,3.589843 1.44922,11.625 1.37891,22.601562 -0.0586,9.0625 0,29.890625 0,29.890625 0,6.917969 -3.30469,9.3125 -3.30469,9.3125"
     id="path282" />
  <path
     inkscape:connector-curvature="0"
     style="fill:none;stroke:#ffffff;stroke-width:0.75;stroke-linecap:round;stroke-linejoin:miter;stroke-miterlimit:10;stroke-opacity:1"
     d="m 158.39844,28.828125 c 0,0 -23.63672,-1.101562 -58.10156,10.871094 -40.32813,14.011719 -36.417974,28.285156 -60.44532,26.617187 -7.37109,-0.511718 -6.58984,-8.808593 5.44531,-13.9375 13.820317,-5.886718 37.95313,2.769532 48.113286,4.671875 10.078124,1.882813 12.285154,-6.339843 6.398438,-7.6875 -5.773438,-1.320312 -21.015625,3.992188 -25.941407,7.832032 0,0 -13.484375,-3.988282 -22.761717,-2.089844 C 41.82812,57 42.25,62.160156 49.68359,60.417969 53.20312,59.59375 64.789062,55.023438 70.871094,46.941406 c 5.019531,-6.664062 1.648437,-12.429687 -2.3125,-12.65625 -4.367188,-0.246093 -7.121094,2.996094 -6.519532,6.066407 0.597657,3.070312 3.667969,3.070312 3.667969,3.070312"
     id="path284" />
  <path
     inkscape:connector-curvature="0"
     style="fill:none;stroke:#ffffff;stroke-width:0.75;stroke-linecap:round;stroke-linejoin:miter;stroke-miterlimit:10;stroke-opacity:1"
     d="m 603.54687,27.679687 -7.49609,20.843751"
     id="path286" />
  <path
     inkscape:connector-curvature="0"
     style="fill:none;stroke:#ffffff;stroke-width:0.75;stroke-linecap:round;stroke-linejoin:miter;stroke-miterlimit:10;stroke-opacity:1"
     d="m 603.54687,27.679687 -13.5039,17.355469"
     id="path288" />
  <path
     inkscape:connector-curvature="0"
     style="fill:none;stroke:#ffffff;stroke-width:0.75;stroke-linecap:round;stroke-linejoin:miter;stroke-miterlimit:10;stroke-opacity:1"
     d="M 603.54687,27.679687 585.47266,39.699219"
     id="path290" />
  <path
     inkscape:connector-curvature="0"
     style="fill:none;stroke:#ffffff;stroke-width:0.75;stroke-linecap:round;stroke-linejoin:miter;stroke-miterlimit:10;stroke-opacity:1"
     d="m 603.54687,27.679687 -20.32421,6.593751"
     id="path292" />
  <path
     inkscape:connector-curvature="0"
     style="fill:none;stroke:#ffffff;stroke-width:0.75;stroke-linecap:round;stroke-linejoin:miter;stroke-miterlimit:10;stroke-opacity:1"
     d="m 491.40625,39.699219 c 3.68359,3.511719 8.96875,-2.382813 3.42969,-5.425781 -8.58985,-4.71875 -26.4375,-5.445313 -26.4375,-5.445313 12.17187,-0.117187 89.79687,-0.199219 102.16797,-0.199219 12.37109,0 32.74609,0.402344 36.51562,-1.996093 3.76953,-2.390625 0.19922,-6.730469 -2.19531,-3.140625 -2.39453,3.589843 -1.44531,11.625 -1.375,22.601562 0.0547,9.0625 0,29.890625 0,29.890625 0,6.917969 3.30469,9.3125 3.30469,9.3125"
     id="path294" />
  <path
     inkscape:connector-curvature="0"
     style="fill:none;stroke:#ffffff;stroke-width:0.75;stroke-linecap:round;stroke-linejoin:miter;stroke-miterlimit:10;stroke-opacity:1"
     d="m 468.39844,28.828125 c 0,0 31.22265,-0.125 57.6914,8.175781 33.86328,10.613282 35.36328,30.515625 60.85547,29.3125 7.38281,-0.347656 6.58985,-8.808593 -5.44922,-13.9375 -13.8164,-5.886718 -37.03515,-1.609375 -48.93359,0.34375 -10.11719,1.660157 -13.55469,-6.492187 -6.39453,-7.6875 5.83984,-0.972656 20.32812,6.195313 25.2539,10.035157 0,0 14.99219,-1.863282 24.26954,0.03516 9.27734,1.894531 8.85546,7.054687 1.42187,5.3125 -3.51953,-0.824219 -15.10547,-5.394531 -21.19141,-13.476563 -5.01562,-6.664062 -1.64453,-12.429687 2.31641,-12.65625 4.36719,-0.246093 7.12109,2.996094 6.51953,6.066407 -0.59765,3.070312 -3.66797,3.070312 -3.66797,3.070312"
     id="path296" />
  <path
     inkscape:connector-curvature="0"
     style="fill:none;stroke:#ffffff;stroke-width:0.75;stroke-linecap:round;stroke-linejoin:miter;stroke-miterlimit:10;stroke-opacity:1"
     d="m 76.183594,171.89844 c 0,0 -3.191406,-2.26172 -8.976563,-2.26172 l -38.78125,0 c -5.351562,0 -7.8125,0.45312 -9.335937,1.53906 -2.820313,2 -0.230469,5.45313 2.222656,2.58594 1.660156,-1.9375 1.972656,-8.31641 1.972656,-9.8125 l 0,-8.91406 c 0,-6.6836 -2.574218,-10.27344 -2.574218,-10.27344"
     id="path298" />
  <path
     inkscape:connector-curvature="0"
     style="fill:none;stroke:#ffffff;stroke-width:0.75;stroke-linecap:round;stroke-linejoin:miter;stroke-miterlimit:10;stroke-opacity:1"
     d="m 23.816406,169.63672 13.796875,-4.6875"
     id="path300" />
  <path
     inkscape:connector-curvature="0"
     style="fill:none;stroke:#ffffff;stroke-width:0.75;stroke-linecap:round;stroke-linejoin:miter;stroke-miterlimit:10;stroke-opacity:1"
     d="M 23.6875,169.63672 35.125,160.60156"
     id="path302" />
  <path
     inkscape:connector-curvature="0"
     style="fill:none;stroke:#ffffff;stroke-width:0.75;stroke-linecap:round;stroke-linejoin:miter;stroke-miterlimit:10;stroke-opacity:1"
     d="m 23.503906,169.60156 7.8125,-12.30469"
     id="path304" />
  <path
     inkscape:connector-curvature="0"
     style="fill:none;stroke:#ffffff;stroke-width:0.75;stroke-linecap:round;stroke-linejoin:miter;stroke-miterlimit:10;stroke-opacity:1"
     d="m 23.285156,169.63672 4.15625,-13.96875"
     id="path306" />
  <path
     inkscape:connector-curvature="0"
     style="fill:none;stroke:#ffffff;stroke-width:0.75;stroke-linecap:round;stroke-linejoin:miter;stroke-miterlimit:10;stroke-opacity:1"
     d="m 549.76172,171.89844 c 0,0 3.19531,-2.26172 8.98047,-2.26172 l 38.77734,0 c 5.35547,0 7.8125,0.45312 9.33594,1.53906 2.82031,2 0.23437,5.45313 -2.22266,2.58594 -1.65625,-1.9375 -1.97265,-8.31641 -1.97265,-9.8125 l 0,-8.91406 c 0,-6.6836 2.57421,-10.27344 2.57421,-10.27344"
     id="path308" />
  <path
     inkscape:connector-curvature="0"
     style="fill:none;stroke:#ffffff;stroke-width:0.75;stroke-linecap:round;stroke-linejoin:miter;stroke-miterlimit:10;stroke-opacity:1"
     d="m 602.12891,169.63672 -13.79688,-4.6875"
     id="path310" />
  <path
     inkscape:connector-curvature="0"
     style="fill:none;stroke:#ffffff;stroke-width:0.75;stroke-linecap:round;stroke-linejoin:miter;stroke-miterlimit:10;stroke-opacity:1"
     d="m 602.25781,169.63672 -11.4375,-9.03516"
     id="path312" />
  <path
     inkscape:connector-curvature="0"
     style="fill:none;stroke:#ffffff;stroke-width:0.75;stroke-linecap:round;stroke-linejoin:miter;stroke-miterlimit:10;stroke-opacity:1"
     d="m 602.44141,169.60156 -7.8125,-12.30469"
     id="path314" />
  <path
     inkscape:connector-curvature="0"
     style="fill:none;stroke:#ffffff;stroke-width:0.75;stroke-linecap:round;stroke-linejoin:miter;stroke-miterlimit:10;stroke-opacity:1"
     d="m 602.66016,169.63672 -4.15625,-13.96875"
     id="path316" />
  <path
     inkscape:connector-curvature="0"
     style="fill:none;stroke:#ffffff;stroke-width:0.75;stroke-linecap:round;stroke-linejoin:miter;stroke-miterlimit:10;stroke-opacity:1"
     d="m 449.78906,28.136719 c 0,0 1.77735,5.925781 -7.59765,4.101562 -9.20313,-1.789062 -64.90625,-9.117187 -126.70703,-10.691406 l -2.61329,-2.496094 -2.42578,2.464844 c -46.69922,0 -88.27734,4.230469 -110.1289,7.035156 l -6.3086,0.929688"
     id="path318" />
  <path
     inkscape:connector-curvature="0"
     style="fill:none;stroke:#ffffff;stroke-width:0.75;stroke-linecap:round;stroke-linejoin:miter;stroke-miterlimit:10;stroke-opacity:1"
     d="M 312.87109,19.050781 312.97656,6.507813"
     id="path320" />
  <path
     inkscape:connector-curvature="0"
     style="fill:none;stroke:#ffffff;stroke-width:0.75;stroke-linecap:round;stroke-linejoin:miter;stroke-miterlimit:10;stroke-opacity:1"
     d="M 312.27344,19.285156 308.28125,7.324219"
     id="path322" />
  <path
     inkscape:connector-curvature="0"
     style="fill:none;stroke:#ffffff;stroke-width:0.75;stroke-linecap:round;stroke-linejoin:miter;stroke-miterlimit:10;stroke-opacity:1"
     d="M 311.76562,19.835937 303.92187,9.789063"
     id="path324" />
  <path
     inkscape:connector-curvature="0"
     style="fill:none;stroke:#ffffff;stroke-width:0.75;stroke-linecap:round;stroke-linejoin:miter;stroke-miterlimit:10;stroke-opacity:1"
     d="M 311.11328,20.339844 300.59766,13.578125"
     id="path326" />
  <path
     inkscape:connector-curvature="0"
     style="fill:none;stroke:#ffffff;stroke-width:0.75;stroke-linecap:round;stroke-linejoin:miter;stroke-miterlimit:10;stroke-opacity:1"
     d="M 310.90625,21.046875 298.94531,17.441406"
     id="path328" />
  <path
     inkscape:connector-curvature="0"
     style="fill:none;stroke:#ffffff;stroke-width:0.75;stroke-linecap:round;stroke-linejoin:miter;stroke-miterlimit:10;stroke-opacity:1"
     d="M 313.44922,19.601562 317.66016,7.308594"
     id="path330" />
  <path
     inkscape:connector-curvature="0"
     style="fill:none;stroke:#ffffff;stroke-width:0.75;stroke-linecap:round;stroke-linejoin:miter;stroke-miterlimit:10;stroke-opacity:1"
     d="M 313.90625,20.039062 321.99219,9.824219"
     id="path332" />
  <path
     inkscape:connector-curvature="0"
     style="fill:none;stroke:#ffffff;stroke-width:0.75;stroke-linecap:round;stroke-linejoin:miter;stroke-miterlimit:10;stroke-opacity:1"
     d="m 314.58203,20.359375 10.69141,-6.707031"
     id="path334" />
  <path
     inkscape:connector-curvature="0"
     style="fill:none;stroke:#ffffff;stroke-width:0.75;stroke-linecap:round;stroke-linejoin:miter;stroke-miterlimit:10;stroke-opacity:1"
     d="m 326.88281,17.597656 -11.99219,3.378907"
     id="path336" />
  <path
     inkscape:connector-curvature="0"
     style="fill:none;stroke:#ffffff;stroke-width:0.75;stroke-linecap:round;stroke-linejoin:miter;stroke-miterlimit:10;stroke-opacity:1"
     d="m 176.87109,26.859375 c 0,0 -1.77343,5.921875 7.59766,4.101563 1.69141,-0.332032 4.95312,-0.847657 9.53906,-1.480469"
     id="path338" />
</svg>
