<?xml version="1.0" encoding="utf-8"?>
<!-- Generator: Adobe Illustrator 18.1.1, SVG Export Plug-In . SVG Version: 6.00 Build 0)  -->
<!DOCTYPE svg PUBLIC "-//W3C//DTD SVG 1.1//EN" "http://www.w3.org/Graphics/SVG/1.1/DTD/svg11.dtd">
<svg version="1.1" id="Layer_1" xmlns="http://www.w3.org/2000/svg" xmlns:xlink="http://www.w3.org/1999/xlink" x="0px" y="0px"
	 viewBox="0 0 612 792" enable-background="new 0 0 612 792" xml:space="preserve">
<g>
	<g>
		<path fill="#FFFFFF" d="M478.4,326c0.2,0.7,0.5,1.5,0.7,2.4c-0.5-1.5-0.8-2.5-0.8-2.8L478.4,326z"/>
		<path fill="#FFFFFF" d="M152.1,322.8l-0.1-0.5l-1.6-2.6l0.2,1c0.2,1.1,1.7,6,2.1,7.1l0.3,0.9l-2.9,0.8c-3.6,1.1-5.2,2.4-5.7,8.1
			c-0.3,2.9-0.6,7.3-1,12.7c0.5,0.4,1,0.9,1.5,1.2c0.3-4.9,0.6-9.2,0.9-12c0.6-5.9,2.3-7.4,6.1-8.5l2.4-0.7l-0.2-0.4
			C153.8,328.9,152.4,323.9,152.1,322.8z"/>
		<path fill="#FFFFFF" d="M95.5,345.9c-0.7,0-1.6,0.2-2.7,0.5l-2.6,0.8l2.3,1.4l2.1-0.6c1.9-0.6,3.2-0.6,4.4-0.2
			C97.9,346.5,96.9,345.9,95.5,345.9z"/>
		<path fill="#FFFFFF" d="M147.3,353.9c0,0-3.2,2.3-4.3,4.1c-0.5,10-0.8,19.5-0.8,25.5v0.7l-0.7,0.2c-2.4,0.6-11.9,3.4-14.3,4.2
			l-0.4,0.1c-0.2,0.1-0.3,0.1-0.3,0.1l2.2,1.4l0.3-0.1c2.4-0.8,11.9-3.6,14.3-4.2l0.3-0.1v-0.3c0-6.4,0.3-16.3,0.8-25.7
			c1.1-1.9,4.5-4.3,4.5-4.3l-1.1-2.1l0,0l0,0L147.3,353.9z"/>
		<path fill="#FFFFFF" d="M112.6,367.1c-0.7-1-4.4-1.4-6.6-1.4h-0.7l2.7,1.5c0,0,2.9,0,5.1,0.6c-0.1-0.2-0.2-0.4-0.4-0.6
			C112.7,367.2,112.7,367.2,112.6,367.1z"/>
		<path fill="#FFFFFF" d="M131.7,335.2c-0.4,0-1,0.1-1.6,0.3l-2.9,0.9l0,0l0,0l2.4,1.4l2.4-0.7c0.7-0.2,1.2-0.3,1.7-0.3
			C133.3,335.5,132.6,335.2,131.7,335.2z"/>
		<path fill="#FFFFFF" d="M122.3,336.7l0.4,0.9l-3.4,1c-1.1,0.3-1.7,0.8-2,1.5c-0.4,1.1,0,2.8,1.3,5.1c3.4,5.5,10.6,16.4,15,23.1
			v-0.1c-4.5-6.7-10.4-15.9-13.5-20.8c-1.4-2.4-1.8-4.3-1.3-5.5c0.3-0.8,1.1-1.4,2.3-1.8l2.8-0.8l-0.2-0.4c-0.4-1.1-1.9-6.1-2.1-7.2
			l-0.1-0.5l-1.6-2.6l0.2,1C120.5,330.7,121.9,335.6,122.3,336.7z"/>
		<path fill="#FFFFFF" d="M223.3,346.3l-1.6-3.1l0.1,1.1c0.4,6.4,1.8,16.3,2.8,22.7l0.2,1l-1,0.1c-4.5,0.4-13.2,1.7-17.6,2.4
			l-21.5,3.4c-3.8,0.6-10.9,1.8-13.5,2.3c-1.1,0.2-1.8,0.3-1.9,0.3l-0.9,0.1h-0.1l2.4,1.4l0.4-0.1c0.1,0,0.9-0.1,1.9-0.3
			c3.2-0.6,9.8-1.7,13.5-2.3l21.5-3.4c4.4-0.7,13.1-2,17.6-2.4h0.5L226,369C225.1,362.6,223.7,352.8,223.3,346.3z"/>
		<path fill="#FFFFFF" d="M165.6,326.7c-0.3,0-0.7,0-1.1,0.1l-4.2,0.7l0,0l2.4,1.4l3.7-0.6c0.4-0.1,0.8-0.1,1.2-0.1
			c0.2,0,0.4,0,0.6,0C167.5,326.9,166.6,326.7,165.6,326.7z"/>
		<path fill="#FFFFFF" d="M203,332.2c0.3,2.4,0.5,4.5,1.1,8.5c0.9,5.8,1.5,8.3,2.3,12.2l0.3,1.5l-1,0.1c-0.3,0-3.2,0.4-5.8,0.9
			l-1,0.2l2.4,1.4l0.4-0.1c2.8-0.6,5.8-0.9,5.8-0.9l0.5-0.1l-0.2-1c-0.9-3.9-1.4-6.4-2.3-12.2c-0.6-4-0.9-6-1.1-8.5
			c-0.1-1.2-0.3-2.5-0.5-4.1l-1.6-3l0.1,0.9C202.8,329.7,202.9,330.9,203,332.2z"/>
		<path fill="#FFFFFF" d="M199,355.5L199,355.5L199,355.5z"/>
		<path fill="#FFFFFF" d="M192.6,346.1c-0.7,0-1.6,0.1-2.5,0.2l-1.6,0.3c1,6,1.8,10.8,2.3,12.6c0.4,1.9,1,2.8,1.8,3.2
			c-0.1-0.3-0.2-0.7-0.3-1.1c-0.5-1.9-1.4-6.9-2.4-13.2l2.1-0.3c1-0.2,1.8-0.2,2.6-0.2c0.9,0,1.6,0.1,2.3,0.3
			C196,346.6,194.6,346.1,192.6,346.1z"/>
		<path fill="#FFFFFF" d="M218.8,330.9l0.2,0.9l-9.4,1.5l2.4,1.4l8.4-1.3l-0.1-0.4c-1-5.7-2.3-15.1-2.9-21.3v-0.5l-1.6-2.6l0.1,1.1
			C216.5,315.9,217.8,325.3,218.8,330.9z"/>
		<path fill="#FFFFFF" d="M201,321.4c-1,0-2.1,0.1-3.4,0.3l-8.8,1.4c-2.5,0.4-3.4,1.7-3.2,4.3c0.2,2.1,0.8,6.8,1.7,12.4l1.2-0.2
			c-0.7-4.6-1.2-8.3-1.4-10.2c-0.3-2.9,0.8-4.4,3.6-4.9l8.8-1.4c1.4-0.2,2.5-0.3,3.5-0.3c1.2,0,2.2,0.1,3.2,0.5
			C204.8,321.8,203.1,321.4,201,321.4z"/>
		<path fill="#FFFFFF" d="M297.2,346.9l-1.6-2.6c0,0,0,0,0,0.1l0.2,0.8c1.3,4.7,2.3,11.2-1,15.8c-2.2,3-5.8,4.7-10.8,5
			c-0.6,0-1.1,0-1.6,0l0,0c-3.2,0-5.7-0.6-7.7-1.6c2.4,2.2,5.9,3.3,11.2,3c4.8-0.2,8.3-1.8,10.4-4.8c3.2-4.5,2.3-10.8,1-15.4
			L297.2,346.9z"/>
		<path fill="#FFFFFF" d="M261.6,315c-0.3,0-0.6,0-1,0l-2.8,0.1c-1.6,0.1-2.2,0.7-2.2,2.5c0,0.3,0.1,7.4,0.5,15.2l1.4-0.1
			c-0.3-6.7-0.4-12.4-0.4-13.1c0-2.1,0.7-2.9,2.7-3l2.8-0.1c0.3,0,0.7,0,1,0c1.5,0,2.7,0.2,3.7,0.6C266.1,315.6,264.3,315,261.6,315
			z"/>
		<path fill="#FFFFFF" d="M235.4,316.7l-4.5,0.2l2.3,1.5l4.2-0.2c0.4,0,0.7,0,1.1,0C237.9,316.8,237,316.6,235.4,316.7z"/>
		<path fill="#FFFFFF" d="M258.3,340.3l-1.7,0.1c0.3,5.6,0.6,10,0.8,11.5c0.3,2.1,0.9,3.1,1.8,3.6c-0.1-0.5-0.3-1-0.3-1.5
			c-0.2-1.6-0.6-6.1-0.9-12l2.2-0.1c1.9-0.1,3.6,0,4.9,0.5C263.6,340.4,261.3,340.1,258.3,340.3z"/>
		<path fill="#FFFFFF" d="M276.9,336.4c0.9,0.3,1.8,0.8,2.5,1.3c6.2-2.5,9.9-7.8,9.5-14.5c-0.2-3.6-1.3-6.5-3.3-8.9
			c1.1,2,1.7,4.2,1.8,6.8C287.8,328.2,283.8,334,276.9,336.4z"/>
		<path fill="#FFFFFF" d="M288.4,355.6c-0.5-1.3-1-3.2-1.5-5.9c-0.6-3.3-1.7-5.8-3.4-7.7c0.8,1.6,1.5,3.4,1.9,5.6
			C286.4,353.5,287.4,355.2,288.4,355.6z"/>
		<path fill="#FFFFFF" d="M264.7,365.1c-0.1,0-12.6,0.5-15.2,0.6c-5,0.3-13.6,0.8-15.2,0.9l-0.8,0.1c0,0-0.1,0-0.2,0l2.5,1.5h0.4
			c0.1,0,9.8-0.7,15.3-0.9c2.6-0.1,15.1-0.6,15.2-0.6h0.4l-0.4-8.5l-1.5-2.5v0.2l0.5,9.3L264.7,365.1z"/>
		<path fill="#FFFFFF" d="M237.4,340.4c0,0,0.3,0.2,0.7,0.4C237.9,340.7,237.7,340.5,237.4,340.4
			C237.5,340.4,237.4,340.4,237.4,340.4z"/>
		<path fill="#FFFFFF" d="M309.7,314.1l-4.5-0.1l2.5,1.5l4,0.1c0.3,0,0.5,0,0.8,0.1C311.9,314.4,311,314.1,309.7,314.1z"/>
		<path fill="#FFFFFF" d="M356.9,340.3c-0.5,5.7-1.2,18.3-1.2,24.3v1l-1-0.1c-5.1-0.5-13-0.7-16.8-0.9l-19.2-0.6
			c-3.4-0.1-10.9-0.3-14.3-0.3h-0.9l2.5,1.5h0.4c3.3,0,10.8,0.2,14.3,0.3l19.1,0.6c3.8,0.1,11.8,0.4,16.9,0.9h0.5v-0.5
			c0-6,0.7-18.6,1.2-24.3v-0.5l-1.5-2.5V340.3z"/>
		<path fill="#FFFFFF" d="M328.7,340.4c-0.1,5.3-0.2,9.3-0.2,11.1c0,1.9,0.5,2.8,1.6,3.2c-0.1-0.4-0.1-0.8-0.1-1.2
			c0-2,0.1-6.3,0.2-11.2c0.3-1.9,5.2-4.8,5.2-4.8l-1.1-2l-0.7,0.4C331.8,337.1,328.9,339.2,328.7,340.4z"/>
		<path fill="#FFFFFF" d="M338.1,314v0.9l-4.3-0.1c-0.2,0-0.3,0-0.4,0c-2.5,0-3.5,1-3.7,3.9c-0.1,1.6-0.3,5.9-0.5,11.8
			c0.1,0.6,0.7,1.3,1.5,2.1l0,0c0.2-5.4,0.4-10.1,0.6-11.9c0.3-3.3,1.5-4.5,4.7-4.3l3.8,0.1v-0.4c0.1-1.9,0.2-6.5,0.3-7.5v-0.5
			l-1.5-2.5l-0.1,1C338.3,307.6,338.1,312.5,338.1,314z"/>
		<path fill="#FFFFFF" d="M391.2,360.4c-0.1,0.6-0.3,2.2-0.5,3.8l-0.1,0.4c-0.2,1.5-0.4,3-0.5,3.5L390,369l-0.9-0.1
			c-0.1,0-8.4-1.3-13-1.9s-13-1.6-13.1-1.6l-0.5-0.1c-0.2,0-0.3,0-0.4,0l2.6,1.6h0.4c0.1,0,8.5,1,13.1,1.6s13,1.9,13,1.9l0.4,0.1
			l0.1-0.4c0.1-0.6,0.3-2.2,0.5-3.8c0.2-1.6,0.5-3.2,0.5-3.8l0.1-0.4l-1.4-2.4l0,0l0,0L391.2,360.4z"/>
		<path fill="#FFFFFF" d="M422,349.7c0.8,3.3,1.5,5.8,1.9,7.4c1,3.5,1.9,5.3,3,6.3c-0.5-1.1-1-2.4-1.5-4.2c-0.4-1.6-1.1-4.3-2-7.6
			c1-2,3.7-4.5,3.7-4.5l-1.1-2.2l-0.6,0.5C425.6,345.5,423.1,347.9,422,349.7z"/>
		<path fill="#FFFFFF" d="M413.1,312.4c1.1,5.1,3.6,15.7,6.7,28.4l0.1,0.1c0.1,0.4,0.6,1,1.3,1.5c-2.5-10.2-5.4-22-6.6-27.9v-0.1
			c-0.1-0.2-1.2-1.9-1.7-2.5c0.1,0.1,0.1,0.1,0.2,0.2V312.4z"/>
		<path fill="#FFFFFF" d="M412.7,311.8L412.7,311.8L412.7,311.8z"/>
		<polygon fill="#FFFFFF" points="397.3,338.2 397.4,338.4 399.5,344.7 400.4,344.9 399.1,341.2 		"/>
		<path fill="#FFFFFF" d="M385.3,352.1c-1.2,2.6-1.5,4.4-1,5.5c0.2,0.4,0.7,0.8,1.3,1c-0.1-1.2,0.4-2.7,1.3-4.7c0,0,1.2-2.4,2.9-5.7
			l-1.5-1.8L385.3,352.1z"/>
		<polygon fill="#FFFFFF" points="388.6,356 388.6,356 388.6,356 391.4,357.2 397.2,355.1 395.1,353.6 		"/>
		<polygon fill="#FFFFFF" points="400.5,350.7 400.8,357.6 402.2,358.7 402,352.5 404.2,350.9 403.7,348.5 		"/>
		<path fill="#FFFFFF" d="M398.7,325.9c-1.7,3.3-5.7,11.1-9.1,17.8l2.4,0.1c2.6-5.1,5.6-11,7.5-14.6
			C399.2,328,398.9,326.8,398.7,325.9z"/>
		<path fill="#FFFFFF" d="M433.2,365.1l-1.3,9.5l-0.9-0.1c-1.9-0.3-11.3-1.7-16.8-2.4c-6-0.8-16.5-2-16.9-2.1l-0.9-0.1l0,0l2.6,1.6
			l0.4,0.1c0.1,0,10.9,1.3,17,2.1c6,0.8,16.7,2.4,16.8,2.4l0.4,0.1l1.1-8.5L433.2,365.1L433.2,365.1z"/>
		<path fill="#FFFFFF" d="M100.8,366.2L100.8,366.2l-0.5,0.6c-1.3,1.8-3.1,5-2.7,6.1v0.2c6.7,21.8-1.9,39.6-23.6,48.8
			c-7.3,3.1-14.1,4.6-20.1,4.6l0,0c-6.2,0-11.8-1.6-16.8-4.8c10.2,7.9,23.2,8.3,38.7,1.7c19.8-8.3,30.5-24.8,23.3-48.2
			c0,0,0,0,0-0.1c-0.6-1.8,2.8-6.6,2.8-6.6L100.8,366.2z"/>
		<path fill="#FFFFFF" d="M48.7,389.8l-1.2-2.4l-0.4,0.6c-0.8,1.2-2.8,4.5-2.7,5.9c2.3,5.1,4.5,9.1,6.7,12c-1.7-2.7-3.4-5.9-5.2-9.8
			C45.7,394.2,48.7,389.8,48.7,389.8z"/>
		<path fill="#FFFFFF" d="M45.7,354.6c-10.2,4.3-11.6,13.1-5,30.6c0.2,0.2,0.6,0.4,1,0.6c-6-16.6-4.3-25.4,5.8-29.7
			c5.1-2.1,9.3-2.3,13.1-0.1c-2.5-2.1-5.1-3.1-7.9-3.1C50.6,352.9,48.3,353.5,45.7,354.6z"/>
		<path fill="#FFFFFF" d="M94.7,364.3c-1.5-3.1-3.2-5.8-4.9-8.2c1.5,2.3,2.9,4.9,4.2,7.7C94.2,363.9,94.4,364.1,94.7,364.3z"/>
		<path fill="#FFFFFF" d="M528.4,341.8l-4.8-1.8l2.6,1.7l4.4,1.7c0.3,0.1,0.5,0.2,0.7,0.3C530.7,342.9,529.8,342.3,528.4,341.8z"/>
		<path fill="#FFFFFF" d="M499.3,404.8L499.3,404.8L499.3,404.8z"/>
		<path fill="#FFFFFF" d="M597.6,397.8l-0.7,0.2c0,0-4.2,0.9-5.7,2.2c-6.9,15.8-17.5,23.8-31.7,23.8c-5.5,0-11.5-1.2-17.8-3.6
			c-0.1-0.1-14.2-5.4-21-8c-6.6-2.5-20.6-7.5-20.8-7.5l-0.5-0.2l2.6,1.7c0,0,14.1,5,20.8,7.5c6.9,2.6,21,8,21,8
			c20,7.5,38.5,4.3,49-20.1c1.6-1.4,6.1-2.4,6.1-2.4S598.2,398.8,597.6,397.8z"/>
		<path fill="#FFFFFF" d="M594.2,391.7c0.2,1.6,2.2,4.5,2.9,5.5l0.3,0.4c-0.8-1.3-1.6-2.8-1.7-4c4.1-13.7,3.3-24.2-3.4-32.5
			C597.5,369.1,598,379.1,594.2,391.7z"/>
		<path fill="#FFFFFF" d="M537.3,402.9c1.2-3.5,4-11.4,7.1-19.7c0,0,0,0,0.1-0.1c0.7-1.7,6.5-3,6.5-3s-0.5-0.7-1.2-1.7l-0.7,0.2
			c-2.1,0.5-5.7,1.6-6.2,2.7l-0.1,0.1c-3.2,8.8-5.9,16.3-7,19.6c-0.8,2.3-0.3,4.1,1.3,5.2C536.9,405.3,536.9,404.2,537.3,402.9z"/>
		<path fill="#FFFFFF" d="M558.6,352.9c-2.7-1-4.5-0.3-5.6,2.2c-1.2,2.7-3.5,8.5-6.5,16.6l0,0c-0.4,1.2,1.6,4.3,2.9,6.1l0.3,0.3
			c-0.9-1.5-1.9-3.5-1.6-4.5l0,0c2.7-7.3,5.3-13.7,6.5-16.7c1-2.2,2.8-3.8,6.2-2.5l3.7,1.4c2.3,0.8,4.2,1.8,5.9,2.8
			c-2-1.7-4.7-3.1-8.1-4.4L558.6,352.9z"/>
		<path fill="#FFFFFF" d="M479.1,328.4c2.9,9.5,8,25,11.5,35.4c0.1-0.4,0.2-0.8,0.4-1.3c-3.8-11.3-8.7-26.3-11.1-34.4l-1.7-2.7v0.1
			C478.4,325.9,478.7,326.9,479.1,328.4z"/>
		<path fill="#FFFFFF" d="M493.3,339.6l-5-1.4l2.5,1.6l4.6,1.3c0.1,0,0.3,0.1,0.4,0.1C495.4,340.4,494.5,339.9,493.3,339.6z"/>
		<path fill="#FFFFFF" d="M455.9,329l-4.3-1.2l2.6,1.7l3.9,1.1c0.1,0,0.2,0.1,0.3,0.1C457.9,329.9,457.1,329.3,455.9,329z"/>
		<path fill="#FFFFFF" d="M459.6,367.8c-0.5,2.2-0.2,3.4,1.3,4.3c-0.1-0.7,0-1.4,0.2-2.4c0.7-3.1,3.7-13.8,6.2-22.6
			c-0.4-1.1-0.7-2.3-1.1-3.3C463.6,352.9,460.4,364.6,459.6,367.8z"/>
		<path fill="#FFFFFF" d="M465.2,382.4l-0.2,1l-1.2-0.4c-3.1-0.9-8.8-2.7-12.3-3.7c-4.4-1.2-11.9-3.2-12.7-3.4l-0.5-0.1
			c-0.3-0.1-0.5-0.1-0.5-0.1l2.6,1.6l0.4,0.1c0.1,0,8.2,2.1,12.7,3.4s12.5,3.7,12.6,3.7l0.4,0.1l0.1-0.4c0.8-3.6,2.1-7.3,2.1-7.4
			l0.1-0.4l-1.4-2.3l-0.3,0.9C467.1,375.8,466,379.2,465.2,382.4z"/>
		<path fill="#FFFFFF" d="M517.4,337.7c-0.4,1.1-1.8,6-2,7.1l-0.2,1l-4.5-1.3c-0.6-0.2-1.1-0.3-1.6-0.3c-1.6,0-2.6,1-3.5,3.4
			c-0.5,1.3-1.6,5-3.1,10.3c0,1.1,1.3,3,2.4,4.4c-0.5-0.9-0.9-1.8-0.9-2.4c1.4-5,2.6-8.9,3.1-10.4c0.9-2.6,2.1-3.8,3.9-3.8
			c0.5,0,1.1,0.1,1.7,0.3l4,1.1l0.1-0.5c0.2-1.1,1.7-6.1,2-7.2v-0.1c0-0.3-1-1.9-1.6-2.5c0.1,0.1,0.1,0.3,0.1,0.5L517.4,337.7z"/>
		<path fill="#FFFFFF" d="M501.4,369.4c0.6-1.8,6.2-3.5,6.2-3.5l-1.1-1.8l0,0l0,0l-0.8,0.2c-2.1,0.6-5.5,2.1-5.9,3.2l-0.1,0.1
			c-2.6,9.2-4.9,17.7-6.2,22.6l-0.3,1l-1-0.3c-2.7-0.9-8.8-2.7-11.6-3.3l-0.5-0.1l2.4,1.6l0.2,0.1c2.8,0.6,8.9,2.4,11.7,3.3l0.4,0.2
			l0.1-0.5C496.5,386.9,499,377.9,501.4,369.4C501.4,369.5,501.4,369.5,501.4,369.4z"/>
		<path fill="#FFFFFF" d="M296,352c0,1.2-0.1,2.4-0.2,3.6C296,354.4,296,353.2,296,352z"/>
	</g>
	<g>
		<g>
			<path fill="#FFFFFF" d="M147,321.8L147,321.8c-2.5,0.8-6.1,2-9,2.8c-3.9,1.2-11.3,3.1-12.2,3.3c0.2,0.5,1.3,3.8,2.1,7.1l1.9-0.6
				c0.7-0.2,1.4-0.3,1.9-0.3c2.7,0,3.4,2.6,3.6,6.4c0.3,6.9-0.4,22.2-0.8,29.3l-0.1,1.5l-0.8-1.2c-4.4-6.5-12.3-18.5-15.9-24.4
				c-1.4-2.6-1.9-4.6-1.3-6c0.4-1,1.3-1.6,2.7-2.1l2.3-0.7c-0.4-1.2-1.8-5.9-2.1-7.1c-0.4,0.1-1.4,0.4-2.8,0.9l-0.4,0.1
				c-3.3,1.1-8.4,2.6-12,3.7c-5,1.5-14,3.9-15.2,4.2c0.2,0.5,1.3,3.8,2.1,7.1l1.6-0.5c1.2-0.3,2.1-0.5,3-0.5c2.5,0,4,1.4,6.2,4.4
				c1.5,2,3.8,5.3,6.6,9.6l0.1,0.1v0.1c0.1,1.7-1,4.4-1.6,5.7c1.7,0.1,5.5,0.4,6.6,1.8l0.1,0.1c5.5,8.3,10.7,16.3,13.5,20.9
				c2.5-0.8,11.8-3.5,14.2-4.2c0-6.1,0.3-15.6,0.8-25.6v-0.1l0.1-0.1c0.8-1.5,2.9-3.2,4-4c-0.9-0.5-2.4-1.5-3.5-2.6l-0.2-0.2v-0.2
				c0.3-5.6,0.7-10.1,1-13c0.6-6.2,2.5-7.8,6.4-8.9l1.8-0.5c-0.4-1.2-1.8-5.9-2.1-7.1C149.2,321.1,148.2,321.4,147,321.8z"/>
		</g>
		<g>
			<path fill="#FFFFFF" d="M212.8,345.7c0.9,5.7,0.7,9.4-0.6,11.9c-1.3,2.6-3.9,4-8.2,4.7l-8.6,1.4c-0.5,0.1-0.9,0.1-1.3,0.1
				c-2.4,0-3.7-1.3-4.4-4.3c-0.5-1.9-1.4-7-2.4-13.2l-0.1-0.5l2.6-0.4c1-0.2,1.9-0.2,2.7-0.2c4.1,0,6,2,6.9,7.4l0.3,1.8
				c2.5-0.5,5.1-0.8,5.8-0.9l-0.1-0.4c-0.9-3.8-1.4-6.4-2.3-12.2c-0.6-3.9-0.9-6-1.1-8.5c-0.1-1.2-0.3-2.5-0.5-4.1
				c-0.4,0.1-3.2,0.7-5.9,0.9l0.3,2.1c0.9,5.8-0.9,8.4-6.7,9.3l-2.8,0.4l-0.1-0.5c-0.9-5.9-1.6-10.8-1.8-13c-0.3-3.2,0.9-4.9,4-5.4
				l8.8-1.4c1.4-0.2,2.6-0.3,3.6-0.3c5.5,0,8,3.2,9.4,11.9l7.4-1.2c-1-5.7-2.3-15-2.9-21.2c-3.5,1-13.6,2.8-18.5,3.5l-20.7,3.3
				c-2.4,0.4-7.9,1.2-11.2,1.7c-2.1,0.3-3.9,0.6-4.4,0.7l1.2,7.3l3.2-0.5c0.5-0.1,0.9-0.1,1.3-0.1c2.3,0,3.6,1.3,4.3,4.6
				c0.4,1.9,1.3,7.1,2.3,13.4v0.1v0.1c-0.3,1.7-2.7,4.1-3.8,5.2c1.5,0.7,4.9,2.5,5.3,4.2c0.4,3,1,6.7,1.1,8.3
				c0.3,3.2-0.3,5.5-4.2,6.1l-2.8,0.4l1.2,7.5c0.2,0,0.9-0.2,1.8-0.3c2.7-0.5,9.7-1.7,13.5-2.3l21.5-3.4c4.4-0.7,13-2,17.6-2.4
				c-1-6.5-2.4-16.2-2.8-22.7C219.4,344.7,214.2,345.5,212.8,345.7z"/>
		</g>
		<g>
			<path fill="#FFFFFF" d="M294.8,345.5c-0.6,0.1-3.2,0.5-4,0.5c0.8,2.8,1.8,7.8,0.3,9.9c-0.4,0.6-1,0.9-1.7,0.9h-0.2
				c-2.4,0-3.6-2.2-4.9-9c-1.2-6.2-4-9.6-9.2-10.9l-1.9-0.5l1.9-0.5c7.4-1.9,11.8-7.6,11.4-14.7c-0.5-9.2-7.4-14.3-19.6-14.3
				c-0.8,0-1.6,0-2.4,0.1c-3.2,0.2-6.9,0.4-10.2,0.6c-2.7,0.2-5.1,0.3-6.8,0.4c-1.9,0.1-6.6,0.3-11.2,0.5c-2.4,0.1-4.4,0.2-5,0.2
				l0.4,7.4l3.7-0.2c0.2,0,0.4,0,0.5,0c2.9,0,3.6,1.7,4,4.3c0.2,1.6,0.5,6.6,0.9,13.3v0.1v0.1c-0.3,1.7-3.1,4-4.4,5
				c1.5,0.9,4.7,3.1,4.9,4.8c0.2,4.9,0.3,8.3,0.3,9.6c-0.1,3.6-1.4,5-4.8,5.2l-2.9,0.1l0.4,7.6c1.9-0.1,10.3-0.7,15.2-0.9
				c2.5-0.1,14.2-0.6,15.2-0.6l-0.4-7.5l-2.8,0.1c-3,0.2-4.5-1.3-5-4.8c-0.2-1.6-0.6-6.2-0.9-12.1v-0.5l2.7-0.1
				c5.7-0.3,9.4,1,10.4,10.8c1.1,9.9,3.9,15.4,15.3,14.9c4.7-0.2,8-1.8,10-4.6c1-1.4,1.6-3.1,1.9-4.8c0.1-1.2,0.2-2.4,0.2-3.6
				C295.9,349.7,295.4,347.4,294.8,345.5z M268.1,331c-1.6,1.6-4,2.4-8,2.7l-4.9,0.2v-0.5c-0.4-7.9-0.5-15-0.5-15.7
				c0-2.3,0.9-3.4,3.1-3.6l2.8-0.1c6.5-0.3,9.2,2.3,9.5,9.2C270.3,326.9,269.6,329.4,268.1,331z"/>
		</g>
		<g>
			<path fill="#FFFFFF" d="M348.7,340.1c-1,14.3-4.8,16.4-12,16.1l-4.5-0.1c-2.8-0.1-4.6-0.9-4.7-4.5c0-1.8,0-5.8,0.2-11.2v-0.1
				c0.3-1.7,3.4-3.8,4.8-4.7c-1.3-1-4.2-3.2-4.5-4.9v-0.1v-0.1c0.2-5.9,0.4-10.3,0.6-11.9c0.3-3.6,1.8-4.9,5.2-4.8l3.3,0.1
				c0.1-1.9,0.2-6.2,0.3-7.4c-0.3,0-1.2,0-2.3,0c-3.2,0-9.1-0.1-13.1-0.2c-5.2-0.2-14.6-0.7-15.5-0.7l-0.2,7.4l3.5,0.1
				c2.8,0.1,4.1,1.6,4.2,5.1c0,1.6,0,6-0.2,12.1c-0.3,1.7-3.4,3.9-4.8,4.8c1.3,0.9,4.1,3.1,4.5,4.8v0.1v0.1
				c-0.2,5.1-0.4,8.9-0.5,10.6c-0.3,3.4-1,4.8-4.9,4.7l-3.3-0.1l-0.2,7.6c3.4,0,10.8,0.2,14.3,0.3l19.1,0.6
				c3.9,0.1,11.8,0.4,16.9,0.9c0-6,0.7-18.5,1.2-24.2C354.7,340.3,349.9,340.2,348.7,340.1z"/>
		</g>
		<g>
			<polygon fill="#FFFFFF" points="397,340.3 393.9,344.8 388.5,344.9 391.8,349.2 390.2,354.3 395.3,352.5 399.7,355.7 
				399.5,350.2 403.9,347 398.7,345.5 			"/>
		</g>
		<g>
			<path fill="#FFFFFF" d="M429.6,365.6c-2.9-0.4-4.8-1.8-6.6-8.2c-0.4-1.6-1.1-4.3-2-7.6v-0.2l0.1-0.2c0.8-1.5,2.4-3.3,3.3-4.1
				c-1.5-0.7-5-2.4-5.5-4.1v-0.1c-3.2-12.7-5.7-23.3-6.7-28.5h-0.1c-3.1-0.3-5.6-0.5-7.2-0.7c-2.4-0.3-6.7-1.1-7.2-1.2
				c-1.5,2.9-8.1,15.2-13.8,26l-0.1,0.1c-1.2,1.2-4.5,1.9-6,2.2c0.6,1.1,1.8,3.2,2.1,4.8v0.2l-0.1,0.2c-2.2,4.1-3.4,6.3-3.7,6.9
				c-2.6,4.6-4.7,6.2-8.1,6.2c-0.5,0-1.1,0-1.7-0.1l-2.1-0.3l-1,7.5c0.8,0.1,8.6,1,13,1.6s12.1,1.8,13,1.9c0.1-0.6,0.3-2,0.5-3.5
				l0.1-0.4c0.2-1.5,0.4-3.1,0.5-3.7l-3.1-0.4c-1.9-0.3-3.1-0.9-3.7-1.9c-0.7-1.4-0.4-3.4,1-6.4l3.7-7.2l0,0l0.1-0.3
				c4-7.9,9-17.7,10.2-19.9l0.6-1.2l0.3,1.3c0.6,2.6,3,13.3,4.8,21.9l0.2,0.8l0,0l1.6,7.2c0.5,3.4,0.3,5.4-0.6,6.6
				c-0.8,0.9-2,1.2-3.7,1l-3.2-0.4c-0.1,0.9-0.4,3.4-0.8,6.1c-0.1,0.6-0.2,1.1-0.2,1.5c1,0.1,11.1,1.3,16.9,2.1
				c5.5,0.7,14.9,2.1,16.8,2.4l1-7.5L429.6,365.6z"/>
		</g>
		<g>
			<path fill="#FFFFFF" d="M93.2,364.3L93.2,364.3c-7.6-16.2-18-24.1-31.7-24.1c-6,0-12.7,1.5-19.9,4.6
				C18.9,354.3,11,373,19.8,396.1v0.2c0,1.7-1.5,4.5-2.3,5.7c1.4,0.2,4.3,0.8,5.6,1.9l0.1,0.1l0.1,0.1c7.4,14.2,17.7,21.4,30.5,21.4
				l0,0c5.9,0,12.6-1.5,19.7-4.5c21.2-8.9,29.6-26.3,23.1-47.6v-0.1l0,0c-0.5-1.6,1.5-4.9,2.5-6.3C97.6,366.5,94.2,365.7,93.2,364.3
				z M69.9,412.1c-2.8,1.2-5.2,1.7-7.5,1.7c-7.1,0-12.6-5.7-19-19.5v-0.1c-0.2-1.7,1.5-4.7,2.4-6.1c-1.5-0.3-4.8-1.1-5.9-2.4
				l-0.1-0.2c-6.8-17.9-5.2-27.5,5.5-32c2.7-1.2,5.2-1.7,7.4-1.7c7.3,0,12.8,5.7,19.2,19.6v0.1c0.2,1.7-1.5,4.7-2.4,6.1
				c1.5,0.3,4.7,1,5.9,2.3l0.1,0.1v0.1C82.6,398.5,81,407.4,69.9,412.1z"/>
		</g>
		<g>
			<path fill="#FFFFFF" d="M569,345.9c-0.7-0.3-2.6-1-5.2-1.9c-4.7-1.7-11-4-15.3-5.6c-4.6-1.7-11.6-4.5-16.3-6.3
				c-1.8-0.7-3.3-1.3-4.1-1.6l-3.3,8.9l4,1.5c4.2,1.6,5.3,4.2,3.9,9c-0.7,2.2-2.8,8.1-5.8,16.1v0.1c-0.9,1.4-4.4,2.5-6,2.9
				c0.9,1.3,2.8,4.2,2.7,6v0.1c-3.2,8.5-5.8,15.1-6.9,17.7c-1.2,2.8-2.5,4.6-5.1,4.6c-1.1,0-2.4-0.3-4.3-1l-3.3-1.2l-3.4,9.1
				c2.5,0.9,14.4,5.1,20.3,7.4c6.8,2.6,20.9,7.9,21,8c6.3,2.3,12.1,3.5,17.5,3.5c13.8,0,24.2-7.9,30.9-23.3v-0.1l0.1-0.1
				c1.3-1.1,4.2-2,5.5-2.3c-0.8-1.2-2.6-3.8-2.7-5.6v-0.1v-0.1C600.2,368.5,593,354.8,569,345.9z M574.3,382.5l-0.1,0.2
				c-1,1.3-4.3,2.3-5.9,2.7c1,1.4,3.1,4.6,2.6,6.3v0.2c-5.6,13.6-11.5,19.4-19.6,19.4c-2.8,0-6-0.7-9.7-2.1l-3.6-1.3
				c-3.1-1.2-4.3-3.8-3.2-7.1c1.1-3.4,3.8-10.9,7.1-19.7l0.1-0.2c0.7-1.5,4.4-2.6,6.1-3c-1-1.4-3-4.5-2.6-6.2l0,0v-0.1
				c3.1-8.1,5.4-14.1,6.6-16.7c1.3-3,3.6-3.9,6.8-2.7l3.7,1.4C576.1,358.4,579.2,366.3,574.3,382.5z"/>
		</g>
		<g>
			<path fill="#FFFFFF" d="M503.9,334.1c-3.2-0.9-7.7-2.3-10.4-3.2c-1-0.3-1.7-0.5-2-0.6c-0.3,1.2-1.6,5.9-2,7.1l4.1,1.2
				c2.3,0.6,4.4,1.9,3.3,6.5c-1,4-3.9,14.5-5.7,20.5l-0.4,1.5l-0.5-1.5c-3.9-11.3-9.9-29.8-12.8-39.3c-5.5-1.4-17.3-4.7-22.6-6.4
				c-0.2,0.8-1,4.1-2,7.1l3.4,1c3,0.9,4.2,2.9,3.5,6.1c-0.3,1.6-1.6,6.3-3.4,12.7l-0.1,0.2c-1,1.4-4.1,2.6-5.6,3
				c1,1.2,3.1,4,3.1,5.8v0.1c-1.3,4.5-2.4,7.9-2.9,9.4c-0.9,2.5-2.1,3.6-4.2,3.6c-0.7,0-1.4-0.1-2.3-0.4l-3.1-0.9
				c-0.2,0.6-1,4-2.1,7.3c1.1,0.3,8.4,2.2,12.7,3.4c3.6,1,9.3,2.7,12.4,3.7h0.1c0.8-3.2,1.8-6.5,2.1-7.3l-3.9-1.1
				c-3.5-1-4.5-2.7-3.8-6.1c0.8-3.4,4.4-16.4,7.1-25.6l0.4-1.5l0.5,1.5c4.6,13.9,11.1,34,14.3,44.7c2.8,0.6,8.9,2.3,11.6,3.3
				c1.3-4.9,3.6-13.4,6.2-22.7l0.1-0.1c0.6-1.6,4.1-2.9,5.8-3.5c-1-1.2-3.2-4-3.2-5.8v-0.1c1.5-5.3,2.7-9,3.1-10.4
				c1-2.8,2.4-4.1,4.4-4.1c0.6,0,1.2,0.1,1.8,0.3l3.4,1c0.3-1.2,1.6-5.9,2-7.1c-0.1,0-0.4-0.1-0.6-0.2
				C513.9,336.8,507.7,335.2,503.9,334.1z"/>
		</g>
	</g>
</g>
<g>
	<path fill="#FFFFFF" d="M168.7,411h1.4c-0.2,1.2-0.5,4.1-0.4,6.1c-0.5,0-1.1,0-1.6,0c-0.5-2.7-1.2-5-5-5c-3.4,0-4.9,2.3-4.9,7.4
		c0,6,2,7.4,4.7,7.4c3.4,0,5.2-2.3,5.4-5.6c0.4,0,1.2,0,1.7,0c-0.3,4.5-2.2,6.9-7.1,6.9c-4.9,0-8.1-2.5-8.1-8.8
		c0-6.2,3.6-8.7,8.1-8.7c2.3,0,3.4,0.7,4,1C168.3,412.4,168.6,412.2,168.7,411z"/>
	<path fill="#FFFFFF" d="M172.7,419.4c0-5.6,3.4-8.7,8-8.7c5.3,0,8,3.1,8,8.7s-3.4,8.8-8,8.8C175.4,428.2,172.7,425,172.7,419.4z
		 M185.5,419.4c0-5.3-1.4-7.4-4.8-7.4c-3.3,0-4.8,2.4-4.8,7.4c0,5.3,1.2,7.4,4.8,7.4C184.2,426.9,185.5,424.4,185.5,419.4z"/>
	<path fill="#FFFFFF" d="M192.5,414c0-1-0.3-1.4-1.2-1.4h-1.1v-1.4c0,0,2.5,0.1,3.9,0.1s3.5-0.1,3.9-0.1v1.4h-1.1
		c-1,0-1.4,0.3-1.4,1.4v7.2c0,4,1.5,5.3,4.3,5.3s4.4-1.2,4.4-5.3c0-2,0-4.5,0-7.2c0-0.9-0.5-1.4-1.4-1.4h-1.1v-1.4
		c0,0,2.2,0.1,3.4,0.1s3-0.1,3.4-0.1v1.4h-1.1c-0.9,0-1.2,0.5-1.2,1.4c0,2.7,0,5.1,0,6.9c0,4.8-2.1,7.2-6.6,7.2
		c-4.6,0-7.1-2.1-7.1-7.3C192.5,421,192.6,415.5,192.5,414z"/>
	<path fill="#FFFFFF" d="M224.4,422.7c0.1-3,0.1-7.6,0-8.9c0-1-0.4-1.2-1.3-1.2h-1.5v-1.4c0.4,0,2.3,0.1,3.7,0.1s3.6-0.1,3.6-0.1
		v1.4h-1.5c-0.9,0-1.2,0.3-1.3,1.2c-0.1,1.4-0.1,11,0,13.9c-0.4,0-1.4,0-1.8,0c-2-3-6.1-9-9-13.1c0,3.8,0,9.3,0,10.7
		c0,0.8,0.3,1,1.4,1h1.4v1.5c0,0-2.3,0-3.7,0s-3.7,0-3.7,0v-1.5h1.4c1.1,0,1.4-0.2,1.4-1c0.1-1.8,0.1-10.1,0-11.5
		c-0.1-0.9-0.4-1.2-1.3-1.2h-1.5v-1.4c1.3,0,4.2,0,5.6,0C218.2,413.9,222.2,419.6,224.4,422.7z"/>
	<path fill="#FFFFFF" d="M240.1,412.6c0,3.2,0,11,0,12.3c0,0.9,0.3,1.4,1.3,1.4h1.5v1.5c0,0-2.7,0-4.2,0s-4.2,0-4.2,0v-1.5h1.4
		c1.1,0,1.4-0.5,1.4-1.4c0.1-1.3,0.1-9.1,0-12.3h-1.9c-1.9,0-2.5,0.9-2.5,2.2l-0.1,2.4h-1.6c0.1-1.5,0-4.7-0.1-6.1
		c0.7,0.1,1.9,0.1,3.7,0.1h7.8c2.1,0,2.8,0,3.7-0.1c-0.1,1.5-0.2,4.7-0.1,6.1h-1.5l-0.1-2.4c-0.1-1.4-0.7-2.2-2.5-2.2H240.1z"/>
	<path fill="#FFFFFF" d="M263.6,426.6c1.1,0,1.2-1.6,0.8-3.8l1.1-0.1c0.6,2.8,0.3,5.5-2.7,5.5c-3.2,0-3.8-1.8-4-4.8
		c-0.1-2.7-1.3-3.2-2.9-3.2h-1.7c0,2.1,0,4.1,0.1,4.6c0.1,1,0.5,1.4,1.4,1.4h1.1v1.4c0,0-2.8,0-4.1,0c-1.5,0-4.1,0-4.1,0v-1.5h1.1
		c1.1,0,1.6-0.4,1.6-1.4c0.1-1.3,0.1-9.7,0-11.1c0-0.9-0.4-1.2-1.2-1.2h-1.5V411c0.4,0,3.7,0,4.2,0c1.1,0,3,0,4,0
		c4,0,6.3,1.5,6.3,4.4c0,2.4-1.8,4-3.9,4.3c1.8,0.5,2.5,1.5,2.7,3.2C262.3,426.1,262.8,426.6,263.6,426.6z M254.2,419.1h1.9
		c2.8,0,3.8-1,3.8-3.4s-1-3.3-3.5-3.3h-1.2c-0.7,0-0.9,0.4-0.9,1C254.3,414.3,254.2,416.7,254.2,419.1z"/>
	<path fill="#FFFFFF" d="M276.1,422v3c0,1,0.1,1.2,1.4,1.2h1.6v1.4c0,0-2.8,0-4.4,0s-4.5,0-4.5,0v-1.4h1.6c1.3,0,1.4-0.3,1.4-1.2v-3
		c-1.2-2.3-3.2-6.1-4.3-7.9c-0.6-1.1-1.3-1.5-2.8-1.5h-0.4v-1.4c0,0,2.8,0.1,4.3,0.1c1.6,0,4.3-0.1,4.3-0.1v1.4h-1.2
		c-1.4,0-1.6,0.7-1.2,1.6c0.7,1.4,2.5,4.6,3.5,6.3c1-1.7,2.4-4.7,3.2-6.3c0.4-0.9,0.5-1.6-1.1-1.6h-0.9v-1.4c0,0,2.3,0.1,3.7,0.1
		c1.3,0,3.6-0.1,3.6-0.1v1.4h-0.6c-1.9,0-2.4,0.4-3.2,1.7C279.3,416.1,277.3,419.8,276.1,422z"/>
	<path fill="#FFFFFF" d="M299.7,427.7h-8v-1.4h1.4c1.1,0,1.4-0.1,1.4-1c0.1-1.8,0.1-10.1,0-11.5c0-0.9-0.4-1.2-1.2-1.2h-1.5v-1.4
		c0.4,0,3.7,0,4.2,0c1.1,0,2.6,0,3.6,0c4,0,6.3,1.4,6.3,4.2c0,1.8-1,3.2-2.8,3.8c2,0.5,3.4,1.9,3.4,3.8
		C306.3,425.8,304.9,427.7,299.7,427.7z M297.3,418.7h1.6c2.8,0,3.8-0.8,3.8-3.2c0-1.8-1-3-3.5-3h-0.9c-0.7,0-0.9,0.4-0.9,1
		C297.3,414.2,297.3,416.4,297.3,418.7z M297.3,419.8c0,2.4,0,4.8,0,5.7c0,0.8,0.4,1,0.9,1h1.3c2.8,0,3.7-1.2,3.7-3.5
		c0-2.2-1.3-3.2-4.3-3.2H297.3z"/>
	<path fill="#FFFFFF" d="M320.4,422.6c-1.7,0-4.9,0-6.7,0c-0.2,0.7-0.4,1.2-0.5,1.5c-0.4,1.3-0.3,2.3,1.3,2.3h1v1.5c0,0-2.4,0-3.7,0
		s-3.7,0-3.7,0v-1.5h0.9c1.3,0,1.9-0.5,2.5-2s3.9-10.5,4.9-13.3c0,0,0.9,0.1,1.4,0.1s1.3-0.1,1.3-0.1c1,2.8,4.6,11.9,5.2,13.3
		s1.1,2,2.1,2h1.1v1.5c0,0-2.7,0-4.3,0s-4.3,0-4.3,0v-1.5h1.1c1.1,0,1.6-0.8,1-2.3L320.4,422.6z M317,413.5c-0.7,1.7-2,5.3-2.9,7.8
		c1.7,0,4.2,0,5.8,0C319,418.8,317.6,415.2,317,413.5z"/>
	<path fill="#FFFFFF" d="M344.6,426.6c1.1,0,1.2-1.6,0.8-3.8l1.1-0.1c0.6,2.8,0.3,5.5-2.7,5.5c-3.2,0-3.8-1.8-4-4.8
		c-0.1-2.7-1.3-3.2-2.9-3.2h-1.7c0,2.1,0,4.1,0.1,4.6c0.1,1,0.5,1.4,1.4,1.4h1.1v1.4c0,0-2.8,0-4.1,0c-1.5,0-4.1,0-4.1,0v-1.5h1.1
		c1.1,0,1.6-0.4,1.6-1.4c0.1-1.3,0.1-9.7,0-11.1c0-0.9-0.4-1.2-1.2-1.2h-1.5V411c0.4,0,3.7,0,4.2,0c1.1,0,3,0,4,0
		c4,0,6.3,1.5,6.3,4.4c0,2.4-1.8,4-3.9,4.3c1.8,0.5,2.5,1.5,2.7,3.2C343.3,426.1,343.8,426.6,344.6,426.6z M335.2,419.1h1.9
		c2.8,0,3.8-1,3.8-3.4s-1-3.3-3.5-3.3h-1.2c-0.7,0-0.9,0.4-0.9,1C335.3,414.3,335.2,416.7,335.2,419.1z"/>
	<path fill="#FFFFFF" d="M367.3,428c-1.3,0-2.5-0.2-3.6-1.1c-1,0.7-2.3,1.2-4.1,1.2c-3.1,0-5.1-1.6-5.1-4.3c0-2.5,2-4,3.9-4.4
		c-0.8-1.7-1.1-3-1.1-4.3c0-2.9,1.6-4.2,4.3-4.2c2.5,0,3.7,1.6,3.7,3.5c0,2.4-1.5,4.3-3.7,5.1l0.7,1.2c1.1,1.7,1.9,2.9,2.6,3.8
		c0.9-1,1.2-2.1,1.3-3.2c0-0.6-0.1-1.3-1-1.3h-0.7v-1c0,0,1.9,0.1,3,0.1s3-0.1,3-0.1v1.1h-1c-1.1,0-1.4,0.6-1.5,1.1
		c-0.3,1.6-1.1,2.9-2.5,4.1c1.2,1.4,1.9,1.5,2.7,1.5c1.3,0,2.2-1,2.2-2.5l0.8,0.1C370.9,426.3,370.3,428,367.3,428z M362.9,426.3
		c-1-0.9-2-2.4-3.3-4.5c-0.3-0.5-0.5-0.9-0.7-1.3c-1,0.6-1.7,1.7-1.7,2.9c0,2.1,1.2,3.4,3.1,3.4
		C361.4,426.8,362.2,426.6,362.9,426.3z M361.2,418.8c1.7-0.8,2.1-2.3,2.1-4.2c0-1.8-0.5-2.5-1.7-2.5s-1.7,0.7-1.7,2.5
		C359.8,415.9,360.2,417,361.2,418.8z"/>
	<path fill="#FFFFFF" d="M390.7,411.7c1.3,0.7,1.6,0.5,1.7-0.7h1.4c-0.2,1.2-0.5,4.1-0.4,6.1c-0.5,0-1.1,0-1.6,0c-0.5-2.7-1.2-5-5-5
		c-3.4,0-4.9,2.3-4.9,7.4c0,6,2.1,7.4,4.7,7.4c2.5,0,4.4-1.3,4.4-4.1c0-1.6-0.2-2.2-1.5-2.2h-1v-1.4c0,0,2.4,0.1,3.7,0.1
		c1.3,0,3.7-0.1,3.7-0.1v1.4h-0.8c-0.7,0-1,0.4-1,1.3c0,1.3,0,4.4,0.1,6.1c-0.4,0-1.2,0-1.6,0c-0.1-0.6-0.4-1.7-0.7-2.7
		c-0.9,1.7-2.9,3-5.3,3c-4.8,0-8-2.5-8-8.8c0-6.2,3.6-8.7,8.1-8.7C388.1,410.7,389.2,410.9,390.7,411.7z"/>
	<path fill="#FFFFFF" d="M412.3,426.6c1.1,0,1.2-1.6,0.8-3.8l1.1-0.1c0.6,2.8,0.3,5.5-2.7,5.5c-3.2,0-3.8-1.8-4-4.8
		c-0.1-2.7-1.3-3.2-2.9-3.2h-1.7c0,2.1,0,4.1,0.1,4.6c0.1,1,0.5,1.4,1.4,1.4h1.1v1.4c0,0-2.8,0-4.1,0c-1.5,0-4.1,0-4.1,0v-1.5h1.1
		c1.1,0,1.6-0.4,1.6-1.4c0.1-1.3,0.1-9.7,0-11.1c0-0.9-0.4-1.2-1.2-1.2h-1.5V411c0.4,0,3.7,0,4.2,0c1.1,0,3,0,4,0
		c4,0,6.3,1.5,6.3,4.4c0,2.4-1.8,4-3.9,4.3c1.8,0.5,2.5,1.5,2.7,3.2C411,426.1,411.5,426.6,412.3,426.6z M402.9,419.1h1.9
		c2.8,0,3.8-1,3.8-3.4s-1-3.3-3.5-3.3h-1.2c-0.7,0-0.9,0.4-0.9,1C403,414.3,402.9,416.7,402.9,419.1z"/>
	<path fill="#FFFFFF" d="M416.6,426.3h1.3c1.1,0,1.4-0.1,1.4-1c0.1-1.8,0.1-10.1,0-11.5c0-0.9-0.4-1.2-1.2-1.2h-1.5v-1.4
		c0,0,2.7,0.1,4.2,0.1s3.8-0.1,4.1-0.1v1.4h-1.5c-0.9,0-1.2,0.3-1.2,1.2c-0.1,1.4-0.1,9.7,0,11.5c0,0.8,0.3,1,1.4,1h1.3v1.5
		c0,0-2.7,0-4.1,0s-4.2,0-4.2,0L416.6,426.3L416.6,426.3z"/>
	<path fill="#FFFFFF" d="M435.4,412.6h-1.5c-0.9,0-1.2,0.3-1.3,1.2c-0.1,1.4-0.1,9.7,0,11.5c0,0.7,0.4,1,1.2,1h2
		c2.7,0,3.8-0.9,4.1-5h1.5c-0.1,1.6-0.3,4.9-0.2,6.5c-1.1-0.1-3.4-0.1-4.5-0.1h-5.5c-1,0-3.4,0-4.1,0v-1.5h1.4c1.1,0,1.4-0.1,1.4-1
		c0.1-1.8,0.1-10.1,0-11.5c0-0.9-0.4-1.2-1.2-1.2h-1.5v-1.4c0,0,2.7,0.1,4.2,0.1s3.6-0.1,4.1-0.1v1.5H435.4z"/>
	<path fill="#FFFFFF" d="M451.7,412.6h-1.5c-0.9,0-1.2,0.3-1.3,1.2c-0.1,1.4-0.1,9.7,0,11.5c0,0.7,0.4,1,1.2,1h2
		c2.7,0,3.8-0.9,4.1-5h1.5c-0.1,1.6-0.3,4.9-0.2,6.5c-1.1-0.1-3.4-0.1-4.5-0.1h-5.5c-1,0-3.4,0-4.1,0v-1.5h1.4c1.1,0,1.4-0.1,1.4-1
		c0.1-1.8,0.1-10.1,0-11.5c0-0.9-0.4-1.2-1.2-1.2h-1.5v-1.4c0,0,2.7,0.1,4.2,0.1s3.6-0.1,4.1-0.1v1.5H451.7z"/>
</g>
<path fill="#FFFFFF" d="M279.8,382.1"/>
<g>
	<path fill="#FFFFFF" d="M281.6,394.4V384h4.8v1.6h-3v2.7h2.3v1.6h-2.3v3h3.2v1.6h-5V394.4z"/>
	<path fill="#FFFFFF" d="M291.8,386.6c-0.1-0.9-0.5-1.1-0.9-1.1c-0.6,0-0.9,0.4-0.9,1c0,1.8,3.6,2.6,3.6,5.4c0,1.7-1.1,2.7-2.8,2.7
		c-1.7,0-2.6-1.3-2.7-2.9l1.7-0.2c0.1,1,0.5,1.6,1.1,1.6s1-0.3,1-0.9c0-2.1-3.6-2.6-3.6-5.6c0-1.7,1-2.6,2.8-2.6
		c1.5,0,2.3,1,2.5,2.5L291.8,386.6z"/>
	<path fill="#FFFFFF" d="M296.7,385.5H295V384h5.2v1.6h-1.7v8.8h-1.8V385.5z"/>
	<path fill="#FFFFFF" d="M301,394.4v-1.7h1.7v1.7H301z"/>
	<path fill="#FFFFFF" d="M309.7,386.2h-1.4v-1c0.8-0.4,1.5-0.8,2.1-1.3h0.9v10.5h-1.6V386.2z"/>
	<path fill="#FFFFFF" d="M315,388.8c-0.6-0.5-0.9-1.3-0.9-2.1c0-2,0.9-2.9,2.4-2.9s2.4,0.9,2.4,2.9c0,0.8-0.3,1.6-0.9,2.1
		c0.9,0.6,1.1,1.4,1.1,2.7c0,2-0.9,3-2.5,3c-1.7,0-2.5-1.1-2.5-3C313.9,390.2,314.1,389.4,315,388.8z M317.4,391.4
		c0-1.1-0.2-1.7-0.9-1.7c-0.7,0-0.9,0.6-0.9,1.7s0.2,1.7,0.9,1.7C317.1,393.1,317.4,392.5,317.4,391.4z M317.2,386.7
		c0-1-0.2-1.4-0.8-1.4c-0.5,0-0.8,0.4-0.8,1.4s0.2,1.4,0.8,1.4S317.2,387.7,317.2,386.7z"/>
	<path fill="#FFFFFF" d="M320.7,385.5V384h4.7v1l-2.1,9.4h-1.7l2.1-8.9H320.7z"/>
	<path fill="#FFFFFF" d="M329.6,391.9h-3.1v-1.3l3-6.6h1.7v6.6h0.9v1.3h-0.9v2.5h-1.6V391.9z M329.6,390.5v-4.1l0,0l-1.7,4.1H329.6z
		"/>
</g>
<polygon fill="#FFFFFF" points="269.5,387.9 270.5,386.1 271.3,388 273.3,388.3 271.8,389.7 272.1,391.7 270.3,390.7 268.5,391.6 
	268.9,389.6 267.5,388.2 "/>
<polygon fill="#FFFFFF" points="342,387.9 343,386.1 343.8,388 345.8,388.3 344.3,389.7 344.6,391.7 342.9,390.7 341,391.6 
	341.4,389.6 340,388.2 "/>
<polygon fill="#FFFFFF" points="492.4,425.6 493.3,423.8 494.2,425.7 496.2,426 494.7,427.4 495,429.4 493.2,428.4 491.4,429.3 
	491.8,427.3 490.3,425.9 "/>
<polygon fill="#FFFFFF" points="119.7,425.6 120.6,423.8 121.5,425.7 123.5,426 122,427.4 122.3,429.4 120.5,428.4 118.7,429.3 
	119.1,427.3 117.6,425.9 "/>
<path fill="#FFFFFF" d="M359,439"/>
<g>
	<g>
		<g>
			<path fill="#FFFFFF" d="M306.7,454.6c-0.2,0-0.4-0.2-0.4-0.4v-12.7c0-0.2,0.2-0.4,0.4-0.4l0,0c0.2,0,0.4,0.2,0.4,0.4v12.7
				C307.1,454.4,306.9,454.6,306.7,454.6L306.7,454.6z"/>
		</g>
		<g>
			<path fill="#FFFFFF" d="M311.4,453.7c-0.2,0-0.3-0.1-0.4-0.3l-4.2-12.4c-0.1-0.2,0-0.4,0.2-0.5s0.4,0,0.5,0.2l4.2,12.4
				c0.1,0.2,0,0.4-0.2,0.5C311.5,453.7,311.4,453.7,311.4,453.7z"/>
		</g>
		<g>
			<path fill="#FFFFFF" d="M315.7,451.2c-0.1,0-0.2,0-0.3-0.1l-8-10.1c-0.1-0.2-0.1-0.4,0.1-0.5s0.4-0.1,0.5,0.1l8,10.1
				c0.1,0.2,0.1,0.4-0.1,0.5C315.9,451.2,315.8,451.2,315.7,451.2z"/>
		</g>
		<g>
			<path fill="#FFFFFF" d="M319,447.4c-0.1,0-0.1,0-0.2-0.1l-10.9-6.9c-0.2-0.1-0.2-0.3-0.1-0.5s0.3-0.2,0.5-0.1l10.9,6.9
				c0.2,0.1,0.2,0.3,0.1,0.5C319.3,447.4,319.2,447.4,319,447.4z"/>
		</g>
		<g>
			<path fill="#FFFFFF" d="M320.7,443.6h-0.1l-11.9-3.6c-0.2-0.1-0.3-0.3-0.3-0.5c0.1-0.2,0.3-0.3,0.5-0.3l11.9,3.6
				c0.2,0.1,0.3,0.3,0.3,0.5C321,443.5,320.8,443.6,320.7,443.6z"/>
		</g>
		<g>
			<path fill="#FFFFFF" d="M302,453.8h-0.1c-0.2-0.1-0.3-0.3-0.2-0.5l4.1-12.3c0.1-0.2,0.3-0.3,0.5-0.2c0.2,0.1,0.3,0.3,0.2,0.5
				l-4.1,12.3C302.3,453.7,302.2,453.8,302,453.8z"/>
		</g>
		<g>
			<path fill="#FFFFFF" d="M297.7,451.3c-0.1,0-0.2,0-0.2-0.1c-0.2-0.1-0.2-0.4-0.1-0.5l7.9-10.3c0.1-0.2,0.4-0.2,0.5-0.1
				c0.2,0.1,0.2,0.4,0.1,0.5l-7.9,10.3C297.9,451.3,297.8,451.3,297.7,451.3z"/>
		</g>
		<g>
			<path fill="#FFFFFF" d="M294.4,447.5c-0.1,0-0.2-0.1-0.3-0.2c-0.1-0.2-0.1-0.4,0.1-0.5l10.8-7c0.2-0.1,0.4-0.1,0.5,0.1
				s0.1,0.4-0.1,0.5l-10.8,7C294.5,447.5,294.4,447.5,294.4,447.5z"/>
		</g>
		<g>
			<path fill="#FFFFFF" d="M292.7,443.6c-0.2,0-0.3-0.1-0.4-0.3c-0.1-0.2,0.1-0.4,0.3-0.5l12-3.6c0.2-0.1,0.4,0.1,0.5,0.3
				c0.1,0.2-0.1,0.4-0.3,0.5l-12,3.6C292.8,443.6,292.8,443.6,292.7,443.6z"/>
		</g>
	</g>
	<g>
		<g>
			<g>
				<path fill="#FFFFFF" d="M134.3,444.9c-0.6,0-1.1-0.2-1.5-0.7c-0.4-0.6-0.4-1.4,0-2.2c0.3-0.7,1.7-2.6,5.8-3.2
					c0.2-1,0.3-2.1,0.3-3.4s0-3.5,0-6.1c0-6.8-0.1-16.6,0-21.9c-4.9,3.1-12.9,6.4-24.2,9.8c-31.5,9.6-34.3,16.3-34.3,16.3
					c-0.1,0.2-0.3,0.3-0.5,0.2c-0.2-0.1-0.3-0.3-0.2-0.5c0.1-0.3,2.7-7,34.8-16.8c11.6-3.5,19.7-6.9,24.5-10c0-0.6,0-1.2,0-1.6
					c0.2-4.2,2.5-6.6,4-6.6c0.6,0,1.4,0.4,1.5,1.8c0.2,2.2-1.5,4.5-4.9,6.8c-0.1,5.2,0,15.4,0,22.4c0,2.6,0,4.8,0,6.1
					c0,1.2-0.1,2.3-0.3,3.3c0.7-0.1,1.5-0.1,2.3-0.1h162.5l2.4,2.4l2.4-2.4h93.4c0.2,0,0.4,0.2,0.4,0.4s-0.2,0.4-0.4,0.4h-93.1
					l-2.7,2.6l-2.7-2.6H141.7c-0.9,0-1.7,0.1-2.5,0.1c-0.8,3.1-2.5,4.7-4,5.2C134.9,444.8,134.6,444.9,134.3,444.9z M138.4,439.6
					c-2.8,0.5-4.4,1.7-4.9,2.7c-0.3,0.5-0.3,1.1-0.1,1.4c0.3,0.4,0.9,0.5,1.5,0.2C136,443.7,137.6,442.4,138.4,439.6z M143.1,399
					C143.1,399,143,399,143.1,399c-1.1,0-3.2,2-3.3,5.9c0,0.3,0,0.7,0,1.1c2.9-2,4.2-4,4.1-5.9C143.8,399.6,143.6,399,143.1,399z"/>
			</g>
		</g>
		<g>
			<path fill="#FFFFFF" d="M144.8,445.6C144.8,445.6,144.7,445.6,144.8,445.6c-0.3-0.1-0.4-0.3-0.4-0.5c0-0.1,1.2-5.2-1.2-8.3
				c-1.2-1.5-3.2-2.3-5.8-2.3c-0.5,0-1.1,0-1.6,0.1c0,0.1,0,0.1,0,0.1c0,2.5-1.5,4.1-2.9,4.7c-1.1,0.5-2.1,0.5-2.8-0.1
				c-0.6-0.5-0.7-1.2-0.5-2.1c0.5-1.4,2.3-2.8,5.4-3.4c0-3.7-0.3-19.9-0.3-28.5c-1.7,1.3-4.1,2.5-7.7,3.9c-4.4,1.7-6-0.4-6.4-1
				c-0.7-1.2-0.5-2.7,0.4-3.4c0.2-0.1,0.4-0.1,0.5,0.1s0.1,0.4-0.1,0.5c-0.6,0.4-0.7,1.5-0.2,2.4c0.8,1.5,2.9,1.7,5.5,0.7
				c3.9-1.5,6.3-2.9,7.9-4.1c0-1.4,0-2.5,0-3.3c0-3.3,1.2-4.2,1.8-4.5s1.2-0.2,1.7,0.3c0.6,0.5,1,1.6,0.5,3.1
				c-0.6,1.7-1.4,3.2-3.2,4.7c0.1,8.3,0.3,24.9,0.3,28.9c0.5-0.1,1-0.1,1.6-0.1c2.9,0,5,0.8,6.4,2.6c2.7,3.4,1.4,8.7,1.4,8.9
				C145.1,445.5,145,445.6,144.8,445.6z M135.1,434.7c-2.7,0.5-4.3,1.7-4.7,2.9c-0.1,0.3-0.2,0.8,0.2,1.2c0.4,0.4,1.2,0.3,2,0
				C133.8,438.3,135.1,436.9,135.1,434.7C135.1,434.8,135.1,434.8,135.1,434.7z M137.2,397.5c-0.1,0-0.2,0-0.3,0.1
				c-0.6,0.3-1.3,1.4-1.3,3.8c0,0.6,0,1.5,0,2.6c1.5-1.4,2-2.6,2.5-3.9c0.4-1.2,0.1-1.9-0.3-2.3
				C137.6,397.6,137.4,397.5,137.2,397.5z"/>
		</g>
		<g>
			<path fill="#FFFFFF" d="M100.4,431.1L100.4,431.1c-1.1-0.1-2.3-1.1-2.9-2.3c-0.7-1.4-0.5-3,0.5-4.5c2.3-3.5,9.6-5.6,9.9-5.7
				c0.2-0.1,0.4,0.1,0.5,0.3c0.1,0.2-0.1,0.4-0.3,0.5c-0.1,0-7.4,2.2-9.5,5.4c-1.1,1.6-0.8,3-0.5,3.8c0.5,1.1,1.5,1.7,2.2,1.8
				c0.2,0,0.4,0.2,0.3,0.4C100.8,430.9,100.6,431.1,100.4,431.1z"/>
		</g>
	</g>
	<g>
		<g>
			<g>
				<path fill="#FFFFFF" d="M479.7,444.9c-0.3,0-0.6-0.1-0.9-0.2c-1.5-0.5-3.2-2.1-4-5.2c-0.7-0.1-1.6-0.1-2.5-0.1h-69.7
					c-0.2,0-0.4-0.2-0.4-0.4s0.2-0.4,0.4-0.4h69.7c0.8,0,1.6,0,2.3,0.1c-0.2-1-0.3-2.1-0.3-3.3c0-1.3,0-3.5,0-6.1
					c0-7,0.1-17.2,0-22.4c-3.4-2.3-5-4.6-4.9-6.8c0.1-1.3,0.8-1.8,1.5-1.8c1.5,0,3.9,2.4,4,6.6c0,0.4,0,1,0,1.6
					c4.7,3.1,12.9,6.5,24.5,10c32.1,9.8,34.7,16.5,34.8,16.8c0.1,0.2,0,0.4-0.2,0.5s-0.4,0-0.5-0.2c0-0.1-2.9-6.8-34.3-16.3
					c-11.3-3.4-19.4-6.7-24.2-9.8c0.1,5.4,0,15.1,0,21.9c0,2.6,0,4.8,0,6.1c0,1.3,0.1,2.4,0.3,3.4c4.2,0.6,5.5,2.5,5.8,3.2
					c0.4,0.8,0.4,1.6,0,2.2C480.8,444.7,480.3,444.9,479.7,444.9z M475.5,439.6c0.8,2.8,2.4,4.1,3.4,4.4c0.7,0.2,1.3,0.1,1.5-0.2
					c0.2-0.3,0.2-0.9-0.1-1.4C479.9,441.3,478.4,440.1,475.5,439.6z M470.9,399c-0.6,0-0.7,0.6-0.8,1.1c-0.1,1.9,1.2,3.8,4.1,5.9
					c0-0.4,0-0.8,0-1.1C474.1,401.1,472,399.1,470.9,399L470.9,399z"/>
			</g>
		</g>
		<g>
			<path fill="#FFFFFF" d="M469.2,445.6c-0.2,0-0.3-0.1-0.4-0.3c-0.1-0.2-1.3-5.6,1.4-8.9c1.4-1.7,3.5-2.6,6.3-2.6h0.1
				c0.5,0,1.1,0,1.6,0.1c0.1-4,0.3-20.6,0.3-28.9c-1.8-1.5-2.6-3-3.2-4.7c-0.5-1.5-0.1-2.6,0.5-3.1c0.5-0.4,1.1-0.5,1.7-0.3
				c0.5,0.2,1.8,1.1,1.8,4.5c0,0.8,0,1.9,0,3.3c1.6,1.3,4.1,2.6,7.9,4.1c2.6,1,4.7,0.8,5.5-0.7c0.5-0.9,0.4-1.9-0.2-2.4
				c-0.2-0.1-0.2-0.4-0.1-0.5c0.1-0.2,0.4-0.2,0.5-0.1c0.9,0.7,1.1,2.2,0.4,3.4c-0.4,0.7-2,2.8-6.4,1c-3.5-1.4-6-2.7-7.7-3.9
				c-0.1,8.5-0.3,24.7-0.3,28.5c3,0.5,4.9,2,5.4,3.4c0.3,0.8,0.1,1.6-0.5,2.1s-1.7,0.6-2.8,0.1c-1.4-0.6-2.9-2.2-2.9-4.7v-0.1
				c-0.5-0.1-1-0.1-1.6-0.1c-2.6,0-4.6,0.7-5.8,2.3c-2.4,3.1-1.2,8.2-1.2,8.3C469.6,445.3,469.5,445.5,469.2,445.6L469.2,445.6z
				 M478.8,434.7C478.8,434.8,478.8,434.8,478.8,434.7c0,2.2,1.3,3.5,2.5,4.1c0.8,0.4,1.6,0.4,2,0c0.5-0.4,0.3-0.9,0.2-1.2
				C483.1,436.5,481.5,435.2,478.8,434.7z M476.8,397.5c-0.2,0-0.4,0.1-0.6,0.2c-0.4,0.4-0.7,1.1-0.3,2.3c0.4,1.3,1,2.6,2.5,3.9
				c0-1.1,0-2,0-2.6c0-2.3-0.7-3.5-1.3-3.8C477,397.5,476.9,397.5,476.8,397.5z"/>
		</g>
		<g>
			<path fill="#FFFFFF" d="M513.5,431.1c-0.2,0-0.4-0.1-0.4-0.3c0-0.2,0.1-0.4,0.3-0.4c0.7-0.1,1.7-0.7,2.2-1.8
				c0.4-0.8,0.6-2.1-0.5-3.8c-2.1-3.2-9.4-5.4-9.5-5.4c-0.2-0.1-0.3-0.3-0.3-0.5c0.1-0.2,0.3-0.3,0.5-0.3c0.3,0.1,7.7,2.3,9.9,5.7
				c1,1.5,1.2,3.1,0.5,4.5C515.8,430,514.7,431,513.5,431.1C513.6,431.1,513.5,431.1,513.5,431.1z"/>
		</g>
	</g>
	<g>
		<g>
			<path fill="#FFFFFF" d="M184.4,401.5c-2.4,0-4.5-0.5-5.9-1.9c-0.4,0.1-0.8,0.1-1.2,0.2c-9.4,1.2-18.2,0.3-21.4-2.2
				c-0.8-0.6-1.3-1.4-1.4-2.2c-0.1-0.7,0.2-1.4,0.9-2.1c3.6-4,18-7.2,30.7-7c5.8,0.1,13.2,1.2,21.8,3.1c0.9,0.2,1.8,0.4,2.7,0.6
				c11.3-4.3,16.1-6,25.8-8.7c7.4-2,12.6-2.2,15.3-0.4c1.2,0.8,1.9,1.9,2.2,3.3c0.2,1.4-0.1,2.7-1,3.7c-0.7,0.8-1.8,1.2-2.9,1.1
				c-1.4-0.1-2.4-0.8-2.9-2c-0.4-1-0.2-2.1,0.4-2.7c0.1-0.1,0.4-0.2,0.5,0c0.1,0.1,0.2,0.4,0,0.5c-0.3,0.3-0.5,1.1-0.2,1.9
				c0.2,0.5,0.7,1.3,2.2,1.5c0.9,0.1,1.7-0.2,2.3-0.9c0.7-0.7,1-1.9,0.8-3c-0.2-1.2-0.8-2.1-1.8-2.8c-2.6-1.6-7.7-1.5-14.7,0.5
				c-9.4,2.6-14.1,4.3-24.7,8.3c0.5,0.1,1,0.2,1.5,0.3c0.9,0.2,1.7,0.4,2.5,0.6c2-0.7,3.8-1.3,5.7-1.8c5.5-1.4,9.7-0.6,10.9,0.9
				c0.4,0.5,0.5,1.1,0.2,1.6c-0.7,1.3-3.5,2-7.5,1.8c-1.7-0.1-4.9-0.8-9.3-1.7c-1.5,0.5-3.2,1.2-5,1.8c-2.6,1-5.6,2.1-9.4,3.4
				C196.1,399.2,189.5,401.5,184.4,401.5z M179.4,399.5c4.4,3.2,14.4-0.3,21.9-2.9c3.8-1.3,6.7-2.4,9.4-3.4c1.4-0.5,2.7-1,3.9-1.5
				c-0.4-0.1-0.9-0.2-1.4-0.3c-0.8-0.2-1.7-0.4-2.6-0.6c-0.2,0.1-0.5,0.2-0.7,0.3C198.5,395.5,189.2,398,179.4,399.5z M184.5,387.1
				c-13.3,0-25.6,3.5-28.6,6.7c-0.5,0.5-0.7,1-0.7,1.5c0.1,0.6,0.4,1.1,1.1,1.7c3.1,2.4,11.7,3.3,20.9,2.1c0.2,0,0.4-0.1,0.7-0.1
				c-0.2-0.2-0.3-0.5-0.5-0.8c-0.9-1.6-0.8-3.3,0.1-4.7c0.9-1.5,2.6-2.4,4.2-2.4c2,0.1,2.7,1.4,2.8,2.1c0,0.2-0.1,0.4-0.3,0.4
				s-0.4-0.1-0.4-0.3c0-0.1-0.2-1.4-2-1.4c-1.4,0-2.8,0.8-3.6,2s-0.8,2.6,0,4c0.2,0.4,0.4,0.7,0.7,1c9.9-1.4,19.1-3.9,30.6-8.3
				c-0.5-0.1-1.1-0.2-1.6-0.4c-8.6-1.9-15.9-3-21.7-3.1C185.5,387.1,185,387.1,184.5,387.1z M217.3,391.6c3.7,0.8,6.5,1.4,8,1.5
				c4.4,0.2,6.4-0.6,6.8-1.4c0.1-0.2,0.1-0.5-0.1-0.8c-0.8-1.1-4.4-2.2-10.2-0.6C220.3,390.6,218.9,391.1,217.3,391.6z"/>
		</g>
		<g>
			<path fill="#FFFFFF" d="M243.9,380.6c-0.2,0-0.4-0.1-0.4-0.3c0-0.2,0.1-0.4,0.3-0.4l15.8-1.4c1.9-0.2,1.9-1.7,1.9-1.8
				c0-0.2,0.2-0.4,0.4-0.4c0.2,0,0.4,0.2,0.4,0.4c0,0.8-0.5,2.4-2.6,2.6L243.9,380.6L243.9,380.6z"/>
		</g>
	</g>
	<g>
		<g>
			<path fill="#FFFFFF" d="M428.9,401.5c-5.1,0-11.8-2.3-17.2-4.2c-3.8-1.3-6.7-2.4-9.4-3.4c-1.9-0.7-3.5-1.3-5-1.8
				c-4.4,1-7.6,1.7-9.3,1.7c-4,0.2-6.9-0.5-7.5-1.8c-0.3-0.5-0.2-1.1,0.2-1.6c1.2-1.5,5.4-2.3,10.9-0.9c1.9,0.5,3.7,1.1,5.7,1.8
				c0.8-0.2,1.6-0.4,2.5-0.6c0.5-0.1,1-0.2,1.5-0.3c-10.6-4-15.3-5.7-24.7-8.3c-7.1-2-12.2-2.1-14.7-0.5c-1,0.6-1.6,1.6-1.8,2.8
				c-0.2,1.1,0.1,2.3,0.8,3c0.6,0.6,1.4,0.9,2.3,0.9c1.5-0.1,2-1,2.2-1.5c0.3-0.8,0.1-1.6-0.2-1.9c-0.1-0.1-0.1-0.4,0-0.5
				c0.2-0.1,0.4-0.1,0.5,0c0.6,0.6,0.8,1.7,0.4,2.7c-0.4,1.1-1.5,1.8-2.9,2c-1.1,0.1-2.1-0.3-2.9-1.1c-0.9-0.9-1.2-2.3-1-3.7
				c0.2-1.4,1-2.5,2.2-3.3c2.8-1.8,7.9-1.6,15.3,0.4c9.7,2.7,14.5,4.4,25.8,8.7c0.9-0.2,1.8-0.4,2.7-0.6c8.6-1.9,16-3,21.8-3.1
				c12.7-0.3,27.1,3,30.7,7c0.6,0.7,0.9,1.4,0.9,2.1c-0.1,0.8-0.5,1.5-1.4,2.2c-3.2,2.6-12.1,3.5-21.4,2.2c-0.4-0.1-0.8-0.1-1.2-0.2
				C433.4,401,431.3,401.5,428.9,401.5z M398.6,391.7c1.2,0.4,2.5,0.9,3.9,1.5c2.6,1,5.6,2.1,9.4,3.4c7.5,2.6,17.5,6.1,21.9,2.9
				c-9.8-1.5-19-4-30.5-8.4c-0.2-0.1-0.5-0.2-0.7-0.3c-0.9,0.2-1.8,0.4-2.6,0.6C399.5,391.5,399.1,391.6,398.6,391.7z M435.4,399
				c0.2,0,0.4,0.1,0.7,0.1c9.2,1.2,17.8,0.4,20.9-2.1c0.6-0.5,1-1.1,1.1-1.7c0.1-0.5-0.2-1-0.7-1.5c-3.1-3.4-16.3-7-30.1-6.7
				c-5.8,0.1-13.1,1.1-21.7,3.1c-0.5,0.1-1.1,0.2-1.6,0.4c11.5,4.4,20.8,6.9,30.6,8.3c0.3-0.3,0.5-0.6,0.7-1c0.7-1.3,0.7-2.8,0-4
				c-0.8-1.3-2.2-2.1-3.6-2c-1.8,0.1-2,1.4-2,1.4c0,0.2-0.2,0.3-0.4,0.3c-0.2,0-0.3-0.2-0.3-0.4c0.1-0.7,0.8-2,2.8-2.1
				c1.7,0,3.3,0.9,4.2,2.4c0.9,1.4,0.9,3.2,0.1,4.7C435.8,398.5,435.6,398.7,435.4,399z M386.2,389.5c-2.7,0-4.3,0.7-4.9,1.4
				c-0.2,0.3-0.3,0.5-0.1,0.8c0.4,0.8,2.4,1.6,6.8,1.4c1.5-0.1,4.2-0.6,8-1.5c-1.5-0.5-3-1-4.5-1.4
				C389.4,389.7,387.6,389.5,386.2,389.5z"/>
		</g>
		<g>
			<path fill="#FFFFFF" d="M369.4,380.6C369.3,380.6,369.3,380.6,369.4,380.6l-15.8-1.4c-2.1-0.2-2.6-1.8-2.6-2.6
				c0-0.2,0.2-0.3,0.4-0.4c0.2,0,0.4,0.2,0.4,0.4c0,0.2,0,1.6,1.9,1.8l15.8,1.4c0.2,0,0.4,0.2,0.3,0.4
				C369.7,380.4,369.5,380.6,369.4,380.6z"/>
		</g>
	</g>
	<g>
		<g>
			<g>
				<g>
					<path fill="#FFFFFF" d="M23.5,318.2c-0.2,0-0.3-0.1-0.4-0.2l-7.5-20.8c-0.1-0.2,0-0.4,0.2-0.5s0.4,0,0.5,0.2l7.5,20.8
						C23.9,317.9,23.8,318.1,23.5,318.2C23.6,318.2,23.5,318.2,23.5,318.2z"/>
				</g>
				<g>
					<path fill="#FFFFFF" d="M29.5,314.7c-0.1,0-0.2,0-0.3-0.1l-13.5-17.4c-0.1-0.2-0.1-0.4,0.1-0.5s0.4-0.1,0.5,0.1l13.5,17.4
						c0.1,0.2,0.1,0.4-0.1,0.5C29.6,314.7,29.6,314.7,29.5,314.7z"/>
				</g>
				<g>
					<path fill="#FFFFFF" d="M34,309.4c-0.1,0-0.1,0-0.2-0.1l-18.1-12c-0.2-0.1-0.2-0.3-0.1-0.5c0.1-0.2,0.3-0.2,0.5-0.1l18.1,12
						c0.2,0.1,0.2,0.3,0.1,0.5C34.3,309.3,34.2,309.4,34,309.4z"/>
				</g>
				<g>
					<path fill="#FFFFFF" d="M36.3,304L36.3,304l-20.4-6.6c-0.2-0.1-0.3-0.3-0.2-0.5s0.3-0.3,0.5-0.2l20.3,6.6
						c0.2,0.1,0.3,0.3,0.2,0.5C36.6,303.9,36.5,304,36.3,304z"/>
				</g>
				<g>
					<path fill="#FFFFFF" d="M17,298.4"/>
				</g>
			</g>
		</g>
		<g>
			<path fill="#FFFFFF" d="M12.7,355c-0.1,0-0.2-0.1-0.3-0.2c-0.1-0.2-0.1-0.4,0.1-0.5c0,0,3.2-2.4,3.2-9c0-0.2-0.1-20.9,0-29.9
				c0-2.5,0.1-4.8,0.1-7.1c0.1-4.5,0.2-8.2-0.1-11c-1.5-0.3-2.7-0.6-3.4-1c-1.3-0.8-2-2.1-1.8-3.3c0.2-0.9,0.8-1.7,1.7-1.9
				c1-0.2,2,0.3,2.8,1.5c0.7,1,1.1,2.4,1.4,4.1c6.3,1,18.5,0.9,27.9,0.9c1.7,0,3.3,0,4.7,0c13.6,0,90.3,0.1,102.2,0.2v0.7
				c-0.2,0-17.9,0.8-26.3,5.4c-1.5,0.8-2.3,1.9-2.2,3.1c0.1,1.1,0.8,2.1,1.9,2.5s2.3,0.2,3.3-0.8c0.1-0.1,0.4-0.1,0.5,0
				c0.1,0.1,0.1,0.4,0,0.5c-1.2,1.1-2.7,1.5-4.1,0.9c-1.3-0.5-2.3-1.8-2.4-3.1c-0.1-0.9,0.2-2.5,2.6-3.8c4.9-2.7,12.6-4.1,18.4-4.8
				c-23.5-0.1-82.2-0.2-94-0.2c-1.5,0-3.1,0-4.7,0c-9.8,0-21.4,0.1-27.8-0.9c0.3,2.9,0.2,6.5,0.1,10.9c-0.1,2.2-0.1,4.5-0.1,7
				c-0.1,9,0,29.7,0,29.9c0,7-3.3,9.5-3.5,9.6C12.9,355,12.8,355,12.7,355z M12.6,291.8c-0.1,0-0.2,0-0.3,0c-0.6,0.1-1,0.6-1.1,1.3
				c-0.1,0.4-0.1,1.6,1.4,2.5c0.6,0.4,1.6,0.7,2.9,0.9c-0.2-1.5-0.6-2.6-1.2-3.5C13.8,292.2,13.2,291.8,12.6,291.8z"/>
		</g>
		<g>
			<path fill="#FFFFFF" d="M36.2,336.1c-1.1,0-2.3,0-3.6-0.1c-2.8-0.2-4.7-1.5-5-3.6c-0.5-3.1,2.5-7.7,10.4-11.1
				c5.9-2.5,13.8-2.4,21.6-1.3c1.4-1.2,2.7-2.6,3.8-4.1c2.4-3.2,3.1-6.5,1.9-9.2c-0.8-1.7-2.3-2.8-3.9-2.9c-2-0.1-3.9,0.6-5.1,1.9
				c-0.9,1.1-1.3,2.4-1.1,3.7c0.5,2.7,3.2,2.8,3.3,2.8c0.2,0,0.4,0.2,0.4,0.4s-0.2,0.4-0.4,0.4c0,0-3.4,0-4-3.4
				c-0.3-1.5,0.2-3.1,1.2-4.3c1.3-1.5,3.4-2.3,5.7-2.2c1.9,0.1,3.6,1.4,4.5,3.3c1.3,2.9,0.6,6.5-1.9,9.9c-1,1.3-2.2,2.6-3.4,3.7
				c1.9,0.3,3.8,0.6,5.6,1c6.1-3.9,14.4-8.3,26.8-12.6c34.1-11.9,58-10.9,58.2-10.9s0.4,0.2,0.4,0.4c0,0.2-0.2,0.4-0.4,0.4
				s-24-1-58,10.9c-11.9,4.1-20,8.3-26,12.1c1.9,0.4,3.8,0.8,5.6,1.3c6.6-2.9,15.6-5.4,19.9-4.4c2.5,0.6,3.9,2.4,3.4,4.5
				c-0.6,2.8-4.2,5-10,3.9c-2.2-0.4-4.9-1.1-8.1-1.9c-1.6-0.4-3.3-0.9-5.2-1.3c-2.5,1.1-4.6,2.3-5.9,3.3l-0.2,0.1l-0.2-0.1
				c-0.1,0-2.3-0.7-5.5-1.3c-1,0.7-2,1.4-2.9,2.1C51.2,332.7,46.4,336.1,36.2,336.1z M49.8,320.1c-4.3,0-8.2,0.6-11.6,2
				c-7.5,3.2-10.4,7.5-9.9,10.2c0.3,1.7,1.9,2.8,4.3,3c12.6,0.9,17.3-2.6,25.1-8.2c0.7-0.5,1.5-1.1,2.3-1.7
				c-1.6-0.3-3.4-0.6-5.3-0.8c-4.8,3-9.7,4.9-12.2,5.5c-2.7,0.6-4.7,0.4-5.6-0.5c-0.4-0.4-0.5-1-0.3-1.6c0.4-1.3,2.5-3,7.2-4
				c3.3-0.7,7.2-0.6,10.8-0.2c1.4-0.9,2.9-1.9,4.2-3.1C55.7,320.3,52.7,320.1,49.8,320.1z M49.5,324.3c-1.9,0-3.8,0.1-5.6,0.5
				c-4.1,0.8-6.3,2.3-6.6,3.5c-0.1,0.3-0.1,0.6,0.2,0.8c0.5,0.6,2.1,0.9,4.9,0.3c1.5-0.4,6.2-2,11.1-4.9
				C52.1,324.4,50.8,324.3,49.5,324.3z M73.9,323c1.5,0.4,2.9,0.7,4.2,1.1c3.2,0.8,5.9,1.5,8.1,1.9c5.3,1,8.6-0.9,9.1-3.3
				c0.3-1.4-0.5-3.1-2.9-3.6C88.6,318.2,80.3,320.4,73.9,323z M61.8,325c2.4,0.5,4.1,1,4.7,1.1c1.2-0.9,3-1.9,5.1-2.9
				c-1.7-0.4-3.5-0.8-5.4-1.2C64.6,323.1,63.2,324,61.8,325z M55.7,324c1.8,0.2,3.6,0.5,5.1,0.8c1.3-0.9,2.8-1.9,4.3-2.9
				c-1.8-0.4-3.6-0.7-5.4-0.9C58.4,322,57.1,323,55.7,324z"/>
		</g>
	</g>
	<g>
		<g>
			<g>
				<g>
					<path fill="#FFFFFF" d="M588.8,318.2L588.8,318.2c-0.3-0.1-0.4-0.3-0.3-0.5l7.5-20.8c0.1-0.2,0.3-0.3,0.5-0.2
						c0.2,0.1,0.3,0.3,0.2,0.5l-7.5,20.8C589.1,318.1,588.9,318.2,588.8,318.2z"/>
				</g>
				<g>
					<path fill="#FFFFFF" d="M582.8,314.7c-0.1,0-0.2,0-0.2-0.1c-0.2-0.1-0.2-0.4-0.1-0.5l13.5-17.4c0.1-0.2,0.4-0.2,0.5-0.1
						c0.2,0.1,0.2,0.4,0.1,0.5l-13.5,17.4C583,314.7,582.9,314.7,582.8,314.7z"/>
				</g>
				<g>
					<path fill="#FFFFFF" d="M578.2,309.4c-0.1,0-0.2-0.1-0.3-0.2c-0.1-0.2-0.1-0.4,0.1-0.5l18.1-12c0.2-0.1,0.4-0.1,0.5,0.1
						s0.1,0.4-0.1,0.5l-18.1,12C578.3,309.4,578.3,309.4,578.2,309.4z"/>
				</g>
				<g>
					<path fill="#FFFFFF" d="M575.9,304c-0.2,0-0.3-0.1-0.4-0.3c-0.1-0.2,0-0.4,0.2-0.5l20.3-6.6c0.2-0.1,0.4,0,0.5,0.2
						s0,0.4-0.2,0.5L575.9,304C576,304,576,304,575.9,304z"/>
				</g>
				<g>
					<path fill="#FFFFFF" d="M595.3,298.4"/>
				</g>
			</g>
		</g>
		<g>
			<path fill="#FFFFFF" d="M599.5,355c-0.1,0-0.2,0-0.2-0.1c-0.1-0.1-3.5-2.6-3.5-9.6c0-0.2,0.1-20.9,0-29.9c0-2.5-0.1-4.8-0.1-7
				c-0.1-4.4-0.2-8.1,0.1-10.9c-6.4,1-18,0.9-27.8,0.9c-1.7,0-3.3,0-4.7,0c-11.7,0-70.5,0.1-94,0.2c5.9,0.7,13.6,2.1,18.4,4.8
				c2.4,1.3,2.6,3,2.6,3.8c-0.1,1.3-1,2.6-2.4,3.1s-2.9,0.2-4.1-0.9c-0.1-0.1-0.2-0.4,0-0.5c0.1-0.1,0.4-0.2,0.5,0
				c1,0.9,2.2,1.2,3.3,0.8c1.1-0.4,1.8-1.4,1.9-2.5c0.1-1.2-0.7-2.3-2.2-3.1c-8.4-4.6-26.1-5.4-26.3-5.4V298
				c11.9-0.1,88.6-0.2,102.2-0.2c1.5,0,3.1,0,4.7,0c9.4,0,21.6,0.1,27.9-0.9c0.2-1.7,0.7-3,1.4-4.1c0.8-1.2,1.8-1.7,2.8-1.5
				c0.9,0.2,1.5,0.9,1.7,1.9c0.2,1.2-0.4,2.5-1.8,3.3c-0.7,0.4-1.9,0.8-3.4,1c-0.3,2.8-0.2,6.6-0.1,11c0.1,2.2,0.1,4.5,0.1,7.1
				c0.1,9,0,29.7,0,29.9c0,6.6,3.1,9,3.2,9c0.2,0.1,0.2,0.4,0.1,0.5C599.8,354.9,599.7,355,599.5,355z M599.7,291.8
				c-0.6,0-1.2,0.4-1.7,1.2c-0.6,0.9-1,2.1-1.2,3.5c1.3-0.2,2.3-0.5,2.9-0.9c1.5-1,1.5-2.1,1.4-2.5c-0.1-0.6-0.6-1.1-1.1-1.3
				C599.8,291.8,599.7,291.8,599.7,291.8z"/>
		</g>
		<g>
			<path fill="#FFFFFF" d="M577.5,336.1c-12.3,0-18.8-5.2-27-11.6c-0.1-0.1-0.2-0.1-0.2-0.2c-3.5,0.2-6,0.5-6.1,0.5H544l-0.1-0.1
				c-1.5-1.2-3.9-2.7-6.7-4.1c-3.7,0.5-7.1,1.1-10,1.6l-1.9,0.3c-6.6,1.1-10.2-1.9-10.6-4.3c-0.3-1.5,0.7-3.5,4.1-4.1
				c4-0.7,12.2,2.5,18.5,5.8c2-0.3,4.1-0.5,6.2-0.8c-6.1-4.4-13.7-8.9-24.8-12.3c-26.1-8.2-57.3-8.1-57.6-8.2l0,0
				c-0.2,0-0.4-0.2-0.4-0.4c0-0.2,0.2-0.4,0.4-0.4l0,0c1.3,0,32,0.1,57.8,8.2c11.6,3.6,19.4,8.3,25.7,12.9c1.8-0.2,3.6-0.3,5.4-0.4
				c-0.6-0.6-1.2-1.3-1.7-2c-2.6-3.4-3.3-7-1.9-9.9c0.9-1.9,2.6-3.2,4.5-3.3c2.3-0.1,4.4,0.7,5.7,2.2c1.1,1.2,1.5,2.8,1.2,4.3
				c-0.7,3.3-4,3.4-4,3.4c-0.2,0-0.4-0.2-0.4-0.4c0-0.2,0.2-0.4,0.4-0.4c0.1,0,2.8,0,3.3-2.8c0.3-1.3-0.1-2.6-1.1-3.7
				c-1.2-1.3-3-2-5.1-1.9c-1.6,0.1-3.1,1.2-3.9,2.9c-1.2,2.6-0.5,6,1.9,9.2c0.6,0.8,1.3,1.6,2,2.4c8.4-0.4,16.9,0.2,23.4,2.9
				c7.9,3.4,10.9,8,10.4,11.2c-0.4,2-2.3,3.4-5,3.5C578.9,336,578.2,336.1,577.5,336.1z M551.4,324.1c8.3,6.6,15,11.7,28.3,11.1
				c2.4-0.1,4-1.2,4.3-2.9c0.5-2.7-2.4-7.1-9.9-10.3c-6.2-2.6-14.3-3.2-22.4-2.9c1.6,1.5,3.3,2.9,5.1,4.1c4,0,8.3,0.1,11.7,0.8
				c4.7,1,6.8,2.7,7.2,4c0.2,0.6,0.1,1.1-0.3,1.6c-0.9,1-2.9,1.1-5.6,0.5c-2.7-0.6-8.1-2.7-13.2-6.1
				C554.7,324,553,324.1,551.4,324.1z M557.9,324c5.2,3.3,10.4,5,12,5.4c2.8,0.7,4.4,0.3,4.9-0.3c0.2-0.2,0.3-0.5,0.2-0.8
				c-0.4-1.1-2.6-2.6-6.6-3.5C565.3,324.2,561.5,324,557.9,324z M538.5,320.4c2.4,1.3,4.4,2.6,5.8,3.6c0.5-0.1,2.5-0.3,5.1-0.5
				c-1.6-1.3-3.2-2.6-5-3.9C542.4,319.9,540.4,320.1,538.5,320.4z M545.5,319.6c1.8,1.3,3.4,2.6,5,3.9c1.5-0.1,3.2-0.2,5-0.2
				c-1.7-1.2-3.3-2.6-4.8-4C549,319.3,547.2,319.4,545.5,319.6z M520.1,314.6c-0.4,0-0.8,0-1.2,0.1c-2.4,0.4-3.7,1.6-3.4,3.3
				c0.3,2.1,3.7,4.7,9.7,3.7l1.9-0.3c2.7-0.4,5.7-0.9,9-1.4C530.6,317.2,524.1,314.6,520.1,314.6z"/>
		</g>
	</g>
	<g>
		<g>
			<path fill="#FFFFFF" d="M12.1,444.5c-0.2,0-0.3,0-0.5-0.1c-0.7-0.2-1.2-0.8-1.4-1.6c-0.2-1,0.3-2,1.4-2.7c0.8-0.6,1.9-1,3.5-1.3
				c0.4-2.1,0.5-4.4,0.5-5.7v-8.9c0-6.5-2.5-10-2.5-10.1c-0.1-0.2-0.1-0.4,0.1-0.5c0.2-0.1,0.4-0.1,0.5,0.1s2.6,3.8,2.6,10.5v8.9
				c0,0,0,2.8-0.5,5.5c1.4-0.2,3.1-0.2,5.3-0.2h38.8c5.8,0,9.1,2.2,9.2,2.3c0.2,0.1,0.2,0.4,0.1,0.5c-0.1,0.2-0.4,0.2-0.5,0.1
				c0,0-3.2-2.2-8.8-2.2H21.1c-2.3,0-4,0.1-5.4,0.3c-0.3,1.5-0.8,2.9-1.4,3.7C13.6,444.1,12.9,444.5,12.1,444.5z M15,439.7
				c-1.3,0.2-2.2,0.6-2.9,1.1c-0.8,0.6-1.2,1.3-1,2c0.1,0.5,0.4,0.8,0.8,1c0.6,0.2,1.3-0.2,1.9-0.9C14.3,442.2,14.7,441.1,15,439.7z
				"/>
		</g>
		<g>
			<path fill="#FFFFFF" d="M16.5,439.3c-0.2,0-0.3-0.1-0.4-0.3c-0.1-0.2,0-0.4,0.2-0.5l13.8-4.7c0.2-0.1,0.4,0,0.5,0.2
				s0,0.4-0.2,0.5l-13.8,4.7C16.6,439.3,16.6,439.3,16.5,439.3z"/>
		</g>
		<g>
			<path fill="#FFFFFF" d="M16.4,439.3c-0.1,0-0.2,0-0.3-0.1c-0.1-0.2-0.1-0.4,0.1-0.5l11.4-9c0.2-0.1,0.4-0.1,0.5,0.1
				s0.1,0.4-0.1,0.5l-11.4,9C16.6,439.3,16.5,439.3,16.4,439.3z"/>
		</g>
		<g>
			<path fill="#FFFFFF" d="M16.2,439.3c-0.1,0-0.1,0-0.2-0.1c-0.2-0.1-0.2-0.3-0.1-0.5l7.8-12.3c0.1-0.2,0.3-0.2,0.5-0.1
				s0.2,0.3,0.1,0.5l-7.8,12.3C16.5,439.2,16.4,439.3,16.2,439.3z"/>
		</g>
		<g>
			<path fill="#FFFFFF" d="M16,439.3h-0.1c-0.2-0.1-0.3-0.3-0.3-0.5l4.2-14c0.1-0.2,0.3-0.3,0.5-0.3c0.2,0.1,0.3,0.3,0.3,0.5
				l-4.2,14C16.3,439.2,16.2,439.3,16,439.3z"/>
		</g>
	</g>
	<g>
		<g>
			<path fill="#FFFFFF" d="M599.3,444.5c-0.7,0-1.5-0.4-2.2-1.2c-0.7-0.8-1.1-2.2-1.4-3.7c-1.4-0.2-3.1-0.3-5.4-0.3h-38.8
				c-5.6,0-8.7,2.2-8.8,2.2c-0.2,0.1-0.4,0.1-0.5-0.1s-0.1-0.4,0.1-0.5c0.1-0.1,3.4-2.3,9.2-2.3h38.8c2.2,0,3.9,0.1,5.3,0.2
				c-0.5-2.7-0.5-5.5-0.5-5.5v-8.9c0-6.7,2.5-10.3,2.6-10.5s0.4-0.2,0.5-0.1c0.2,0.1,0.2,0.4,0.1,0.5c0,0-2.5,3.6-2.5,10.1v8.9
				c0,1.3,0.1,3.6,0.5,5.7c1.6,0.3,2.7,0.7,3.5,1.3c1,0.7,1.5,1.8,1.4,2.7c-0.1,0.8-0.7,1.4-1.4,1.6
				C599.6,444.5,599.5,444.5,599.3,444.5z M596.4,439.7c0.3,1.3,0.7,2.5,1.2,3.1c0.6,0.7,1.3,1.1,1.9,0.9c0.4-0.1,0.7-0.5,0.8-1
				c0.1-0.7-0.3-1.4-1-2C598.7,440.3,597.7,440,596.4,439.7z"/>
		</g>
		<g>
			<path fill="#FFFFFF" d="M594.9,439.3L594.9,439.3l-13.9-4.7c-0.2-0.1-0.3-0.3-0.2-0.5s0.3-0.3,0.5-0.2l13.8,4.7
				c0.2,0.1,0.3,0.3,0.2,0.5C595.2,439.2,595,439.3,594.9,439.3z"/>
		</g>
		<g>
			<path fill="#FFFFFF" d="M595,439.3c-0.1,0-0.2,0-0.2-0.1l-11.4-9c-0.2-0.1-0.2-0.4-0.1-0.5c0.1-0.2,0.4-0.2,0.5-0.1l11.4,9
				c0.2,0.1,0.2,0.4,0.1,0.5C595.2,439.3,595.1,439.3,595,439.3z"/>
		</g>
		<g>
			<path fill="#FFFFFF" d="M595.2,439.3c-0.1,0-0.2-0.1-0.3-0.2l-7.8-12.3c-0.1-0.2-0.1-0.4,0.1-0.5c0.2-0.1,0.4-0.1,0.5,0.1
				l7.8,12.3c0.1,0.2,0.1,0.4-0.1,0.5C595.3,439.3,595.2,439.3,595.2,439.3z"/>
		</g>
		<g>
			<path fill="#FFFFFF" d="M595.4,439.3c-0.2,0-0.3-0.1-0.4-0.3l-4.2-14c-0.1-0.2,0.1-0.4,0.3-0.5s0.4,0.1,0.5,0.3l4.2,14
				C595.9,439,595.7,439.2,595.4,439.3L595.4,439.3z"/>
		</g>
	</g>
	<g>
		<g>
			<g>
				<path fill="#FFFFFF" d="M438.1,302.3c-1,0-2-0.1-3.3-0.4c-9.3-1.8-64.8-9.1-126.6-10.7h-0.1l-2.5-2.3l-2.3,2.3h-0.2l0,0
					c-48.1,0-89.6,4.4-110,7l-6.3,0.9c-0.2,0-0.4-0.1-0.4-0.3c0-0.2,0.1-0.4,0.3-0.4l6.3-0.9c20.5-2.6,61.9-7,110-7l2.6-2.6l2.8,2.7
					c61.9,1.6,117.3,8.9,126.6,10.7c3.3,0.6,5.6,0.4,6.6-0.8c1-1.1,0.6-2.8,0.5-2.8c-0.1-0.2,0.1-0.4,0.3-0.5
					c0.2-0.1,0.4,0.1,0.5,0.3c0,0.1,0.6,2.1-0.7,3.6C441.3,301.8,440,302.3,438.1,302.3z"/>
			</g>
			<g>
				<g>
					<path fill="#FFFFFF" d="M305.6,288.7L305.6,288.7c-0.2,0-0.4-0.2-0.4-0.4l0.1-12.5c0-0.2,0.2-0.3,0.4-0.4
						c0.2,0,0.4,0.2,0.4,0.4l-0.1,12.5C306,288.6,305.8,288.7,305.6,288.7z"/>
				</g>
				<g>
					<path fill="#FFFFFF" d="M305,289c-0.2,0-0.3-0.1-0.4-0.3l-4-12c-0.1-0.2,0-0.4,0.2-0.5s0.4,0,0.5,0.2l4,12
						c0.1,0.2,0,0.4-0.2,0.5C305.1,289,305,289,305,289z"/>
				</g>
				<g>
					<path fill="#FFFFFF" d="M304.5,289.5c-0.1,0-0.2,0-0.3-0.1l-7.8-10c-0.1-0.2-0.1-0.4,0.1-0.5s0.4-0.1,0.5,0.1l7.8,10
						c0.1,0.2,0.1,0.4-0.1,0.5C304.7,289.5,304.6,289.5,304.5,289.5z"/>
				</g>
				<g>
					<path fill="#FFFFFF" d="M303.8,290c-0.1,0-0.1,0-0.2-0.1l-10.5-6.8c-0.2-0.1-0.2-0.3-0.1-0.5s0.3-0.2,0.5-0.1l10.5,6.8
						c0.2,0.1,0.2,0.3,0.1,0.5C304.1,290,304,290,303.8,290z"/>
				</g>
				<g>
					<path fill="#FFFFFF" d="M303.6,290.7h-0.1l-12-3.6c-0.2-0.1-0.3-0.3-0.3-0.5c0.1-0.2,0.3-0.3,0.5-0.3l12,3.6
						c0.2,0.1,0.3,0.3,0.3,0.5C303.9,290.6,303.8,290.7,303.6,290.7z"/>
				</g>
				<g>
					<path fill="#FFFFFF" d="M306.2,289.3h-0.1c-0.2-0.1-0.3-0.3-0.2-0.5l4.2-12.3c0.1-0.2,0.3-0.3,0.5-0.2c0.2,0.1,0.3,0.3,0.2,0.5
						l-4.2,12.3C306.5,289.2,306.3,289.3,306.2,289.3z"/>
				</g>
				<g>
					<path fill="#FFFFFF" d="M306.6,289.7c-0.1,0-0.2,0-0.2-0.1c-0.2-0.1-0.2-0.4-0.1-0.5l8.1-10.2c0.1-0.2,0.4-0.2,0.5-0.1
						c0.2,0.1,0.2,0.4,0.1,0.5l-8.1,10.2C306.8,289.7,306.7,289.7,306.6,289.7z"/>
				</g>
				<g>
					<path fill="#FFFFFF" d="M307.3,290.1c-0.1,0-0.2-0.1-0.3-0.2c-0.1-0.2-0.1-0.4,0.1-0.5l10.7-6.7c0.2-0.1,0.4-0.1,0.5,0.1
						s0.1,0.4-0.1,0.5l-10.7,6.7C307.4,290,307.4,290.1,307.3,290.1z"/>
				</g>
				<g>
					<path fill="#FFFFFF" d="M307.6,290.7c-0.2,0-0.3-0.1-0.4-0.3c-0.1-0.2,0.1-0.4,0.3-0.5l12-3.4c0.2-0.1,0.4,0.1,0.5,0.3
						c0.1,0.2-0.1,0.4-0.3,0.5l-12,3.4H307.6z"/>
				</g>
			</g>
		</g>
		<g>
			<g>
				<path fill="#FFFFFF" d="M174,301c-1.9,0-3.2-0.5-4.1-1.4c-1.3-1.5-0.7-3.5-0.7-3.6c0.1-0.2,0.3-0.3,0.5-0.3s0.3,0.3,0.3,0.5
					c0,0-0.5,1.7,0.5,2.8c1,1.1,3.3,1.4,6.6,0.8c1.8-0.4,5.3-0.9,9.6-1.5c0.2,0,0.4,0.1,0.4,0.3c0,0.2-0.1,0.4-0.3,0.4
					c-4.2,0.6-7.7,1.1-9.5,1.5C176,300.9,175,301,174,301z"/>
			</g>
		</g>
	</g>
</g>
</svg>
