<?xml version="1.0" encoding="utf-8"?>
<!-- Generator: Adobe Illustrator 18.1.1, SVG Export Plug-In . SVG Version: 6.00 Build 0)  -->
<!DOCTYPE svg PUBLIC "-//W3C//DTD SVG 1.1//EN" "http://www.w3.org/Graphics/SVG/1.1/DTD/svg11.dtd">
<svg version="1.1" id="Layer_1" xmlns="http://www.w3.org/2000/svg" xmlns:xlink="http://www.w3.org/1999/xlink" x="0px" y="0px"
	 viewBox="0 0 612 792" enable-background="new 0 0 612 792" xml:space="preserve">
	<style type="text/css">
  <![CDATA[
  path {stroke-width: .5em;}
  ]]>
  </style>
<g>
	<g>
		<path fill="#FFFFFF" d="M481.5,345.2c0.2,0.7,0.5,1.5,0.7,2.4c-0.5-1.5-0.8-2.5-0.8-2.8L481.5,345.2z"/>
		<path fill="#FFFFFF" d="M155.2,341.9l-0.1-0.5l-1.6-2.6l0.2,1c0.2,1.1,1.7,6,2.1,7.1l0.3,0.9l-2.9,0.8c-3.6,1.1-5.2,2.4-5.7,8.1
			c-0.3,2.9-0.6,7.3-1,12.7c0.5,0.4,1,0.9,1.5,1.2c0.3-4.9,0.6-9.2,0.9-12c0.6-5.9,2.3-7.4,6.1-8.5l2.4-0.7l-0.2-0.4
			C156.9,348,155.4,343,155.2,341.9z"/>
		<path fill="#FFFFFF" d="M98.5,365c-0.7,0-1.6,0.2-2.7,0.5l-2.6,0.8l2.3,1.4l2.1-0.6c1.9-0.6,3.2-0.6,4.4-0.2
			C101,365.6,99.9,365,98.5,365z"/>
		<path fill="#FFFFFF" d="M150.4,373c0,0-3.2,2.3-4.3,4.1c-0.5,10-0.8,19.5-0.8,25.5v0.7l-0.7,0.2c-2.4,0.6-11.9,3.4-14.3,4.2
			l-0.4,0.1c-0.2,0.1-0.3,0.1-0.3,0.1l2.2,1.4l0.3-0.1c2.4-0.8,11.9-3.6,14.3-4.2l0.3-0.1v-0.3c0-6.4,0.3-16.3,0.8-25.7
			c1.1-1.9,4.5-4.3,4.5-4.3l-1.1-2.1c0,0,0,0,0,0l0,0L150.4,373z"/>
		<path fill="#FFFFFF" d="M115.7,386.3c-0.7-1-4.4-1.4-6.6-1.4l-0.7,0l2.7,1.5c0,0,2.9,0,5.1,0.6c-0.1-0.2-0.2-0.4-0.4-0.6
			C115.8,386.4,115.7,386.3,115.7,386.3z"/>
		<path fill="#FFFFFF" d="M134.8,354.3c-0.4,0-1,0.1-1.6,0.3l-2.9,0.9l0,0l0,0l2.4,1.4l2.4-0.7c0.7-0.2,1.2-0.3,1.7-0.3
			C136.3,354.6,135.6,354.3,134.8,354.3z"/>
		<path fill="#FFFFFF" d="M125.4,355.8l0.4,0.9l-3.4,1c-1.1,0.3-1.7,0.8-2,1.5c-0.4,1.1,0,2.8,1.3,5.1c3.4,5.5,10.6,16.4,15,23.1
			c0,0,0-0.1,0-0.1c-4.5-6.7-10.4-15.9-13.5-20.8c-1.4-2.4-1.8-4.3-1.3-5.5c0.3-0.8,1.1-1.4,2.3-1.8l2.8-0.8l-0.2-0.4
			c-0.4-1.1-1.9-6.1-2.1-7.2l-0.1-0.5l-1.6-2.6l0.2,1C123.5,349.8,125,354.7,125.4,355.8z"/>
		<path fill="#FFFFFF" d="M226.3,365.4l-1.6-3.1l0.1,1.1c0.4,6.4,1.8,16.3,2.8,22.7l0.2,1l-1,0.1c-4.5,0.4-13.2,1.7-17.6,2.4
			l-21.5,3.4c-3.8,0.6-10.9,1.8-13.5,2.3c-1.1,0.2-1.8,0.3-1.9,0.3l-0.9,0.1c0,0-0.1,0-0.1,0l2.4,1.4l0.4-0.1c0.1,0,0.9-0.1,1.9-0.3
			c3.2-0.6,9.8-1.7,13.5-2.3l21.5-3.4c4.4-0.7,13.1-2,17.6-2.4l0.5,0l-0.1-0.5C228.1,381.7,226.8,371.9,226.3,365.4z"/>
		<path fill="#FFFFFF" d="M168.7,345.8c-0.3,0-0.7,0-1.1,0.1l-4.2,0.7l0,0l2.4,1.4l3.7-0.6c0.4-0.1,0.8-0.1,1.2-0.1
			c0.2,0,0.4,0,0.6,0C170.5,346,169.6,345.8,168.7,345.8z"/>
		<path fill="#FFFFFF" d="M206.1,351.3c0.3,2.4,0.5,4.5,1.1,8.5c0.9,5.8,1.5,8.3,2.3,12.2l0.3,1.5l-1,0.1c-0.3,0-3.2,0.4-5.8,0.9
			l-1,0.2l2.4,1.4l0.4-0.1c2.8-0.6,5.8-0.9,5.8-0.9l0.5-0.1l-0.2-1c-0.9-3.9-1.4-6.4-2.3-12.2c-0.6-4-0.9-6-1.1-8.5
			c-0.1-1.2-0.3-2.5-0.5-4.1l-1.6-3l0.1,0.9C205.8,348.8,206,350,206.1,351.3z"/>
		<polygon fill="#FFFFFF" points="202.1,374.6 202.1,374.6 202.1,374.6 		"/>
		<path fill="#FFFFFF" d="M195.7,365.2c-0.7,0-1.6,0.1-2.5,0.2l-1.6,0.3c1,6,1.8,10.8,2.3,12.6c0.4,1.9,1,2.8,1.8,3.2
			c-0.1-0.3-0.2-0.7-0.3-1.1c-0.5-1.9-1.4-6.9-2.4-13.2l2.1-0.3c1-0.2,1.8-0.2,2.6-0.2c0.9,0,1.6,0.1,2.3,0.3
			C199,365.7,197.7,365.2,195.7,365.2z"/>
		<path fill="#FFFFFF" d="M221.9,350.1l0.2,0.9l-9.4,1.5l2.4,1.4l8.4-1.3l-0.1-0.4c-1-5.7-2.3-15.1-2.9-21.3l0-0.5l-1.6-2.6l0.1,1.1
			C219.5,335,220.9,344.4,221.9,350.1z"/>
		<path fill="#FFFFFF" d="M204,340.5c-1,0-2.1,0.1-3.4,0.3l-8.8,1.4c-2.5,0.4-3.4,1.7-3.2,4.3c0.2,2.1,0.8,6.8,1.7,12.4l1.2-0.2
			c-0.7-4.6-1.2-8.3-1.4-10.2c-0.3-2.9,0.8-4.4,3.6-4.9l8.8-1.4c1.4-0.2,2.5-0.3,3.5-0.3c1.2,0,2.2,0.1,3.2,0.5
			C207.9,340.9,206.1,340.5,204,340.5z"/>
		<path fill="#FFFFFF" d="M300.2,366l-1.6-2.6c0,0,0,0,0,0.1l0.2,0.8c1.3,4.7,2.3,11.2-1,15.8c-2.2,3-5.8,4.7-10.8,5
			c-0.6,0-1.1,0-1.6,0c0,0,0,0,0,0c-3.2,0-5.7-0.6-7.7-1.6c2.4,2.2,5.9,3.3,11.2,3c4.8-0.2,8.3-1.8,10.4-4.8
			c3.2-4.5,2.3-10.8,1-15.4L300.2,366z"/>
		<path fill="#FFFFFF" d="M264.7,334.1c-0.3,0-0.6,0-1,0l-2.8,0.1c-1.6,0.1-2.2,0.7-2.2,2.5c0,0.3,0.1,7.4,0.5,15.2l1.4-0.1
			c-0.3-6.7-0.4-12.4-0.4-13.1c0-2.1,0.7-2.9,2.7-3l2.8-0.1c0.3,0,0.7,0,1,0c1.5,0,2.7,0.2,3.7,0.6
			C269.2,334.7,267.3,334.1,264.7,334.1z"/>
		<path fill="#FFFFFF" d="M238.4,335.8l-4.5,0.2l2.3,1.5l4.2-0.2c0.4,0,0.7,0,1.1,0C240.9,335.9,240,335.7,238.4,335.8z"/>
		<path fill="#FFFFFF" d="M261.3,359.4l-1.7,0.1c0.3,5.6,0.6,10,0.8,11.5c0.3,2.1,0.9,3.1,1.8,3.6c-0.1-0.5-0.3-1-0.3-1.5
			c-0.2-1.6-0.6-6.1-0.9-12l2.2-0.1c1.9-0.1,3.6,0,4.9,0.5C266.6,359.5,264.3,359.3,261.3,359.4z"/>
		<path fill="#FFFFFF" d="M279.9,355.5c0.9,0.3,1.8,0.8,2.5,1.3c6.2-2.5,9.9-7.8,9.5-14.5c-0.2-3.6-1.3-6.5-3.3-8.9
			c1.1,2,1.7,4.2,1.8,6.8C290.9,347.3,286.9,353.1,279.9,355.5z"/>
		<path fill="#FFFFFF" d="M291.4,374.7c-0.5-1.3-1-3.2-1.5-5.9c-0.6-3.3-1.7-5.8-3.4-7.7c0.8,1.6,1.5,3.4,1.9,5.6
			C289.5,372.6,290.5,374.3,291.4,374.7z"/>
		<path fill="#FFFFFF" d="M267.8,384.3c-0.1,0-12.6,0.5-15.2,0.6c-5,0.3-13.6,0.8-15.2,0.9l-0.8,0.1c0,0-0.1,0-0.2,0l2.5,1.5l0.4,0
			c0.1,0,9.8-0.7,15.3-0.9c2.6-0.1,15.1-0.6,15.2-0.6l0.4,0l-0.4-8.5l-1.5-2.5l0,0.2l0.5,9.3L267.8,384.3z"/>
		<path fill="#FFFFFF" d="M240.5,359.5c0,0,0.3,0.2,0.7,0.4C241,359.8,240.8,359.6,240.5,359.5C240.5,359.5,240.5,359.5,240.5,359.5
			z"/>
		<path fill="#FFFFFF" d="M312.7,333.2l-4.5-0.1l2.5,1.5l4,0.1c0.3,0,0.5,0,0.8,0.1C315,333.5,314,333.2,312.7,333.2z"/>
		<path fill="#FFFFFF" d="M360,359.4c-0.5,5.7-1.2,18.3-1.2,24.3l0,1l-1-0.1c-5.1-0.5-13-0.7-16.8-0.9l-19.2-0.6
			c-3.4-0.1-10.9-0.3-14.3-0.3l-0.9,0l2.5,1.5l0.4,0c3.3,0,10.8,0.2,14.3,0.3l19.1,0.6c3.8,0.1,11.8,0.4,16.9,0.9l0.5,0l0-0.5
			c0-6,0.7-18.6,1.2-24.3l0-0.5l-1.5-2.5L360,359.4z"/>
		<path fill="#FFFFFF" d="M331.7,359.5c-0.1,5.3-0.2,9.3-0.2,11.1c0,1.9,0.5,2.8,1.6,3.2c-0.1-0.4-0.1-0.8-0.1-1.2
			c0-2,0.1-6.3,0.2-11.2c0.3-1.9,5.2-4.8,5.2-4.8l-1.1-2l-0.7,0.4C334.9,356.2,332,358.3,331.7,359.5z"/>
		<path fill="#FFFFFF" d="M341.1,333.1l0,0.9l-4.3-0.1c-0.2,0-0.3,0-0.4,0c-2.5,0-3.5,1-3.7,3.9c-0.1,1.6-0.3,5.9-0.5,11.8
			c0.1,0.6,0.7,1.3,1.5,2.1c0,0,0,0,0,0c0.2-5.4,0.4-10.1,0.6-11.9c0.3-3.3,1.5-4.5,4.7-4.3l3.8,0.1l0-0.4c0.1-1.9,0.2-6.5,0.3-7.5
			l0-0.5l-1.5-2.5l-0.1,1C341.3,326.7,341.2,331.7,341.1,333.1z"/>
		<path fill="#FFFFFF" d="M394.3,379.5c-0.1,0.6-0.3,2.2-0.5,3.8l-0.1,0.4c-0.2,1.5-0.4,3-0.5,3.5l-0.1,0.9l-0.9-0.1
			c-0.1,0-8.4-1.3-13-1.9c-4.6-0.6-13-1.6-13.1-1.6l-0.5-0.1c-0.2,0-0.3,0-0.4,0l2.6,1.6l0.4,0c0.1,0,8.5,1,13.1,1.6
			c4.6,0.6,13,1.9,13,1.9l0.4,0.1l0.1-0.4c0.1-0.6,0.3-2.2,0.5-3.8c0.2-1.6,0.5-3.2,0.5-3.8l0.1-0.4l-1.4-2.4c0,0,0,0,0,0l0,0
			L394.3,379.5z"/>
		<path fill="#FFFFFF" d="M425.1,368.8c0.8,3.3,1.5,5.8,1.9,7.4c1,3.5,1.9,5.3,3,6.3c-0.5-1.1-1-2.4-1.5-4.2c-0.4-1.6-1.1-4.3-2-7.6
			c1-2,3.7-4.5,3.7-4.5l-1.1-2.2l-0.6,0.5C428.6,364.6,426.1,367,425.1,368.8z"/>
		<path fill="#FFFFFF" d="M416.1,331.5c1.1,5.1,3.6,15.7,6.7,28.4l0.1,0.1c0.1,0.4,0.6,1,1.3,1.5c-2.5-10.2-5.4-22-6.6-27.9l0-0.1
			c-0.1-0.2-1.2-1.9-1.7-2.5c0.1,0.1,0.1,0.1,0.2,0.2L416.1,331.5z"/>
		<path fill="#FFFFFF" d="M415.7,330.9C415.7,330.9,415.8,330.9,415.7,330.9C415.8,330.9,415.7,330.9,415.7,330.9z"/>
		<polygon fill="#FFFFFF" points="400.4,357.3 400.4,357.5 402.5,363.8 403.4,364 402.2,360.3 		"/>
		<path fill="#FFFFFF" d="M388.4,371.2c-1.2,2.6-1.5,4.4-1,5.5c0.2,0.4,0.7,0.8,1.3,1c-0.1-1.2,0.4-2.7,1.3-4.7c0,0,1.2-2.4,2.9-5.7
			l-1.5-1.8L388.4,371.2z"/>
		<polygon fill="#FFFFFF" points="391.6,375.1 391.7,375.1 391.6,375.1 394.4,376.3 400.2,374.2 398.2,372.7 		"/>
		<polygon fill="#FFFFFF" points="403.6,369.8 403.8,376.7 405.3,377.8 405.1,371.6 407.2,370 406.7,367.6 		"/>
		<path fill="#FFFFFF" d="M401.8,345.1c-1.7,3.3-5.7,11.1-9.1,17.8l2.4,0.1c2.6-5.1,5.6-11,7.5-14.6
			C402.2,347.1,402,345.9,401.8,345.1z"/>
		<path fill="#FFFFFF" d="M436.2,384.2l-1.3,9.5l-0.9-0.1c-1.9-0.3-11.3-1.7-16.8-2.4c-6-0.8-16.5-2-16.9-2.1l-0.9-0.1l0,0l2.6,1.6
			l0.4,0.1c0.1,0,10.9,1.3,17,2.1c6,0.8,16.7,2.4,16.8,2.4l0.4,0.1l1.1-8.5L436.2,384.2L436.2,384.2z"/>
		<path fill="#FFFFFF" d="M103.9,385.3C103.9,385.3,103.8,385.3,103.9,385.3l-0.5,0.6c-1.3,1.8-3.1,5-2.7,6.1l0,0.2
			c6.7,21.8-1.9,39.6-23.6,48.8c-7.3,3.1-14.1,4.6-20.1,4.6c0,0,0,0,0,0c-6.2,0-11.8-1.6-16.8-4.8c10.2,7.9,23.2,8.3,38.7,1.7
			c19.8-8.3,30.5-24.8,23.3-48.2c0,0,0,0,0-0.1c-0.6-1.8,2.8-6.6,2.8-6.6L103.9,385.3z"/>
		<path fill="#FFFFFF" d="M51.7,408.9l-1.2-2.4l-0.4,0.6c-0.8,1.2-2.8,4.5-2.7,5.9c2.3,5.1,4.5,9.1,6.7,12c-1.7-2.7-3.4-5.9-5.2-9.8
			C48.7,413.3,51.7,408.9,51.7,408.9z"/>
		<path fill="#FFFFFF" d="M48.7,373.7c-10.2,4.3-11.6,13.1-5,30.6c0.2,0.2,0.6,0.4,1,0.6c-6-16.6-4.3-25.4,5.8-29.7
			c5.1-2.1,9.3-2.3,13.1-0.1c-2.5-2.1-5.1-3.1-7.9-3.1C53.6,372,51.3,372.6,48.7,373.7z"/>
		<path fill="#FFFFFF" d="M97.8,383.4c-1.5-3.1-3.2-5.8-4.9-8.2c1.5,2.3,2.9,4.9,4.2,7.7C97.2,383,97.5,383.2,97.8,383.4z"/>
		<path fill="#FFFFFF" d="M531.5,360.9l-4.8-1.8l2.6,1.7l4.4,1.7c0.3,0.1,0.5,0.2,0.7,0.3C533.8,362,532.8,361.4,531.5,360.9z"/>
		<polygon fill="#FFFFFF" points="502.3,423.9 502.3,423.9 502.3,423.9 		"/>
		<path fill="#FFFFFF" d="M600.6,417l-0.7,0.2c0,0-4.2,0.9-5.7,2.2c-6.9,15.8-17.5,23.8-31.7,23.8c-5.5,0-11.5-1.2-17.8-3.6
			c-0.1-0.1-14.2-5.4-21-8c-6.6-2.5-20.6-7.5-20.8-7.5l-0.5-0.2l2.6,1.7c0,0,14.1,5,20.8,7.5c6.9,2.6,21,8,21,8
			c20,7.5,38.5,4.3,49-20.1c1.6-1.4,6.1-2.4,6.1-2.4S601.3,417.9,600.6,417z"/>
		<path fill="#FFFFFF" d="M597.3,410.8c0.2,1.6,2.2,4.5,2.9,5.5l0.3,0.4c-0.8-1.3-1.6-2.8-1.7-4c4.1-13.7,3.3-24.2-3.4-32.5
			C600.6,388.2,601.1,398.2,597.3,410.8z"/>
		<path fill="#FFFFFF" d="M540.4,422c1.2-3.5,4-11.4,7.1-19.7c0,0,0,0,0.1-0.1c0.7-1.7,6.5-3,6.5-3s-0.5-0.7-1.2-1.7l-0.7,0.2
			c-2.1,0.5-5.7,1.6-6.2,2.7l-0.1,0.1c-3.2,8.8-5.9,16.3-7,19.6c-0.8,2.3-0.3,4.1,1.3,5.2C539.9,424.4,540,423.3,540.4,422z"/>
		<path fill="#FFFFFF" d="M561.6,372c-2.7-1-4.5-0.3-5.6,2.2c-1.2,2.7-3.5,8.5-6.5,16.6l0,0c-0.4,1.2,1.6,4.3,2.9,6.1l0.3,0.3
			c-0.9-1.5-1.9-3.5-1.6-4.5c0,0,0,0,0,0c2.7-7.3,5.3-13.7,6.5-16.7c1-2.2,2.8-3.8,6.2-2.5l3.7,1.4c2.3,0.8,4.2,1.8,5.9,2.8
			c-2-1.7-4.7-3.1-8.1-4.4L561.6,372z"/>
		<path fill="#FFFFFF" d="M482.2,347.5c2.9,9.5,8,25,11.5,35.4c0.1-0.4,0.2-0.8,0.4-1.3c-3.8-11.3-8.7-26.3-11.1-34.4l-1.7-2.7
			l0,0.1C481.4,345,481.7,346,482.2,347.5z"/>
		<path fill="#FFFFFF" d="M496.4,358.7l-5-1.4l2.5,1.6l4.6,1.3c0.1,0,0.3,0.1,0.4,0.1C498.5,359.5,497.6,359.1,496.4,358.7z"/>
		<path fill="#FFFFFF" d="M459,348.1l-4.3-1.2l2.6,1.7l3.9,1.1c0.1,0,0.2,0.1,0.3,0.1C460.9,349,460.1,348.4,459,348.1z"/>
		<path fill="#FFFFFF" d="M462.7,386.9c-0.5,2.2-0.2,3.4,1.3,4.3c-0.1-0.7,0-1.4,0.2-2.4c0.7-3.1,3.7-13.8,6.2-22.6
			c-0.4-1.1-0.7-2.3-1.1-3.3C466.7,372,463.5,383.7,462.7,386.9z"/>
		<path fill="#FFFFFF" d="M468.3,401.5l-0.2,1l-1.2-0.4c-3.1-0.9-8.8-2.7-12.3-3.7c-4.4-1.2-11.9-3.2-12.7-3.4l-0.5-0.1
			c-0.3-0.1-0.5-0.1-0.5-0.1l2.6,1.6l0.4,0.1c0.1,0,8.2,2.1,12.7,3.4c4.5,1.3,12.5,3.7,12.6,3.7l0.4,0.1l0.1-0.4
			c0.8-3.6,2.1-7.3,2.1-7.4l0.1-0.4l-1.4-2.3l-0.3,0.9C470.2,394.9,469.1,398.3,468.3,401.5z"/>
		<path fill="#FFFFFF" d="M520.5,356.8c-0.4,1.1-1.8,6-2,7.1l-0.2,1l-4.5-1.3c-0.6-0.2-1.1-0.3-1.6-0.3c-1.6,0-2.6,1-3.5,3.4
			c-0.5,1.3-1.6,5-3.1,10.3c0,1.1,1.3,3,2.4,4.4c-0.5-0.9-0.9-1.8-0.9-2.4c1.4-5,2.6-8.9,3.1-10.4c0.9-2.6,2.1-3.8,3.9-3.8
			c0.5,0,1.1,0.1,1.7,0.3l4,1.1l0.1-0.5c0.2-1.1,1.7-6.1,2-7.2l0-0.1c0-0.3-1-1.9-1.6-2.5c0.1,0.1,0.1,0.3,0.1,0.5L520.5,356.8z"/>
		<path fill="#FFFFFF" d="M504.5,388.6c0.6-1.8,6.2-3.5,6.2-3.5l-1.1-1.8l0,0l0,0l-0.8,0.2c-2.1,0.6-5.5,2.1-5.9,3.2l-0.1,0.1
			c-2.6,9.2-4.9,17.7-6.2,22.6l-0.3,1l-1-0.3c-2.7-0.9-8.8-2.7-11.6-3.3l-0.5-0.1l2.4,1.6l0.2,0.1c2.8,0.6,8.9,2.4,11.7,3.3l0.4,0.2
			l0.1-0.5C499.6,406,502,397,504.5,388.6C504.4,388.6,504.4,388.6,504.5,388.6z"/>
		<path fill="#FFFFFF" d="M299,371.1c0,1.2-0.1,2.4-0.2,3.6C299,373.5,299.1,372.3,299,371.1z"/>
	</g>
	<g>
		<g>
			<path fill="#FFFFFF" d="M150.1,340.9L150.1,340.9c-2.5,0.8-6.1,2-9,2.8c-3.9,1.2-11.3,3.1-12.2,3.3c0.2,0.5,1.3,3.8,2.1,7.1
				l1.9-0.6c0.7-0.2,1.4-0.3,1.9-0.3c2.7,0,3.4,2.6,3.6,6.4c0.3,6.9-0.4,22.2-0.8,29.3l-0.1,1.5l-0.8-1.2
				c-4.4-6.5-12.3-18.5-15.9-24.4c-1.4-2.6-1.9-4.6-1.3-6c0.4-1,1.3-1.6,2.7-2.1l2.3-0.7c-0.4-1.2-1.8-5.9-2.1-7.1
				c-0.4,0.1-1.4,0.4-2.8,0.9l-0.4,0.1c-3.3,1.1-8.4,2.6-12,3.7c-5,1.5-14,3.9-15.2,4.2c0.2,0.5,1.3,3.8,2.1,7.1l1.6-0.5
				c1.2-0.3,2.1-0.5,3-0.5c2.5,0,4,1.4,6.2,4.4c1.5,2,3.8,5.3,6.6,9.6l0.1,0.1l0,0.1c0.1,1.7-1,4.4-1.6,5.7c1.7,0.1,5.5,0.4,6.6,1.8
				l0.1,0.1c5.5,8.3,10.7,16.3,13.5,20.9c2.5-0.8,11.8-3.5,14.2-4.2c0-6.1,0.3-15.6,0.8-25.6l0-0.1l0.1-0.1c0.8-1.5,2.9-3.2,4-4
				c-0.9-0.5-2.4-1.5-3.5-2.6l-0.2-0.2l0-0.2c0.3-5.6,0.7-10.1,1-13c0.6-6.2,2.5-7.8,6.4-8.9l1.8-0.5c-0.4-1.2-1.8-5.9-2.1-7.1
				C152.2,340.2,151.3,340.5,150.1,340.9z"/>
		</g>
		<g>
			<path fill="#FFFFFF" d="M215.9,364.8c0.9,5.7,0.7,9.4-0.6,11.9c-1.3,2.6-3.9,4-8.2,4.7l-8.6,1.4c-0.5,0.1-0.9,0.1-1.3,0.1
				c-2.4,0-3.7-1.3-4.4-4.3c-0.5-1.9-1.4-7-2.4-13.2l-0.1-0.5l2.6-0.4c1-0.2,1.9-0.2,2.7-0.2c4.1,0,6,2,6.9,7.4l0.3,1.8
				c2.5-0.5,5.1-0.8,5.8-0.9l-0.1-0.4c-0.9-3.8-1.4-6.4-2.3-12.2c-0.6-3.9-0.9-6-1.1-8.5c-0.1-1.2-0.3-2.5-0.5-4.1
				c-0.4,0.1-3.2,0.7-5.9,0.9l0.3,2.1c0.9,5.8-0.9,8.4-6.7,9.3l-2.8,0.4l-0.1-0.5c-0.9-5.9-1.6-10.8-1.8-13c-0.3-3.2,0.9-4.9,4-5.4
				l8.8-1.4c1.4-0.2,2.6-0.3,3.6-0.3c5.5,0,8,3.2,9.4,11.9l7.4-1.2c-1-5.7-2.3-15-2.9-21.2c-3.5,1-13.6,2.8-18.5,3.5l-20.7,3.3
				c-2.4,0.4-7.9,1.2-11.2,1.7c-2.1,0.3-3.9,0.6-4.4,0.7l1.2,7.3l3.2-0.5c0.5-0.1,0.9-0.1,1.3-0.1c2.3,0,3.6,1.3,4.3,4.6
				c0.4,1.9,1.3,7.1,2.3,13.4l0,0.1l0,0.1c-0.3,1.7-2.7,4.1-3.8,5.2c1.5,0.7,4.9,2.5,5.3,4.2c0.4,3,1,6.7,1.1,8.3
				c0.3,3.2-0.3,5.5-4.2,6.1l-2.8,0.4l1.2,7.5c0.2,0,0.9-0.2,1.8-0.3c2.7-0.5,9.7-1.7,13.5-2.3l21.5-3.4c4.4-0.7,13-2,17.6-2.4
				c-1-6.5-2.4-16.2-2.8-22.7C222.5,363.8,217.3,364.6,215.9,364.8z"/>
		</g>
		<g>
			<path fill="#FFFFFF" d="M297.9,364.6c-0.6,0.1-3.2,0.5-4,0.5c0.8,2.8,1.8,7.8,0.3,9.9c-0.4,0.6-1,0.9-1.7,0.9l-0.2,0
				c-2.4,0-3.6-2.2-4.9-9c-1.2-6.2-4-9.6-9.2-10.9l-1.9-0.5l1.9-0.5c7.4-1.9,11.8-7.6,11.4-14.7c-0.5-9.2-7.4-14.3-19.6-14.3
				c-0.8,0-1.6,0-2.4,0.1c-3.2,0.2-6.9,0.4-10.2,0.6c-2.7,0.2-5.1,0.3-6.8,0.4c-1.9,0.1-6.6,0.3-11.2,0.5c-2.4,0.1-4.4,0.2-5,0.2
				l0.4,7.4l3.7-0.2c0.2,0,0.4,0,0.5,0c2.9,0,3.6,1.7,4,4.3c0.2,1.6,0.5,6.6,0.9,13.3l0,0.1l0,0.1c-0.3,1.7-3.1,4-4.4,5
				c1.5,0.9,4.7,3.1,4.9,4.8c0.2,4.9,0.3,8.3,0.3,9.6c-0.1,3.6-1.4,5-4.8,5.2l-2.9,0.1l0.4,7.6c1.9-0.1,10.3-0.7,15.2-0.9
				c2.5-0.1,14.2-0.6,15.2-0.6l-0.4-7.5l-2.8,0.1c-3,0.2-4.5-1.3-5-4.8c-0.2-1.6-0.6-6.2-0.9-12.1l0-0.5l2.7-0.1
				c5.7-0.3,9.4,1,10.4,10.8c1.1,9.9,3.9,15.4,15.3,14.9c4.7-0.2,8-1.8,10-4.6c1-1.4,1.6-3.1,1.9-4.8c0.1-1.2,0.2-2.4,0.2-3.6
				C298.9,368.8,298.5,366.5,297.9,364.6z M271.1,350.2c-1.6,1.6-4,2.4-8,2.7l-4.9,0.2l0-0.5c-0.4-7.9-0.5-15-0.5-15.7
				c0-2.3,0.9-3.4,3.1-3.6l2.8-0.1c6.5-0.3,9.2,2.3,9.5,9.2C273.3,346.1,272.7,348.5,271.1,350.2z"/>
		</g>
		<g>
			<path fill="#FFFFFF" d="M351.7,359.2c-1,14.3-4.8,16.4-12,16.1l-4.5-0.1c-2.8-0.1-4.6-0.9-4.7-4.5c0-1.8,0-5.8,0.2-11.2l0-0.1
				c0.3-1.7,3.4-3.8,4.8-4.7c-1.3-1-4.2-3.2-4.5-4.9l0-0.1l0-0.1c0.2-5.9,0.4-10.3,0.6-11.9c0.3-3.6,1.8-4.9,5.2-4.8l3.3,0.1
				c0.1-1.9,0.2-6.2,0.3-7.4c-0.3,0-1.2,0-2.3,0c-3.2,0-9.1-0.1-13.1-0.2c-5.2-0.2-14.6-0.7-15.5-0.7l-0.2,7.4l3.5,0.1
				c2.8,0.1,4.1,1.6,4.2,5.1c0,1.6,0,6-0.2,12.1c-0.3,1.7-3.4,3.9-4.8,4.8c1.3,0.9,4.1,3.1,4.5,4.8l0,0.1l0,0.1
				c-0.2,5.1-0.4,8.9-0.5,10.6c-0.3,3.4-1,4.8-4.9,4.7l-3.3-0.1l-0.2,7.6c3.4,0,10.8,0.2,14.3,0.3l19.1,0.6
				c3.9,0.1,11.8,0.4,16.9,0.9c0-6,0.7-18.5,1.2-24.2C357.8,359.4,352.9,359.3,351.7,359.2z"/>
		</g>
		<g>
			<polygon fill="#FFFFFF" points="400,359.4 397,363.9 391.5,364 394.9,368.3 393.2,373.5 398.3,371.6 402.8,374.8 402.6,369.3 
				406.9,366.1 401.7,364.6 			"/>
		</g>
		<g>
			<path fill="#FFFFFF" d="M432.6,384.7c-2.9-0.4-4.8-1.8-6.6-8.2c-0.4-1.6-1.1-4.3-2-7.6l0-0.2l0.1-0.2c0.8-1.5,2.4-3.3,3.3-4.1
				c-1.5-0.7-5-2.4-5.5-4.1l0-0.1c-3.2-12.7-5.7-23.3-6.7-28.5c0,0-0.1,0-0.1,0c-3.1-0.3-5.6-0.5-7.2-0.7c-2.4-0.3-6.7-1.1-7.2-1.2
				c-1.5,2.9-8.1,15.2-13.8,26l-0.1,0.1c-1.2,1.2-4.5,1.9-6,2.2c0.6,1.1,1.8,3.2,2.1,4.8l0,0.2l-0.1,0.2c-2.2,4.1-3.4,6.3-3.7,6.9
				c-2.6,4.6-4.7,6.2-8.1,6.2c-0.5,0-1.1,0-1.7-0.1l-2.1-0.3l-1,7.5c0.8,0.1,8.6,1,13,1.6c4.4,0.6,12.1,1.8,13,1.9
				c0.1-0.6,0.3-2,0.5-3.5l0.1-0.4c0.2-1.5,0.4-3.1,0.5-3.7l-3.1-0.4c-1.9-0.3-3.1-0.9-3.7-1.9c-0.7-1.4-0.4-3.4,1-6.4l3.7-7.2v0
				l0.1-0.3c4-7.9,9-17.7,10.2-19.9l0.6-1.2l0.3,1.3c0.6,2.6,3,13.3,4.8,21.9l0.2,0.8h0l1.6,7.2c0.5,3.4,0.3,5.4-0.6,6.6
				c-0.8,0.9-2,1.2-3.7,1l-3.2-0.4c-0.1,0.9-0.4,3.4-0.8,6.1c-0.1,0.6-0.2,1.1-0.2,1.5c1,0.1,11.1,1.3,16.9,2.1
				c5.5,0.7,14.9,2.1,16.8,2.4l1-7.5L432.6,384.7z"/>
		</g>
		<g>
			<path fill="#FFFFFF" d="M96.2,383.4L96.2,383.4c-7.6-16.2-18-24.1-31.7-24.1c-6,0-12.7,1.5-19.9,4.6
				C22,373.4,14,392.1,22.8,415.3l0,0.2c0,1.7-1.5,4.5-2.3,5.7c1.4,0.2,4.3,0.8,5.6,1.9l0.1,0.1l0.1,0.1
				c7.4,14.2,17.7,21.4,30.5,21.4c0,0,0,0,0,0c5.9,0,12.6-1.5,19.7-4.5c21.2-8.9,29.6-26.3,23.1-47.6l0-0.1l0,0
				c-0.5-1.6,1.5-4.9,2.5-6.3C100.6,385.6,97.3,384.8,96.2,383.4z M72.9,431.2c-2.8,1.2-5.2,1.7-7.5,1.7c-7.1,0-12.6-5.7-19-19.5
				l0-0.1c-0.2-1.7,1.5-4.7,2.4-6.1c-1.5-0.3-4.8-1.1-5.9-2.4l-0.1-0.2c-6.8-17.9-5.2-27.5,5.5-32c2.7-1.2,5.2-1.7,7.4-1.7
				c7.3,0,12.8,5.7,19.2,19.6l0,0.1c0.2,1.7-1.5,4.7-2.4,6.1c1.5,0.3,4.7,1,5.9,2.3l0.1,0.1l0,0.1C85.6,417.6,84,426.6,72.9,431.2z"
				/>
		</g>
		<g>
			<path fill="#FFFFFF" d="M572,365c-0.7-0.3-2.6-1-5.2-1.9c-4.7-1.7-11-4-15.3-5.6c-4.6-1.7-11.6-4.5-16.3-6.3
				c-1.8-0.7-3.3-1.3-4.1-1.6l-3.3,8.9l4,1.5c4.2,1.6,5.3,4.2,3.9,9c-0.7,2.2-2.8,8.1-5.8,16.1l0,0.1c-0.9,1.4-4.4,2.5-6,2.9
				c0.9,1.3,2.8,4.2,2.7,6l0,0.1c-3.2,8.5-5.8,15.1-6.9,17.7c-1.2,2.8-2.5,4.6-5.1,4.6c-1.1,0-2.4-0.3-4.3-1l-3.3-1.2l-3.4,9.1
				c2.5,0.9,14.4,5.1,20.3,7.4c6.8,2.6,20.9,7.9,21,8c6.3,2.3,12.1,3.5,17.5,3.5c13.8,0,24.2-7.9,30.9-23.3l0-0.1l0.1-0.1
				c1.3-1.1,4.2-2,5.5-2.3c-0.8-1.2-2.6-3.8-2.7-5.6l0-0.1l0-0.1C603.3,387.6,596,374,572,365z M577.3,401.6l-0.1,0.2
				c-1,1.3-4.3,2.3-5.9,2.7c1,1.4,3.1,4.6,2.6,6.3l0,0.2c-5.6,13.6-11.5,19.4-19.6,19.4c-2.8,0-6-0.7-9.7-2.1l-3.6-1.3
				c-3.1-1.2-4.3-3.8-3.2-7.1c1.1-3.4,3.8-10.9,7.1-19.7l0.1-0.2c0.7-1.5,4.4-2.6,6.1-3c-1-1.4-3-4.5-2.6-6.2l0,0l0-0.1
				c3.1-8.1,5.4-14.1,6.6-16.7c1.3-3,3.6-3.9,6.8-2.7l3.7,1.4C579.1,377.5,582.3,385.4,577.3,401.6z"/>
		</g>
		<g>
			<path fill="#FFFFFF" d="M507,353.2c-3.2-0.9-7.7-2.3-10.4-3.2c-1-0.3-1.7-0.5-2-0.6c-0.3,1.2-1.6,5.9-2,7.1l4.1,1.2
				c2.3,0.6,4.4,1.9,3.3,6.5c-1,4-3.9,14.5-5.7,20.5l-0.4,1.5l-0.5-1.5c-3.9-11.3-9.9-29.8-12.8-39.3c-5.5-1.4-17.3-4.7-22.6-6.4
				c-0.2,0.8-1,4.1-2,7.1l3.4,1c3,0.9,4.2,2.9,3.5,6.1c-0.3,1.6-1.6,6.3-3.4,12.7l-0.1,0.2c-1,1.4-4.1,2.6-5.6,3
				c1,1.2,3.1,4,3.1,5.8l0,0.1c-1.3,4.5-2.4,7.9-2.9,9.4c-0.9,2.5-2.1,3.6-4.2,3.6c-0.7,0-1.4-0.1-2.3-0.4l-3.1-0.9
				c-0.2,0.6-1,4-2.1,7.3c1.1,0.3,8.4,2.2,12.7,3.4c3.6,1,9.3,2.7,12.4,3.7l0.1,0c0.8-3.2,1.8-6.5,2.1-7.3l-3.9-1.1
				c-3.5-1-4.5-2.7-3.8-6.1c0.8-3.4,4.4-16.4,7.1-25.6l0.4-1.5l0.5,1.5c4.6,13.9,11.1,34,14.3,44.7c2.8,0.6,8.9,2.3,11.6,3.3
				c1.3-4.9,3.6-13.4,6.2-22.7l0.1-0.1c0.6-1.6,4.1-2.9,5.8-3.5c-1-1.2-3.2-4-3.2-5.8l0-0.1c1.5-5.3,2.7-9,3.1-10.4
				c1-2.8,2.4-4.1,4.4-4.1c0.6,0,1.2,0.1,1.8,0.3l3.4,1c0.3-1.2,1.6-5.9,2-7.1c-0.1,0-0.4-0.1-0.6-0.2
				C516.9,355.9,510.8,354.3,507,353.2z"/>
		</g>
	</g>
</g>
<g>
	<path fill="#FFFFFF" d="M171.8,430.1h1.4c-0.2,1.2-0.5,4.1-0.4,6.1c-0.5,0-1.1,0-1.6,0c-0.5-2.7-1.2-5-5-5c-3.4,0-4.9,2.3-4.9,7.4
		c0,6,2,7.4,4.7,7.4c3.4,0,5.2-2.3,5.4-5.6c0.4,0,1.2,0,1.7,0c-0.3,4.5-2.2,6.9-7.1,6.9c-4.9,0-8.1-2.5-8.1-8.8
		c0-6.2,3.6-8.7,8.1-8.7c2.3,0,3.4,0.7,4,1C171.4,431.5,171.6,431.3,171.8,430.1z"/>
	<path fill="#FFFFFF" d="M175.7,438.5c0-5.6,3.4-8.7,8-8.7c5.3,0,8,3.1,8,8.7c0,5.6-3.4,8.8-8,8.8
		C178.4,447.3,175.7,444.1,175.7,438.5z M188.5,438.5c0-5.3-1.4-7.4-4.8-7.4c-3.3,0-4.8,2.4-4.8,7.4c0,5.3,1.2,7.4,4.8,7.4
		C187.3,446,188.5,443.5,188.5,438.5z"/>
	<path fill="#FFFFFF" d="M195.6,433.1c0-1-0.3-1.4-1.2-1.4h-1.1v-1.4c0,0,2.5,0.1,3.9,0.1c1.4,0,3.5-0.1,3.9-0.1v1.4h-1.1
		c-1,0-1.4,0.3-1.4,1.4v7.2c0,4,1.5,5.3,4.3,5.3c2.8,0,4.4-1.2,4.4-5.3c0-2,0-4.5,0-7.2c0-0.9-0.5-1.4-1.4-1.4h-1.1v-1.4
		c0,0,2.2,0.1,3.4,0.1c1.2,0,3-0.1,3.4-0.1v1.4h-1.1c-0.9,0-1.2,0.5-1.2,1.4c0,2.7,0,5.1,0,6.9c0,4.8-2.1,7.2-6.6,7.2
		c-4.6,0-7.1-2.1-7.1-7.3C195.6,440.1,195.6,434.6,195.6,433.1z"/>
	<path fill="#FFFFFF" d="M227.5,441.8c0.1-3,0.1-7.6,0-8.9c0-1-0.4-1.2-1.3-1.2h-1.5v-1.4c0.4,0,2.3,0.1,3.7,0.1s3.6-0.1,3.6-0.1
		v1.4h-1.5c-0.9,0-1.2,0.3-1.3,1.2c-0.1,1.4-0.1,11,0,13.9c-0.4,0-1.4,0-1.8,0c-2-3-6.1-9-9-13.1c0,3.8,0,9.3,0,10.7
		c0,0.8,0.3,1,1.4,1h1.4v1.5c0,0-2.3,0-3.7,0s-3.7,0-3.7,0v-1.5h1.4c1.1,0,1.4-0.2,1.4-1c0.1-1.8,0.1-10.1,0-11.5
		c-0.1-0.9-0.4-1.2-1.3-1.2h-1.5v-1.4c1.3,0,4.2,0,5.6,0C221.2,433,225.2,438.7,227.5,441.8z"/>
	<path fill="#FFFFFF" d="M243.2,431.7c0,3.2,0,11,0,12.3c0,0.9,0.3,1.4,1.3,1.4h1.5v1.5c0,0-2.7,0-4.2,0s-4.2,0-4.2,0v-1.5h1.4
		c1.1,0,1.4-0.5,1.4-1.4c0.1-1.3,0.1-9.1,0-12.3h-1.9c-1.9,0-2.5,0.9-2.5,2.2l-0.1,2.4h-1.6c0.1-1.5,0-4.7-0.1-6.1
		c0.7,0.1,1.9,0.1,3.7,0.1h7.8c2.1,0,2.8,0,3.7-0.1c-0.1,1.5-0.2,4.7-0.1,6.1h-1.5l-0.1-2.4c-0.1-1.4-0.7-2.2-2.5-2.2H243.2z"/>
	<path fill="#FFFFFF" d="M266.7,445.7c1.1,0,1.2-1.6,0.8-3.8l1.1-0.1c0.6,2.8,0.3,5.5-2.7,5.5c-3.2,0-3.8-1.8-4-4.8
		c-0.1-2.7-1.3-3.2-2.9-3.2h-1.7c0,2.1,0,4.1,0.1,4.6c0.1,1,0.5,1.4,1.4,1.4h1.1v1.4c0,0-2.8,0-4.1,0c-1.5,0-4.1,0-4.1,0v-1.5h1.1
		c1.1,0,1.6-0.4,1.6-1.4c0.1-1.3,0.1-9.7,0-11.1c0-0.9-0.4-1.2-1.2-1.2h-1.5v-1.4c0.4,0,3.7,0,4.2,0c1.1,0,3,0,4,0
		c4,0,6.3,1.5,6.3,4.4c0,2.4-1.8,4-3.9,4.3c1.8,0.5,2.5,1.5,2.7,3.2C265.4,445.2,265.9,445.7,266.7,445.7z M257.3,438.2h1.9
		c2.8,0,3.8-1,3.8-3.4c0-2.4-1-3.3-3.5-3.3h-1.2c-0.7,0-0.9,0.4-0.9,1C257.3,433.4,257.3,435.8,257.3,438.2z"/>
	<path fill="#FFFFFF" d="M279.2,441.2v3c0,1,0.1,1.2,1.4,1.2h1.6v1.4c0,0-2.8,0-4.4,0s-4.5,0-4.5,0v-1.4h1.6c1.3,0,1.4-0.3,1.4-1.2
		v-3c-1.2-2.3-3.2-6.1-4.3-7.9c-0.6-1.1-1.3-1.5-2.8-1.5h-0.4v-1.4c0,0,2.8,0.1,4.3,0.1c1.6,0,4.3-0.1,4.3-0.1v1.4h-1.2
		c-1.4,0-1.6,0.7-1.2,1.6c0.7,1.4,2.5,4.6,3.5,6.3c1-1.7,2.4-4.7,3.2-6.3c0.4-0.9,0.5-1.6-1.1-1.6h-0.9v-1.4c0,0,2.3,0.1,3.7,0.1
		c1.3,0,3.6-0.1,3.6-0.1v1.4h-0.6c-1.9,0-2.4,0.4-3.2,1.7C282.3,435.2,280.3,438.9,279.2,441.2z"/>
	<path fill="#FFFFFF" d="M302.7,446.8h-8v-1.4h1.4c1.1,0,1.4-0.1,1.4-1c0.1-1.8,0.1-10.1,0-11.5c0-0.9-0.4-1.2-1.2-1.2h-1.5v-1.4
		c0.4,0,3.7,0,4.2,0c1.1,0,2.6,0,3.6,0c4,0,6.3,1.4,6.3,4.2c0,1.8-1,3.2-2.8,3.8c2,0.5,3.4,1.9,3.4,3.8
		C309.4,445,308,446.8,302.7,446.8z M300.3,437.8h1.6c2.8,0,3.8-0.8,3.8-3.2c0-1.8-1-3-3.5-3h-0.9c-0.7,0-0.9,0.4-0.9,1
		C300.3,433.3,300.3,435.5,300.3,437.8z M300.3,438.9c0,2.4,0,4.8,0,5.7c0,0.8,0.4,1,0.9,1h1.3c2.8,0,3.7-1.2,3.7-3.5
		c0-2.2-1.3-3.2-4.3-3.2H300.3z"/>
	<path fill="#FFFFFF" d="M323.4,441.7c-1.7,0-4.9,0-6.7,0c-0.2,0.7-0.4,1.2-0.5,1.5c-0.4,1.3-0.3,2.3,1.3,2.3h1l0,1.5
		c0,0-2.4,0-3.7,0s-3.7,0-3.7,0v-1.5h0.9c1.3,0,1.9-0.5,2.5-2c0.6-1.5,3.9-10.5,4.9-13.3c0,0,0.9,0.1,1.4,0.1c0.5,0,1.3-0.1,1.3-0.1
		c1,2.8,4.6,11.9,5.2,13.3c0.6,1.4,1.1,2,2.1,2h1.1v1.5c0,0-2.7,0-4.3,0s-4.3,0-4.3,0l0-1.5h1.1c1.1,0,1.6-0.8,1-2.3L323.4,441.7z
		 M320,432.6c-0.7,1.7-2,5.3-2.9,7.8c1.7,0,4.2,0,5.8,0C322,437.9,320.7,434.3,320,432.6z"/>
	<path fill="#FFFFFF" d="M347.7,445.7c1.1,0,1.2-1.6,0.8-3.8l1.1-0.1c0.6,2.8,0.3,5.5-2.7,5.5c-3.2,0-3.8-1.8-4-4.8
		c-0.1-2.7-1.3-3.2-2.9-3.2h-1.7c0,2.1,0,4.1,0.1,4.6c0.1,1,0.5,1.4,1.4,1.4h1.1v1.4c0,0-2.8,0-4.1,0c-1.5,0-4.1,0-4.1,0v-1.5h1.1
		c1.1,0,1.6-0.4,1.6-1.4c0.1-1.3,0.1-9.7,0-11.1c0-0.9-0.4-1.2-1.2-1.2h-1.5v-1.4c0.4,0,3.7,0,4.2,0c1.1,0,3,0,4,0
		c4,0,6.3,1.5,6.3,4.4c0,2.4-1.8,4-3.9,4.3c1.8,0.5,2.5,1.5,2.7,3.2C346.4,445.2,346.9,445.7,347.7,445.7z M338.3,438.2h1.9
		c2.8,0,3.8-1,3.8-3.4c0-2.4-1-3.3-3.5-3.3h-1.2c-0.7,0-0.9,0.4-0.9,1C338.3,433.4,338.3,435.8,338.3,438.2z"/>
	<path fill="#FFFFFF" d="M370.3,447.1c-1.3,0-2.5-0.2-3.6-1.1c-1,0.7-2.3,1.2-4.1,1.2c-3.1,0-5.1-1.6-5.1-4.3c0-2.5,2-4,3.9-4.4
		c-0.8-1.7-1.1-3-1.1-4.3c0-2.9,1.6-4.2,4.3-4.2c2.5,0,3.7,1.6,3.7,3.5c0,2.4-1.5,4.3-3.7,5.1l0.7,1.2c1.1,1.7,1.9,2.9,2.6,3.8
		c0.9-1,1.2-2.1,1.3-3.2c0-0.6-0.1-1.3-1-1.3h-0.7v-1.1c0,0,1.9,0.1,3,0.1s3-0.1,3-0.1v1.1h-1c-1.1,0-1.4,0.6-1.5,1.1
		c-0.3,1.6-1.1,2.9-2.5,4.1c1.2,1.4,1.9,1.5,2.7,1.5c1.3,0,2.2-1,2.2-2.5l0.8,0.1C373.9,445.4,373.4,447.1,370.3,447.1z
		 M365.9,445.4c-1-0.9-2-2.4-3.3-4.5c-0.3-0.5-0.5-0.9-0.7-1.3c-1,0.6-1.7,1.7-1.7,2.9c0,2.1,1.2,3.4,3.1,3.4
		C364.4,445.9,365.2,445.7,365.9,445.4z M364.2,437.9c1.7-0.8,2.1-2.3,2.1-4.2c0-1.8-0.5-2.5-1.7-2.5c-1.2,0-1.7,0.7-1.7,2.5
		C362.8,435,363.2,436.1,364.2,437.9z"/>
	<path fill="#FFFFFF" d="M393.8,430.8c1.3,0.7,1.6,0.5,1.7-0.7h1.4c-0.2,1.2-0.5,4.1-0.4,6.1c-0.5,0-1.1,0-1.6,0c-0.5-2.7-1.2-5-5-5
		c-3.4,0-4.9,2.3-4.9,7.4c0,6,2.1,7.4,4.7,7.4c2.5,0,4.4-1.3,4.4-4.1c0-1.6-0.2-2.2-1.5-2.2h-1v-1.4c0,0,2.4,0.1,3.7,0.1
		c1.3,0,3.7-0.1,3.7-0.1v1.4h-0.8c-0.7,0-1,0.4-1,1.3c0,1.3,0,4.4,0.1,6.1c-0.4,0-1.2,0-1.6,0c-0.1-0.6-0.4-1.7-0.7-2.7
		c-0.9,1.7-2.9,3-5.3,3c-4.8,0-8-2.5-8-8.8c0-6.2,3.6-8.7,8.1-8.7C391.1,429.8,392.2,430,393.8,430.8z"/>
	<path fill="#FFFFFF" d="M415.4,445.7c1.1,0,1.2-1.6,0.8-3.8l1.1-0.1c0.6,2.8,0.3,5.5-2.7,5.5c-3.2,0-3.8-1.8-4-4.8
		c-0.1-2.7-1.3-3.2-2.9-3.2H406c0,2.1,0,4.1,0.1,4.6c0.1,1,0.5,1.4,1.4,1.4h1.1v1.4c0,0-2.8,0-4.1,0c-1.5,0-4.1,0-4.1,0v-1.5h1.1
		c1.1,0,1.6-0.4,1.6-1.4c0.1-1.3,0.1-9.7,0-11.1c0-0.9-0.4-1.2-1.2-1.2h-1.5v-1.4c0.4,0,3.7,0,4.2,0c1.1,0,3,0,4,0
		c4,0,6.3,1.5,6.3,4.4c0,2.4-1.8,4-3.9,4.3c1.8,0.5,2.5,1.5,2.7,3.2C414.1,445.2,414.6,445.7,415.4,445.7z M406,438.2h1.9
		c2.8,0,3.8-1,3.8-3.4c0-2.4-1-3.3-3.5-3.3H407c-0.7,0-0.9,0.4-0.9,1C406,433.4,406,435.8,406,438.2z"/>
	<path fill="#FFFFFF" d="M419.6,445.4h1.3c1.1,0,1.4-0.1,1.4-1c0.1-1.8,0.1-10.1,0-11.5c0-0.9-0.4-1.2-1.2-1.2h-1.5v-1.4
		c0,0,2.7,0.1,4.2,0.1s3.8-0.1,4.1-0.1v1.4h-1.5c-0.9,0-1.2,0.3-1.2,1.2c-0.1,1.4-0.1,9.7,0,11.5c0,0.8,0.3,1,1.4,1h1.3v1.5
		c0,0-2.7,0-4.1,0s-4.2,0-4.2,0V445.4z"/>
	<path fill="#FFFFFF" d="M438.5,431.7H437c-0.9,0-1.2,0.3-1.3,1.2c-0.1,1.4-0.1,9.7,0,11.5c0,0.7,0.4,1,1.2,1h2c2.7,0,3.8-0.9,4.1-5
		h1.5c-0.1,1.6-0.3,4.9-0.2,6.5c-1.1-0.1-3.4-0.1-4.5-0.1h-5.5c-1,0-3.4,0-4.1,0v-1.5h1.4c1.1,0,1.4-0.1,1.4-1
		c0.1-1.8,0.1-10.1,0-11.5c0-0.9-0.4-1.2-1.2-1.2h-1.5v-1.4c0,0,2.7,0.1,4.2,0.1s3.6-0.1,4.1-0.1V431.7z"/>
	<path fill="#FFFFFF" d="M454.8,431.7h-1.5c-0.9,0-1.2,0.3-1.3,1.2c-0.1,1.4-0.1,9.7,0,11.5c0,0.7,0.4,1,1.2,1h2
		c2.7,0,3.8-0.9,4.1-5h1.5c-0.1,1.6-0.3,4.9-0.2,6.5c-1.1-0.1-3.4-0.1-4.5-0.1h-5.5c-1,0-3.4,0-4.1,0v-1.5h1.4c1.1,0,1.4-0.1,1.4-1
		c0.1-1.8,0.1-10.1,0-11.5c0-0.9-0.4-1.2-1.2-1.2h-1.5v-1.4c0,0,2.7,0.1,4.2,0.1s3.6-0.1,4.1-0.1V431.7z"/>
</g>
<path fill="#D55727" d="M282.8,401.2"/>
<g>
	<path fill="#FFFFFF" d="M284.7,413.5v-10.4h4.8v1.6h-3v2.7h2.3v1.6h-2.3v3h3.2v1.6H284.7z"/>
	<path fill="#FFFFFF" d="M294.9,405.7c-0.1-0.9-0.5-1.1-0.9-1.1c-0.6,0-0.9,0.4-0.9,1c0,1.8,3.6,2.6,3.6,5.4c0,1.7-1.1,2.7-2.8,2.7
		c-1.7,0-2.6-1.3-2.7-2.9l1.7-0.2c0.1,1,0.5,1.6,1.1,1.6c0.6,0,1-0.3,1-0.9c0-2.1-3.6-2.6-3.6-5.6c0-1.7,1-2.6,2.8-2.6
		c1.5,0,2.3,1,2.5,2.5L294.9,405.7z"/>
	<path fill="#FFFFFF" d="M299.7,404.7H298v-1.6h5.2v1.6h-1.7v8.8h-1.8V404.7z"/>
	<path fill="#FFFFFF" d="M304,413.5v-1.7h1.7v1.7H304z"/>
	<path fill="#FFFFFF" d="M312.8,405.3h-1.4v-1c0.8-0.4,1.5-0.8,2.1-1.3h0.9v10.5h-1.6V405.3z"/>
	<path fill="#FFFFFF" d="M318,408c-0.6-0.5-0.9-1.3-0.9-2.1c0-2,0.9-2.9,2.4-2.9c1.5,0,2.4,0.9,2.4,2.9c0,0.8-0.3,1.6-0.9,2.1
		c0.9,0.6,1.1,1.4,1.1,2.7c0,2-0.9,3-2.5,3c-1.7,0-2.5-1.1-2.5-3C317,409.3,317.2,408.5,318,408z M320.4,410.5
		c0-1.1-0.2-1.7-0.9-1.7c-0.7,0-0.9,0.6-0.9,1.7c0,1.1,0.2,1.7,0.9,1.7C320.2,412.2,320.4,411.6,320.4,410.5z M320.3,405.8
		c0-1-0.2-1.4-0.8-1.4c-0.5,0-0.8,0.4-0.8,1.4c0,1,0.2,1.4,0.8,1.4C320,407.2,320.3,406.8,320.3,405.8z"/>
	<path fill="#FFFFFF" d="M323.8,404.6v-1.5h4.7v1l-2.1,9.4h-1.7l2.1-8.9H323.8z"/>
	<path fill="#FFFFFF" d="M332.6,411h-3.1v-1.3l3-6.6h1.7v6.6h0.9v1.3h-0.9v2.5h-1.6V411z M332.7,409.7v-4.1h0l-1.7,4.1H332.7z"/>
</g>
<polygon fill="#FFFFFF" points="272.6,407 273.5,405.2 274.4,407.1 276.4,407.4 274.9,408.8 275.2,410.8 273.4,409.8 271.6,410.7 
	272,408.7 270.5,407.3 "/>
<polygon fill="#FFFFFF" points="345.1,407 346,405.2 346.9,407.1 348.9,407.4 347.4,408.8 347.7,410.8 345.9,409.8 344.1,410.7 
	344.5,408.7 343,407.3 "/>
<polygon fill="#FFFFFF" points="495.4,444.7 496.4,442.9 497.2,444.8 499.2,445.1 497.7,446.5 498,448.5 496.2,447.5 494.4,448.4 
	494.8,446.4 493.4,445 "/>
<polygon fill="#FFFFFF" points="122.7,444.7 123.7,442.9 124.5,444.8 126.5,445.1 125,446.5 125.3,448.5 123.5,447.5 121.7,448.4 
	122.1,446.4 120.7,445 "/>
<path fill="none" stroke="#D55727" stroke-width="0.75" stroke-linecap="round" stroke-miterlimit="10" d="M362.1,458.1"/>
<g>
	<g>
		<g>
			<path fill="none" stroke="#FFFFFF" stroke-miterlimit="10" d="M309.7,473.7c-0.2,0-0.4-0.2-0.4-0.4l0-12.7c0-0.2,0.2-0.4,0.4-0.4
				c0,0,0,0,0,0c0.2,0,0.4,0.2,0.4,0.4l0,12.7C310.1,473.5,310,473.7,309.7,473.7C309.7,473.7,309.7,473.7,309.7,473.7z"/>
		</g>
		<g>
			<path fill="none" stroke="#FFFFFF" stroke-miterlimit="10" d="M314.4,472.8c-0.2,0-0.3-0.1-0.4-0.3l-4.2-12.4
				c-0.1-0.2,0-0.4,0.2-0.5c0.2-0.1,0.4,0,0.5,0.2l4.2,12.4c0.1,0.2,0,0.4-0.2,0.5C314.5,472.8,314.5,472.8,314.4,472.8z"/>
		</g>
		<g>
			<path fill="none" stroke="#FFFFFF" stroke-miterlimit="10" d="M318.8,470.3c-0.1,0-0.2,0-0.3-0.1l-8-10.1
				c-0.1-0.2-0.1-0.4,0.1-0.5c0.2-0.1,0.4-0.1,0.5,0.1l8,10.1c0.1,0.2,0.1,0.4-0.1,0.5C318.9,470.3,318.9,470.3,318.8,470.3z"/>
		</g>
		<g>
			<path fill="none" stroke="#FFFFFF" stroke-miterlimit="10" d="M322.1,466.5c-0.1,0-0.1,0-0.2-0.1l-10.9-6.9
				c-0.2-0.1-0.2-0.3-0.1-0.5s0.3-0.2,0.5-0.1l10.9,6.9c0.2,0.1,0.2,0.3,0.1,0.5C322.3,466.5,322.2,466.5,322.1,466.5z"/>
		</g>
		<g>
			<path fill="none" stroke="#FFFFFF" stroke-miterlimit="10" d="M323.7,462.7c0,0-0.1,0-0.1,0l-11.9-3.6c-0.2-0.1-0.3-0.3-0.3-0.5
				c0.1-0.2,0.3-0.3,0.5-0.3l11.9,3.6c0.2,0.1,0.3,0.3,0.3,0.5C324,462.6,323.9,462.7,323.7,462.7z"/>
		</g>
		<g>
			<path fill="none" stroke="#FFFFFF" stroke-miterlimit="10" d="M305.1,472.9c0,0-0.1,0-0.1,0c-0.2-0.1-0.3-0.3-0.2-0.5l4.1-12.3
				c0.1-0.2,0.3-0.3,0.5-0.2c0.2,0.1,0.3,0.3,0.2,0.5l-4.1,12.3C305.4,472.8,305.2,472.9,305.1,472.9z"/>
		</g>
		<g>
			<path fill="none" stroke="#FFFFFF" stroke-miterlimit="10" d="M300.7,470.4c-0.1,0-0.2,0-0.2-0.1c-0.2-0.1-0.2-0.4-0.1-0.5
				l7.9-10.3c0.1-0.2,0.4-0.2,0.5-0.1c0.2,0.1,0.2,0.4,0.1,0.5l-7.9,10.3C300.9,470.4,300.8,470.4,300.7,470.4z"/>
		</g>
		<g>
			<path fill="none" stroke="#FFFFFF" stroke-miterlimit="10" d="M297.4,466.6c-0.1,0-0.2-0.1-0.3-0.2c-0.1-0.2-0.1-0.4,0.1-0.5
				l10.8-7c0.2-0.1,0.4-0.1,0.5,0.1c0.1,0.2,0.1,0.4-0.1,0.5l-10.8,7C297.5,466.6,297.5,466.6,297.4,466.6z"/>
		</g>
		<g>
			<path fill="none" stroke="#FFFFFF" stroke-miterlimit="10" d="M295.8,462.7c-0.2,0-0.3-0.1-0.4-0.3c-0.1-0.2,0.1-0.4,0.3-0.5
				l12-3.6c0.2-0.1,0.4,0.1,0.5,0.3c0.1,0.2-0.1,0.4-0.3,0.5l-12,3.6C295.8,462.7,295.8,462.7,295.8,462.7z"/>
		</g>
	</g>
	<g>
		<g>
			<g>
				<path fill="none" stroke="#FFFFFF" stroke-miterlimit="10" d="M137.3,464c-0.6,0-1.1-0.2-1.5-0.7c-0.4-0.6-0.4-1.4,0-2.2
					c0.3-0.7,1.7-2.6,5.8-3.2c0.2-1,0.3-2.1,0.3-3.4c0-1.3,0-3.5,0-6.1c0-6.8-0.1-16.6,0-21.9c-4.9,3.1-12.9,6.4-24.2,9.8
					c-31.5,9.6-34.3,16.3-34.3,16.3c-0.1,0.2-0.3,0.3-0.5,0.2c-0.2-0.1-0.3-0.3-0.2-0.5c0.1-0.3,2.7-7.1,34.8-16.8
					c11.6-3.5,19.7-6.9,24.5-10c0-0.6,0-1.2,0-1.6c0.2-4.2,2.5-6.6,4-6.6c0,0,0,0,0,0c0.7,0,1.4,0.5,1.5,1.8
					c0.2,2.2-1.5,4.5-4.9,6.8c-0.1,5.2,0,15.4,0,22.4c0,2.6,0,4.8,0,6.1c0,1.2-0.1,2.3-0.3,3.3c0.7-0.1,1.5-0.1,2.3-0.1h162.5
					l2.4,2.4l2.4-2.4h93.4c0.2,0,0.4,0.2,0.4,0.4s-0.2,0.4-0.4,0.4h-93.1l-2.7,2.6l-2.7-2.6H144.8c-0.9,0-1.7,0.1-2.5,0.1
					c-0.8,3.1-2.5,4.7-4,5.2C137.9,464,137.6,464,137.3,464z M141.5,458.7c-2.8,0.5-4.4,1.7-4.9,2.7c-0.3,0.5-0.3,1.1-0.1,1.4
					c0.3,0.4,0.9,0.5,1.5,0.2C139.1,462.8,140.6,461.5,141.5,458.7z M146.1,418.2C146.1,418.2,146.1,418.2,146.1,418.2
					c-1.1,0-3.2,2-3.3,5.9c0,0.3,0,0.7,0,1.1c2.9-2,4.2-4,4.1-5.9C146.8,418.7,146.7,418.2,146.1,418.2z"/>
			</g>
		</g>
		<g>
			<path fill="none" stroke="#FFFFFF" stroke-miterlimit="10" d="M147.8,464.7C147.8,464.7,147.8,464.7,147.8,464.7
				c-0.3-0.1-0.4-0.3-0.4-0.5c0-0.1,1.2-5.2-1.2-8.3c-1.2-1.5-3.1-2.3-5.8-2.3c-0.5,0-1.1,0-1.6,0.1c0,0.1,0,0.1,0,0.1
				c0,2.5-1.5,4.1-2.9,4.7c-1.1,0.5-2.1,0.5-2.8-0.1c-0.6-0.5-0.7-1.2-0.5-2.1c0.5-1.4,2.3-2.8,5.4-3.4c0-3.7-0.3-19.9-0.3-28.5
				c-1.7,1.3-4.1,2.5-7.7,3.9c-4.4,1.7-6-0.4-6.4-1c-0.7-1.2-0.5-2.7,0.4-3.4c0.2-0.1,0.4-0.1,0.5,0.1c0.1,0.2,0.1,0.4-0.1,0.5
				c-0.6,0.4-0.7,1.5-0.2,2.4c0.8,1.5,2.9,1.7,5.5,0.7c3.9-1.5,6.3-2.9,7.9-4.1c0-1.4,0-2.5,0-3.3c0-3.3,1.2-4.2,1.8-4.5
				c0.6-0.3,1.2-0.2,1.7,0.3c0.6,0.5,1,1.6,0.5,3.1c-0.6,1.7-1.4,3.2-3.2,4.7c0.1,8.3,0.3,24.9,0.3,28.9c0.5-0.1,1-0.1,1.6-0.1
				c0,0,0.1,0,0.1,0c2.8,0,4.9,0.9,6.3,2.6c2.7,3.4,1.4,8.7,1.4,8.9C148.2,464.6,148,464.7,147.8,464.7z M138.2,453.9
				c-2.7,0.5-4.3,1.7-4.7,2.9c-0.1,0.3-0.2,0.8,0.2,1.2c0.4,0.4,1.2,0.3,2,0C136.9,457.4,138.1,456.1,138.2,453.9
				C138.2,453.9,138.2,453.9,138.2,453.9z M140.2,416.6c-0.1,0-0.2,0-0.3,0.1c-0.6,0.3-1.3,1.4-1.3,3.8c0,0.6,0,1.5,0,2.6
				c1.5-1.4,2-2.6,2.5-3.9c0.4-1.2,0.1-1.9-0.3-2.3C140.6,416.7,140.4,416.6,140.2,416.6z"/>
		</g>
		<g>
			<path fill="none" stroke="#FFFFFF" stroke-miterlimit="10" d="M103.5,450.2C103.5,450.2,103.5,450.2,103.5,450.2
				c-1.1-0.1-2.3-1.1-2.9-2.3c-0.7-1.4-0.5-3,0.5-4.5c2.3-3.5,9.6-5.6,9.9-5.7c0.2-0.1,0.4,0.1,0.5,0.3c0.1,0.2-0.1,0.4-0.3,0.5
				c-0.1,0-7.4,2.2-9.5,5.4c-1.1,1.6-0.8,3-0.5,3.8c0.5,1.1,1.5,1.7,2.2,1.8c0.2,0,0.4,0.2,0.3,0.4
				C103.8,450.1,103.7,450.2,103.5,450.2z"/>
		</g>
	</g>
	<g>
		<g>
			<g>
				<path fill="none" stroke="#FFFFFF" stroke-miterlimit="10" d="M482.7,464c-0.3,0-0.6-0.1-0.9-0.2c-1.5-0.5-3.2-2.1-4-5.2
					c-0.7-0.1-1.6-0.1-2.5-0.1h-69.7c-0.2,0-0.4-0.2-0.4-0.4s0.2-0.4,0.4-0.4h69.7c0.8,0,1.6,0,2.3,0.1c-0.2-1-0.3-2.1-0.3-3.3
					c0-1.3,0-3.5,0-6.1c0-7,0.1-17.2,0-22.4c-3.4-2.3-5-4.6-4.9-6.8c0.1-1.3,0.8-1.8,1.5-1.8c0,0,0,0,0,0c1.5,0,3.9,2.4,4,6.6
					c0,0.4,0,1,0,1.6c4.7,3.1,12.9,6.5,24.5,10c32.1,9.8,34.7,16.5,34.8,16.8c0.1,0.2,0,0.4-0.2,0.5c-0.2,0.1-0.4,0-0.5-0.2
					c0-0.1-2.9-6.8-34.3-16.3c-11.3-3.4-19.4-6.7-24.2-9.8c0.1,5.4,0,15.1,0,21.9c0,2.6,0,4.8,0,6.1c0,1.3,0.1,2.4,0.3,3.4
					c4.2,0.6,5.5,2.5,5.8,3.2c0.4,0.8,0.4,1.6,0,2.2C483.9,463.8,483.3,464,482.7,464z M478.6,458.7c0.8,2.8,2.4,4.1,3.4,4.4
					c0.7,0.2,1.3,0.1,1.5-0.2c0.2-0.3,0.2-0.9-0.1-1.4C483,460.4,481.4,459.2,478.6,458.7z M474,418.2c-0.6,0-0.7,0.6-0.8,1.1
					c-0.1,1.9,1.2,3.8,4.1,5.9c0-0.4,0-0.8,0-1.1C477.1,420.2,475,418.2,474,418.2C474,418.2,474,418.2,474,418.2z"/>
			</g>
		</g>
		<g>
			<path fill="none" stroke="#FFFFFF" stroke-miterlimit="10" d="M472.2,464.7c-0.2,0-0.3-0.1-0.4-0.3c-0.1-0.2-1.3-5.6,1.4-8.9
				c1.4-1.7,3.5-2.6,6.4-2.6c0.5,0,1.1,0,1.6,0.1c0.1-4,0.3-20.6,0.3-28.9c-1.8-1.5-2.6-3-3.2-4.7c-0.5-1.5-0.1-2.6,0.5-3.1
				c0.5-0.4,1.1-0.5,1.7-0.3c0.5,0.2,1.8,1.1,1.8,4.5c0,0.8,0,1.9,0,3.3c1.6,1.3,4.1,2.6,7.9,4.1c2.6,1,4.7,0.8,5.5-0.7
				c0.5-0.9,0.4-1.9-0.2-2.4c-0.2-0.1-0.2-0.4-0.1-0.5c0.1-0.2,0.4-0.2,0.5-0.1c0.9,0.7,1.1,2.2,0.4,3.4c-0.4,0.7-2,2.8-6.4,1
				c-3.5-1.4-6-2.7-7.7-3.9c-0.1,8.5-0.3,24.7-0.3,28.5c3,0.5,4.9,2,5.4,3.4c0.3,0.8,0.1,1.6-0.5,2.1c-0.6,0.5-1.7,0.6-2.8,0.1
				c-1.4-0.6-2.9-2.2-2.9-4.7c0,0,0-0.1,0-0.1c-0.5-0.1-1-0.1-1.6-0.1c0,0-0.1,0-0.1,0c-2.6,0-4.5,0.8-5.7,2.3
				c-2.4,3.1-1.2,8.2-1.2,8.3C472.6,464.4,472.5,464.6,472.2,464.7C472.3,464.7,472.2,464.7,472.2,464.7z M481.9,453.9
				C481.9,453.9,481.9,453.9,481.9,453.9c0,2.2,1.3,3.5,2.5,4.1c0.8,0.4,1.6,0.4,2,0c0.5-0.4,0.3-0.9,0.2-1.2
				C486.1,455.6,484.5,454.3,481.9,453.9z M479.8,416.6c-0.2,0-0.4,0.1-0.6,0.2c-0.4,0.4-0.7,1.1-0.3,2.3c0.4,1.3,1,2.6,2.5,3.9
				c0-1.1,0-2,0-2.6c0-2.3-0.7-3.5-1.3-3.8C480,416.7,479.9,416.6,479.8,416.6z"/>
		</g>
		<g>
			<path fill="none" stroke="#FFFFFF" stroke-miterlimit="10" d="M516.6,450.2c-0.2,0-0.4-0.1-0.4-0.3c0-0.2,0.1-0.4,0.3-0.4
				c0.7-0.1,1.7-0.7,2.2-1.8c0.4-0.8,0.6-2.1-0.5-3.8c-2.1-3.2-9.4-5.4-9.5-5.4c-0.2-0.1-0.3-0.3-0.3-0.5s0.3-0.3,0.5-0.3
				c0.3,0.1,7.7,2.3,9.9,5.7c1,1.5,1.2,3.1,0.5,4.5C518.9,449.1,517.7,450.1,516.6,450.2C516.6,450.2,516.6,450.2,516.6,450.2z"/>
		</g>
	</g>
	<g>
		<g>
			<path fill="none" stroke="#FFFFFF" stroke-miterlimit="10" d="M187.4,420.6c-2.4,0-4.5-0.5-5.9-1.9c-0.4,0.1-0.8,0.1-1.2,0.2
				c-9.4,1.2-18.2,0.3-21.4-2.2c-0.8-0.6-1.3-1.4-1.4-2.2c-0.1-0.7,0.2-1.4,0.9-2.1c3.6-4,18-7.2,30.7-7c5.8,0.1,13.2,1.2,21.8,3.1
				c0.9,0.2,1.8,0.4,2.7,0.6c11.3-4.3,16.1-6,25.8-8.7c7.4-2,12.6-2.2,15.3-0.4c1.2,0.8,1.9,1.9,2.2,3.3c0.2,1.4-0.1,2.7-1,3.7
				c-0.7,0.8-1.8,1.2-2.9,1.1c-1.4-0.1-2.4-0.8-2.9-2c-0.4-1-0.2-2.1,0.4-2.7c0.1-0.1,0.4-0.2,0.5,0c0.1,0.1,0.2,0.4,0,0.5
				c-0.3,0.3-0.5,1.1-0.2,1.9c0.2,0.5,0.7,1.3,2.2,1.5c0.9,0.1,1.7-0.2,2.3-0.9c0.7-0.7,1-1.9,0.8-3c-0.2-1.2-0.8-2.1-1.8-2.8
				c-2.6-1.6-7.7-1.5-14.7,0.5c-9.4,2.6-14.1,4.3-24.7,8.3c0.5,0.1,1,0.2,1.5,0.4c0.9,0.2,1.7,0.4,2.5,0.6c2-0.7,3.8-1.3,5.7-1.8
				c5.5-1.4,9.7-0.6,10.9,0.9c0.4,0.5,0.5,1.1,0.2,1.6c-0.7,1.3-3.5,2-7.5,1.8c-1.7-0.1-4.9-0.8-9.3-1.8c-1.5,0.5-3.2,1.2-5,1.8
				c-2.6,1-5.6,2.1-9.4,3.4C199.2,418.3,192.5,420.6,187.4,420.6z M182.5,418.6c4.4,3.2,14.4-0.3,21.9-2.9c3.8-1.3,6.7-2.4,9.4-3.4
				c1.4-0.5,2.7-1,3.9-1.5c-0.4-0.1-0.9-0.2-1.4-0.3c-0.8-0.2-1.7-0.4-2.6-0.6c-0.2,0.1-0.5,0.2-0.7,0.3
				C201.5,414.6,192.3,417.1,182.5,418.6z M187.5,406.2c-13.3,0-25.6,3.5-28.6,6.7c-0.5,0.5-0.7,1-0.7,1.5c0.1,0.6,0.4,1.1,1.1,1.7
				c3.1,2.4,11.7,3.3,20.9,2.1c0.2,0,0.4-0.1,0.7-0.1c-0.2-0.2-0.3-0.5-0.5-0.8c-0.9-1.6-0.8-3.3,0.1-4.7c0.9-1.5,2.6-2.4,4.2-2.4
				c2,0.1,2.7,1.4,2.8,2.1c0,0.2-0.1,0.4-0.3,0.4c-0.2,0-0.4-0.1-0.4-0.3c0-0.1-0.2-1.4-2-1.4c-1.3,0-2.8,0.8-3.6,2
				c-0.8,1.2-0.8,2.6,0,4c0.2,0.4,0.4,0.7,0.7,1c9.9-1.4,19.1-4,30.6-8.3c-0.5-0.1-1.1-0.2-1.6-0.4c-8.6-1.9-15.9-3-21.7-3.1
				C188.5,406.2,188,406.2,187.5,406.2z M220.4,410.7c3.7,0.8,6.5,1.4,8,1.5c4.4,0.2,6.4-0.6,6.8-1.4c0.1-0.2,0.1-0.5-0.1-0.8
				c-0.8-1.1-4.4-2.2-10.2-0.6C223.4,409.7,221.9,410.2,220.4,410.7z"/>
		</g>
		<g>
			<path fill="none" stroke="#FFFFFF" stroke-miterlimit="10" d="M246.9,399.7c-0.2,0-0.4-0.1-0.4-0.3c0-0.2,0.1-0.4,0.3-0.4
				l15.8-1.4c1.9-0.2,1.9-1.7,1.9-1.8c0-0.2,0.2-0.4,0.4-0.4c0.2,0,0.4,0.2,0.4,0.4c0,0.8-0.5,2.4-2.6,2.6L246.9,399.7
				C247,399.7,247,399.7,246.9,399.7z"/>
		</g>
	</g>
	<g>
		<g>
			<path fill="none" stroke="#FFFFFF" stroke-miterlimit="10" d="M431.9,420.6c-5.1,0-11.8-2.3-17.2-4.2c-3.8-1.3-6.7-2.4-9.4-3.4
				c-1.9-0.7-3.5-1.3-5-1.8c-4.4,1-7.6,1.7-9.3,1.8c-4,0.2-6.9-0.5-7.5-1.8c-0.3-0.5-0.2-1.1,0.2-1.6c1.2-1.5,5.4-2.3,10.9-0.9
				c1.9,0.5,3.7,1.1,5.7,1.8c0.8-0.2,1.6-0.4,2.5-0.6c0.5-0.1,1-0.2,1.5-0.4c-10.6-4-15.3-5.7-24.7-8.3c-7.1-2-12.2-2.1-14.7-0.5
				c-1,0.6-1.6,1.6-1.8,2.8c-0.2,1.1,0.1,2.3,0.8,3c0.6,0.6,1.4,0.9,2.3,0.9c1.5-0.1,2-1,2.2-1.5c0.3-0.8,0.1-1.6-0.2-1.9
				c-0.1-0.1-0.1-0.4,0-0.5c0.1-0.1,0.4-0.1,0.5,0c0.6,0.6,0.8,1.7,0.4,2.7c-0.4,1.1-1.5,1.8-2.9,2c-1.1,0.1-2.1-0.3-2.9-1.1
				c-0.9-0.9-1.2-2.3-1-3.7c0.2-1.4,1-2.5,2.2-3.3c2.8-1.8,7.9-1.6,15.3,0.4c9.7,2.7,14.5,4.4,25.8,8.7c0.9-0.2,1.8-0.4,2.7-0.6
				c8.6-1.9,16-3,21.8-3.1c12.7-0.3,27.1,3,30.7,7c0.6,0.7,0.9,1.4,0.9,2.1c-0.1,0.8-0.5,1.5-1.4,2.2c-3.2,2.6-12.1,3.5-21.4,2.2
				c-0.4-0.1-0.8-0.1-1.2-0.2C436.4,420.1,434.4,420.6,431.9,420.6z M401.7,410.8c1.2,0.4,2.5,0.9,3.9,1.5c2.6,1,5.6,2.1,9.4,3.4
				c7.5,2.6,17.5,6.1,21.9,2.9c-9.8-1.5-19-4-30.5-8.4c-0.2-0.1-0.5-0.2-0.7-0.3c-0.9,0.2-1.8,0.4-2.6,0.6
				C402.6,410.6,402.1,410.7,401.7,410.8z M438.5,418.1c0.2,0,0.4,0.1,0.7,0.1c9.2,1.2,17.8,0.4,20.9-2.1c0.7-0.5,1-1.1,1.1-1.7
				c0.1-0.5-0.2-1-0.7-1.5c-3.1-3.4-16.3-7-30.1-6.7c-5.8,0.1-13.1,1.1-21.7,3.1c-0.5,0.1-1.1,0.2-1.6,0.4
				c11.5,4.4,20.8,6.9,30.6,8.3c0.3-0.3,0.5-0.6,0.7-1c0.7-1.3,0.7-2.8,0-4c-0.8-1.3-2.2-2.1-3.6-2c-1.8,0.1-2,1.4-2,1.4
				c0,0.2-0.2,0.4-0.4,0.3c-0.2,0-0.3-0.2-0.3-0.4c0.1-0.7,0.8-2,2.8-2.1c1.7,0,3.3,0.9,4.2,2.4c0.9,1.4,0.9,3.2,0.1,4.7
				C438.8,417.6,438.7,417.8,438.5,418.1z M389.2,408.6c-2.7,0-4.3,0.7-4.9,1.4c-0.2,0.3-0.3,0.5-0.1,0.8c0.4,0.8,2.4,1.6,6.8,1.4
				c1.5-0.1,4.2-0.6,8-1.5c-1.5-0.5-3-1-4.5-1.4C392.4,408.8,390.7,408.6,389.2,408.6z"/>
		</g>
		<g>
			<path fill="none" stroke="#FFFFFF" stroke-miterlimit="10" d="M372.4,399.7C372.4,399.7,372.4,399.7,372.4,399.7l-15.8-1.4
				c-2.1-0.2-2.6-1.8-2.6-2.6c0-0.2,0.2-0.3,0.4-0.4c0.2,0,0.4,0.2,0.4,0.4c0,0.2,0,1.6,1.9,1.8l15.8,1.4c0.2,0,0.4,0.2,0.3,0.4
				C372.8,399.5,372.6,399.7,372.4,399.7z"/>
		</g>
	</g>
	<g>
		<g>
			<g>
				<g>
					<path fill="none" stroke="#FFFFFF" stroke-miterlimit="10" d="M26.5,337.3c-0.2,0-0.3-0.1-0.4-0.2l-7.5-20.8
						c-0.1-0.2,0-0.4,0.2-0.5c0.2-0.1,0.4,0,0.5,0.2l7.5,20.8c0.1,0.2,0,0.4-0.2,0.5C26.6,337.3,26.6,337.3,26.5,337.3z"/>
				</g>
				<g>
					<path fill="none" stroke="#FFFFFF" stroke-miterlimit="10" d="M32.5,333.8c-0.1,0-0.2,0-0.3-0.1l-13.5-17.4
						c-0.1-0.2-0.1-0.4,0.1-0.5c0.2-0.1,0.4-0.1,0.5,0.1l13.5,17.4c0.1,0.2,0.1,0.4-0.1,0.5C32.7,333.8,32.6,333.8,32.5,333.8z"/>
				</g>
				<g>
					<path fill="none" stroke="#FFFFFF" stroke-miterlimit="10" d="M37.1,328.5c-0.1,0-0.1,0-0.2-0.1l-18.1-12
						c-0.2-0.1-0.2-0.3-0.1-0.5c0.1-0.2,0.3-0.2,0.5-0.1l18.1,12c0.2,0.1,0.2,0.3,0.1,0.5C37.3,328.4,37.2,328.5,37.1,328.5z"/>
				</g>
				<g>
					<path fill="none" stroke="#FFFFFF" stroke-miterlimit="10" d="M39.3,323.1c0,0-0.1,0-0.1,0l-20.3-6.6c-0.2-0.1-0.3-0.3-0.2-0.5
						c0.1-0.2,0.3-0.3,0.5-0.2l20.3,6.6c0.2,0.1,0.3,0.3,0.2,0.5C39.6,323,39.5,323.1,39.3,323.1z"/>
				</g>
				<g>
					<path fill="none" stroke="#FFFFFF" stroke-width="0.75" stroke-linecap="round" stroke-miterlimit="10" d="M20,317.5"/>
				</g>
			</g>
		</g>
		<g>
			<path fill="none" stroke="#FFFFFF" stroke-miterlimit="10" d="M15.7,374.1c-0.1,0-0.2-0.1-0.3-0.2c-0.1-0.2-0.1-0.4,0.1-0.5
				c0,0,3.2-2.4,3.2-9c0-0.2-0.1-20.9,0-29.9c0-2.5,0.1-4.8,0.1-7.1c0.1-4.5,0.2-8.2-0.1-11c-1.5-0.3-2.7-0.6-3.4-1
				c-1.3-0.8-2-2.1-1.8-3.3c0.2-0.9,0.8-1.7,1.7-1.9c1-0.2,2,0.3,2.8,1.5c0.7,1,1.1,2.4,1.4,4.1c6.3,1,18.5,0.9,27.9,0.9
				c1.7,0,3.3,0,4.7,0c13.6,0,90.2,0.1,102.2,0.2l0,0.8c-0.2,0-17.9,0.8-26.3,5.4c-1.5,0.8-2.3,1.9-2.2,3.1c0.1,1.1,0.8,2.1,1.9,2.5
				c1.1,0.4,2.3,0.2,3.3-0.8c0.1-0.1,0.4-0.1,0.5,0c0.1,0.2,0.1,0.4,0,0.5c-1.2,1.1-2.7,1.5-4.1,0.9c-1.3-0.5-2.3-1.8-2.4-3.1
				c-0.1-0.9,0.2-2.5,2.6-3.8c4.9-2.7,12.6-4.1,18.4-4.8c-23.5-0.1-82.2-0.2-94-0.2c-1.5,0-3.1,0-4.7,0c-9.8,0-21.4,0.1-27.8-0.9
				c0.3,2.9,0.2,6.5,0.1,10.9c-0.1,2.2-0.1,4.5-0.1,7c-0.1,9,0,29.7,0,29.9c0,7-3.3,9.5-3.5,9.6C15.9,374.1,15.8,374.1,15.7,374.1z
				 M15.6,310.9c-0.1,0-0.2,0-0.3,0c-0.6,0.1-1,0.6-1.1,1.3c-0.1,0.4-0.1,1.6,1.4,2.5c0.6,0.4,1.6,0.7,2.9,0.9
				c-0.2-1.5-0.6-2.6-1.2-3.5C16.8,311.4,16.2,310.9,15.6,310.9z"/>
		</g>
		<g>
			<path fill="none" stroke="#FFFFFF" stroke-miterlimit="10" d="M39.2,355.3c-1.1,0-2.3,0-3.6-0.1c-2.8-0.2-4.7-1.5-5-3.6
				c-0.5-3.1,2.5-7.7,10.4-11.1c5.9-2.5,13.8-2.4,21.6-1.3c1.4-1.2,2.7-2.6,3.8-4.1c2.4-3.2,3.1-6.5,1.9-9.2
				c-0.8-1.7-2.3-2.8-3.9-2.9c-2.1-0.1-3.9,0.6-5.1,1.9c-0.9,1.1-1.3,2.4-1.1,3.7c0.5,2.7,3.2,2.8,3.3,2.8c0.2,0,0.4,0.2,0.4,0.4
				s-0.2,0.4-0.4,0.4c0,0-3.4,0-4-3.4c-0.3-1.5,0.2-3.1,1.2-4.3c1.3-1.5,3.4-2.3,5.7-2.2c1.9,0.1,3.6,1.4,4.5,3.3
				c1.3,2.9,0.6,6.5-1.9,9.9c-1,1.3-2.2,2.6-3.4,3.7c1.9,0.3,3.8,0.6,5.6,1c6.1-3.9,14.4-8.3,26.8-12.6c34.1-11.9,58-10.9,58.2-10.9
				c0.2,0,0.4,0.2,0.4,0.4c0,0.2-0.2,0.4-0.4,0.4c-0.2,0-24-1-58,10.9c-11.9,4.1-20,8.3-26,12.1c1.9,0.4,3.8,0.8,5.6,1.3
				c6.6-2.9,15.6-5.4,19.9-4.4c2.5,0.6,3.9,2.4,3.4,4.5c-0.6,2.8-4.2,5-10,3.9c-2.2-0.4-4.9-1.1-8.1-1.9c-1.6-0.4-3.3-0.8-5.2-1.3
				c-2.5,1.1-4.6,2.3-5.9,3.3l-0.2,0.1l-0.2-0.1c-0.1,0-2.3-0.7-5.5-1.3c-1,0.7-2,1.4-2.9,2.1C54.2,351.8,49.5,355.3,39.2,355.3z
				 M52.8,339.2c-4.3,0-8.2,0.6-11.6,2c-7.5,3.2-10.4,7.5-9.9,10.2c0.3,1.7,1.9,2.8,4.3,3c12.6,0.9,17.3-2.6,25.1-8.2
				c0.7-0.5,1.5-1.1,2.3-1.7c-1.6-0.3-3.4-0.6-5.3-0.8c-4.8,3-9.7,4.9-12.2,5.5c-2.7,0.6-4.7,0.4-5.6-0.5c-0.4-0.4-0.5-1-0.3-1.6
				c0.4-1.3,2.5-3,7.2-4c3.3-0.7,7.2-0.6,10.8-0.2c1.4-0.9,2.9-1.9,4.2-3.1C58.8,339.4,55.7,339.2,52.8,339.2z M52.5,343.4
				c-1.9,0-3.8,0.1-5.6,0.5c-4.1,0.8-6.3,2.3-6.6,3.5c-0.1,0.3-0.1,0.6,0.2,0.8c0.5,0.6,2.1,0.9,4.9,0.3c1.5-0.4,6.2-2,11.1-4.9
				C55.2,343.5,53.9,343.4,52.5,343.4z M77,342.1c1.5,0.4,2.9,0.7,4.2,1.1c3.2,0.8,5.9,1.5,8.1,1.9c5.3,1,8.6-0.9,9.1-3.3
				c0.3-1.4-0.5-3.1-2.9-3.6C91.6,337.3,83.3,339.5,77,342.1z M64.9,344.1c2.4,0.5,4.1,1,4.7,1.1c1.2-0.9,3-1.9,5.1-2.9
				c-1.7-0.4-3.5-0.8-5.4-1.2C67.7,342.2,66.2,343.1,64.9,344.1z M58.7,343.1c1.8,0.2,3.6,0.5,5.1,0.8c1.3-0.9,2.8-1.9,4.3-2.9
				c-1.8-0.4-3.6-0.7-5.4-0.9C61.5,341.1,60.1,342.1,58.7,343.1z"/>
		</g>
	</g>
	<g>
		<g>
			<g>
				<g>
					<path fill="none" stroke="#FFFFFF" stroke-miterlimit="10" d="M591.8,337.3c0,0-0.1,0-0.1,0c-0.2-0.1-0.3-0.3-0.2-0.5L599,316
						c0.1-0.2,0.3-0.3,0.5-0.2c0.2,0.1,0.3,0.3,0.2,0.5l-7.5,20.8C592.1,337.2,592,337.3,591.8,337.3z"/>
				</g>
				<g>
					<path fill="none" stroke="#FFFFFF" stroke-miterlimit="10" d="M585.8,333.8c-0.1,0-0.2,0-0.2-0.1c-0.2-0.1-0.2-0.4-0.1-0.5
						l13.5-17.4c0.1-0.2,0.4-0.2,0.5-0.1c0.2,0.1,0.2,0.4,0.1,0.5l-13.5,17.4C586,333.8,585.9,333.8,585.8,333.8z"/>
				</g>
				<g>
					<path fill="none" stroke="#FFFFFF" stroke-miterlimit="10" d="M581.2,328.5c-0.1,0-0.2-0.1-0.3-0.2c-0.1-0.2-0.1-0.4,0.1-0.5
						l18.1-12c0.2-0.1,0.4-0.1,0.5,0.1c0.1,0.2,0.1,0.4-0.1,0.5l-18.1,12C581.4,328.5,581.3,328.5,581.2,328.5z"/>
				</g>
				<g>
					<path fill="none" stroke="#FFFFFF" stroke-miterlimit="10" d="M579,323.1c-0.2,0-0.3-0.1-0.4-0.3c-0.1-0.2,0-0.4,0.2-0.5
						l20.3-6.6c0.2-0.1,0.4,0,0.5,0.2c0.1,0.2,0,0.4-0.2,0.5l-20.3,6.6C579.1,323.1,579,323.1,579,323.1z"/>
				</g>
				<g>
					<path fill="none" stroke="#FFFFFF" stroke-width="0.75" stroke-linecap="round" stroke-miterlimit="10" d="M598.3,317.5"/>
				</g>
			</g>
		</g>
		<g>
			<path fill="none" stroke="#FFFFFF" stroke-miterlimit="10" d="M602.6,374.1c-0.1,0-0.2,0-0.2-0.1c-0.1-0.1-3.5-2.6-3.5-9.6
				c0-0.2,0.1-20.9,0-29.9c0-2.5-0.1-4.8-0.1-7c-0.1-4.4-0.2-8.1,0.1-10.9c-6.4,1-18,0.9-27.8,0.9c-1.7,0-3.3,0-4.7,0
				c-11.7,0-70.5,0.1-94,0.2c5.9,0.7,13.6,2.1,18.4,4.8c2.4,1.3,2.6,3,2.6,3.8c-0.1,1.3-1,2.6-2.4,3.1c-1.4,0.5-2.9,0.2-4.1-0.9
				c-0.1-0.1-0.2-0.4,0-0.5s0.4-0.2,0.5,0c1,0.9,2.2,1.2,3.3,0.8c1.1-0.4,1.8-1.4,1.9-2.5c0.1-1.2-0.7-2.3-2.2-3.1
				c-8.4-4.6-26.1-5.4-26.3-5.4l0-0.8c11.9-0.1,88.6-0.2,102.2-0.2c1.5,0,3.1,0,4.7,0c9.4,0,21.6,0.1,27.9-0.9
				c0.2-1.7,0.7-3,1.4-4.1c0.8-1.2,1.8-1.7,2.8-1.5c0.9,0.2,1.5,0.9,1.7,1.9c0.2,1.2-0.4,2.5-1.8,3.3c-0.7,0.4-1.9,0.8-3.4,1
				c-0.3,2.8-0.2,6.6-0.1,11c0.1,2.2,0.1,4.5,0.1,7.1c0.1,9,0,29.7,0,29.9c0,6.6,3.1,9,3.2,9c0.2,0.1,0.2,0.4,0.1,0.5
				C602.8,374,602.7,374.1,602.6,374.1z M602.7,310.9c-0.6,0-1.2,0.4-1.7,1.2c-0.6,0.9-1,2.1-1.2,3.5c1.3-0.2,2.3-0.5,2.9-0.9
				c1.5-1,1.5-2.1,1.4-2.5c-0.1-0.6-0.6-1.1-1.1-1.3C602.9,310.9,602.8,310.9,602.7,310.9z"/>
		</g>
		<g>
			<path fill="none" stroke="#FFFFFF" stroke-miterlimit="10" d="M580.5,355.2c-12.3,0-18.8-5.2-27-11.6c-0.1-0.1-0.2-0.1-0.2-0.2
				c-3.5,0.2-6,0.5-6.1,0.5l-0.2,0l-0.1-0.1c-1.5-1.2-3.9-2.7-6.7-4.1c-3.7,0.5-7.1,1.1-10,1.6l-1.9,0.3c-6.6,1.1-10.2-1.9-10.6-4.3
				c-0.3-1.5,0.7-3.5,4.1-4.1c4-0.7,12.2,2.5,18.5,5.8c2-0.3,4.1-0.5,6.2-0.8c-6.1-4.4-13.7-8.8-24.8-12.3
				c-26.1-8.2-57.3-8.2-57.6-8.2c0,0,0,0,0,0c-0.2,0-0.4-0.2-0.4-0.4c0-0.2,0.2-0.4,0.4-0.4c0.3,0,31.6,0,57.8,8.2
				c11.6,3.6,19.4,8.3,25.7,12.9c1.8-0.2,3.6-0.3,5.4-0.4c-0.6-0.6-1.2-1.3-1.7-2c-2.6-3.4-3.3-7-1.9-9.9c0.9-1.9,2.6-3.2,4.5-3.3
				c2.3-0.1,4.4,0.7,5.7,2.2c1.1,1.2,1.5,2.8,1.2,4.3c-0.7,3.3-4,3.4-4,3.4c-0.2,0-0.4-0.2-0.4-0.4c0-0.2,0.2-0.4,0.4-0.4
				c0.1,0,2.8,0,3.3-2.8c0.3-1.3-0.1-2.6-1.1-3.7c-1.2-1.3-3-2-5.1-1.9c-1.6,0.1-3.1,1.2-3.9,2.9c-1.2,2.6-0.5,6,1.9,9.2
				c0.6,0.8,1.3,1.6,2,2.4c8.4-0.4,16.9,0.2,23.4,2.9c7.9,3.4,10.9,8,10.4,11.2c-0.4,2-2.3,3.4-5,3.5
				C582,355.2,581.2,355.2,580.5,355.2z M554.4,343.3c8.3,6.6,15,11.7,28.3,11.1c2.4-0.1,4-1.2,4.3-2.9c0.5-2.7-2.4-7.1-9.9-10.3
				c-6.2-2.6-14.3-3.2-22.4-2.9c1.6,1.5,3.3,2.9,5.1,4.1c4,0,8.3,0.1,11.7,0.8c4.7,1,6.8,2.7,7.2,4c0.2,0.6,0.1,1.1-0.3,1.6
				c-0.9,1-2.9,1.1-5.6,0.5c-2.7-0.6-8.1-2.7-13.2-6.1C557.8,343.1,556,343.2,554.4,343.3z M561,343.1c5.2,3.3,10.4,5,12,5.4
				c2.8,0.7,4.4,0.3,4.9-0.3c0.2-0.2,0.3-0.5,0.2-0.8c-0.4-1.1-2.6-2.6-6.6-3.5C568.3,343.3,564.6,343.1,561,343.1z M541.5,339.5
				c2.4,1.3,4.4,2.6,5.8,3.6c0.5-0.1,2.5-0.3,5.1-0.5c-1.6-1.3-3.2-2.6-5-3.9C545.4,339,543.4,339.2,541.5,339.5z M548.6,338.7
				c1.8,1.3,3.4,2.6,5,3.9c1.5-0.1,3.2-0.2,5-0.2c-1.7-1.2-3.3-2.6-4.8-4C552,338.4,550.3,338.5,548.6,338.7z M523.2,333.8
				c-0.4,0-0.8,0-1.2,0.1c-2.4,0.4-3.7,1.6-3.4,3.3c0.3,2.1,3.7,4.7,9.7,3.7l1.9-0.3c2.7-0.4,5.7-0.9,9-1.4
				C533.6,336.3,527.1,333.8,523.2,333.8z"/>
		</g>
	</g>
	<g>
		<g>
			<path fill="none" stroke="#FFFFFF" stroke-miterlimit="10" d="M15.2,463.7c-0.2,0-0.3,0-0.5-0.1c-0.7-0.2-1.2-0.8-1.4-1.6
				c-0.2-1,0.3-2,1.4-2.7c0.8-0.6,1.9-1,3.5-1.3c0.4-2.1,0.5-4.4,0.5-5.7v-8.9c0-6.5-2.5-10-2.5-10.1c-0.1-0.2-0.1-0.4,0.1-0.5
				c0.2-0.1,0.4-0.1,0.5,0.1c0.1,0.2,2.6,3.8,2.6,10.5v8.9c0,0,0,2.8-0.5,5.5c1.4-0.2,3.1-0.2,5.3-0.2H63c5.8,0,9.1,2.2,9.2,2.3
				c0.2,0.1,0.2,0.4,0.1,0.5c-0.1,0.2-0.4,0.2-0.5,0.1c0,0-3.2-2.2-8.8-2.2H24.2c-2.3,0-4,0.1-5.4,0.3c-0.3,1.5-0.8,2.9-1.4,3.7
				C16.7,463.2,15.9,463.7,15.2,463.7z M18,458.8c-1.3,0.2-2.2,0.6-2.9,1.1c-0.8,0.6-1.2,1.3-1,2c0.1,0.5,0.4,0.8,0.8,1
				c0.6,0.2,1.3-0.2,1.9-0.9C17.3,461.3,17.7,460.2,18,458.8z"/>
		</g>
		<g>
			<path fill="none" stroke="#FFFFFF" stroke-miterlimit="10" d="M19.6,458.4c-0.2,0-0.3-0.1-0.4-0.3c-0.1-0.2,0-0.4,0.2-0.5
				l13.8-4.7c0.2-0.1,0.4,0,0.5,0.2c0.1,0.2,0,0.4-0.2,0.5l-13.8,4.7C19.7,458.4,19.6,458.4,19.6,458.4z"/>
		</g>
		<g>
			<path fill="none" stroke="#FFFFFF" stroke-miterlimit="10" d="M19.5,458.4c-0.1,0-0.2,0-0.3-0.1c-0.1-0.2-0.1-0.4,0.1-0.5l11.4-9
				c0.2-0.1,0.4-0.1,0.5,0.1c0.1,0.2,0.1,0.4-0.1,0.5l-11.4,9C19.6,458.4,19.5,458.4,19.5,458.4z"/>
		</g>
		<g>
			<path fill="none" stroke="#FFFFFF" stroke-miterlimit="10" d="M19.3,458.4c-0.1,0-0.1,0-0.2-0.1c-0.2-0.1-0.2-0.3-0.1-0.5
				l7.8-12.3c0.1-0.2,0.3-0.2,0.5-0.1c0.2,0.1,0.2,0.3,0.1,0.5l-7.8,12.3C19.5,458.3,19.4,458.4,19.3,458.4z"/>
		</g>
		<g>
			<path fill="none" stroke="#FFFFFF" stroke-miterlimit="10" d="M19.1,458.4c0,0-0.1,0-0.1,0c-0.2-0.1-0.3-0.3-0.3-0.5l4.2-14
				c0.1-0.2,0.3-0.3,0.5-0.3c0.2,0.1,0.3,0.3,0.3,0.5l-4.2,14C19.4,458.3,19.2,458.4,19.1,458.4z"/>
		</g>
	</g>
	<g>
		<g>
			<path fill="none" stroke="#FFFFFF" stroke-miterlimit="10" d="M602.3,463.7c-0.7,0-1.5-0.4-2.2-1.2c-0.7-0.8-1.1-2.2-1.4-3.7
				c-1.4-0.2-3.1-0.3-5.4-0.3h-38.8c-5.6,0-8.7,2.2-8.8,2.2c-0.2,0.1-0.4,0.1-0.5-0.1c-0.1-0.2-0.1-0.4,0.1-0.5
				c0.1-0.1,3.4-2.3,9.2-2.3h38.8c2.2,0,3.9,0.1,5.3,0.2c-0.5-2.7-0.5-5.5-0.5-5.5v-8.9c0-6.7,2.5-10.3,2.6-10.5
				c0.1-0.2,0.4-0.2,0.5-0.1c0.2,0.1,0.2,0.4,0.1,0.5c0,0-2.5,3.6-2.5,10.1v8.9c0,1.3,0.1,3.6,0.5,5.7c1.6,0.3,2.7,0.7,3.5,1.3
				c1,0.7,1.5,1.8,1.4,2.7c-0.1,0.8-0.7,1.4-1.4,1.6C602.7,463.6,602.5,463.7,602.3,463.7z M599.5,458.8c0.3,1.3,0.7,2.5,1.2,3.1
				c0.6,0.7,1.3,1.1,1.9,0.9c0.4-0.1,0.7-0.5,0.8-1c0.1-0.7-0.3-1.4-1-2C601.7,459.4,600.8,459.1,599.5,458.8z"/>
		</g>
		<g>
			<path fill="none" stroke="#FFFFFF" stroke-miterlimit="10" d="M597.9,458.4c0,0-0.1,0-0.1,0l-13.8-4.7c-0.2-0.1-0.3-0.3-0.2-0.5
				c0.1-0.2,0.3-0.3,0.5-0.2l13.8,4.7c0.2,0.1,0.3,0.3,0.2,0.5C598.2,458.3,598.1,458.4,597.9,458.4z"/>
		</g>
		<g>
			<path fill="none" stroke="#FFFFFF" stroke-miterlimit="10" d="M598,458.4c-0.1,0-0.2,0-0.2-0.1l-11.4-9c-0.2-0.1-0.2-0.4-0.1-0.5
				c0.1-0.2,0.4-0.2,0.5-0.1l11.4,9c0.2,0.1,0.2,0.4,0.1,0.5C598.2,458.4,598.1,458.4,598,458.4z"/>
		</g>
		<g>
			<path fill="none" stroke="#FFFFFF" stroke-miterlimit="10" d="M598.2,458.4c-0.1,0-0.2-0.1-0.3-0.2l-7.8-12.3
				c-0.1-0.2-0.1-0.4,0.1-0.5c0.2-0.1,0.4-0.1,0.5,0.1l7.8,12.3c0.1,0.2,0.1,0.4-0.1,0.5C598.3,458.4,598.3,458.4,598.2,458.4z"/>
		</g>
		<g>
			<path fill="none" stroke="#FFFFFF" stroke-miterlimit="10" d="M598.4,458.4c-0.2,0-0.3-0.1-0.4-0.3l-4.2-14
				c-0.1-0.2,0.1-0.4,0.3-0.5c0.2-0.1,0.4,0.1,0.5,0.3l4.2,14c0.1,0.2-0.1,0.4-0.3,0.5C598.5,458.4,598.5,458.4,598.4,458.4z"/>
		</g>
	</g>
	<g>
		<g>
			<g>
				<path fill="none" stroke="#FFFFFF" stroke-miterlimit="10" d="M441.1,321.4c-1,0-2-0.1-3.3-0.4c-9.4-1.8-64.8-9.1-126.6-10.7
					l-0.1,0l-2.5-2.3l-2.3,2.3h-0.2c0,0,0,0,0,0c-48.1,0-89.6,4.4-110,7l-6.3,0.9c-0.2,0-0.4-0.1-0.4-0.3c0-0.2,0.1-0.4,0.3-0.4
					l6.3-0.9c20.5-2.6,62-7,110-7l2.6-2.6l2.8,2.7c61.8,1.6,117.3,8.9,126.6,10.7c3.3,0.6,5.6,0.4,6.6-0.8c1-1.1,0.5-2.8,0.5-2.8
					c-0.1-0.2,0.1-0.4,0.3-0.5c0.2-0.1,0.4,0.1,0.5,0.3c0,0.1,0.6,2.1-0.7,3.6C444.4,320.9,443,321.4,441.1,321.4z"/>
			</g>
			<g>
				<g>
					<path fill="none" stroke="#FFFFFF" stroke-miterlimit="10" d="M308.6,307.9C308.6,307.9,308.6,307.9,308.6,307.9
						c-0.2,0-0.4-0.2-0.4-0.4l0.1-12.5c0-0.2,0.2-0.4,0.4-0.4c0,0,0,0,0,0c0.2,0,0.4,0.2,0.4,0.4l-0.1,12.5
						C309,307.7,308.8,307.9,308.6,307.9z"/>
				</g>
				<g>
					<path fill="none" stroke="#FFFFFF" stroke-miterlimit="10" d="M308,308.1c-0.2,0-0.3-0.1-0.4-0.3l-4-12c-0.1-0.2,0-0.4,0.2-0.5
						c0.2-0.1,0.4,0,0.5,0.2l4,12c0.1,0.2,0,0.4-0.2,0.5C308.1,308.1,308.1,308.1,308,308.1z"/>
				</g>
				<g>
					<path fill="none" stroke="#FFFFFF" stroke-miterlimit="10" d="M307.5,308.6c-0.1,0-0.2,0-0.3-0.1l-7.8-10
						c-0.1-0.2-0.1-0.4,0.1-0.5c0.2-0.1,0.4-0.1,0.5,0.1l7.8,10c0.1,0.2,0.1,0.4-0.1,0.5C307.7,308.6,307.6,308.6,307.5,308.6z"/>
				</g>
				<g>
					<path fill="none" stroke="#FFFFFF" stroke-miterlimit="10" d="M306.9,309.1c-0.1,0-0.1,0-0.2-0.1l-10.5-6.8
						c-0.2-0.1-0.2-0.3-0.1-0.5c0.1-0.2,0.3-0.2,0.5-0.1l10.5,6.8c0.2,0.1,0.2,0.3,0.1,0.5C307.1,309.1,307,309.1,306.9,309.1z"/>
				</g>
				<g>
					<path fill="none" stroke="#FFFFFF" stroke-miterlimit="10" d="M306.7,309.9c0,0-0.1,0-0.1,0l-12-3.6c-0.2-0.1-0.3-0.3-0.3-0.5
						c0.1-0.2,0.3-0.3,0.5-0.3l12,3.6c0.2,0.1,0.3,0.3,0.3,0.5C307,309.7,306.8,309.9,306.7,309.9z"/>
				</g>
				<g>
					<path fill="none" stroke="#FFFFFF" stroke-miterlimit="10" d="M309.2,308.4c0,0-0.1,0-0.1,0c-0.2-0.1-0.3-0.3-0.2-0.5l4.2-12.3
						c0.1-0.2,0.3-0.3,0.5-0.2c0.2,0.1,0.3,0.3,0.2,0.5l-4.2,12.3C309.5,308.3,309.4,308.4,309.2,308.4z"/>
				</g>
				<g>
					<path fill="none" stroke="#FFFFFF" stroke-miterlimit="10" d="M309.7,308.8c-0.1,0-0.2,0-0.2-0.1c-0.2-0.1-0.2-0.4-0.1-0.5
						l8.1-10.2c0.1-0.2,0.4-0.2,0.5-0.1c0.2,0.1,0.2,0.4,0.1,0.5l-8.1,10.2C309.9,308.8,309.8,308.8,309.7,308.8z"/>
				</g>
				<g>
					<path fill="none" stroke="#FFFFFF" stroke-miterlimit="10" d="M310.3,309.2c-0.1,0-0.2-0.1-0.3-0.2c-0.1-0.2-0.1-0.4,0.1-0.5
						l10.7-6.7c0.2-0.1,0.4-0.1,0.5,0.1c0.1,0.2,0.1,0.4-0.1,0.5l-10.7,6.7C310.5,309.1,310.4,309.2,310.3,309.2z"/>
				</g>
				<g>
					<path fill="none" stroke="#FFFFFF" stroke-miterlimit="10" d="M310.7,309.8c-0.2,0-0.3-0.1-0.4-0.3c-0.1-0.2,0.1-0.4,0.3-0.5
						l12-3.4c0.2-0.1,0.4,0.1,0.5,0.3c0.1,0.2-0.1,0.4-0.3,0.5l-12,3.4C310.7,309.8,310.7,309.8,310.7,309.8z"/>
				</g>
			</g>
		</g>
		<g>
			<g>
				<path fill="none" stroke="#FFFFFF" stroke-miterlimit="10" d="M177.1,320.1c-1.9,0-3.2-0.5-4.1-1.4c-1.3-1.5-0.7-3.5-0.7-3.6
					c0.1-0.2,0.3-0.3,0.5-0.3c0.2,0.1,0.3,0.3,0.3,0.5c0,0-0.5,1.7,0.5,2.8c1,1.1,3.3,1.4,6.6,0.8c1.8-0.4,5.2-0.9,9.6-1.5
					c0.2,0,0.4,0.1,0.4,0.3s-0.1,0.4-0.3,0.4c-4.3,0.6-7.7,1.1-9.5,1.5C179.1,320,178,320.1,177.1,320.1z"/>
			</g>
		</g>
	</g>
</g>
</svg>
