<?xml version="1.0" encoding="utf-8"?>
<!-- Generator: Adobe Illustrator 18.1.1, SVG Export Plug-In . SVG Version: 6.00 Build 0)  -->
<!DOCTYPE svg PUBLIC "-//W3C//DTD SVG 1.1//EN" "http://www.w3.org/Graphics/SVG/1.1/DTD/svg11.dtd">
<svg version="1.1" id="Layer_1" xmlns="http://www.w3.org/2000/svg" xmlns:xlink="http://www.w3.org/1999/xlink" x="0px" y="0px"
	 viewBox="0 0 612 792" enable-background="new 0 0 612 792" xml:space="preserve">
<polygon fill="#FFFFFF" points="342,387.9 343,386.1 343.8,388 345.8,388.3 344.3,389.7 344.6,391.7 342.9,390.7 341,391.6 
	341.4,389.6 340,388.2 "/>
<polygon fill="#FFFFFF" points="492.4,425.6 493.3,423.8 494.2,425.7 496.2,426 494.7,427.4 495,429.4 493.2,428.4 491.4,429.3 
	491.8,427.3 490.3,425.9 "/>
<path fill="#FFFFFF" d="M359,439"/>
<g>
	<g>
		<path fill="#3A312B" d="M479.4,349.9c0.2,0.7,0.5,1.5,0.7,2.4c-0.5-1.5-0.8-2.5-0.8-2.8L479.4,349.9z"/>
		<path fill="#3A312B" d="M153.2,346.7l-0.1-0.5l-1.6-2.6l0.2,1c0.2,1.1,1.7,6,2.1,7.1l0.3,0.9l-2.9,0.8c-3.6,1.1-5.2,2.4-5.7,8.1
			c-0.3,2.9-0.6,7.3-1,12.7c0.5,0.4,1,0.9,1.5,1.2c0.3-4.9,0.6-9.2,0.9-12c0.6-5.9,2.3-7.4,6.1-8.5l2.4-0.7l-0.2-0.4
			C154.9,352.8,153.4,347.8,153.2,346.7z"/>
		<path fill="#3A312B" d="M96.5,369.8c-0.7,0-1.6,0.2-2.7,0.5l-2.6,0.8l2.3,1.4l2.1-0.6c1.9-0.6,3.2-0.6,4.4-0.2
			C98.9,370.4,97.9,369.8,96.5,369.8z"/>
		<path fill="#3A312B" d="M148.4,377.8c0,0-3.2,2.3-4.3,4.1c-0.5,10-0.8,19.5-0.8,25.5v0.7l-0.7,0.2c-2.4,0.6-11.9,3.4-14.3,4.2
			l-0.4,0.1c-0.2,0.1-0.3,0.1-0.3,0.1l2.2,1.4l0.3-0.1c2.4-0.8,11.9-3.6,14.3-4.2l0.3-0.1v-0.3c0-6.4,0.3-16.3,0.8-25.7
			c1.1-1.9,4.5-4.3,4.5-4.3l-1.1-2.1c0,0,0,0,0,0l0,0L148.4,377.8z"/>
		<path fill="#3A312B" d="M113.6,391c-0.7-1-4.4-1.4-6.6-1.4l-0.7,0l2.7,1.5c0,0,2.9,0,5.1,0.6c-0.1-0.2-0.2-0.4-0.4-0.6
			C113.7,391.1,113.7,391.1,113.6,391z"/>
		<path fill="#3A312B" d="M132.8,359.1c-0.4,0-1,0.1-1.6,0.3l-2.9,0.9l0,0l0,0l2.4,1.4l2.4-0.7c0.7-0.2,1.2-0.3,1.7-0.3
			C134.3,359.4,133.6,359.1,132.8,359.1z"/>
		<path fill="#3A312B" d="M123.3,360.6l0.4,0.9l-3.4,1c-1.1,0.3-1.7,0.8-2,1.5c-0.4,1.1,0,2.8,1.3,5.1c3.4,5.5,10.6,16.4,15,23.1
			c0,0,0-0.1,0-0.1c-4.5-6.7-10.4-15.9-13.5-20.8c-1.4-2.4-1.8-4.3-1.3-5.5c0.3-0.8,1.1-1.4,2.3-1.8l2.8-0.8l-0.2-0.4
			c-0.4-1.1-1.9-6.1-2.1-7.2l-0.1-0.5l-1.6-2.6l0.2,1C121.5,354.6,122.9,359.5,123.3,360.6z"/>
		<path fill="#3A312B" d="M224.3,370.2l-1.6-3.1l0.1,1.1c0.4,6.4,1.8,16.3,2.8,22.7l0.2,1l-1,0.1c-4.5,0.4-13.2,1.7-17.6,2.4
			l-21.5,3.4c-3.8,0.6-10.9,1.8-13.5,2.3c-1.1,0.2-1.8,0.3-1.9,0.3l-0.9,0.1c0,0-0.1,0-0.1,0l2.4,1.4l0.4-0.1c0.1,0,0.9-0.1,1.9-0.3
			c3.2-0.6,9.8-1.7,13.5-2.3l21.5-3.4c4.4-0.7,13.1-2,17.6-2.4l0.5,0l-0.1-0.5C226.1,386.5,224.7,376.6,224.3,370.2z"/>
		<path fill="#3A312B" d="M166.7,350.6c-0.3,0-0.7,0-1.1,0.1l-4.2,0.7l0,0l2.4,1.4l3.7-0.6c0.4-0.1,0.8-0.1,1.2-0.1
			c0.2,0,0.4,0,0.6,0C168.5,350.8,167.6,350.6,166.7,350.6z"/>
		<path fill="#3A312B" d="M204.1,356c0.3,2.4,0.5,4.5,1.1,8.5c0.9,5.8,1.5,8.3,2.3,12.2l0.3,1.5l-1,0.1c-0.3,0-3.2,0.4-5.8,0.9
			l-1,0.2l2.4,1.4l0.4-0.1c2.8-0.6,5.8-0.9,5.8-0.9l0.5-0.1l-0.2-1c-0.9-3.9-1.4-6.4-2.3-12.2c-0.6-4-0.9-6-1.1-8.5
			c-0.1-1.2-0.3-2.5-0.5-4.1l-1.6-3l0.1,0.9C203.8,353.5,203.9,354.8,204.1,356z"/>
		<polygon fill="#3A312B" points="200,379.4 200,379.4 200,379.4 		"/>
		<path fill="#3A312B" d="M193.6,370c-0.7,0-1.6,0.1-2.5,0.2l-1.6,0.3c1,6,1.8,10.8,2.3,12.6c0.4,1.9,1,2.8,1.8,3.2
			c-0.1-0.3-0.2-0.7-0.3-1.1c-0.5-1.9-1.4-6.9-2.4-13.2l2.1-0.3c1-0.2,1.8-0.2,2.6-0.2c0.9,0,1.6,0.1,2.3,0.3
			C197,370.5,195.6,370,193.6,370z"/>
		<path fill="#3A312B" d="M219.8,354.8l0.2,0.9l-9.4,1.5l2.4,1.4l8.4-1.3l-0.1-0.4c-1-5.7-2.3-15.1-2.9-21.3l0-0.5l-1.6-2.6l0.1,1.1
			C217.5,339.8,218.8,349.2,219.8,354.8z"/>
		<path fill="#3A312B" d="M202,345.3c-1,0-2.1,0.1-3.4,0.3l-8.8,1.4c-2.5,0.4-3.4,1.7-3.2,4.3c0.2,2.1,0.8,6.8,1.7,12.4l1.2-0.2
			c-0.7-4.6-1.2-8.3-1.4-10.2c-0.3-2.9,0.8-4.4,3.6-4.9l8.8-1.4c1.4-0.2,2.5-0.3,3.5-0.3c1.2,0,2.2,0.1,3.2,0.5
			C205.8,345.7,204.1,345.3,202,345.3z"/>
		<path fill="#3A312B" d="M298.2,370.8l-1.6-2.6c0,0,0,0,0,0.1l0.2,0.8c1.3,4.7,2.3,11.2-1,15.8c-2.2,3-5.8,4.7-10.8,5
			c-0.6,0-1.1,0-1.6,0c0,0,0,0,0,0c-3.2,0-5.7-0.6-7.7-1.6c2.4,2.2,5.9,3.3,11.2,3c4.8-0.2,8.3-1.8,10.4-4.8
			c3.2-4.5,2.3-10.8,1-15.4L298.2,370.8z"/>
		<path fill="#3A312B" d="M262.6,338.9c-0.3,0-0.6,0-1,0l-2.8,0.1c-1.6,0.1-2.2,0.7-2.2,2.5c0,0.3,0.1,7.4,0.5,15.2l1.4-0.1
			c-0.3-6.7-0.4-12.4-0.4-13.1c0-2.1,0.7-2.9,2.7-3l2.8-0.1c0.3,0,0.7,0,1,0c1.5,0,2.7,0.2,3.7,0.6
			C267.1,339.5,265.3,338.9,262.6,338.9z"/>
		<path fill="#3A312B" d="M236.4,340.6l-4.5,0.2l2.3,1.5l4.2-0.2c0.4,0,0.7,0,1.1,0C238.9,340.7,238,340.5,236.4,340.6z"/>
		<path fill="#3A312B" d="M259.3,364.2l-1.7,0.1c0.3,5.6,0.6,10,0.8,11.5c0.3,2.1,0.9,3.1,1.8,3.6c-0.1-0.5-0.3-1-0.3-1.5
			c-0.2-1.6-0.6-6.1-0.9-12l2.2-0.1c1.9-0.1,3.6,0,4.9,0.5C264.6,364.3,262.3,364,259.3,364.2z"/>
		<path fill="#3A312B" d="M277.9,360.3c0.9,0.3,1.8,0.8,2.5,1.3c6.2-2.5,9.9-7.8,9.5-14.5c-0.2-3.6-1.3-6.5-3.3-8.9
			c1.1,2,1.7,4.2,1.8,6.8C288.8,352.1,284.8,357.8,277.9,360.3z"/>
		<path fill="#3A312B" d="M289.4,379.5c-0.5-1.3-1-3.2-1.5-5.9c-0.6-3.3-1.7-5.8-3.4-7.7c0.8,1.6,1.5,3.4,1.9,5.6
			C287.4,377.4,288.4,379.1,289.4,379.5z"/>
		<path fill="#3A312B" d="M265.8,389c-0.1,0-12.6,0.5-15.2,0.6c-5,0.3-13.6,0.8-15.2,0.9l-0.8,0.1c0,0-0.1,0-0.2,0l2.5,1.5l0.4,0
			c0.1,0,9.8-0.7,15.3-0.9c2.6-0.1,15.1-0.6,15.2-0.6l0.4,0l-0.4-8.5l-1.5-2.5l0,0.2l0.5,9.3L265.8,389z"/>
		<path fill="#3A312B" d="M238.4,364.3c0,0,0.3,0.2,0.7,0.4C239,364.6,238.7,364.4,238.4,364.3C238.5,364.3,238.4,364.3,238.4,364.3
			z"/>
		<path fill="#3A312B" d="M310.7,338l-4.5-0.1l2.5,1.5l4,0.1c0.3,0,0.5,0,0.8,0.1C312.9,338.3,312,338,310.7,338z"/>
		<path fill="#3A312B" d="M357.9,364.2c-0.5,5.7-1.2,18.3-1.2,24.3l0,1l-1-0.1c-5.1-0.5-13-0.7-16.8-0.9l-19.2-0.6
			c-3.4-0.1-10.9-0.3-14.3-0.3l-0.9,0l2.5,1.5l0.4,0c3.3,0,10.8,0.2,14.3,0.3l19.1,0.6c3.8,0.1,11.8,0.4,16.9,0.9l0.5,0l0-0.5
			c0-6,0.7-18.6,1.2-24.3l0-0.5l-1.5-2.5L357.9,364.2z"/>
		<path fill="#3A312B" d="M329.7,364.3c-0.1,5.3-0.2,9.3-0.2,11.1c0,1.9,0.5,2.8,1.6,3.2c-0.1-0.4-0.1-0.8-0.1-1.2
			c0-2,0.1-6.3,0.2-11.2c0.3-1.9,5.2-4.8,5.2-4.8l-1.1-2l-0.7,0.4C332.9,361,330,363.1,329.7,364.3z"/>
		<path fill="#3A312B" d="M339.1,337.9l0,0.9l-4.3-0.1c-0.2,0-0.3,0-0.4,0c-2.5,0-3.5,1-3.7,3.9c-0.1,1.6-0.3,5.9-0.5,11.8
			c0.1,0.6,0.7,1.3,1.5,2.1c0,0,0,0,0,0c0.2-5.4,0.4-10.1,0.6-11.9c0.3-3.3,1.5-4.5,4.7-4.3l3.8,0.1l0-0.4c0.1-1.9,0.2-6.5,0.3-7.5
			l0-0.5l-1.5-2.5l-0.1,1C339.3,331.5,339.1,336.4,339.1,337.9z"/>
		<path fill="#3A312B" d="M392.2,384.3c-0.1,0.6-0.3,2.2-0.5,3.8l-0.1,0.4c-0.2,1.5-0.4,3-0.5,3.5l-0.1,0.9l-0.9-0.1
			c-0.1,0-8.4-1.3-13-1.9c-4.6-0.6-13-1.6-13.1-1.6l-0.5-0.1c-0.2,0-0.3,0-0.4,0l2.6,1.6l0.4,0c0.1,0,8.5,1,13.1,1.6
			c4.6,0.6,13,1.9,13,1.9l0.4,0.1l0.1-0.4c0.1-0.6,0.3-2.2,0.5-3.8c0.2-1.6,0.5-3.2,0.5-3.8l0.1-0.4l-1.4-2.4c0,0,0,0,0,0l0,0
			L392.2,384.3z"/>
		<path fill="#3A312B" d="M423.1,373.6c0.8,3.3,1.5,5.8,1.9,7.4c1,3.5,1.9,5.3,3,6.3c-0.5-1.1-1-2.4-1.5-4.2c-0.4-1.6-1.1-4.3-2-7.6
			c1-2,3.7-4.5,3.7-4.5l-1.1-2.2l-0.6,0.5C426.6,369.4,424.1,371.7,423.1,373.6z"/>
		<path fill="#3A312B" d="M414.1,336.3c1.1,5.1,3.6,15.7,6.7,28.4l0.1,0.1c0.1,0.4,0.6,1,1.3,1.5c-2.5-10.2-5.4-22-6.6-27.9l0-0.1
			c-0.1-0.2-1.2-1.9-1.7-2.5c0.1,0.1,0.1,0.1,0.2,0.2L414.1,336.3z"/>
		<path fill="#3A312B" d="M413.7,335.7C413.7,335.7,413.7,335.7,413.7,335.7C413.7,335.7,413.7,335.7,413.7,335.7z"/>
		<polygon fill="#3A312B" points="398.3,362.1 398.4,362.3 400.5,368.6 401.4,368.8 400.1,365.1 		"/>
		<path fill="#3A312B" d="M386.3,376c-1.2,2.6-1.5,4.4-1,5.5c0.2,0.4,0.7,0.8,1.3,1c-0.1-1.2,0.4-2.7,1.3-4.7c0,0,1.2-2.4,2.9-5.7
			l-1.5-1.8L386.3,376z"/>
		<polygon fill="#3A312B" points="389.6,379.9 389.6,379.9 389.6,379.9 392.4,381.1 398.2,379 396.1,377.5 		"/>
		<polygon fill="#3A312B" points="401.6,374.6 401.8,381.5 403.3,382.5 403.1,376.4 405.2,374.8 404.7,372.4 		"/>
		<path fill="#3A312B" d="M399.7,349.8c-1.7,3.3-5.7,11.1-9.1,17.8l2.4,0.1c2.6-5.1,5.6-11,7.5-14.6
			C400.2,351.8,399.9,350.7,399.7,349.8z"/>
		<path fill="#3A312B" d="M434.2,389l-1.3,9.5l-0.9-0.1c-1.9-0.3-11.3-1.7-16.8-2.4c-6-0.8-16.5-2-16.9-2.1l-0.9-0.1l0,0l2.6,1.6
			l0.4,0.1c0.1,0,10.9,1.3,17,2.1c6,0.8,16.7,2.4,16.8,2.4l0.4,0.1l1.1-8.5L434.2,389L434.2,389z"/>
		<path fill="#3A312B" d="M101.8,390.1C101.8,390.1,101.8,390.1,101.8,390.1l-0.5,0.6c-1.3,1.8-3.1,5-2.7,6.1l0,0.2
			c6.7,21.8-1.9,39.6-23.6,48.8c-7.3,3.1-14.1,4.6-20.1,4.6c0,0,0,0,0,0c-6.2,0-11.8-1.6-16.8-4.8c10.2,7.9,23.2,8.3,38.7,1.7
			c19.8-8.3,30.5-24.8,23.3-48.2c0,0,0,0,0-0.1c-0.6-1.8,2.8-6.6,2.8-6.6L101.8,390.1z"/>
		<path fill="#3A312B" d="M49.7,413.6l-1.2-2.4l-0.4,0.6c-0.8,1.2-2.8,4.5-2.7,5.9c2.3,5.1,4.5,9.1,6.7,12c-1.7-2.7-3.4-5.9-5.2-9.8
			C46.7,418.1,49.7,413.6,49.7,413.6z"/>
		<path fill="#3A312B" d="M46.7,378.4c-10.2,4.3-11.6,13.1-5,30.6c0.2,0.2,0.6,0.4,1,0.6c-6-16.6-4.3-25.4,5.8-29.7
			c5.1-2.1,9.3-2.3,13.1-0.1c-2.5-2.1-5.1-3.1-7.9-3.1C51.6,376.8,49.3,377.3,46.7,378.4z"/>
		<path fill="#3A312B" d="M95.7,388.2c-1.5-3.1-3.2-5.8-4.9-8.2c1.5,2.3,2.9,4.9,4.2,7.7C95.2,387.8,95.4,388,95.7,388.2z"/>
		<path fill="#3A312B" d="M529.4,365.7l-4.8-1.8l2.6,1.7l4.4,1.7c0.3,0.1,0.5,0.2,0.7,0.3C531.7,366.8,530.8,366.2,529.4,365.7z"/>
		<polygon fill="#3A312B" points="500.3,428.7 500.3,428.7 500.3,428.7 		"/>
		<path fill="#3A312B" d="M598.6,421.7l-0.7,0.2c0,0-4.2,0.9-5.7,2.2c-6.9,15.8-17.5,23.8-31.7,23.8c-5.5,0-11.5-1.2-17.8-3.6
			c-0.1-0.1-14.2-5.4-21-8c-6.6-2.5-20.6-7.5-20.8-7.5l-0.5-0.2l2.6,1.7c0,0,14.1,5,20.8,7.5c6.9,2.6,21,8,21,8
			c20,7.5,38.5,4.3,49-20.1c1.6-1.4,6.1-2.4,6.1-2.4S599.2,422.7,598.6,421.7z"/>
		<path fill="#3A312B" d="M595.3,415.6c0.2,1.6,2.2,4.5,2.9,5.5l0.3,0.4c-0.8-1.3-1.6-2.8-1.7-4c4.1-13.7,3.3-24.2-3.4-32.5
			C598.5,393,599.1,403,595.3,415.6z"/>
		<path fill="#3A312B" d="M538.4,426.8c1.2-3.5,4-11.4,7.1-19.7c0,0,0,0,0.1-0.1c0.7-1.7,6.5-3,6.5-3s-0.5-0.7-1.2-1.7l-0.7,0.2
			c-2.1,0.5-5.7,1.6-6.2,2.7l-0.1,0.1c-3.2,8.8-5.9,16.3-7,19.6c-0.8,2.3-0.3,4.1,1.3,5.2C537.9,429.2,537.9,428.1,538.4,426.8z"/>
		<path fill="#3A312B" d="M559.6,376.8c-2.7-1-4.5-0.3-5.6,2.2c-1.2,2.7-3.5,8.5-6.5,16.6l0,0c-0.4,1.2,1.6,4.3,2.9,6.1l0.3,0.3
			c-0.9-1.5-1.9-3.5-1.6-4.5c0,0,0,0,0,0c2.7-7.3,5.3-13.7,6.5-16.7c1-2.2,2.8-3.8,6.2-2.5l3.7,1.4c2.3,0.8,4.2,1.8,5.9,2.8
			c-2-1.7-4.7-3.1-8.1-4.4L559.6,376.8z"/>
		<path fill="#3A312B" d="M480.2,352.3c2.9,9.5,8,25,11.5,35.4c0.1-0.4,0.2-0.8,0.4-1.3c-3.8-11.3-8.7-26.3-11.1-34.4l-1.7-2.7
			l0,0.1C479.4,349.8,479.7,350.8,480.2,352.3z"/>
		<path fill="#3A312B" d="M494.3,363.5l-5-1.4l2.5,1.6l4.6,1.3c0.1,0,0.3,0.1,0.4,0.1C496.4,364.3,495.5,363.8,494.3,363.5z"/>
		<path fill="#3A312B" d="M456.9,352.9l-4.3-1.2l2.6,1.7l3.9,1.1c0.1,0,0.2,0.1,0.3,0.1C458.9,353.7,458.1,353.2,456.9,352.9z"/>
		<path fill="#3A312B" d="M460.7,391.7c-0.5,2.2-0.2,3.4,1.3,4.3c-0.1-0.7,0-1.4,0.2-2.4c0.7-3.1,3.7-13.8,6.2-22.6
			c-0.4-1.1-0.7-2.3-1.1-3.3C464.7,376.8,461.4,388.5,460.7,391.7z"/>
		<path fill="#3A312B" d="M466.3,406.3l-0.2,1l-1.2-0.4c-3.1-0.9-8.8-2.7-12.3-3.7c-4.4-1.2-11.9-3.2-12.7-3.4l-0.5-0.1
			c-0.3-0.1-0.5-0.1-0.5-0.1l2.6,1.6l0.4,0.1c0.1,0,8.2,2.1,12.7,3.4c4.5,1.3,12.5,3.7,12.6,3.7l0.4,0.1l0.1-0.4
			c0.8-3.6,2.1-7.3,2.1-7.4l0.1-0.4l-1.4-2.3l-0.3,0.9C468.1,399.6,467,403.1,466.3,406.3z"/>
		<path fill="#3A312B" d="M518.4,361.6c-0.4,1.1-1.8,6-2,7.1l-0.2,1l-4.5-1.3c-0.6-0.2-1.1-0.3-1.6-0.3c-1.6,0-2.6,1-3.5,3.4
			c-0.5,1.3-1.6,5-3.1,10.3c0,1.1,1.3,3,2.4,4.4c-0.5-0.9-0.9-1.8-0.9-2.4c1.4-5,2.6-8.9,3.1-10.4c0.9-2.6,2.1-3.8,3.9-3.8
			c0.5,0,1.1,0.1,1.7,0.3l4,1.1l0.1-0.5c0.2-1.1,1.7-6.1,2-7.2l0-0.1c0-0.3-1-1.9-1.6-2.5c0.1,0.1,0.1,0.3,0.1,0.5L518.4,361.6z"/>
		<path fill="#3A312B" d="M502.4,393.3c0.6-1.8,6.2-3.5,6.2-3.5l-1.1-1.8l0,0l0,0l-0.8,0.2c-2.1,0.6-5.5,2.1-5.9,3.2l-0.1,0.1
			c-2.6,9.2-4.9,17.7-6.2,22.6l-0.3,1l-1-0.3c-2.7-0.9-8.8-2.7-11.6-3.3l-0.5-0.1l2.4,1.6l0.2,0.1c2.8,0.6,8.9,2.4,11.7,3.3l0.4,0.2
			l0.1-0.5C497.5,410.8,500,401.8,502.4,393.3C502.4,393.4,502.4,393.4,502.4,393.3z"/>
		<path fill="#3A312B" d="M297,375.9c0,1.2-0.1,2.4-0.2,3.6C297,378.3,297.1,377.1,297,375.9z"/>
	</g>
	<g>
		<g>
			<path fill="#D2CBC8" d="M148,345.7L148,345.7c-2.5,0.8-6.1,2-9,2.8c-3.9,1.2-11.3,3.1-12.2,3.3c0.2,0.5,1.3,3.8,2.1,7.1l1.9-0.6
				c0.7-0.2,1.4-0.3,1.9-0.3c2.7,0,3.4,2.6,3.6,6.4c0.3,6.9-0.4,22.2-0.8,29.3l-0.1,1.5l-0.8-1.2c-4.4-6.5-12.3-18.5-15.9-24.4
				c-1.4-2.6-1.9-4.6-1.3-6c0.4-1,1.3-1.6,2.7-2.1l2.3-0.7c-0.4-1.2-1.8-5.9-2.1-7.1c-0.4,0.1-1.4,0.4-2.8,0.9l-0.4,0.1
				c-3.3,1.1-8.4,2.6-12,3.7c-5,1.5-14,3.9-15.2,4.2c0.2,0.5,1.3,3.8,2.1,7.1l1.6-0.5c1.2-0.3,2.1-0.5,3-0.5c2.5,0,4,1.4,6.2,4.4
				c1.5,2,3.8,5.3,6.6,9.6l0.1,0.1l0,0.1c0.1,1.7-1,4.4-1.6,5.7c1.7,0.1,5.5,0.4,6.6,1.8l0.1,0.1c5.5,8.3,10.7,16.3,13.5,20.9
				c2.5-0.8,11.8-3.5,14.2-4.2c0-6.1,0.3-15.6,0.8-25.6l0-0.1l0.1-0.1c0.8-1.5,2.9-3.2,4-4c-0.9-0.5-2.4-1.5-3.5-2.6l-0.2-0.2l0-0.2
				c0.3-5.6,0.7-10.1,1-13c0.6-6.2,2.5-7.8,6.4-8.9l1.8-0.5c-0.4-1.2-1.8-5.9-2.1-7.1C150.2,345,149.3,345.3,148,345.7z"/>
		</g>
		<g>
			<path fill="#D2CBC8" d="M213.8,369.6c0.9,5.7,0.7,9.4-0.6,11.9c-1.3,2.6-3.9,4-8.2,4.7l-8.6,1.4c-0.5,0.1-0.9,0.1-1.3,0.1
				c-2.4,0-3.7-1.3-4.4-4.3c-0.5-1.9-1.4-7-2.4-13.2l-0.1-0.5l2.6-0.4c1-0.2,1.9-0.2,2.7-0.2c4.1,0,6,2,6.9,7.4l0.3,1.8
				c2.5-0.5,5.1-0.8,5.8-0.9l-0.1-0.4c-0.9-3.8-1.4-6.4-2.3-12.2c-0.6-3.9-0.9-6-1.1-8.5c-0.1-1.2-0.3-2.5-0.5-4.1
				c-0.4,0.1-3.2,0.7-5.9,0.9l0.3,2.1c0.9,5.8-0.9,8.4-6.7,9.3l-2.8,0.4l-0.1-0.5c-0.9-5.9-1.6-10.8-1.8-13c-0.3-3.2,0.9-4.9,4-5.4
				l8.8-1.4c1.4-0.2,2.6-0.3,3.6-0.3c5.5,0,8,3.2,9.4,11.9l7.4-1.2c-1-5.7-2.3-15-2.9-21.2c-3.5,1-13.6,2.8-18.5,3.5l-20.7,3.3
				c-2.4,0.4-7.9,1.2-11.2,1.7c-2.1,0.3-3.9,0.6-4.4,0.7l1.2,7.3l3.2-0.5c0.5-0.1,0.9-0.1,1.3-0.1c2.3,0,3.6,1.3,4.3,4.6
				c0.4,1.9,1.3,7.1,2.3,13.4l0,0.1l0,0.1c-0.3,1.7-2.7,4.1-3.8,5.2c1.5,0.7,4.9,2.5,5.3,4.2c0.4,3,1,6.7,1.1,8.3
				c0.3,3.2-0.3,5.5-4.2,6.1l-2.8,0.4l1.2,7.5c0.2,0,0.9-0.2,1.8-0.3c2.7-0.5,9.7-1.7,13.5-2.3l21.5-3.4c4.4-0.7,13-2,17.6-2.4
				c-1-6.5-2.4-16.2-2.8-22.7C220.4,368.6,215.2,369.4,213.8,369.6z"/>
		</g>
		<g>
			<path fill="#D2CBC8" d="M295.9,369.4c-0.6,0.1-3.2,0.5-4,0.5c0.8,2.8,1.8,7.8,0.3,9.9c-0.4,0.6-1,0.9-1.7,0.9l-0.2,0
				c-2.4,0-3.6-2.2-4.9-9c-1.2-6.2-4-9.6-9.2-10.9l-1.9-0.5l1.9-0.5c7.4-1.9,11.8-7.6,11.4-14.7c-0.5-9.2-7.4-14.3-19.6-14.3
				c-0.8,0-1.6,0-2.4,0.1c-3.2,0.2-6.9,0.4-10.2,0.6c-2.7,0.2-5.1,0.3-6.8,0.4c-1.9,0.1-6.6,0.3-11.2,0.5c-2.4,0.1-4.4,0.2-5,0.2
				l0.4,7.4l3.7-0.2c0.2,0,0.4,0,0.5,0c2.9,0,3.6,1.7,4,4.3c0.2,1.6,0.5,6.6,0.9,13.3l0,0.1l0,0.1c-0.3,1.7-3.1,4-4.4,5
				c1.5,0.9,4.7,3.1,4.9,4.8c0.2,4.9,0.3,8.3,0.3,9.6c-0.1,3.6-1.4,5-4.8,5.2l-2.9,0.1l0.4,7.6c1.9-0.1,10.3-0.7,15.2-0.9
				c2.5-0.1,14.2-0.6,15.2-0.6l-0.4-7.5l-2.8,0.1c-3,0.2-4.5-1.3-5-4.8c-0.2-1.6-0.6-6.2-0.9-12.1l0-0.5l2.7-0.1
				c5.7-0.3,9.4,1,10.4,10.8c1.1,9.9,3.9,15.4,15.3,14.9c4.7-0.2,8-1.8,10-4.6c1-1.4,1.6-3.1,1.9-4.8c0.1-1.2,0.2-2.4,0.2-3.6
				C296.9,373.6,296.4,371.3,295.9,369.4z M269.1,354.9c-1.6,1.6-4,2.4-8,2.7l-4.9,0.2l0-0.5c-0.4-7.9-0.5-15-0.5-15.7
				c0-2.3,0.9-3.4,3.1-3.6l2.8-0.1c6.5-0.3,9.2,2.3,9.5,9.2C271.3,350.8,270.7,353.3,269.1,354.9z"/>
		</g>
		<g>
			<path fill="#D2CBC8" d="M349.7,364c-1,14.3-4.8,16.4-12,16.1l-4.5-0.1c-2.8-0.1-4.6-0.9-4.7-4.5c0-1.8,0-5.8,0.2-11.2l0-0.1
				c0.3-1.7,3.4-3.8,4.8-4.7c-1.3-1-4.2-3.2-4.5-4.9l0-0.1l0-0.1c0.2-5.9,0.4-10.3,0.6-11.9c0.3-3.6,1.8-4.9,5.2-4.8l3.3,0.1
				c0.1-1.9,0.2-6.2,0.3-7.4c-0.3,0-1.2,0-2.3,0c-3.2,0-9.1-0.1-13.1-0.2c-5.2-0.2-14.6-0.7-15.5-0.7l-0.2,7.4l3.5,0.1
				c2.8,0.1,4.1,1.6,4.2,5.1c0,1.6,0,6-0.2,12.1c-0.3,1.7-3.4,3.9-4.8,4.8c1.3,0.9,4.1,3.1,4.5,4.8l0,0.1l0,0.1
				c-0.2,5.1-0.4,8.9-0.5,10.6c-0.3,3.4-1,4.8-4.9,4.7l-3.3-0.1l-0.2,7.6c3.4,0,10.8,0.2,14.3,0.3l19.1,0.6
				c3.9,0.1,11.8,0.4,16.9,0.9c0-6,0.7-18.5,1.2-24.2C355.8,364.2,350.9,364.1,349.7,364z"/>
		</g>
		<g>
			<polygon fill="#D2CBC8" points="398,364.2 394.9,368.7 389.5,368.8 392.8,373.1 391.2,378.2 396.3,376.4 400.7,379.5 
				400.5,374.1 404.9,370.9 399.7,369.4 			"/>
		</g>
		<g>
			<path fill="#D2CBC8" d="M430.6,389.5c-2.9-0.4-4.8-1.8-6.6-8.2c-0.4-1.6-1.1-4.3-2-7.6l0-0.2l0.1-0.2c0.8-1.5,2.4-3.3,3.3-4.1
				c-1.5-0.7-5-2.4-5.5-4.1l0-0.1c-3.2-12.7-5.7-23.3-6.7-28.5c0,0-0.1,0-0.1,0c-3.1-0.3-5.6-0.5-7.2-0.7c-2.4-0.3-6.7-1.1-7.2-1.2
				c-1.5,2.9-8.1,15.2-13.8,26l-0.1,0.1c-1.2,1.2-4.5,1.9-6,2.2c0.6,1.1,1.8,3.2,2.1,4.8l0,0.2l-0.1,0.2c-2.2,4.1-3.4,6.3-3.7,6.9
				c-2.6,4.6-4.7,6.2-8.1,6.2c-0.5,0-1.1,0-1.7-0.1l-2.1-0.3l-1,7.5c0.8,0.1,8.6,1,13,1.6c4.4,0.6,12.1,1.8,13,1.9
				c0.1-0.6,0.3-2,0.5-3.5l0.1-0.4c0.2-1.5,0.4-3.1,0.5-3.7l-3.1-0.4c-1.9-0.3-3.1-0.9-3.7-1.9c-0.7-1.4-0.4-3.4,1-6.4l3.7-7.2v0
				l0.1-0.3c4-7.9,9-17.7,10.2-19.9l0.6-1.2l0.3,1.3c0.6,2.6,3,13.3,4.8,21.9l0.2,0.8h0l1.6,7.2c0.5,3.4,0.3,5.4-0.6,6.6
				c-0.8,0.9-2,1.2-3.7,1l-3.2-0.4c-0.1,0.9-0.4,3.4-0.8,6.1c-0.1,0.6-0.2,1.1-0.2,1.5c1,0.1,11.1,1.3,16.9,2.1
				c5.5,0.7,14.9,2.1,16.8,2.4l1-7.5L430.6,389.5z"/>
		</g>
		<g>
			<path fill="#D2CBC8" d="M94.2,388.2L94.2,388.2c-7.6-16.2-18-24.1-31.7-24.1c-6,0-12.7,1.5-19.9,4.6C20,378.2,12,396.9,20.8,420
				l0,0.2c0,1.7-1.5,4.5-2.3,5.7c1.4,0.2,4.3,0.8,5.6,1.9l0.1,0.1l0.1,0.1c7.4,14.2,17.7,21.4,30.5,21.4c0,0,0,0,0,0
				c5.9,0,12.6-1.5,19.7-4.5c21.2-8.9,29.6-26.3,23.1-47.6l0-0.1l0,0c-0.5-1.6,1.5-4.9,2.5-6.3C98.6,390.4,95.3,389.5,94.2,388.2z
				 M70.9,436c-2.8,1.2-5.2,1.7-7.5,1.7c-7.1,0-12.6-5.7-19-19.5l0-0.1c-0.2-1.7,1.5-4.7,2.4-6.1c-1.5-0.3-4.8-1.1-5.9-2.4l-0.1-0.2
				c-6.8-17.9-5.2-27.5,5.5-32c2.7-1.2,5.2-1.7,7.4-1.7c7.3,0,12.8,5.7,19.2,19.6l0,0.1c0.2,1.7-1.5,4.7-2.4,6.1
				c1.5,0.3,4.7,1,5.9,2.3l0.1,0.1l0,0.1C83.6,422.4,82,431.3,70.9,436z"/>
		</g>
		<g>
			<path fill="#D2CBC8" d="M570,369.8c-0.7-0.3-2.6-1-5.2-1.9c-4.7-1.7-11-4-15.3-5.6c-4.6-1.7-11.6-4.5-16.3-6.3
				c-1.8-0.7-3.3-1.3-4.1-1.6l-3.3,8.9l4,1.5c4.2,1.6,5.3,4.2,3.9,9c-0.7,2.2-2.8,8.1-5.8,16.1l0,0.1c-0.9,1.4-4.4,2.5-6,2.9
				c0.9,1.3,2.8,4.2,2.7,6l0,0.1c-3.2,8.5-5.8,15.1-6.9,17.7c-1.2,2.8-2.5,4.6-5.1,4.6c-1.1,0-2.4-0.3-4.3-1L505,419l-3.4,9.1
				c2.5,0.9,14.4,5.1,20.3,7.4c6.8,2.6,20.9,7.9,21,8c6.3,2.3,12.1,3.5,17.5,3.5c13.8,0,24.2-7.9,30.9-23.3l0-0.1l0.1-0.1
				c1.3-1.1,4.2-2,5.5-2.3c-0.8-1.2-2.6-3.8-2.7-5.6l0-0.1l0-0.1C601.2,392.4,594,378.7,570,369.8z M575.3,406.4l-0.1,0.2
				c-1,1.3-4.3,2.3-5.9,2.7c1,1.4,3.1,4.6,2.6,6.3l0,0.2c-5.6,13.6-11.5,19.4-19.6,19.4c-2.8,0-6-0.7-9.7-2.1l-3.6-1.3
				c-3.1-1.2-4.3-3.8-3.2-7.1c1.1-3.4,3.8-10.9,7.1-19.7l0.1-0.2c0.7-1.5,4.4-2.6,6.1-3c-1-1.4-3-4.5-2.6-6.2l0,0l0-0.1
				c3.1-8.1,5.4-14.1,6.6-16.7c1.3-3,3.6-3.9,6.8-2.7l3.7,1.4C577.1,382.3,580.2,390.2,575.3,406.4z"/>
		</g>
		<g>
			<path fill="#D2CBC8" d="M504.9,358c-3.2-0.9-7.7-2.3-10.4-3.2c-1-0.3-1.7-0.5-2-0.6c-0.3,1.2-1.6,5.9-2,7.1l4.1,1.2
				c2.3,0.6,4.4,1.9,3.3,6.5c-1,4-3.9,14.5-5.7,20.5l-0.4,1.5l-0.5-1.5c-3.9-11.3-9.9-29.8-12.8-39.3c-5.5-1.4-17.3-4.7-22.6-6.4
				c-0.2,0.8-1,4.1-2,7.1l3.4,1c3,0.9,4.2,2.9,3.5,6.1c-0.3,1.6-1.6,6.3-3.4,12.7l-0.1,0.2c-1,1.4-4.1,2.6-5.6,3
				c1,1.2,3.1,4,3.1,5.8l0,0.1c-1.3,4.5-2.4,7.9-2.9,9.4c-0.9,2.5-2.1,3.6-4.2,3.6c-0.7,0-1.4-0.1-2.3-0.4l-3.1-0.9
				c-0.2,0.6-1,4-2.1,7.3c1.1,0.3,8.4,2.2,12.7,3.4c3.6,1,9.3,2.7,12.4,3.7l0.1,0c0.8-3.2,1.8-6.5,2.1-7.3l-3.9-1.1
				c-3.5-1-4.5-2.7-3.8-6.1c0.8-3.4,4.4-16.4,7.1-25.6l0.4-1.5l0.5,1.5c4.6,13.9,11.1,34,14.3,44.7c2.8,0.6,8.9,2.3,11.6,3.3
				c1.3-4.9,3.6-13.4,6.2-22.7l0.1-0.1c0.6-1.6,4.1-2.9,5.8-3.5c-1-1.2-3.2-4-3.2-5.8l0-0.1c1.5-5.3,2.7-9,3.1-10.4
				c1-2.8,2.4-4.1,4.4-4.1c0.6,0,1.2,0.1,1.8,0.3l3.4,1c0.3-1.2,1.6-5.9,2-7.1c-0.1,0-0.4-0.1-0.6-0.2
				C514.9,360.6,508.7,359.1,504.9,358z"/>
		</g>
	</g>
</g>
<g>
	<path fill="#3A312B" d="M169.8,434.8h1.4c-0.2,1.2-0.5,4.1-0.4,6.1c-0.5,0-1.1,0-1.6,0c-0.5-2.7-1.2-5-5-5c-3.4,0-4.9,2.3-4.9,7.4
		c0,6,2,7.4,4.7,7.4c3.4,0,5.2-2.3,5.4-5.6c0.4,0,1.2,0,1.7,0c-0.3,4.5-2.2,6.9-7.1,6.9c-4.9,0-8.1-2.5-8.1-8.8
		c0-6.2,3.6-8.7,8.1-8.7c2.3,0,3.4,0.7,4,1C169.3,436.3,169.6,436.1,169.8,434.8z"/>
	<path fill="#3A312B" d="M173.7,443.3c0-5.6,3.4-8.7,8-8.7c5.3,0,8,3.1,8,8.7c0,5.6-3.4,8.8-8,8.8
		C176.4,452.1,173.7,448.9,173.7,443.3z M186.5,443.3c0-5.3-1.4-7.4-4.8-7.4c-3.3,0-4.8,2.4-4.8,7.4c0,5.3,1.2,7.4,4.8,7.4
		C185.2,450.8,186.5,448.3,186.5,443.3z"/>
	<path fill="#3A312B" d="M193.6,437.9c0-1-0.3-1.4-1.2-1.4h-1.1v-1.4c0,0,2.5,0.1,3.9,0.1c1.4,0,3.5-0.1,3.9-0.1v1.4h-1.1
		c-1,0-1.4,0.3-1.4,1.4v7.2c0,4,1.5,5.3,4.3,5.3c2.8,0,4.4-1.2,4.4-5.3c0-2,0-4.5,0-7.2c0-0.9-0.5-1.4-1.4-1.4h-1.1v-1.4
		c0,0,2.2,0.1,3.4,0.1c1.2,0,3-0.1,3.4-0.1v1.4h-1.1c-0.9,0-1.2,0.5-1.2,1.4c0,2.7,0,5.1,0,6.9c0,4.8-2.1,7.2-6.6,7.2
		c-4.6,0-7.1-2.1-7.1-7.3C193.6,444.9,193.6,439.4,193.6,437.9z"/>
	<path fill="#3A312B" d="M225.4,446.6c0.1-3,0.1-7.6,0-8.9c0-1-0.4-1.2-1.3-1.2h-1.5v-1.4c0.4,0,2.3,0.1,3.7,0.1s3.6-0.1,3.6-0.1
		v1.4h-1.5c-0.9,0-1.2,0.3-1.3,1.2c-0.1,1.4-0.1,11,0,13.9c-0.4,0-1.4,0-1.8,0c-2-3-6.1-9-9-13.1c0,3.8,0,9.3,0,10.7
		c0,0.8,0.3,1,1.4,1h1.4v1.5c0,0-2.3,0-3.7,0s-3.7,0-3.7,0v-1.5h1.4c1.1,0,1.4-0.2,1.4-1c0.1-1.8,0.1-10.1,0-11.5
		c-0.1-0.9-0.4-1.2-1.3-1.2h-1.5v-1.4c1.3,0,4.2,0,5.6,0C219.2,437.8,223.2,443.5,225.4,446.6z"/>
	<path fill="#3A312B" d="M241.2,436.5c0,3.2,0,11,0,12.3c0,0.9,0.3,1.4,1.3,1.4h1.5v1.5c0,0-2.7,0-4.2,0s-4.2,0-4.2,0v-1.5h1.4
		c1.1,0,1.4-0.5,1.4-1.4c0.1-1.3,0.1-9.1,0-12.3h-1.9c-1.9,0-2.5,0.9-2.5,2.2l-0.1,2.4h-1.6c0.1-1.5,0-4.7-0.1-6.1
		c0.7,0.1,1.9,0.1,3.7,0.1h7.8c2.1,0,2.8,0,3.7-0.1c-0.1,1.5-0.2,4.7-0.1,6.1h-1.5l-0.1-2.4c-0.1-1.4-0.7-2.2-2.5-2.2H241.2z"/>
	<path fill="#3A312B" d="M264.7,450.5c1.1,0,1.2-1.6,0.8-3.8l1.1-0.1c0.6,2.8,0.3,5.5-2.7,5.5c-3.2,0-3.8-1.8-4-4.8
		c-0.1-2.7-1.3-3.2-2.9-3.2h-1.7c0,2.1,0,4.1,0.1,4.6c0.1,1,0.5,1.4,1.4,1.4h1.1v1.4c0,0-2.8,0-4.1,0c-1.5,0-4.1,0-4.1,0v-1.5h1.1
		c1.1,0,1.6-0.4,1.6-1.4c0.1-1.3,0.1-9.7,0-11.1c0-0.9-0.4-1.2-1.2-1.2h-1.5v-1.4c0.4,0,3.7,0,4.2,0c1.1,0,3,0,4,0
		c4,0,6.3,1.5,6.3,4.4c0,2.4-1.8,4-3.9,4.3c1.8,0.5,2.5,1.5,2.7,3.2C263.4,450,263.8,450.5,264.7,450.5z M255.2,443h1.9
		c2.8,0,3.8-1,3.8-3.4c0-2.4-1-3.3-3.5-3.3h-1.2c-0.7,0-0.9,0.4-0.9,1C255.3,438.1,255.2,440.6,255.2,443z"/>
	<path fill="#3A312B" d="M277.1,445.9v3c0,1,0.1,1.2,1.4,1.2h1.6v1.4c0,0-2.8,0-4.4,0s-4.5,0-4.5,0v-1.4h1.6c1.3,0,1.4-0.3,1.4-1.2
		v-3c-1.2-2.3-3.2-6.1-4.3-7.9c-0.6-1.1-1.3-1.5-2.8-1.5h-0.4v-1.4c0,0,2.8,0.1,4.3,0.1c1.6,0,4.3-0.1,4.3-0.1v1.4h-1.2
		c-1.4,0-1.6,0.7-1.2,1.6c0.7,1.4,2.5,4.6,3.5,6.3c1-1.7,2.4-4.7,3.2-6.3c0.4-0.9,0.5-1.6-1.1-1.6h-0.9v-1.4c0,0,2.3,0.1,3.7,0.1
		c1.3,0,3.6-0.1,3.6-0.1v1.4h-0.6c-1.9,0-2.4,0.4-3.2,1.7C280.3,440,278.3,443.7,277.1,445.9z"/>
	<path fill="#3A312B" d="M300.7,451.6h-8v-1.4h1.4c1.1,0,1.4-0.1,1.4-1c0.1-1.8,0.1-10.1,0-11.5c0-0.9-0.4-1.2-1.2-1.2h-1.5v-1.4
		c0.4,0,3.7,0,4.2,0c1.1,0,2.6,0,3.6,0c4,0,6.3,1.4,6.3,4.2c0,1.8-1,3.2-2.8,3.8c2,0.5,3.4,1.9,3.4,3.8
		C307.3,449.7,305.9,451.6,300.7,451.6z M298.3,442.6h1.6c2.8,0,3.8-0.8,3.8-3.2c0-1.8-1-3-3.5-3h-0.9c-0.7,0-0.9,0.4-0.9,1
		C298.3,438.1,298.3,440.3,298.3,442.6z M298.3,443.7c0,2.4,0,4.8,0,5.7c0,0.8,0.4,1,0.9,1h1.3c2.8,0,3.7-1.2,3.7-3.5
		c0-2.2-1.3-3.2-4.3-3.2H298.3z"/>
	<path fill="#3A312B" d="M321.4,446.5c-1.7,0-4.9,0-6.7,0c-0.2,0.7-0.4,1.2-0.5,1.5c-0.4,1.3-0.3,2.3,1.3,2.3h1l0,1.5
		c0,0-2.4,0-3.7,0s-3.7,0-3.7,0v-1.5h0.9c1.3,0,1.9-0.5,2.5-2c0.6-1.5,3.9-10.5,4.9-13.3c0,0,0.9,0.1,1.4,0.1c0.5,0,1.3-0.1,1.3-0.1
		c1,2.8,4.6,11.9,5.2,13.3c0.6,1.4,1.1,2,2.1,2h1.1v1.5c0,0-2.7,0-4.3,0s-4.3,0-4.3,0l0-1.5h1.1c1.1,0,1.6-0.8,1-2.3L321.4,446.5z
		 M318,437.4c-0.7,1.7-2,5.3-2.9,7.8c1.7,0,4.2,0,5.8,0C320,442.7,318.7,439.1,318,437.4z"/>
	<path fill="#3A312B" d="M345.7,450.5c1.1,0,1.2-1.6,0.8-3.8l1.1-0.1c0.6,2.8,0.3,5.5-2.7,5.5c-3.2,0-3.8-1.8-4-4.8
		c-0.1-2.7-1.3-3.2-2.9-3.2h-1.7c0,2.1,0,4.1,0.1,4.6c0.1,1,0.5,1.4,1.4,1.4h1.1v1.4c0,0-2.8,0-4.1,0c-1.5,0-4.1,0-4.1,0v-1.5h1.1
		c1.1,0,1.6-0.4,1.6-1.4c0.1-1.3,0.1-9.7,0-11.1c0-0.9-0.4-1.2-1.2-1.2h-1.5v-1.4c0.4,0,3.7,0,4.2,0c1.1,0,3,0,4,0
		c4,0,6.3,1.5,6.3,4.4c0,2.4-1.8,4-3.9,4.3c1.8,0.5,2.5,1.5,2.7,3.2C344.4,450,344.8,450.5,345.7,450.5z M336.2,443h1.9
		c2.8,0,3.8-1,3.8-3.4c0-2.4-1-3.3-3.5-3.3h-1.2c-0.7,0-0.9,0.4-0.9,1C336.3,438.1,336.2,440.6,336.2,443z"/>
	<path fill="#3A312B" d="M368.3,451.9c-1.3,0-2.5-0.2-3.6-1.1c-1,0.7-2.3,1.2-4.1,1.2c-3.1,0-5.1-1.6-5.1-4.3c0-2.5,2-4,3.9-4.4
		c-0.8-1.7-1.1-3-1.1-4.3c0-2.9,1.6-4.2,4.3-4.2c2.5,0,3.7,1.6,3.7,3.5c0,2.4-1.5,4.3-3.7,5.1l0.7,1.2c1.1,1.7,1.9,2.9,2.6,3.8
		c0.9-1,1.2-2.1,1.3-3.2c0-0.6-0.1-1.3-1-1.3h-0.7v-1.1c0,0,1.9,0.1,3,0.1s3-0.1,3-0.1v1.1h-1c-1.1,0-1.4,0.6-1.5,1.1
		c-0.3,1.6-1.1,2.9-2.5,4.1c1.2,1.4,1.9,1.5,2.7,1.5c1.3,0,2.2-1,2.2-2.5l0.8,0.1C371.9,450.1,371.3,451.9,368.3,451.9z
		 M363.9,450.2c-1-0.9-2-2.4-3.3-4.5c-0.3-0.5-0.5-0.9-0.7-1.3c-1,0.6-1.7,1.7-1.7,2.9c0,2.1,1.2,3.4,3.1,3.4
		C362.4,450.7,363.2,450.5,363.9,450.2z M362.2,442.7c1.7-0.8,2.1-2.3,2.1-4.2c0-1.8-0.5-2.5-1.7-2.5c-1.2,0-1.7,0.7-1.7,2.5
		C360.8,439.8,361.2,440.9,362.2,442.7z"/>
	<path fill="#3A312B" d="M391.8,435.6c1.3,0.7,1.6,0.5,1.7-0.7h1.4c-0.2,1.2-0.5,4.1-0.4,6.1c-0.5,0-1.1,0-1.6,0c-0.5-2.7-1.2-5-5-5
		c-3.4,0-4.9,2.3-4.9,7.4c0,6,2.1,7.4,4.7,7.4c2.5,0,4.4-1.3,4.4-4.1c0-1.6-0.2-2.2-1.5-2.2h-1V443c0,0,2.4,0.1,3.7,0.1
		c1.3,0,3.7-0.1,3.7-0.1v1.4h-0.8c-0.7,0-1,0.4-1,1.3c0,1.3,0,4.4,0.1,6.1c-0.4,0-1.2,0-1.6,0c-0.1-0.6-0.4-1.7-0.7-2.7
		c-0.9,1.7-2.9,3-5.3,3c-4.8,0-8-2.5-8-8.8c0-6.2,3.6-8.7,8.1-8.7C389.1,434.6,390.2,434.8,391.8,435.6z"/>
	<path fill="#3A312B" d="M413.4,450.5c1.1,0,1.2-1.6,0.8-3.8l1.1-0.1c0.6,2.8,0.3,5.5-2.7,5.5c-3.2,0-3.8-1.8-4-4.8
		c-0.1-2.7-1.3-3.2-2.9-3.2h-1.7c0,2.1,0,4.1,0.1,4.6c0.1,1,0.5,1.4,1.4,1.4h1.1v1.4c0,0-2.8,0-4.1,0c-1.5,0-4.1,0-4.1,0v-1.5h1.1
		c1.1,0,1.6-0.4,1.6-1.4c0.1-1.3,0.1-9.7,0-11.1c0-0.9-0.4-1.2-1.2-1.2h-1.5v-1.4c0.4,0,3.7,0,4.2,0c1.1,0,3,0,4,0
		c4,0,6.3,1.5,6.3,4.4c0,2.4-1.8,4-3.9,4.3c1.8,0.5,2.5,1.5,2.7,3.2C412.1,450,412.5,450.5,413.4,450.5z M403.9,443h1.9
		c2.8,0,3.8-1,3.8-3.4c0-2.4-1-3.3-3.5-3.3h-1.2c-0.7,0-0.9,0.4-0.9,1C404,438.1,403.9,440.6,403.9,443z"/>
	<path fill="#3A312B" d="M417.6,450.2h1.3c1.1,0,1.4-0.1,1.4-1c0.1-1.8,0.1-10.1,0-11.5c0-0.9-0.4-1.2-1.2-1.2h-1.5v-1.4
		c0,0,2.7,0.1,4.2,0.1s3.8-0.1,4.1-0.1v1.4h-1.5c-0.9,0-1.2,0.3-1.2,1.2c-0.1,1.4-0.1,9.7,0,11.5c0,0.8,0.3,1,1.4,1h1.3v1.5
		c0,0-2.7,0-4.1,0s-4.2,0-4.2,0V450.2z"/>
	<path fill="#3A312B" d="M436.4,436.5h-1.5c-0.9,0-1.2,0.3-1.3,1.2c-0.1,1.4-0.1,9.7,0,11.5c0,0.7,0.4,1,1.2,1h2
		c2.7,0,3.8-0.9,4.1-5h1.5c-0.1,1.6-0.3,4.9-0.2,6.5c-1.1-0.1-3.4-0.1-4.5-0.1h-5.5c-1,0-3.4,0-4.1,0v-1.5h1.4c1.1,0,1.4-0.1,1.4-1
		c0.1-1.8,0.1-10.1,0-11.5c0-0.9-0.4-1.2-1.2-1.2h-1.5v-1.4c0,0,2.7,0.1,4.2,0.1s3.6-0.1,4.1-0.1V436.5z"/>
	<path fill="#3A312B" d="M452.7,436.5h-1.5c-0.9,0-1.2,0.3-1.3,1.2c-0.1,1.4-0.1,9.7,0,11.5c0,0.7,0.4,1,1.2,1h2
		c2.7,0,3.8-0.9,4.1-5h1.5c-0.1,1.6-0.3,4.9-0.2,6.5c-1.1-0.1-3.4-0.1-4.5-0.1h-5.5c-1,0-3.4,0-4.1,0v-1.5h1.4c1.1,0,1.4-0.1,1.4-1
		c0.1-1.8,0.1-10.1,0-11.5c0-0.9-0.4-1.2-1.2-1.2h-1.5v-1.4c0,0,2.7,0.1,4.2,0.1s3.6-0.1,4.1-0.1V436.5z"/>
</g>
<path fill="#D55727" d="M280.8,406"/>
<g>
	<path fill="#3A312B" d="M282.6,418.3v-10.4h4.8v1.6h-3v2.7h2.3v1.6h-2.3v3h3.2v1.6H282.6z"/>
	<path fill="#3A312B" d="M292.8,410.4c-0.1-0.9-0.5-1.1-0.9-1.1c-0.6,0-0.9,0.4-0.9,1c0,1.8,3.6,2.6,3.6,5.4c0,1.7-1.1,2.7-2.8,2.7
		c-1.7,0-2.6-1.3-2.7-2.9l1.7-0.2c0.1,1,0.5,1.6,1.1,1.6c0.6,0,1-0.3,1-0.9c0-2.1-3.6-2.6-3.6-5.6c0-1.7,1-2.6,2.8-2.6
		c1.5,0,2.3,1,2.5,2.5L292.8,410.4z"/>
	<path fill="#3A312B" d="M297.7,409.4H296v-1.6h5.2v1.6h-1.7v8.8h-1.8V409.4z"/>
	<path fill="#3A312B" d="M302,418.3v-1.7h1.7v1.7H302z"/>
	<path fill="#3A312B" d="M310.8,410h-1.4v-1c0.8-0.4,1.5-0.8,2.1-1.3h0.9v10.5h-1.6V410z"/>
	<path fill="#3A312B" d="M316,412.7c-0.6-0.5-0.9-1.3-0.9-2.1c0-2,0.9-2.9,2.4-2.9c1.5,0,2.4,0.9,2.4,2.9c0,0.8-0.3,1.6-0.9,2.1
		c0.9,0.6,1.1,1.4,1.1,2.7c0,2-0.9,3-2.5,3c-1.7,0-2.5-1.1-2.5-3C314.9,414.1,315.1,413.3,316,412.7z M318.4,415.3
		c0-1.1-0.2-1.7-0.9-1.7c-0.7,0-0.9,0.6-0.9,1.7c0,1.1,0.2,1.7,0.9,1.7C318.2,417,318.4,416.4,318.4,415.3z M318.2,410.6
		c0-1-0.2-1.4-0.8-1.4c-0.5,0-0.8,0.4-0.8,1.4c0,1,0.2,1.4,0.8,1.4C318,412,318.2,411.6,318.2,410.6z"/>
	<path fill="#3A312B" d="M321.7,409.4v-1.5h4.7v1l-2.1,9.4h-1.7l2.1-8.9H321.7z"/>
	<path fill="#3A312B" d="M330.6,415.8h-3.1v-1.3l3-6.6h1.7v6.6h0.9v1.3h-0.9v2.5h-1.6V415.8z M330.6,414.4v-4.1h0l-1.7,4.1H330.6z"
		/>
</g>
<polygon fill="#A99E98" points="270.5,411.8 271.5,410 272.3,411.9 274.3,412.2 272.9,413.6 273.1,415.6 271.4,414.6 269.5,415.5 
	269.9,413.5 268.5,412 "/>
<polygon fill="#A99E98" points="343,411.8 344,410 344.8,411.9 346.9,412.2 345.4,413.6 345.6,415.6 343.9,414.6 342,415.5 
	342.4,413.5 341,412 "/>
<polygon fill="#A99E98" points="493.4,449.5 494.3,447.7 495.2,449.6 497.2,449.9 495.7,451.3 496,453.3 494.2,452.3 492.4,453.2 
	492.8,451.2 491.4,449.7 "/>
<polygon fill="#A99E98" points="120.7,449.5 121.6,447.7 122.5,449.6 124.5,449.9 123,451.3 123.3,453.3 121.5,452.3 119.7,453.2 
	120.1,451.2 118.6,449.7 "/>
<path fill="none" stroke="#D55727" stroke-width="0.75" stroke-linecap="round" stroke-miterlimit="10" d="M360.1,462.9"/>
<g>
	<path fill="#A99E98" d="M509,443.2c-1.1-0.4-1.9-0.7-2-0.7c0,0,0,0,0,0c-2-0.7-4.2-1.4-6.5-2.1c-8.7-2.6-15.5-5.2-20.3-7.6
		c0-1.2,0-2.3,0-3.3c1.7,1.3,4.1,2.5,7.7,3.9c4.4,1.7,6-0.4,6.4-1c0.7-1.2,0.5-2.7-0.4-3.4c-0.2-0.1-0.4-0.1-0.5,0.1
		c-0.1,0.2-0.1,0.4,0.1,0.5c0.6,0.4,0.7,1.5,0.2,2.4c-0.8,1.5-2.9,1.7-5.5,0.7c-3.9-1.5-6.3-2.9-7.9-4.1c0-1.4,0-2.5,0-3.3
		c0-3.3-1.2-4.2-1.8-4.5c-0.6-0.3-1.2-0.2-1.7,0.3c-0.6,0.5-1,1.6-0.5,3.1c0.6,1.7,1.4,3.2,3.2,4.7c0,1.1,0,2.3,0,3.5
		c-1.3-0.7-2.4-1.3-3.4-2c0-0.6,0-1.2,0-1.6c-0.2-4.2-2.5-6.6-4-6.6c-0.7,0-1.4,0.4-1.5,1.8c-0.2,2.2,1.5,4.5,4.9,6.8
		c0.1,5.2,0,15.4,0,22.4c0,1.8,0,3.5,0,4.7c-1.7,0.4-3.1,1.1-4.1,2.3c-0.5,0.7-0.9,1.5-1.2,2.2h-66.5h-93.4l-2.4,2.4l-2.4-2.4H146
		c-0.3-0.8-0.6-1.6-1.2-2.2c-1-1.2-2.3-2-4.1-2.4c0-1.3,0-2.9,0-4.7c0-7-0.1-17.2,0-22.4c3.4-2.3,5-4.6,4.9-6.8
		c-0.1-1.3-0.9-1.8-1.5-1.8c-1.5,0-3.9,2.4-4,6.6c0,0.4,0,1,0,1.6c-1,0.7-2.1,1.3-3.4,2c0-1.3,0-2.5,0-3.5c1.8-1.5,2.6-3,3.2-4.7
		c0.5-1.5,0.1-2.6-0.5-3.1c-0.5-0.4-1.1-0.5-1.7-0.3c-0.5,0.2-1.8,1.1-1.8,4.5c0,0.8,0,1.9,0,3.3c-1.6,1.3-4.1,2.6-7.9,4.1
		c-2.6,1-4.7,0.8-5.5-0.7c-0.5-0.9-0.4-1.9,0.2-2.4c0.2-0.1,0.2-0.4,0.1-0.5c-0.1-0.2-0.4-0.2-0.5-0.1c-0.9,0.7-1.1,2.2-0.4,3.4
		c0.4,0.7,2,2.8,6.4,1c3.5-1.4,6-2.7,7.7-3.9c0,1,0,2.1,0,3.3c-4.8,2.4-11.6,5-20.3,7.6c-2.3,0.7-4.5,1.4-6.5,2.1c0,0,0,0,0,0
		c-0.1,0-0.9,0.3-2,0.7c-24,8.3-26.2,13.8-26.3,14.1c-0.1,0.2,0,0.4,0.2,0.5c0.2,0.1,0.4,0,0.5-0.2c0-0.1,1.9-4.6,20-11.5
		c-0.9,0.7-1.7,1.4-2.3,2.2c-1,1.5-1.2,3.1-0.5,4.5c0.6,1.2,1.7,2.1,2.8,2.3c0,0,0,0,0,0c0.2,0,0.4-0.1,0.4-0.3
		c0-0.2-0.1-0.4-0.3-0.4c-0.7-0.1-1.7-0.7-2.2-1.8c-0.4-0.8-0.6-2.1,0.5-3.8c1.4-2.2,5.3-3.9,7.7-4.8c2.5-0.9,5.3-1.8,8.3-2.7
		c8.6-2.6,15.3-5.1,20.1-7.5c0.1,8.8,0.2,21.1,0.3,24.3c-3,0.5-4.9,2-5.4,3.4c-0.3,0.8-0.1,1.6,0.5,2.1c0.6,0.5,1.7,0.6,2.8,0.1
		c1.4-0.6,2.9-2.2,2.9-4.7c0,0,0-0.1,0-0.1c0.5-0.1,1-0.1,1.6-0.1c0.5,0,1.1,0,1.6,0.1c0,0.3,0,0.6,0,0.8c0,1.3-0.1,2.4-0.3,3.4
		c-4.2,0.6-5.5,2.5-5.8,3.2c-0.4,0.8-0.4,1.6,0,2.2c0.3,0.4,0.8,0.7,1.5,0.7c0.3,0,0.6-0.1,0.9-0.2c1.5-0.5,3.2-2.1,4-5.2
		c0.7-0.1,1.6-0.1,2.5-0.1h2.7c0.7,2.8,0,5.7,0,5.8c0,0.2,0.1,0.4,0.3,0.5c0,0,0.1,0,0.1,0c0.2,0,0.3-0.1,0.4-0.3
		c0-0.2,0.7-3.1,0-5.9H305l0.1,0.1l-11.4,3.4c-0.2,0.1-0.3,0.3-0.3,0.5c0,0.2,0.2,0.3,0.4,0.3c0,0,0.1,0,0.1,0l11.8-3.5l0,0
		l-10.5,6.8c-0.2,0.1-0.2,0.3-0.1,0.5c0.1,0.1,0.2,0.2,0.3,0.2c0.1,0,0.1,0,0.2-0.1l10.6-6.9l-7.8,10.1c-0.1,0.2-0.1,0.4,0.1,0.5
		c0.1,0.1,0.1,0.1,0.2,0.1c0.1,0,0.2,0,0.3-0.1l7.7-9.9l-4,12.1c-0.1,0.2,0,0.4,0.2,0.5c0,0,0.1,0,0.1,0c0.2,0,0.3-0.1,0.4-0.3
		l3.9-11.9l0,0l0,12.6c0,0.2,0.2,0.4,0.4,0.4c0,0,0,0,0,0c0.2,0,0.4-0.2,0.4-0.4l0-12.4l4,11.7c0.1,0.2,0.2,0.3,0.4,0.3
		c0,0,0.1,0,0.1,0c0.2-0.1,0.3-0.3,0.2-0.5l-4.1-12l7.8,9.8c0.1,0.1,0.2,0.1,0.3,0.1c0.1,0,0.2,0,0.2-0.1c0.2-0.1,0.2-0.4,0.1-0.5
		l-7.9-10l0,0l10.7,6.8c0.1,0,0.1,0.1,0.2,0.1c0.1,0,0.2-0.1,0.3-0.2c0.1-0.2,0.1-0.4-0.1-0.5l-10.6-6.7l0,0l11.8,3.5
		c0,0,0.1,0,0.1,0c0.2,0,0.3-0.1,0.4-0.3c0.1-0.2-0.1-0.4-0.3-0.5l-11.4-3.4l0.1-0.1h93.1h66.3c-0.7,2.9,0,5.8,0,5.9
		c0,0.2,0.2,0.3,0.4,0.3c0,0,0.1,0,0.1,0c0.2,0,0.3-0.3,0.3-0.5c0,0-0.7-3,0-5.8h2.7c0.9,0,1.7,0.1,2.5,0.1c0.8,3.1,2.5,4.7,4,5.2
		c0.3,0.1,0.6,0.2,0.9,0.2c0.6,0,1.1-0.2,1.5-0.7c0.4-0.6,0.4-1.4,0-2.2c-0.3-0.7-1.7-2.6-5.8-3.2c-0.2-1-0.3-2.1-0.3-3.4
		c0-0.2,0-0.5,0-0.8c0.5-0.1,1-0.1,1.6-0.1c0.5,0,1.1,0,1.6,0.1c0,0.1,0,0.1,0,0.1c0,2.5,1.5,4.1,2.9,4.7c1.1,0.5,2.1,0.5,2.8-0.1
		c0.6-0.5,0.7-1.2,0.5-2.1c-0.5-1.4-2.3-2.8-5.4-3.4c0-3.2,0.2-15.5,0.3-24.3c4.9,2.4,11.5,4.9,20.1,7.5c3,0.9,5.8,1.8,8.3,2.7
		c2.3,0.9,6.2,2.6,7.7,4.8c1.1,1.6,0.8,3,0.5,3.8c-0.5,1.1-1.5,1.7-2.2,1.8c-0.2,0-0.4,0.2-0.3,0.4c0,0.2,0.2,0.3,0.4,0.3
		c0,0,0,0,0,0c1.1-0.1,2.2-1.1,2.8-2.3c0.7-1.4,0.5-3-0.5-4.5c-0.5-0.8-1.3-1.6-2.3-2.2c18,6.9,19.9,11.4,20,11.5
		c0.1,0.2,0.3,0.3,0.5,0.2c0.2-0.1,0.3-0.3,0.2-0.5C535.2,457,533.1,451.4,509,443.2z M477,423.9c-0.4-1.2-0.1-1.9,0.3-2.3
		c0.2-0.2,0.4-0.2,0.6-0.2c0.1,0,0.2,0,0.3,0.1c0.6,0.3,1.3,1.4,1.3,3.8c0,0.6,0,1.5,0,2.6C478,426.5,477.4,425.2,477,423.9z
		 M471.2,424c0-0.5,0.2-1.1,0.8-1.1c0,0,0,0,0,0c1.1,0,3.1,2,3.3,5.9c0,0.3,0,0.7,0,1.1C472.4,427.8,471,425.9,471.2,424z
		 M140.8,428.8c0.1-3.8,2.2-5.9,3.3-5.9c0,0,0,0,0,0c0.6,0,0.7,0.6,0.8,1.1c0.1,1.9-1.2,3.8-4.1,5.9
		C140.8,429.5,140.8,429.1,140.8,428.8z M137.9,421.5c0.1-0.1,0.2-0.1,0.3-0.1c0.2,0,0.4,0.1,0.6,0.2c0.4,0.4,0.7,1.1,0.3,2.3
		c-0.4,1.3-1,2.6-2.5,3.9c0-1.1,0-2,0-2.6C136.5,422.9,137.2,421.8,137.9,421.5z M136,467.9c-0.7,0.2-1.3,0.1-1.5-0.2
		c-0.2-0.3-0.2-0.9,0.1-1.4c0.6-1.1,2.1-2.2,4.9-2.7C138.6,466.3,137,467.6,136,467.9z M133.7,462.7c-0.8,0.4-1.6,0.4-2,0
		c-0.5-0.4-0.3-0.9-0.2-1.2c0.4-1.2,2-2.4,4.7-2.9c0,0,0,0,0,0C136.1,460.8,134.9,462.2,133.7,462.7z M138.4,457.7
		c-0.5,0-1.1,0-1.6,0.1c0-3.4-0.2-15.8-0.3-24.6c1.3-0.6,2.4-1.3,3.4-1.9c-0.1,5.4,0,15.1,0,21.9c0,1.8,0,3.3,0,4.6
		C139.5,457.7,139,457.7,138.4,457.7z M142.7,462.5c-0.8,0-1.6,0-2.3,0.1c0.2-1,0.3-2.1,0.3-3.3c0-0.2,0-0.4,0-0.7
		c1.5,0.3,2.7,1,3.5,2c0.4,0.5,0.7,1.1,1,1.8H142.7z M481.5,466.3c0.3,0.5,0.3,1.1,0.1,1.4c-0.3,0.4-0.9,0.5-1.5,0.2
		c-1.1-0.3-2.6-1.6-3.4-4.4C479.4,464,480.9,465.2,481.5,466.3z M475.6,462.6c-0.7-0.1-1.5-0.1-2.3-0.1h-2.5c0.2-0.6,0.5-1.2,1-1.8
		c0.8-1,2-1.7,3.5-2c0,0.2,0,0.5,0,0.7C475.3,460.6,475.4,461.6,475.6,462.6z M484.5,461.5c0.1,0.3,0.2,0.8-0.2,1.2
		c-0.4,0.4-1.2,0.3-2,0c-1.2-0.5-2.4-1.9-2.5-4c0,0,0,0,0,0C482.5,459.1,484.1,460.3,484.5,461.5z M479.1,457.8
		c-0.5-0.1-1-0.1-1.6-0.1c-0.5,0-1.1,0-1.6,0.1c0-1.2,0-2.8,0-4.6c0-6.8,0.1-16.6,0-21.9c1,0.6,2.1,1.3,3.4,1.9
		C479.3,442,479.2,454.4,479.1,457.8z"/>
	<path fill="#A99E98" d="M156.8,421.4c3.2,2.6,12.1,3.5,21.4,2.2c0.4-0.1,0.8-0.1,1.2-0.2c1.4,1.3,3.5,1.9,5.9,1.9
		c5.1,0,11.8-2.3,17.2-4.2c3.8-1.3,6.7-2.4,9.4-3.4c1.9-0.7,3.5-1.3,5-1.8c4.4,1,7.6,1.7,9.3,1.8c4,0.2,6.9-0.5,7.5-1.8
		c0.3-0.5,0.2-1.1-0.2-1.6c-1.2-1.5-5.4-2.3-10.9-0.9c-1.9,0.5-3.7,1.1-5.7,1.8c-0.8-0.2-1.6-0.4-2.5-0.6c-0.5-0.1-1-0.2-1.5-0.4
		c10.6-4,15.3-5.7,24.7-8.3c7.1-2,12.2-2.1,14.7-0.5c1,0.6,1.6,1.6,1.8,2.8c0.2,1.1-0.1,2.3-0.8,3c-0.6,0.6-1.4,0.9-2.3,0.9
		c-1.5-0.1-2-1-2.2-1.5c-0.3-0.8-0.1-1.5,0.2-1.9c0.1-0.1,0.1-0.4,0-0.5c-0.2-0.1-0.4-0.1-0.5,0c-0.6,0.6-0.8,1.7-0.4,2.7
		c0.4,1.1,1.5,1.8,2.9,2c1.1,0.1,2.1-0.3,2.9-1.1c0.9-0.9,1.2-2.3,1-3.7c-0.2-1.4-1-2.5-2.2-3.3c-0.6-0.4-1.3-0.6-2.1-0.8l10.1-0.9
		c2.1-0.2,2.6-1.8,2.6-2.6c0-0.2-0.2-0.4-0.4-0.4c-0.2,0-0.4,0.2-0.4,0.4c0,0.1,0,1.6-1.9,1.8l-15.8,1.4c0,0,0,0,0,0
		c-2.2,0.2-4.7,0.7-7.5,1.5c-9.7,2.7-14.5,4.4-25.8,8.7c-0.9-0.2-1.8-0.4-2.7-0.6c-8.6-1.9-16-3-21.8-3.1c-12.7-0.3-27.1,3-30.7,7
		c-0.6,0.7-0.9,1.4-0.9,2.1C155.6,420.1,156,420.8,156.8,421.4z M222.8,414.1c5.8-1.5,9.3-0.4,10.2,0.6c0.2,0.3,0.3,0.5,0.1,0.8
		c-0.4,0.8-2.4,1.6-6.8,1.4c-1.5-0.1-4.2-0.6-8-1.5C219.9,414.9,221.3,414.5,222.8,414.1z M211.6,414.7c0.9,0.2,1.8,0.4,2.6,0.6
		c0.5,0.1,0.9,0.2,1.4,0.3c-1.2,0.4-2.5,0.9-3.9,1.5c-2.6,1-5.6,2.1-9.4,3.4c-7.5,2.6-17.5,6.1-21.9,2.9c9.8-1.5,19-4,30.5-8.4
		C211.2,414.9,211.4,414.8,211.6,414.7z M156.9,417.7c3-3.3,15.3-6.7,28.6-6.7c0.5,0,1,0,1.5,0c5.8,0.1,13.1,1.1,21.7,3.1
		c0.5,0.1,1.1,0.2,1.6,0.4c-11.5,4.4-20.8,6.9-30.6,8.3c-0.3-0.3-0.5-0.6-0.7-1c-0.7-1.3-0.7-2.8,0-4c0.8-1.3,2.2-2.1,3.6-2
		c1.8,0.1,2,1.4,2,1.4c0,0.2,0.2,0.4,0.4,0.3c0.2,0,0.3-0.2,0.3-0.4c-0.1-0.7-0.8-2-2.8-2.1c-1.6,0-3.3,0.9-4.2,2.4
		c-0.9,1.4-0.9,3.2-0.1,4.7c0.1,0.3,0.3,0.5,0.5,0.8c-0.2,0-0.4,0.1-0.7,0.1c-9.2,1.2-17.8,0.4-20.9-2.1c-0.6-0.5-1-1.1-1.1-1.7
		C156.2,418.7,156.4,418.2,156.9,417.7z"/>
	<path fill="#A99E98" d="M428.2,410.2c-5.8,0.1-13.2,1.2-21.8,3.1c-0.9,0.2-1.8,0.4-2.7,0.6c-11.3-4.3-16.1-6-25.8-8.7
		c-2.8-0.8-5.3-1.3-7.5-1.5c0,0,0,0,0,0l-15.8-1.4c-1.9-0.2-1.9-1.6-1.9-1.8c0-0.2-0.2-0.4-0.4-0.4c-0.2,0-0.4,0.2-0.4,0.4
		c0,0.8,0.5,2.4,2.6,2.6l10.1,0.9c-0.8,0.2-1.5,0.5-2.1,0.8c-1.2,0.8-1.9,1.9-2.2,3.3c-0.2,1.4,0.1,2.7,1,3.7
		c0.7,0.8,1.8,1.2,2.9,1.1c1.4-0.1,2.4-0.8,2.9-2c0.4-1,0.2-2.1-0.4-2.7c-0.1-0.2-0.4-0.2-0.5,0c-0.1,0.1-0.2,0.4,0,0.5
		c0.3,0.3,0.5,1.1,0.2,1.9c-0.2,0.5-0.7,1.3-2.2,1.5c-0.9,0.1-1.7-0.2-2.3-0.9c-0.7-0.7-1-1.9-0.8-3c0.2-1.2,0.8-2.1,1.8-2.8
		c2.6-1.6,7.7-1.5,14.7,0.5c9.4,2.6,14.1,4.3,24.7,8.3c-0.5,0.1-1,0.2-1.5,0.4c-0.9,0.2-1.7,0.4-2.5,0.6c-2-0.7-3.8-1.3-5.7-1.8
		c-5.5-1.4-9.7-0.6-10.9,0.9c-0.4,0.5-0.5,1.1-0.2,1.6c0.7,1.3,3.5,2,7.5,1.8c1.7-0.1,4.9-0.8,9.3-1.8c1.5,0.5,3.2,1.2,5,1.8
		c2.6,1,5.6,2.1,9.4,3.4c5.4,1.9,12.1,4.2,17.2,4.2c2.4,0,4.5-0.5,5.9-1.9c0.4,0.1,0.8,0.1,1.2,0.2c9.4,1.2,18.2,0.3,21.4-2.2
		c0.8-0.6,1.3-1.4,1.4-2.2c0.1-0.7-0.2-1.4-0.9-2.1C455.3,413.2,441,409.9,428.2,410.2z M389,416.9c-4.4,0.2-6.4-0.6-6.8-1.4
		c-0.1-0.2-0.1-0.5,0.1-0.8c0.5-0.7,2.2-1.4,4.9-1.4c1.5,0,3.2,0.2,5.3,0.7c1.5,0.4,3,0.8,4.5,1.4
		C393.2,416.3,390.5,416.9,389,416.9z M413,420.5c-3.8-1.3-6.7-2.4-9.4-3.4c-1.4-0.5-2.7-1-3.9-1.5c0.4-0.1,0.9-0.2,1.4-0.3
		c0.8-0.2,1.7-0.4,2.6-0.6c0.2,0.1,0.5,0.2,0.7,0.3c11.4,4.4,20.7,6.9,30.5,8.4C430.4,426.6,420.5,423.1,413,420.5z M458.4,417.7
		c0.5,0.5,0.7,1,0.7,1.5c-0.1,0.6-0.4,1.1-1.1,1.7c-3.1,2.4-11.7,3.3-20.9,2.1c-0.2,0-0.4-0.1-0.7-0.1c0.2-0.2,0.3-0.5,0.5-0.8
		c0.9-1.6,0.8-3.3-0.1-4.7c-0.9-1.5-2.6-2.4-4.2-2.4c-2,0.1-2.7,1.4-2.8,2.1c0,0.2,0.1,0.4,0.3,0.4c0.2,0,0.4-0.1,0.4-0.3
		c0-0.1,0.2-1.4,2-1.4c1.4-0.1,2.8,0.8,3.6,2c0.8,1.2,0.8,2.6,0,4c-0.2,0.4-0.4,0.7-0.7,1c-9.9-1.4-19.1-3.9-30.6-8.3
		c0.5-0.1,1.1-0.2,1.6-0.4c8.6-1.9,15.9-3,21.7-3.1C442.1,410.7,455.3,414.3,458.4,417.7z"/>
	<path fill="#A99E98" d="M97.1,346.7c0.4-2.1-1-3.9-3.4-4.5c-4.3-1-13.3,1.5-19.9,4.4c-1.8-0.4-3.7-0.9-5.6-1.3
		c6-3.8,14.1-8,26-12.1c19.2-6.7,35.1-9.3,45.4-10.3c-4.9,0.8-10.3,2.1-14,4.2c-2.4,1.3-2.6,3-2.6,3.8c0.1,1.3,1,2.6,2.4,3.1
		c1.4,0.5,2.9,0.2,4.1-0.9c0.1-0.1,0.2-0.4,0-0.5c-0.1-0.1-0.4-0.2-0.5,0c-1,0.9-2.2,1.2-3.3,0.8c-1.1-0.4-1.8-1.4-1.9-2.5
		c-0.1-1.2,0.7-2.3,2.2-3.1c8.4-4.6,26.1-5.4,26.3-5.4l0,0c0.2,0,0.4-0.2,0.4-0.4c0-0.2-0.2-0.4-0.4-0.4c0,0,0,0,0,0l0,0
		c0,0,0,0,0,0c-0.1,0-0.8,0-2.2,0c-17.1-0.1-87-0.2-100-0.2c-1.5,0-3.1,0-4.7,0c-9.4,0-21.6,0.1-27.9-0.9c-0.2-1.7-0.7-3-1.4-4.1
		c-0.8-1.2-1.8-1.7-2.8-1.5c-0.9,0.2-1.5,0.9-1.7,1.9c-0.2,1.2,0.4,2.5,1.8,3.3c0.7,0.4,1.9,0.8,3.4,1c0.3,2.8,0.2,6.6,0.1,11
		c-0.1,2.2-0.1,4.5-0.1,7.1c-0.1,9,0,29.7,0,29.9c0,6.6-3.1,9-3.2,9c-0.2,0.1-0.2,0.4-0.1,0.5c0.1,0.1,0.2,0.2,0.3,0.2
		c0.1,0,0.2,0,0.2-0.1c0.1-0.1,3.5-2.6,3.5-9.6c0-0.2-0.1-20.9,0-29.9c0-2.5,0.1-4.8,0.1-7c0.1-3.3,0.2-6.1,0.1-8.6l6.5,18.2
		c0.1,0.2,0.2,0.2,0.4,0.2c0,0,0.1,0,0.1,0c0.2-0.1,0.3-0.3,0.2-0.5L18.1,323l12.1,15.5c0.1,0.1,0.2,0.1,0.3,0.1
		c0.1,0,0.2,0,0.2-0.1c0.2-0.1,0.2-0.4,0.1-0.5l-12.1-15.5l16.2,10.7c0.1,0,0.1,0.1,0.2,0.1c0.1,0,0.2-0.1,0.3-0.2
		c0.1-0.2,0.1-0.4-0.1-0.5l-15.8-10.5l17.7,5.8c0,0,0.1,0,0.1,0c0.2,0,0.3-0.1,0.4-0.3c0.1-0.2,0-0.4-0.2-0.5l-16.7-5.4
		c6.6,0.6,16.2,0.5,24.5,0.5c1.7,0,3.3,0,4.7,0c10.9,0,62.5,0.1,88.6,0.1c-10.3,1.1-25.9,3.7-44.6,10.2
		c-12.4,4.3-20.7,8.7-26.8,12.6c-1.8-0.4-3.7-0.7-5.6-1c1.3-1.2,2.4-2.4,3.4-3.7c2.6-3.4,3.3-7,1.9-9.9c-0.9-1.9-2.6-3.2-4.5-3.3
		c-2.3-0.1-4.4,0.7-5.7,2.2c-1.1,1.2-1.5,2.8-1.2,4.3c0.7,3.3,4,3.4,4,3.4c0.2,0,0.4-0.2,0.4-0.4s-0.2-0.4-0.4-0.4
		c-0.1,0-2.8,0-3.3-2.8c-0.3-1.3,0.1-2.6,1.1-3.7c1.2-1.3,3-2,5.1-1.9c1.6,0.1,3.1,1.2,3.9,2.9c1.2,2.6,0.5,6-1.9,9.2
		c-1.1,1.5-2.4,2.8-3.8,4.1c-7.8-1.1-15.7-1.3-21.6,1.3c-7.9,3.4-10.9,8-10.4,11.1c0.3,2.1,2.2,3.4,5,3.6c1.3,0.1,2.5,0.1,3.6,0.1
		c10.2,0,15-3.5,21.9-8.5c0.9-0.7,1.9-1.4,2.9-2.1c3.2,0.6,5.5,1.3,5.5,1.3l0.2,0.1l0.2-0.1c1.3-1,3.4-2.2,5.9-3.3
		c1.8,0.4,3.5,0.9,5.2,1.3c3.2,0.8,6,1.5,8.1,1.9C92.9,351.7,96.5,349.5,97.1,346.7z M13.7,319.5c-1.5-1-1.5-2.1-1.4-2.5
		c0.1-0.6,0.6-1.1,1.1-1.3c0.1,0,0.2,0,0.3,0c0.6,0,1.2,0.4,1.7,1.2c0.6,0.9,1,2.1,1.2,3.5C15.2,320.2,14.2,319.9,13.7,319.5z
		 M58.7,350.9c-7.8,5.7-12.5,9.1-25.1,8.2c-2.5-0.2-4.1-1.3-4.3-3c-0.5-2.7,2.5-7.1,9.9-10.2c3.3-1.4,7.3-2,11.6-2
		c2.9,0,6,0.3,9,0.7c-1.4,1.1-2.8,2.2-4.2,3.1c-3.6-0.4-7.5-0.4-10.8,0.2c-4.7,1-6.8,2.7-7.2,4c-0.2,0.6-0.1,1.1,0.3,1.6
		c0.9,1,2.9,1.1,5.6,0.5c2.5-0.6,7.4-2.5,12.2-5.5c1.9,0.2,3.7,0.5,5.3,0.8C60.2,349.8,59.4,350.4,58.7,350.9z M54.5,348.4
		c-4.9,2.9-9.6,4.5-11.1,4.9c-2.8,0.7-4.4,0.3-4.9-0.3c-0.2-0.2-0.3-0.5-0.2-0.8c0.4-1.1,2.6-2.6,6.6-3.5c1.7-0.4,3.6-0.5,5.6-0.5
		C51.8,348.2,53.2,348.2,54.5,348.4z M61.8,348.7c-1.5-0.3-3.3-0.6-5.1-0.8c1.4-0.9,2.8-2,4.1-3.1c1.8,0.3,3.6,0.6,5.4,0.9
		C64.6,346.7,63.1,347.7,61.8,348.7z M67.5,350c-0.6-0.2-2.3-0.6-4.7-1.1c1.3-0.9,2.8-1.9,4.4-2.9c1.8,0.4,3.6,0.8,5.4,1.2
		C70.5,348.1,68.7,349.1,67.5,350z M74.9,346.9c6.4-2.7,14.7-4.9,18.5-4c2.4,0.5,3.2,2.2,2.9,3.6c-0.5,2.4-3.8,4.3-9.1,3.3
		c-2.1-0.4-4.9-1.1-8.1-1.9C77.8,347.6,76.4,347.3,74.9,346.9z"/>
	<path fill="#A99E98" d="M545.1,348.7l0.2,0c0.1,0,2.5-0.3,6.1-0.5c0.1,0.1,0.2,0.1,0.2,0.2c8.1,6.5,14.6,11.6,27,11.6
		c0.7,0,1.5,0,2.2-0.1c2.8-0.1,4.7-1.4,5-3.5c0.6-3.1-2.4-7.8-10.4-11.2c-6.5-2.8-14.9-3.3-23.4-2.9c-0.7-0.8-1.4-1.6-2-2.4
		c-2.4-3.2-3.1-6.5-1.9-9.2c0.8-1.7,2.3-2.8,3.9-2.9c2-0.1,3.9,0.6,5.1,1.9c0.9,1.1,1.3,2.4,1.1,3.7c-0.5,2.7-3.2,2.8-3.3,2.8
		c-0.2,0-0.4,0.2-0.4,0.4c0,0.2,0.2,0.4,0.4,0.4c0,0,3.4,0,4-3.4c0.3-1.5-0.2-3.1-1.2-4.3c-1.3-1.5-3.4-2.3-5.7-2.2
		c-1.9,0.1-3.6,1.4-4.5,3.3c-1.3,2.9-0.6,6.5,1.9,9.9c0.5,0.7,1.1,1.4,1.7,2c-1.8,0.1-3.6,0.2-5.4,0.4c-6.3-4.6-14-9.3-25.7-12.9
		c-14.7-4.6-31.1-6.6-42.6-7.5c26.5-0.1,76.3-0.1,87-0.1c1.5,0,3.1,0,4.7,0c8.3,0,17.9,0.1,24.5-0.5l-16.7,5.4
		c-0.2,0.1-0.3,0.3-0.2,0.5c0.1,0.2,0.2,0.3,0.4,0.3c0,0,0.1,0,0.1,0l17.7-5.8L579,332.6c-0.2,0.1-0.2,0.3-0.1,0.5
		c0.1,0.1,0.2,0.2,0.3,0.2c0.1,0,0.1,0,0.2-0.1l16.2-10.7L583.5,338c-0.1,0.2-0.1,0.4,0.1,0.5c0.1,0.1,0.1,0.1,0.2,0.1
		c0.1,0,0.2,0,0.3-0.1l12.1-15.5l-6.7,18.6c-0.1,0.2,0,0.4,0.2,0.5c0,0,0.1,0,0.1,0c0.2,0,0.3-0.1,0.4-0.2l6.5-18.2
		c-0.1,2.4,0,5.3,0.1,8.6c0.1,2.2,0.1,4.5,0.1,7c0.1,9,0,29.7,0,29.9c0,7,3.3,9.5,3.5,9.6c0.1,0,0.1,0.1,0.2,0.1
		c0.1,0,0.2-0.1,0.3-0.2c0.1-0.2,0.1-0.4-0.1-0.5c0,0-3.2-2.4-3.2-9c0-0.2,0.1-20.9,0-29.9c0-2.5-0.1-4.8-0.1-7.1
		c-0.1-4.5-0.2-8.2,0.1-11c1.5-0.3,2.7-0.6,3.4-1c1.3-0.8,2-2.1,1.8-3.3c-0.2-0.9-0.8-1.7-1.7-1.9c-1-0.2-2,0.3-2.8,1.5
		c-0.7,1-1.1,2.4-1.4,4.1c-6.3,1-18.5,0.9-27.9,0.9c-1.7,0-3.3,0-4.7,0c-13.6,0-90.2,0.1-102.2,0.2v0c-0.2,0-0.4,0.2-0.4,0.4
		c0,0.2,0.2,0.4,0.4,0.4l0,0c0.2,0,17.9,0.8,26.3,5.4c1.5,0.8,2.3,1.9,2.2,3.1c-0.1,1.1-0.8,2.1-1.9,2.5c-1.1,0.4-2.3,0.2-3.3-0.8
		c-0.1-0.1-0.4-0.1-0.5,0c-0.1,0.1-0.1,0.4,0,0.5c1.2,1.1,2.7,1.5,4.1,0.9c1.3-0.5,2.3-1.8,2.4-3.1c0.1-0.9-0.2-2.5-2.6-3.8
		c-3.9-2.2-9.7-3.5-14.9-4.3c11.5,0.7,29.7,2.6,45.9,7.7c11.1,3.5,18.7,7.9,24.8,12.3c-2.1,0.2-4.2,0.5-6.2,0.8
		c-6.3-3.3-14.5-6.4-18.5-5.8c-3.4,0.6-4.3,2.6-4.1,4.1c0.4,2.4,4,5.4,10.6,4.3l1.9-0.3c2.9-0.5,6.4-1.1,10-1.6
		c2.8,1.5,5.2,3,6.7,4.1L545.1,348.7z M598.9,316.9c0.5-0.8,1.1-1.2,1.7-1.2c0.1,0,0.2,0,0.3,0c0.6,0.1,1,0.6,1.1,1.3
		c0.1,0.4,0.1,1.6-1.4,2.5c-0.6,0.4-1.6,0.7-2.9,0.9C598,319,598.3,317.8,598.9,316.9z M528.1,345.3l-1.9,0.3c-6,1-9.4-1.6-9.7-3.7
		c-0.3-1.6,1.1-2.9,3.4-3.3c0.4-0.1,0.7-0.1,1.2-0.1c3.9,0,10.5,2.5,16,5.3C533.8,344.3,530.8,344.8,528.1,345.3z M575.1,345.9
		c7.5,3.2,10.4,7.6,9.9,10.3c-0.3,1.7-1.9,2.8-4.3,2.9c-13.3,0.6-20-4.5-28.3-11.1c1.6-0.1,3.4-0.2,5.2-0.2
		c5.1,3.4,10.5,5.5,13.2,6.1c2.7,0.6,4.7,0.4,5.6-0.5c0.4-0.4,0.5-1,0.3-1.6c-0.4-1.3-2.5-3-7.2-4c-3.5-0.7-7.7-0.9-11.7-0.8
		c-1.8-1.2-3.5-2.5-5.1-4.1C560.8,342.7,568.9,343.3,575.1,345.9z M558.9,347.8c3.6,0,7.3,0.2,10.4,0.8c4.1,0.8,6.3,2.3,6.6,3.5
		c0.1,0.3,0.1,0.6-0.2,0.8c-0.5,0.6-2.1,0.9-4.9,0.3C569.3,352.9,564.2,351.1,558.9,347.8z M551.7,343.1c1.5,1.5,3.1,2.8,4.8,4
		c-1.8,0-3.5,0.1-5,0.2c-1.6-1.3-3.2-2.6-5-3.9C548.2,343.3,550,343.2,551.7,343.1z M545.4,343.6c1.8,1.3,3.4,2.6,5,3.9
		c-2.7,0.2-4.6,0.4-5.1,0.5c-1.4-1.1-3.4-2.3-5.8-3.6C541.4,344,543.4,343.8,545.4,343.6z"/>
	<path fill="#A99E98" d="M60.9,462.5H22.2c-0.9,0-1.7,0-2.5,0l11.8-4c0.2-0.1,0.3-0.3,0.2-0.5c-0.1-0.2-0.3-0.3-0.5-0.2l-12,4.1
		l9.8-7.8c0.2-0.1,0.2-0.4,0.1-0.5c-0.1-0.2-0.4-0.2-0.5-0.1l-10.1,8l6.9-10.8c0.1-0.2,0.1-0.4-0.1-0.5c-0.2-0.1-0.4-0.1-0.5,0.1
		L18,461l3.6-12c0.1-0.2-0.1-0.4-0.3-0.5c-0.2-0.1-0.4,0.1-0.5,0.3l-3.7,12.4c0.3-2.1,0.3-4,0.3-4v-8.9c0-6.7-2.5-10.3-2.6-10.5
		c-0.1-0.2-0.4-0.2-0.5-0.1c-0.2,0.1-0.2,0.4-0.1,0.5c0,0,2.5,3.6,2.5,10.1v8.9c0,1.3-0.1,3.6-0.5,5.7c-1.6,0.3-2.7,0.7-3.5,1.3
		c-1,0.7-1.5,1.8-1.4,2.7c0.1,0.8,0.7,1.4,1.4,1.6c0.2,0,0.3,0.1,0.5,0.1c0.7,0,1.5-0.4,2.2-1.2c0.7-0.8,1.1-2.2,1.4-3.7
		c1.4-0.2,3.1-0.3,5.4-0.3h38.8c5.6,0,8.7,2.2,8.8,2.2c0.2,0.1,0.4,0.1,0.5-0.1c0.1-0.2,0.1-0.4-0.1-0.5
		C70,464.7,66.8,462.5,60.9,462.5z M14.8,466.7c-0.6,0.7-1.3,1.1-1.9,0.9c-0.4-0.1-0.7-0.5-0.8-1c-0.1-0.7,0.3-1.4,1-2
		c0.7-0.5,1.6-0.8,2.9-1.1C15.7,464.9,15.3,466.1,14.8,466.7z"/>
	<path fill="#A99E98" d="M600.8,464.1c-0.8-0.6-1.9-1-3.5-1.3c-0.4-2.1-0.5-4.4-0.5-5.7v-8.9c0-6.5,2.5-10,2.5-10.1
		c0.1-0.2,0.1-0.4-0.1-0.5c-0.2-0.1-0.4-0.1-0.5,0.1c-0.1,0.2-2.6,3.8-2.6,10.5v8.9c0,0,0,1.9,0.3,4l-3.7-12.4
		c-0.1-0.2-0.3-0.3-0.5-0.3c-0.2,0.1-0.3,0.3-0.3,0.5l3.6,12l-6.8-10.6c-0.1-0.2-0.3-0.2-0.5-0.1c-0.2,0.1-0.2,0.3-0.1,0.5l6.9,10.8
		l-10.1-8c-0.2-0.1-0.4-0.1-0.5,0.1c-0.1,0.2-0.1,0.4,0.1,0.5l9.8,7.8l-12-4.1c-0.2-0.1-0.4,0-0.5,0.2c-0.1,0.2,0,0.4,0.2,0.5
		l11.8,4c-0.8,0-1.6,0-2.5,0h-38.8c-5.8,0-9.1,2.2-9.2,2.3c-0.2,0.1-0.2,0.4-0.1,0.5c0.1,0.2,0.4,0.2,0.5,0.1c0,0,3.2-2.2,8.8-2.2
		h38.8c2.3,0,4,0.1,5.4,0.3c0.3,1.5,0.8,2.9,1.4,3.7c0.7,0.8,1.5,1.2,2.2,1.2c0.2,0,0.3,0,0.5-0.1c0.7-0.2,1.2-0.8,1.4-1.6
		C602.3,465.8,601.8,464.8,600.8,464.1z M600.6,467.6c-0.6,0.2-1.3-0.2-1.9-0.9c-0.5-0.6-0.9-1.8-1.2-3.1c1.3,0.2,2.2,0.6,2.9,1.1
		c0.8,0.6,1.2,1.3,1,2C601.3,467.2,601,467.5,600.6,467.6z"/>
	<path fill="#A99E98" d="M175,324.9c1,0,2-0.1,3.3-0.4c1.8-0.4,5.3-0.9,9.5-1.5c0,0,0,0,0,0s0,0,0,0l6.3-0.9c20.5-2.6,62-7,110-7
		c0,0,0,0,0,0h0.2l2.3-2.3l2.5,2.3l0.1,0c61.9,1.6,117.3,8.9,126.6,10.7c1.2,0.2,2.3,0.4,3.3,0.4c1.9,0,3.2-0.5,4.1-1.4
		c1.3-1.5,0.7-3.5,0.7-3.6c-0.1-0.2-0.3-0.3-0.5-0.3c-0.2,0.1-0.3,0.3-0.3,0.5c0,0,0.5,1.7-0.5,2.8c-1,1.2-3.3,1.4-6.6,0.8
		c-9.4-1.8-64.8-9.1-126.6-10.7l0,0l11.4-3.2c0.2-0.1,0.3-0.3,0.3-0.5c-0.1-0.2-0.3-0.3-0.5-0.3l-11.8,3.3l0,0l10.5-6.6
		c0.2-0.1,0.2-0.3,0.1-0.5c-0.1-0.2-0.3-0.2-0.5-0.1l-10.7,6.7l0,0l7.9-9.9c0.1-0.2,0.1-0.4-0.1-0.5c-0.2-0.1-0.4-0.1-0.5,0.1
		l-7.8,9.9l4.1-12c0.1-0.2,0-0.4-0.2-0.5c-0.2-0.1-0.4,0-0.5,0.2l-4,11.7l0,0l0.1-12.4c0-0.2-0.2-0.4-0.4-0.4
		c-0.2,0-0.4,0.2-0.4,0.4l-0.1,12.3l-3.9-11.6c-0.1-0.2-0.3-0.3-0.5-0.2c-0.2,0.1-0.3,0.3-0.2,0.5l4,12c0,0,0,0,0,0l0,0l-7.7-9.9
		c-0.1-0.2-0.4-0.2-0.5-0.1c-0.2,0.1-0.2,0.4-0.1,0.5l7.8,10l-0.1,0.1c0,0,0,0,0,0l-10.5-6.8c-0.2-0.1-0.4-0.1-0.5,0.1
		c-0.1,0.2-0.1,0.4,0.1,0.5l10.4,6.7l0,0l-11.7-3.5c-0.2-0.1-0.4,0.1-0.5,0.3c-0.1,0.2,0.1,0.4,0.3,0.5l11.1,3.3
		c-47.9,0-89.3,4.4-109.7,7l-6.3,0.9c-4.3,0.6-7.7,1.1-9.6,1.5c-3.3,0.6-5.6,0.4-6.6-0.8c-1-1.1-0.6-2.8-0.5-2.8
		c0.1-0.2-0.1-0.4-0.3-0.5c-0.2-0.1-0.4,0.1-0.5,0.3c0,0.1-0.6,2.1,0.7,3.6C171.8,324.4,173.1,324.9,175,324.9z"/>
</g>
</svg>
