<?xml version="1.0" encoding="utf-8"?>
<!-- Generator: Adobe Illustrator 18.1.1, SVG Export Plug-In . SVG Version: 6.00 Build 0)  -->
<!DOCTYPE svg PUBLIC "-//W3C//DTD SVG 1.1//EN" "http://www.w3.org/Graphics/SVG/1.1/DTD/svg11.dtd">
<svg version="1.1" id="Layer_1" xmlns="http://www.w3.org/2000/svg" xmlns:xlink="http://www.w3.org/1999/xlink" x="0px" y="0px"
	 viewBox="0 0 612 792" enable-background="new 0 0 612 792" xml:space="preserve">
    <style type="text/css">
        <![CDATA[
        path {stroke-width: .5em;}
        ]]>
    </style>
<polygon fill="#FFFFFF" points="495.4,444.7 496.4,442.9 497.2,444.8 499.2,445.1 497.7,446.5 498,448.5 496.2,447.5 494.4,448.4 
	494.8,446.4 493.4,445 "/>
<path fill="none" stroke="#D55727" stroke-width="0.75" stroke-linecap="round" stroke-miterlimit="10" d="M362.1,458.1"/>
<g>
	<g>
		<path fill="#FFFFFF" d="M478.4,379.8c0.2,0.7,0.5,1.5,0.7,2.4c-0.5-1.5-0.8-2.5-0.8-2.8L478.4,379.8z"/>
		<path fill="#FFFFFF" d="M152.1,376.6l-0.1-0.5l-1.6-2.6l0.2,1c0.2,1.1,1.7,6,2.1,7.1l0.3,0.9l-2.9,0.8c-3.6,1.1-5.2,2.4-5.7,8.1
			c-0.3,2.9-0.6,7.3-1,12.7c0.5,0.4,1,0.9,1.5,1.2c0.3-4.9,0.6-9.2,0.9-12c0.6-5.9,2.3-7.4,6.1-8.5l2.4-0.7l-0.2-0.4
			C153.8,382.7,152.3,377.7,152.1,376.6z"/>
		<path fill="#FFFFFF" d="M95.4,399.7c-0.7,0-1.6,0.2-2.7,0.5l-2.6,0.8l2.3,1.4l2.1-0.6c1.9-0.6,3.2-0.6,4.4-0.2
			C97.9,400.3,96.8,399.7,95.4,399.7z"/>
		<path fill="#FFFFFF" d="M147.3,407.7c0,0-3.2,2.3-4.3,4.1c-0.5,10-0.8,19.5-0.8,25.5v0.7l-0.7,0.2c-2.4,0.6-11.9,3.4-14.3,4.2
			l-0.4,0.1c-0.2,0.1-0.3,0.1-0.3,0.1l2.2,1.4l0.3-0.1c2.4-0.8,11.9-3.6,14.3-4.2l0.3-0.1v-0.3c0-6.4,0.3-16.3,0.8-25.7
			c1.1-1.9,4.5-4.3,4.5-4.3l-1.1-2.1c0,0,0,0,0,0l0,0L147.3,407.7z"/>
		<path fill="#FFFFFF" d="M112.6,420.9c-0.7-1-4.4-1.4-6.6-1.4l-0.7,0l2.7,1.5c0,0,2.9,0,5.1,0.6c-0.1-0.2-0.2-0.4-0.4-0.6
			C112.7,421,112.6,421,112.6,420.9z"/>
		<path fill="#FFFFFF" d="M131.7,388.9c-0.4,0-1,0.1-1.6,0.3l-2.9,0.9l0,0l0,0l2.4,1.4l2.4-0.7c0.7-0.2,1.2-0.3,1.7-0.3
			C133.2,389.3,132.5,388.9,131.7,388.9z"/>
		<path fill="#FFFFFF" d="M122.3,390.5l0.4,0.9l-3.4,1c-1.1,0.3-1.7,0.8-2,1.5c-0.4,1.1,0,2.8,1.3,5.1c3.4,5.5,10.6,16.4,15,23.1
			c0,0,0-0.1,0-0.1c-4.5-6.7-10.4-15.9-13.5-20.8c-1.4-2.4-1.8-4.3-1.3-5.5c0.3-0.8,1.1-1.4,2.3-1.8l2.8-0.8l-0.2-0.4
			c-0.4-1.1-1.9-6.1-2.1-7.2l-0.1-0.5l-1.6-2.6l0.2,1C120.4,384.5,121.9,389.4,122.3,390.5z"/>
		<path fill="#FFFFFF" d="M223.2,400.1l-1.6-3.1l0.1,1.1c0.4,6.4,1.8,16.3,2.8,22.7l0.2,1l-1,0.1c-4.5,0.4-13.2,1.7-17.6,2.4
			l-21.5,3.4c-3.8,0.6-10.9,1.8-13.5,2.3c-1.1,0.2-1.8,0.3-1.9,0.3l-0.9,0.1c0,0-0.1,0-0.1,0l2.4,1.4l0.4-0.1c0.1,0,0.9-0.1,1.9-0.3
			c3.2-0.6,9.8-1.7,13.5-2.3l21.5-3.4c4.4-0.7,13.1-2,17.6-2.4l0.5,0l-0.1-0.5C225,416.4,223.7,406.5,223.2,400.1z"/>
		<path fill="#FFFFFF" d="M165.6,380.5c-0.3,0-0.7,0-1.1,0.1l-4.2,0.7l0,0l2.4,1.4l3.7-0.6c0.4-0.1,0.8-0.1,1.2-0.1
			c0.2,0,0.4,0,0.6,0C167.4,380.6,166.5,380.5,165.6,380.5z"/>
		<path fill="#FFFFFF" d="M203,385.9c0.3,2.4,0.5,4.5,1.1,8.5c0.9,5.8,1.5,8.3,2.3,12.2l0.3,1.5l-1,0.1c-0.3,0-3.2,0.4-5.8,0.9
			l-1,0.2l2.4,1.4l0.4-0.1c2.8-0.6,5.8-0.9,5.8-0.9l0.5-0.1l-0.2-1c-0.9-3.9-1.4-6.4-2.3-12.2c-0.6-4-0.9-6.1-1.1-8.5
			c-0.1-1.2-0.3-2.5-0.5-4.1l-1.6-3l0.1,0.9C202.7,383.4,202.9,384.7,203,385.9z"/>
		<polygon fill="#FFFFFF" points="199,409.3 199,409.3 199,409.3 		"/>
		<path fill="#FFFFFF" d="M192.6,399.9c-0.7,0-1.6,0.1-2.5,0.2l-1.6,0.3c1,6,1.8,10.8,2.3,12.6c0.4,1.9,1,2.8,1.8,3.2
			c-0.1-0.3-0.2-0.7-0.3-1.1c-0.5-1.9-1.4-6.9-2.4-13.2l2.1-0.3c1-0.2,1.8-0.2,2.6-0.2c0.9,0,1.6,0.1,2.3,0.3
			C195.9,400.4,194.6,399.9,192.6,399.9z"/>
		<path fill="#FFFFFF" d="M218.8,384.7l0.2,0.9l-9.4,1.5l2.4,1.4l8.4-1.3l-0.1-0.4c-1-5.7-2.3-15.1-2.9-21.3l0-0.5l-1.6-2.6l0.1,1.1
			C216.4,369.7,217.8,379,218.8,384.7z"/>
		<path fill="#FFFFFF" d="M200.9,375.1c-1,0-2.1,0.1-3.4,0.3l-8.8,1.4c-2.5,0.4-3.4,1.7-3.2,4.3c0.2,2.1,0.8,6.8,1.7,12.4l1.2-0.2
			c-0.7-4.6-1.2-8.3-1.4-10.2c-0.3-2.9,0.8-4.4,3.6-4.9l8.8-1.4c1.4-0.2,2.5-0.3,3.5-0.3c1.2,0,2.2,0.1,3.2,0.5
			C204.8,375.6,203,375.1,200.9,375.1z"/>
		<path fill="#FFFFFF" d="M297.1,400.7l-1.6-2.6c0,0,0,0,0,0.1l0.2,0.8c1.3,4.7,2.3,11.2-1,15.8c-2.2,3-5.8,4.7-10.8,5
			c-0.6,0-1.1,0-1.6,0c0,0,0,0,0,0c-3.2,0-5.7-0.6-7.7-1.6c2.4,2.2,5.9,3.3,11.2,3c4.8-0.2,8.3-1.8,10.4-4.8
			c3.2-4.5,2.3-10.8,1-15.4L297.1,400.7z"/>
		<path fill="#FFFFFF" d="M261.6,368.8c-0.3,0-0.6,0-1,0l-2.8,0.1c-1.6,0.1-2.2,0.7-2.2,2.5c0,0.3,0.1,7.4,0.5,15.2l1.4-0.1
			c-0.3-6.7-0.4-12.4-0.4-13.1c0-2.1,0.7-2.9,2.7-3l2.8-0.1c0.3,0,0.7,0,1,0c1.5,0,2.7,0.2,3.7,0.6
			C266.1,369.4,264.2,368.8,261.6,368.8z"/>
		<path fill="#FFFFFF" d="M235.3,370.5l-4.5,0.2l2.3,1.5l4.2-0.2c0.4,0,0.7,0,1.1,0C237.8,370.6,236.9,370.4,235.3,370.5z"/>
		<path fill="#FFFFFF" d="M258.2,394.1l-1.7,0.1c0.3,5.6,0.6,10,0.8,11.5c0.3,2.1,0.9,3.1,1.8,3.6c-0.1-0.5-0.3-1-0.3-1.5
			c-0.2-1.6-0.6-6.1-0.9-12l2.2-0.1c1.9-0.1,3.6,0,4.9,0.5C263.5,394.2,261.2,393.9,258.2,394.1z"/>
		<path fill="#FFFFFF" d="M276.8,390.1c0.9,0.3,1.8,0.8,2.5,1.3c6.2-2.5,9.9-7.8,9.5-14.5c-0.2-3.6-1.3-6.5-3.3-8.9
			c1.1,2,1.7,4.2,1.8,6.8C287.8,382,283.8,387.7,276.8,390.1z"/>
		<path fill="#FFFFFF" d="M288.3,409.4c-0.5-1.3-1-3.2-1.5-5.9c-0.6-3.3-1.7-5.8-3.4-7.7c0.8,1.6,1.5,3.4,1.9,5.6
			C286.4,407.3,287.4,408.9,288.3,409.4z"/>
		<path fill="#FFFFFF" d="M264.7,418.9c-0.1,0-12.6,0.5-15.2,0.6c-5,0.3-13.6,0.8-15.2,0.9l-0.8,0.1c0,0-0.1,0-0.2,0l2.5,1.5l0.4,0
			c0.1,0,9.8-0.7,15.3-0.9c2.6-0.1,15.1-0.6,15.2-0.6l0.4,0l-0.4-8.5l-1.5-2.5l0,0.2l0.5,9.3L264.7,418.9z"/>
		<path fill="#FFFFFF" d="M237.4,394.2c0,0,0.3,0.2,0.7,0.4C237.9,394.5,237.7,394.3,237.4,394.2
			C237.4,394.2,237.4,394.2,237.4,394.2z"/>
		<path fill="#FFFFFF" d="M309.6,367.8l-4.5-0.1l2.5,1.5l4,0.1c0.3,0,0.5,0,0.8,0.1C311.9,368.2,310.9,367.9,309.6,367.8z"/>
		<path fill="#FFFFFF" d="M356.9,394.1c-0.5,5.7-1.2,18.3-1.2,24.3l0,1l-1-0.1c-5.1-0.5-13-0.7-16.8-0.9l-19.2-0.6
			c-3.4-0.1-10.9-0.3-14.3-0.3l-0.9,0l2.5,1.5l0.4,0c3.3,0,10.8,0.2,14.3,0.3l19.1,0.6c3.8,0.1,11.8,0.4,16.9,0.9l0.5,0l0-0.5
			c0-6,0.7-18.6,1.2-24.3l0-0.5l-1.5-2.5L356.9,394.1z"/>
		<path fill="#FFFFFF" d="M328.6,394.2c-0.1,5.3-0.2,9.3-0.2,11.1c0,1.9,0.5,2.8,1.6,3.2c-0.1-0.4-0.1-0.8-0.1-1.2
			c0-2,0.1-6.3,0.2-11.2c0.3-1.9,5.2-4.8,5.2-4.8l-1.1-2l-0.7,0.4C331.8,390.8,328.9,393,328.6,394.2z"/>
		<path fill="#FFFFFF" d="M338,367.8l0,0.9l-4.3-0.1c-0.2,0-0.3,0-0.4,0c-2.5,0-3.5,1-3.7,3.9c-0.1,1.6-0.3,5.9-0.5,11.8
			c0.1,0.6,0.7,1.3,1.5,2.1c0,0,0,0,0,0c0.2-5.4,0.4-10.1,0.6-11.9c0.3-3.3,1.5-4.5,4.7-4.3l3.8,0.1l0-0.4c0.1-1.9,0.2-6.5,0.3-7.5
			l0-0.5l-1.5-2.5l-0.1,1C338.2,361.4,338.1,366.3,338,367.8z"/>
		<path fill="#FFFFFF" d="M391.2,414.2c-0.1,0.6-0.3,2.2-0.5,3.8l-0.1,0.4c-0.2,1.5-0.4,3-0.5,3.5l-0.1,0.9l-0.9-0.1
			c-0.1,0-8.4-1.3-13-1.9c-4.6-0.6-13-1.6-13.1-1.6l-0.5-0.1c-0.2,0-0.3,0-0.4,0l2.6,1.6l0.4,0c0.1,0,8.5,1,13.1,1.6
			c4.6,0.6,13,1.9,13,1.9l0.4,0.1l0.1-0.4c0.1-0.6,0.3-2.2,0.5-3.8c0.2-1.6,0.5-3.2,0.5-3.8l0.1-0.4l-1.4-2.4c0,0,0,0,0,0l0,0
			L391.2,414.2z"/>
		<path fill="#FFFFFF" d="M422,403.5c0.8,3.3,1.5,5.8,1.9,7.4c1,3.5,1.9,5.3,3,6.3c-0.5-1.1-1-2.4-1.5-4.2c-0.4-1.6-1.1-4.3-2-7.6
			c1-2,3.7-4.5,3.7-4.5l-1.1-2.2l-0.6,0.5C425.5,399.3,423,401.6,422,403.5z"/>
		<path fill="#FFFFFF" d="M413,366.2c1.1,5.1,3.6,15.7,6.7,28.4l0.1,0.1c0.1,0.4,0.6,1,1.3,1.5c-2.5-10.2-5.4-22-6.6-27.9l0-0.1
			c-0.1-0.2-1.2-1.9-1.7-2.5c0.1,0.1,0.1,0.1,0.2,0.2L413,366.2z"/>
		<path fill="#FFFFFF" d="M412.6,365.6C412.6,365.6,412.7,365.6,412.6,365.6C412.7,365.6,412.6,365.6,412.6,365.6z"/>
		<polygon fill="#FFFFFF" points="397.3,391.9 397.3,392.2 399.4,398.4 400.3,398.7 399.1,395 		"/>
		<path fill="#FFFFFF" d="M385.3,405.9c-1.2,2.6-1.5,4.4-1,5.5c0.2,0.4,0.7,0.8,1.3,1c-0.1-1.2,0.4-2.7,1.3-4.7c0,0,1.2-2.4,2.9-5.7
			l-1.5-1.8L385.3,405.9z"/>
		<polygon fill="#FFFFFF" points="388.5,409.8 388.6,409.7 388.5,409.8 391.3,410.9 397.1,408.9 395.1,407.4 		"/>
		<polygon fill="#FFFFFF" points="400.5,404.5 400.7,411.4 402.2,412.4 402,406.3 404.1,404.7 403.6,402.3 		"/>
		<path fill="#FFFFFF" d="M398.7,379.7c-1.7,3.3-5.7,11.1-9.1,17.8l2.4,0.1c2.6-5.1,5.6-11,7.5-14.6
			C399.1,381.7,398.9,380.6,398.7,379.7z"/>
		<path fill="#FFFFFF" d="M433.1,418.9l-1.3,9.5l-0.9-0.1c-1.9-0.3-11.3-1.7-16.8-2.4c-6-0.8-16.5-2-16.9-2.1l-0.9-0.1l0,0l2.6,1.6
			l0.4,0.1c0.1,0,10.9,1.3,17,2.1c6,0.8,16.7,2.4,16.8,2.4l0.4,0.1l1.1-8.5L433.1,418.9L433.1,418.9z"/>
		<path fill="#FFFFFF" d="M100.8,420C100.8,420,100.7,420,100.8,420l-0.5,0.6c-1.3,1.8-3.1,5-2.7,6.1l0,0.2
			c6.7,21.8-1.9,39.6-23.6,48.8c-7.3,3.1-14.1,4.6-20.1,4.6c0,0,0,0,0,0c-6.2,0-11.8-1.6-16.8-4.8c10.2,7.9,23.2,8.3,38.7,1.7
			c19.8-8.3,30.5-24.8,23.3-48.2c0,0,0,0,0-0.1c-0.6-1.8,2.8-6.6,2.8-6.6L100.8,420z"/>
		<path fill="#FFFFFF" d="M48.6,443.5l-1.2-2.4l-0.4,0.6c-0.8,1.2-2.8,4.5-2.7,5.9c2.3,5.1,4.5,9.1,6.7,12c-1.7-2.7-3.4-5.9-5.2-9.8
			C45.6,448,48.6,443.5,48.6,443.5z"/>
		<path fill="#FFFFFF" d="M45.6,408.3c-10.2,4.3-11.6,13.1-5,30.6c0.2,0.2,0.6,0.4,1,0.6c-6-16.6-4.3-25.4,5.8-29.7
			c5.1-2.1,9.3-2.3,13.1-0.1c-2.5-2.1-5.1-3.1-7.9-3.1C50.5,406.7,48.2,407.2,45.6,408.3z"/>
		<path fill="#FFFFFF" d="M94.7,418.1c-1.5-3.1-3.2-5.8-4.9-8.2c1.5,2.3,2.9,4.9,4.2,7.7C94.1,417.7,94.4,417.9,94.7,418.1z"/>
		<path fill="#FFFFFF" d="M528.4,395.6l-4.8-1.8l2.6,1.7l4.4,1.7c0.3,0.1,0.5,0.2,0.7,0.3C530.7,396.6,529.7,396,528.4,395.6z"/>
		<polygon fill="#FFFFFF" points="499.2,458.6 499.2,458.6 499.2,458.6 		"/>
		<path fill="#FFFFFF" d="M597.5,451.6l-0.7,0.2c0,0-4.2,0.9-5.7,2.2c-6.9,15.8-17.5,23.8-31.7,23.8c-5.5,0-11.5-1.2-17.8-3.6
			c-0.1-0.1-14.2-5.4-21-8c-6.6-2.5-20.6-7.5-20.8-7.5l-0.5-0.2l2.6,1.7c0,0,14.1,5,20.8,7.5c6.9,2.6,21,8,21,8
			c20,7.5,38.5,4.3,49-20.1c1.6-1.4,6.1-2.4,6.1-2.4S598.2,452.6,597.5,451.6z"/>
		<path fill="#FFFFFF" d="M594.2,445.4c0.2,1.6,2.2,4.5,2.9,5.5l0.3,0.4c-0.8-1.3-1.6-2.8-1.7-4c4.1-13.7,3.3-24.2-3.4-32.5
			C597.5,422.9,598,432.8,594.2,445.4z"/>
		<path fill="#FFFFFF" d="M537.3,456.7c1.2-3.5,4-11.4,7.1-19.7c0,0,0,0,0.1-0.1c0.7-1.7,6.5-3,6.5-3s-0.5-0.7-1.2-1.7l-0.7,0.2
			c-2.1,0.5-5.7,1.6-6.2,2.7l-0.1,0.1c-3.2,8.8-5.9,16.3-7,19.6c-0.8,2.3-0.3,4.1,1.3,5.2C536.8,459.1,536.9,457.9,537.3,456.7z"/>
		<path fill="#FFFFFF" d="M558.5,406.7c-2.7-1-4.5-0.3-5.6,2.2c-1.2,2.7-3.5,8.5-6.5,16.6l0,0c-0.4,1.2,1.6,4.3,2.9,6.1l0.3,0.3
			c-0.9-1.5-1.9-3.5-1.6-4.5c0,0,0,0,0,0c2.7-7.3,5.3-13.7,6.5-16.7c1-2.2,2.8-3.8,6.2-2.5l3.7,1.4c2.3,0.8,4.2,1.8,5.9,2.8
			c-2-1.7-4.7-3.1-8.1-4.4L558.5,406.7z"/>
		<path fill="#FFFFFF" d="M479.1,382.2c2.9,9.5,8,25,11.5,35.4c0.1-0.4,0.2-0.8,0.4-1.3c-3.8-11.3-8.7-26.3-11.1-34.4l-1.7-2.7
			l0,0.1C478.3,379.7,478.6,380.7,479.1,382.2z"/>
		<path fill="#FFFFFF" d="M493.3,393.4l-5-1.4l2.5,1.6l4.6,1.3c0.1,0,0.3,0.1,0.4,0.1C495.4,394.2,494.5,393.7,493.3,393.4z"/>
		<path fill="#FFFFFF" d="M455.9,382.8l-4.3-1.2l2.6,1.7l3.9,1.1c0.1,0,0.2,0.1,0.3,0.1C457.8,383.6,457,383.1,455.9,382.8z"/>
		<path fill="#FFFFFF" d="M459.6,421.6c-0.5,2.2-0.2,3.4,1.3,4.3c-0.1-0.7,0-1.4,0.2-2.4c0.7-3.1,3.7-13.8,6.2-22.6
			c-0.4-1.1-0.7-2.3-1.1-3.3C463.6,406.7,460.4,418.4,459.6,421.6z"/>
		<path fill="#FFFFFF" d="M465.2,436.2l-0.2,1l-1.2-0.4c-3.1-0.9-8.8-2.7-12.3-3.7c-4.4-1.2-11.9-3.2-12.7-3.4l-0.5-0.1
			c-0.3-0.1-0.5-0.1-0.5-0.1l2.6,1.6l0.4,0.1c0.1,0,8.2,2.1,12.7,3.4c4.5,1.3,12.5,3.7,12.6,3.7l0.4,0.1l0.1-0.4
			c0.8-3.6,2.1-7.3,2.1-7.4l0.1-0.4l-1.4-2.3l-0.3,0.9C467.1,429.5,466,432.9,465.2,436.2z"/>
		<path fill="#FFFFFF" d="M517.4,391.5c-0.4,1.1-1.8,6-2,7.1l-0.2,1l-4.5-1.3c-0.6-0.2-1.1-0.3-1.6-0.3c-1.6,0-2.6,1-3.5,3.4
			c-0.5,1.3-1.6,5-3.1,10.3c0,1.1,1.3,3,2.4,4.4c-0.5-0.9-0.9-1.8-0.9-2.4c1.4-5,2.6-8.9,3.1-10.4c0.9-2.6,2.1-3.8,3.9-3.8
			c0.5,0,1.1,0.1,1.7,0.3l4,1.1l0.1-0.5c0.2-1.1,1.7-6.1,2-7.2l0-0.1c0-0.3-1-1.9-1.6-2.5c0.1,0.1,0.1,0.3,0.1,0.5L517.4,391.5z"/>
		<path fill="#FFFFFF" d="M501.4,423.2c0.6-1.8,6.2-3.5,6.2-3.5l-1.1-1.8l0,0l0,0l-0.8,0.2c-2.1,0.6-5.5,2.1-5.9,3.2l-0.1,0.1
			c-2.6,9.2-4.9,17.7-6.2,22.6l-0.3,1l-1-0.3c-2.7-0.9-8.8-2.7-11.6-3.3l-0.5-0.1l2.4,1.6l0.2,0.1c2.8,0.6,8.9,2.4,11.7,3.3l0.4,0.2
			l0.1-0.5C496.5,440.7,498.9,431.7,501.4,423.2C501.3,423.3,501.3,423.2,501.4,423.2z"/>
		<path fill="#FFFFFF" d="M295.9,405.8c0,1.2-0.1,2.4-0.2,3.6C295.9,408.2,296,407,295.9,405.8z"/>
	</g>
	<g>
		<path fill="#FFFFFF" d="M147,375.6L147,375.6c-2.5,0.8-6.1,2-9,2.8c-3.9,1.2-11.3,3.1-12.2,3.3c0.2,0.5,1.3,3.8,2.1,7.1l1.9-0.6
			c0.7-0.2,1.4-0.3,1.9-0.3c2.7,0,3.4,2.6,3.6,6.4c0.3,6.9-0.4,22.2-0.8,29.3l-0.1,1.5l-0.8-1.2c-4.4-6.5-12.3-18.5-15.9-24.4
			c-1.4-2.6-1.9-4.6-1.3-6c0.4-1,1.3-1.6,2.7-2.1l2.3-0.7c-0.4-1.2-1.8-5.9-2.1-7.1c-0.4,0.1-1.4,0.4-2.8,0.9l-0.4,0.1
			c-3.3,1.1-8.4,2.6-12,3.7c-5,1.5-14,3.9-15.2,4.2c0.2,0.5,1.3,3.8,2.1,7.1l1.6-0.5c1.2-0.3,2.1-0.5,3-0.5c2.5,0,4,1.4,6.2,4.4
			c1.5,2,3.8,5.3,6.6,9.6l0.1,0.1l0,0.1c0.1,1.7-1,4.4-1.6,5.7c1.7,0.1,5.5,0.4,6.6,1.8l0.1,0.1c5.5,8.3,10.7,16.3,13.5,20.9
			c2.5-0.8,11.8-3.5,14.2-4.2c0-6.1,0.3-15.6,0.8-25.6l0-0.1l0.1-0.1c0.8-1.5,2.9-3.2,4-4c-0.9-0.5-2.4-1.5-3.5-2.6l-0.2-0.2l0-0.2
			c0.3-5.6,0.7-10.1,1-13c0.6-6.2,2.5-7.8,6.4-8.9l1.8-0.5c-0.4-1.2-1.8-5.9-2.1-7.1C149.1,374.9,148.2,375.2,147,375.6z"/>
		<path fill="#FFFFFF" d="M212.8,399.5c0.9,5.7,0.7,9.4-0.6,11.9c-1.3,2.6-3.9,4-8.2,4.7l-8.6,1.4c-0.5,0.1-0.9,0.1-1.3,0.1
			c-2.4,0-3.7-1.3-4.4-4.3c-0.5-1.9-1.4-7-2.4-13.2l-0.1-0.5l2.6-0.4c1-0.2,1.9-0.2,2.7-0.2c4.1,0,6,2,6.9,7.4l0.3,1.8
			c2.5-0.5,5.1-0.8,5.8-0.9l-0.1-0.4c-0.9-3.8-1.4-6.4-2.3-12.2c-0.6-3.9-0.9-6-1.1-8.5c-0.1-1.2-0.3-2.5-0.5-4.1
			c-0.4,0.1-3.2,0.7-5.9,0.9l0.3,2.1c0.9,5.8-0.9,8.4-6.7,9.3l-2.8,0.4l-0.1-0.5c-0.9-5.9-1.6-10.8-1.8-13c-0.3-3.2,0.9-4.9,4-5.4
			l8.8-1.4c1.4-0.2,2.6-0.3,3.6-0.3c5.5,0,8,3.2,9.4,11.9l7.4-1.2c-1-5.7-2.3-15-2.9-21.2c-3.5,1-13.6,2.8-18.5,3.5l-20.7,3.3
			c-2.4,0.4-7.9,1.2-11.2,1.7c-2.1,0.3-3.9,0.6-4.4,0.7l1.2,7.3l3.2-0.5c0.5-0.1,0.9-0.1,1.3-0.1c2.3,0,3.6,1.3,4.3,4.6
			c0.4,1.9,1.3,7.1,2.3,13.4l0,0.1l0,0.1c-0.3,1.7-2.7,4.1-3.8,5.2c1.5,0.7,4.9,2.5,5.3,4.2c0.4,3,1,6.7,1.1,8.3
			c0.3,3.2-0.3,5.5-4.2,6.1l-2.8,0.4l1.2,7.5c0.2,0,0.9-0.2,1.8-0.3c2.7-0.5,9.7-1.7,13.5-2.3l21.5-3.4c4.4-0.7,13-2,17.6-2.4
			c-1-6.5-2.4-16.2-2.8-22.7C219.4,398.5,214.2,399.3,212.8,399.5z"/>
		<path fill="#FFFFFF" d="M294.8,399.3c-0.6,0.1-3.2,0.5-4,0.5c0.8,2.8,1.8,7.8,0.3,9.9c-0.4,0.6-1,0.9-1.7,0.9l-0.2,0
			c-2.4,0-3.6-2.2-4.9-9c-1.2-6.2-4-9.6-9.2-10.9l-1.9-0.5l1.9-0.5c7.4-1.9,11.8-7.6,11.4-14.7c-0.5-9.2-7.4-14.3-19.6-14.3
			c-0.8,0-1.6,0-2.4,0.1c-3.2,0.2-6.9,0.4-10.2,0.6c-2.7,0.2-5.1,0.3-6.8,0.4c-1.9,0.1-6.6,0.3-11.2,0.5c-2.4,0.1-4.4,0.2-5,0.2
			l0.4,7.4l3.7-0.2c0.2,0,0.4,0,0.5,0c2.9,0,3.6,1.7,4,4.3c0.2,1.6,0.5,6.6,0.9,13.3l0,0.1l0,0.1c-0.3,1.7-3.1,4-4.4,5
			c1.5,0.9,4.7,3.1,4.9,4.8c0.2,4.9,0.3,8.3,0.3,9.6c-0.1,3.6-1.4,5-4.8,5.2l-2.9,0.1l0.4,7.6c1.9-0.1,10.3-0.7,15.2-0.9
			c2.5-0.1,14.2-0.6,15.2-0.6l-0.4-7.5l-2.8,0.1c-3,0.2-4.5-1.3-5-4.8c-0.2-1.6-0.6-6.2-0.9-12.1l0-0.5l2.7-0.1
			c5.7-0.3,9.4,1,10.4,10.8c1.1,9.9,3.9,15.4,15.3,14.9c4.7-0.2,8-1.8,10-4.6c1-1.4,1.6-3.1,1.9-4.8c0.1-1.2,0.2-2.4,0.2-3.6
			C295.8,403.5,295.4,401.2,294.8,399.3z M268,384.8c-1.6,1.6-4,2.4-8,2.7l-4.9,0.2l0-0.5c-0.4-7.9-0.5-15-0.5-15.7
			c0-2.3,0.9-3.4,3.1-3.6l2.8-0.1c6.5-0.3,9.2,2.3,9.5,9.2C270.2,380.7,269.6,383.2,268,384.8z"/>
		<path fill="#FFFFFF" d="M348.6,393.8c-1,14.3-4.8,16.4-12,16.1l-4.5-0.1c-2.8-0.1-4.6-0.9-4.7-4.5c0-1.8,0-5.8,0.2-11.2l0-0.1
			c0.3-1.7,3.4-3.8,4.8-4.7c-1.3-1-4.2-3.2-4.5-4.9l0-0.1l0-0.1c0.2-5.9,0.4-10.3,0.6-11.9c0.3-3.6,1.8-4.9,5.2-4.8l3.3,0.1
			c0.1-1.9,0.2-6.2,0.3-7.4c-0.3,0-1.2,0-2.3,0c-3.2,0-9.1-0.1-13.1-0.2c-5.2-0.2-14.6-0.7-15.5-0.7l-0.2,7.4l3.5,0.1
			c2.8,0.1,4.1,1.6,4.2,5.1c0,1.6,0,6-0.2,12.1c-0.3,1.7-3.4,3.9-4.8,4.8c1.3,0.9,4.1,3.1,4.5,4.8l0,0.1l0,0.1
			c-0.2,5.1-0.4,8.9-0.5,10.6c-0.3,3.4-1,4.8-4.9,4.7l-3.3-0.1l-0.2,7.6c3.4,0,10.8,0.2,14.3,0.3l19.1,0.6
			c3.9,0.1,11.8,0.4,16.9,0.9c0-6,0.7-18.5,1.2-24.2C354.7,394.1,349.8,394,348.6,393.8z"/>
		<polygon fill="#FFFFFF" points="396.9,394.1 393.9,398.6 388.4,398.7 391.8,402.9 390.1,408.1 395.2,406.3 399.7,409.4 399.5,404 
			403.8,400.8 398.6,399.3 		"/>
		<path fill="#FFFFFF" d="M429.5,419.4c-2.9-0.4-4.8-1.8-6.6-8.2c-0.4-1.6-1.1-4.3-2-7.6l0-0.2l0.1-0.2c0.8-1.5,2.4-3.3,3.3-4.1
			c-1.5-0.7-5-2.4-5.5-4.1l0-0.1c-3.2-12.7-5.7-23.3-6.7-28.5c0,0-0.1,0-0.1,0c-3.1-0.3-5.6-0.5-7.2-0.7c-2.4-0.3-6.7-1.1-7.2-1.2
			c-1.5,2.9-8.1,15.2-13.8,26l-0.1,0.1c-1.2,1.2-4.5,1.9-6,2.2c0.6,1.1,1.8,3.2,2.1,4.8l0,0.2l-0.1,0.2c-2.2,4.1-3.4,6.3-3.7,6.9
			c-2.6,4.6-4.7,6.2-8.1,6.2c-0.5,0-1.1,0-1.7-0.1l-2.1-0.3l-1,7.5c0.8,0.1,8.6,1,13,1.6c4.4,0.6,12.1,1.8,13,1.9
			c0.1-0.6,0.3-2,0.5-3.5l0.1-0.4c0.2-1.5,0.4-3.1,0.5-3.7l-3.1-0.4c-1.9-0.3-3.1-0.9-3.7-1.9c-0.7-1.4-0.4-3.4,1-6.4l3.7-7.2v0
			l0.1-0.3c4-7.9,9-17.7,10.2-19.9l0.6-1.2l0.3,1.3c0.6,2.6,3,13.3,4.8,21.9l0.2,0.8h0l1.6,7.2c0.5,3.4,0.3,5.4-0.6,6.6
			c-0.8,0.9-2,1.2-3.7,1l-3.2-0.4c-0.1,0.9-0.4,3.4-0.8,6.1c-0.1,0.6-0.2,1.1-0.2,1.5c1,0.1,11.1,1.3,16.9,2.1
			c5.5,0.7,14.9,2.1,16.8,2.4l1-7.5L429.5,419.4z"/>
		<path fill="#FFFFFF" d="M93.1,418.1L93.1,418.1c-7.6-16.2-18-24.1-31.7-24.1c-6,0-12.7,1.5-19.9,4.6
			c-22.6,9.5-30.6,28.2-21.8,51.4l0,0.2c0,1.7-1.5,4.5-2.3,5.7c1.4,0.2,4.3,0.8,5.6,1.9l0.1,0.1l0.1,0.1
			c7.4,14.2,17.7,21.4,30.5,21.4c0,0,0,0,0,0c5.9,0,12.6-1.5,19.7-4.5c21.2-8.9,29.6-26.3,23.1-47.6l0-0.1l0,0
			c-0.5-1.6,1.5-4.9,2.5-6.3C97.5,420.3,94.2,419.4,93.1,418.1z M69.8,465.9c-2.8,1.2-5.2,1.7-7.5,1.7c-7.1,0-12.6-5.7-19-19.5
			l0-0.1c-0.2-1.7,1.5-4.7,2.4-6.1c-1.5-0.3-4.8-1.1-5.9-2.4l-0.1-0.2c-6.8-17.9-5.2-27.5,5.5-32c2.7-1.2,5.2-1.7,7.4-1.7
			c7.3,0,12.8,5.7,19.2,19.6l0,0.1c0.2,1.7-1.5,4.7-2.4,6.1c1.5,0.3,4.7,1,5.9,2.3l0.1,0.1l0,0.1C82.5,452.3,80.9,461.2,69.8,465.9z
			"/>
		<path fill="#FFFFFF" d="M568.9,399.6c-0.7-0.3-2.6-1-5.2-1.9c-4.7-1.7-11-4-15.3-5.6c-4.6-1.7-11.6-4.5-16.3-6.3
			c-1.8-0.7-3.3-1.3-4.1-1.6l-3.3,8.9l4,1.5c4.2,1.6,5.3,4.2,3.9,9c-0.7,2.2-2.8,8.1-5.8,16.1l0,0.1c-0.9,1.4-4.4,2.5-6,2.9
			c0.9,1.3,2.8,4.2,2.7,6l0,0.1c-3.2,8.5-5.8,15.1-6.9,17.7c-1.2,2.8-2.5,4.6-5.1,4.6c-1.1,0-2.4-0.3-4.3-1l-3.3-1.2l-3.4,9.1
			c2.5,0.9,14.4,5.1,20.3,7.4c6.8,2.6,20.9,7.9,21,8c6.3,2.3,12.1,3.5,17.5,3.5c13.8,0,24.2-7.9,30.9-23.3l0-0.1l0.1-0.1
			c1.3-1.1,4.2-2,5.5-2.3c-0.8-1.2-2.6-3.8-2.7-5.6l0-0.1l0-0.1C600.2,422.3,592.9,408.6,568.9,399.6z M574.2,436.3l-0.1,0.2
			c-1,1.3-4.3,2.3-5.9,2.7c1,1.4,3.1,4.6,2.6,6.3l0,0.2c-5.6,13.6-11.5,19.4-19.6,19.4c-2.8,0-6-0.7-9.7-2.1l-3.6-1.3
			c-3.1-1.2-4.3-3.8-3.2-7.1c1.1-3.4,3.8-10.9,7.1-19.7l0.1-0.2c0.7-1.5,4.4-2.6,6.1-3c-1-1.4-3-4.5-2.6-6.2l0,0l0-0.1
			c3.1-8.1,5.4-14.1,6.6-16.7c1.3-3,3.6-3.9,6.8-2.7l3.7,1.4C576,412.2,579.2,420.1,574.2,436.3z"/>
		<path fill="#FFFFFF" d="M503.9,387.9c-3.2-0.9-7.7-2.3-10.4-3.2c-1-0.3-1.7-0.5-2-0.6c-0.3,1.2-1.6,5.9-2,7.1l4.1,1.2
			c2.3,0.6,4.4,1.9,3.3,6.5c-1,4-3.9,14.5-5.7,20.5l-0.4,1.5l-0.5-1.5c-3.9-11.3-9.9-29.8-12.8-39.3c-5.5-1.4-17.3-4.7-22.6-6.4
			c-0.2,0.8-1,4.1-2,7.1l3.4,1c3,0.9,4.2,2.9,3.5,6.1c-0.3,1.6-1.6,6.3-3.4,12.7l-0.1,0.2c-1,1.4-4.1,2.6-5.6,3c1,1.2,3.1,4,3.1,5.8
			l0,0.1c-1.3,4.5-2.4,7.9-2.9,9.4c-0.9,2.5-2.1,3.6-4.2,3.6c-0.7,0-1.4-0.1-2.3-0.4l-3.1-0.9c-0.2,0.6-1,4-2.1,7.3
			c1.1,0.3,8.4,2.2,12.7,3.4c3.6,1,9.3,2.7,12.4,3.7l0.1,0c0.8-3.2,1.8-6.5,2.1-7.3l-3.9-1.1c-3.5-1-4.5-2.7-3.8-6.1
			c0.8-3.4,4.4-16.4,7.1-25.6l0.4-1.5l0.5,1.5c4.6,13.9,11.1,34,14.3,44.7c2.8,0.6,8.9,2.3,11.6,3.3c1.3-4.9,3.6-13.4,6.2-22.7
			l0.1-0.1c0.6-1.6,4.1-2.9,5.8-3.5c-1-1.2-3.2-4-3.2-5.8l0-0.1c1.5-5.3,2.7-9,3.1-10.4c1-2.8,2.4-4.1,4.4-4.1
			c0.6,0,1.2,0.1,1.8,0.3l3.4,1c0.3-1.2,1.6-5.9,2-7.1c-0.1,0-0.4-0.1-0.6-0.2C513.8,390.5,507.7,389,503.9,387.9z"/>
	</g>
</g>
<g>
	<path fill="#FFFFFF" d="M168.7,464.7h1.4c-0.2,1.2-0.5,4.1-0.4,6.1c-0.5,0-1.1,0-1.6,0c-0.5-2.7-1.2-5-5-5c-3.4,0-4.9,2.3-4.9,7.4
		c0,6,2,7.4,4.7,7.4c3.4,0,5.2-2.3,5.4-5.6c0.4,0,1.2,0,1.7,0c-0.3,4.5-2.2,6.9-7.1,6.9c-4.9,0-8.1-2.5-8.1-8.8
		c0-6.2,3.6-8.7,8.1-8.7c2.3,0,3.4,0.7,4,1C168.3,466.2,168.5,466,168.7,464.7z"/>
	<path fill="#FFFFFF" d="M172.6,473.2c0-5.6,3.4-8.7,8-8.7c5.3,0,8,3.1,8,8.7c0,5.6-3.4,8.8-8,8.8
		C175.3,482,172.6,478.7,172.6,473.2z M185.4,473.2c0-5.3-1.4-7.4-4.8-7.4c-3.3,0-4.8,2.4-4.8,7.4c0,5.3,1.2,7.4,4.8,7.4
		C184.2,480.7,185.4,478.1,185.4,473.2z"/>
	<path fill="#FFFFFF" d="M192.5,467.8c0-1-0.3-1.4-1.2-1.4h-1.1V465c0,0,2.5,0.1,3.9,0.1c1.4,0,3.5-0.1,3.9-0.1v1.4h-1.1
		c-1,0-1.4,0.3-1.4,1.4v7.2c0,4,1.5,5.3,4.3,5.3c2.8,0,4.4-1.2,4.4-5.3c0-2,0-4.5,0-7.2c0-0.9-0.5-1.4-1.4-1.4h-1.1V465
		c0,0,2.2,0.1,3.4,0.1c1.2,0,3-0.1,3.4-0.1v1.4h-1.1c-0.9,0-1.2,0.5-1.2,1.4c0,2.7,0,5.1,0,6.9c0,4.8-2.1,7.2-6.6,7.2
		c-4.6,0-7.1-2.1-7.1-7.3C192.5,474.7,192.5,469.3,192.5,467.8z"/>
	<path fill="#FFFFFF" d="M224.4,476.5c0.1-3,0.1-7.6,0-8.9c0-1-0.4-1.2-1.3-1.2h-1.5V465c0.4,0,2.3,0.1,3.7,0.1s3.6-0.1,3.6-0.1v1.4
		h-1.5c-0.9,0-1.2,0.3-1.3,1.2c-0.1,1.4-0.1,11,0,13.9c-0.4,0-1.4,0-1.8,0c-2-3-6.1-9-9-13.1c0,3.8,0,9.3,0,10.7c0,0.8,0.3,1,1.4,1
		h1.4v1.5c0,0-2.3,0-3.7,0s-3.7,0-3.7,0v-1.5h1.4c1.1,0,1.4-0.2,1.4-1c0.1-1.8,0.1-10.1,0-11.5c-0.1-0.9-0.4-1.2-1.3-1.2h-1.5V465
		c1.3,0,4.2,0,5.6,0C218.1,467.7,222.1,473.4,224.4,476.5z"/>
	<path fill="#FFFFFF" d="M240.1,466.4c0,3.2,0,11,0,12.3c0,0.9,0.3,1.4,1.3,1.4h1.5v1.5c0,0-2.7,0-4.2,0s-4.2,0-4.2,0v-1.5h1.4
		c1.1,0,1.4-0.5,1.4-1.4c0.1-1.3,0.1-9.1,0-12.3h-1.9c-1.9,0-2.5,0.9-2.5,2.2l-0.1,2.4h-1.6c0.1-1.5,0-4.7-0.1-6.1
		c0.7,0.1,1.9,0.1,3.7,0.1h7.8c2.1,0,2.8,0,3.7-0.1c-0.1,1.5-0.2,4.7-0.1,6.1h-1.5l-0.1-2.4c-0.1-1.4-0.7-2.2-2.5-2.2H240.1z"/>
	<path fill="#FFFFFF" d="M263.6,480.4c1.1,0,1.2-1.6,0.8-3.8l1.1-0.1c0.6,2.8,0.3,5.5-2.7,5.5c-3.2,0-3.8-1.8-4-4.8
		c-0.1-2.7-1.3-3.2-2.9-3.2h-1.7c0,2.1,0,4.1,0.1,4.6c0.1,1,0.5,1.4,1.4,1.4h1.1v1.4c0,0-2.8,0-4.1,0c-1.5,0-4.1,0-4.1,0v-1.5h1.1
		c1.1,0,1.6-0.4,1.6-1.4c0.1-1.3,0.1-9.7,0-11.1c0-0.9-0.4-1.2-1.2-1.2h-1.5V465c0.4,0,3.7,0,4.2,0c1.1,0,3,0,4,0
		c4,0,6.3,1.5,6.3,4.4c0,2.4-1.8,4-3.9,4.3c1.8,0.5,2.5,1.5,2.7,3.2C262.3,479.9,262.8,480.4,263.6,480.4z M254.2,472.9h1.9
		c2.8,0,3.8-1,3.8-3.4c0-2.4-1-3.3-3.5-3.3h-1.2c-0.7,0-0.9,0.4-0.9,1C254.2,468,254.2,470.5,254.2,472.9z"/>
	<path fill="#FFFFFF" d="M276.1,475.8v3c0,1,0.1,1.2,1.4,1.2h1.6v1.4c0,0-2.8,0-4.4,0s-4.5,0-4.5,0v-1.4h1.6c1.3,0,1.4-0.3,1.4-1.2
		v-3c-1.2-2.3-3.2-6.1-4.3-7.9c-0.6-1.1-1.3-1.5-2.8-1.5h-0.4V465c0,0,2.8,0.1,4.3,0.1c1.6,0,4.3-0.1,4.3-0.1v1.4h-1.2
		c-1.4,0-1.6,0.7-1.2,1.6c0.7,1.4,2.5,4.6,3.5,6.3c1-1.7,2.4-4.7,3.2-6.3c0.4-0.9,0.5-1.6-1.1-1.6h-0.9V465c0,0,2.3,0.1,3.7,0.1
		c1.3,0,3.6-0.1,3.6-0.1v1.4h-0.6c-1.9,0-2.4,0.4-3.2,1.7C279.2,469.9,277.2,473.5,276.1,475.8z"/>
	<path fill="#FFFFFF" d="M299.6,481.5h-8v-1.4h1.4c1.1,0,1.4-0.1,1.4-1c0.1-1.8,0.1-10.1,0-11.5c0-0.9-0.4-1.2-1.2-1.2h-1.5V465
		c0.4,0,3.7,0,4.2,0c1.1,0,2.6,0,3.6,0c4,0,6.3,1.4,6.3,4.2c0,1.8-1,3.2-2.8,3.8c2,0.5,3.4,1.9,3.4,3.8
		C306.3,479.6,304.9,481.5,299.6,481.5z M297.2,472.4h1.6c2.8,0,3.8-0.8,3.8-3.2c0-1.8-1-3-3.5-3h-0.9c-0.7,0-0.9,0.4-0.9,1
		C297.2,468,297.2,470.2,297.2,472.4z M297.2,473.6c0,2.4,0,4.8,0,5.7c0,0.8,0.4,1,0.9,1h1.3c2.8,0,3.7-1.2,3.7-3.5
		c0-2.2-1.3-3.2-4.3-3.2H297.2z"/>
	<path fill="#FFFFFF" d="M320.3,476.3c-1.7,0-4.9,0-6.7,0c-0.2,0.7-0.4,1.2-0.5,1.5c-0.4,1.3-0.3,2.3,1.3,2.3h1l0,1.5
		c0,0-2.4,0-3.7,0s-3.7,0-3.7,0v-1.5h0.9c1.3,0,1.9-0.5,2.5-2c0.6-1.5,3.9-10.5,4.9-13.3c0,0,0.9,0.1,1.4,0.1c0.5,0,1.3-0.1,1.3-0.1
		c1,2.8,4.6,11.9,5.2,13.3c0.6,1.4,1.1,2,2.1,2h1.1v1.5c0,0-2.7,0-4.3,0s-4.3,0-4.3,0l0-1.5h1.1c1.1,0,1.6-0.8,1-2.3L320.3,476.3z
		 M316.9,467.3c-0.7,1.7-2,5.3-2.9,7.8c1.7,0,4.2,0,5.8,0C318.9,472.5,317.6,469,316.9,467.3z"/>
	<path fill="#FFFFFF" d="M344.6,480.4c1.1,0,1.2-1.6,0.8-3.8l1.1-0.1c0.6,2.8,0.3,5.5-2.7,5.5c-3.2,0-3.8-1.8-4-4.8
		c-0.1-2.7-1.3-3.2-2.9-3.2h-1.7c0,2.1,0,4.1,0.1,4.6c0.1,1,0.5,1.4,1.4,1.4h1.1v1.4c0,0-2.8,0-4.1,0c-1.5,0-4.1,0-4.1,0v-1.5h1.1
		c1.1,0,1.6-0.4,1.6-1.4c0.1-1.3,0.1-9.7,0-11.1c0-0.9-0.4-1.2-1.2-1.2h-1.5V465c0.4,0,3.7,0,4.2,0c1.1,0,3,0,4,0
		c4,0,6.3,1.5,6.3,4.4c0,2.4-1.8,4-3.9,4.3c1.8,0.5,2.5,1.5,2.7,3.2C343.3,479.9,343.8,480.4,344.6,480.4z M335.2,472.9h1.9
		c2.8,0,3.8-1,3.8-3.4c0-2.4-1-3.3-3.5-3.3h-1.2c-0.7,0-0.9,0.4-0.9,1C335.2,468,335.2,470.5,335.2,472.9z"/>
	<path fill="#FFFFFF" d="M367.2,481.8c-1.3,0-2.5-0.2-3.6-1.1c-1,0.7-2.3,1.2-4.1,1.2c-3.1,0-5.1-1.6-5.1-4.3c0-2.5,2-4,3.9-4.4
		c-0.8-1.7-1.1-3-1.1-4.3c0-2.9,1.6-4.2,4.3-4.2c2.5,0,3.7,1.6,3.7,3.5c0,2.4-1.5,4.3-3.7,5.1l0.7,1.2c1.1,1.7,1.9,2.9,2.6,3.8
		c0.9-1,1.2-2.1,1.3-3.2c0-0.6-0.1-1.3-1-1.3h-0.7v-1.1c0,0,1.9,0.1,3,0.1s3-0.1,3-0.1v1.1h-1c-1.1,0-1.4,0.6-1.5,1.1
		c-0.3,1.6-1.1,2.9-2.5,4.1c1.2,1.4,1.9,1.5,2.7,1.5c1.3,0,2.2-1,2.2-2.5l0.8,0.1C370.8,480,370.3,481.8,367.2,481.8z M362.8,480.1
		c-1-0.9-2-2.4-3.3-4.5c-0.3-0.5-0.5-0.9-0.7-1.3c-1,0.6-1.7,1.7-1.7,2.9c0,2.1,1.2,3.4,3.1,3.4
		C361.3,480.6,362.1,480.4,362.8,480.1z M361.1,472.6c1.7-0.8,2.1-2.3,2.1-4.2c0-1.8-0.5-2.5-1.7-2.5c-1.2,0-1.7,0.7-1.7,2.5
		C359.7,469.7,360.1,470.8,361.1,472.6z"/>
	<path fill="#FFFFFF" d="M390.7,465.5c1.3,0.7,1.6,0.5,1.7-0.7h1.4c-0.2,1.2-0.5,4.1-0.4,6.1c-0.5,0-1.1,0-1.6,0c-0.5-2.7-1.2-5-5-5
		c-3.4,0-4.9,2.3-4.9,7.4c0,6,2.1,7.4,4.7,7.4c2.5,0,4.4-1.3,4.4-4.1c0-1.6-0.2-2.2-1.5-2.2h-1v-1.4c0,0,2.4,0.1,3.7,0.1
		c1.3,0,3.7-0.1,3.7-0.1v1.4h-0.8c-0.7,0-1,0.4-1,1.3c0,1.3,0,4.4,0.1,6.1c-0.4,0-1.2,0-1.6,0c-0.1-0.6-0.4-1.7-0.7-2.7
		c-0.9,1.7-2.9,3-5.3,3c-4.8,0-8-2.5-8-8.8c0-6.2,3.6-8.7,8.1-8.7C388,464.5,389.1,464.7,390.7,465.5z"/>
	<path fill="#FFFFFF" d="M412.3,480.4c1.1,0,1.2-1.6,0.8-3.8l1.1-0.1c0.6,2.8,0.3,5.5-2.7,5.5c-3.2,0-3.8-1.8-4-4.8
		c-0.1-2.7-1.3-3.2-2.9-3.2h-1.7c0,2.1,0,4.1,0.1,4.6c0.1,1,0.5,1.4,1.4,1.4h1.1v1.4c0,0-2.8,0-4.1,0c-1.5,0-4.1,0-4.1,0v-1.5h1.1
		c1.1,0,1.6-0.4,1.6-1.4c0.1-1.3,0.1-9.7,0-11.1c0-0.9-0.4-1.2-1.2-1.2h-1.5V465c0.4,0,3.7,0,4.2,0c1.1,0,3,0,4,0
		c4,0,6.3,1.5,6.3,4.4c0,2.4-1.8,4-3.9,4.3c1.8,0.5,2.5,1.5,2.7,3.2C411,479.9,411.5,480.4,412.3,480.4z M402.9,472.9h1.9
		c2.8,0,3.8-1,3.8-3.4c0-2.4-1-3.3-3.5-3.3h-1.2c-0.7,0-0.9,0.4-0.9,1C402.9,468,402.9,470.5,402.9,472.9z"/>
	<path fill="#FFFFFF" d="M416.5,480.1h1.3c1.1,0,1.4-0.1,1.4-1c0.1-1.8,0.1-10.1,0-11.5c0-0.9-0.4-1.2-1.2-1.2h-1.5V465
		c0,0,2.7,0.1,4.2,0.1s3.8-0.1,4.1-0.1v1.4h-1.5c-0.9,0-1.2,0.3-1.2,1.2c-0.1,1.4-0.1,9.7,0,11.5c0,0.8,0.3,1,1.4,1h1.3v1.5
		c0,0-2.7,0-4.1,0s-4.2,0-4.2,0V480.1z"/>
	<path fill="#FFFFFF" d="M435.4,466.4h-1.5c-0.9,0-1.2,0.3-1.3,1.2c-0.1,1.4-0.1,9.7,0,11.5c0,0.7,0.4,1,1.2,1h2
		c2.7,0,3.8-0.9,4.1-5h1.5c-0.1,1.6-0.3,4.9-0.2,6.5c-1.1-0.1-3.4-0.1-4.5-0.1h-5.5c-1,0-3.4,0-4.1,0v-1.5h1.4c1.1,0,1.4-0.1,1.4-1
		c0.1-1.8,0.1-10.1,0-11.5c0-0.9-0.4-1.2-1.2-1.2h-1.5V465c0,0,2.7,0.1,4.2,0.1s3.6-0.1,4.1-0.1V466.4z"/>
	<path fill="#FFFFFF" d="M451.7,466.4h-1.5c-0.9,0-1.2,0.3-1.3,1.2c-0.1,1.4-0.1,9.7,0,11.5c0,0.7,0.4,1,1.2,1h2
		c2.7,0,3.8-0.9,4.1-5h1.5c-0.1,1.6-0.3,4.9-0.2,6.5c-1.1-0.1-3.4-0.1-4.5-0.1h-5.5c-1,0-3.4,0-4.1,0v-1.5h1.4c1.1,0,1.4-0.1,1.4-1
		c0.1-1.8,0.1-10.1,0-11.5c0-0.9-0.4-1.2-1.2-1.2h-1.5V465c0,0,2.7,0.1,4.2,0.1s3.6-0.1,4.1-0.1V466.4z"/>
</g>
<path fill="#D55727" d="M279.7,435.9"/>
<g>
	<path fill="#FFFFFF" d="M281.6,448.2v-10.4h4.8v1.6h-3v2.7h2.3v1.6h-2.3v3h3.2v1.6H281.6z"/>
	<path fill="#FFFFFF" d="M291.8,440.3c-0.1-0.9-0.5-1.1-0.9-1.1c-0.6,0-0.9,0.4-0.9,1c0,1.8,3.6,2.6,3.6,5.4c0,1.7-1.1,2.7-2.8,2.7
		c-1.7,0-2.6-1.3-2.7-2.9l1.7-0.2c0.1,1,0.5,1.6,1.1,1.6c0.6,0,1-0.3,1-0.9c0-2.1-3.6-2.6-3.6-5.6c0-1.7,1-2.6,2.8-2.6
		c1.5,0,2.3,1,2.5,2.5L291.8,440.3z"/>
	<path fill="#FFFFFF" d="M296.6,439.3h-1.7v-1.6h5.2v1.6h-1.7v8.8h-1.8V439.3z"/>
	<path fill="#FFFFFF" d="M300.9,448.2v-1.7h1.7v1.7H300.9z"/>
	<path fill="#FFFFFF" d="M309.7,439.9h-1.4v-1c0.8-0.4,1.5-0.8,2.1-1.3h0.9v10.5h-1.6V439.9z"/>
	<path fill="#FFFFFF" d="M314.9,442.6c-0.6-0.5-0.9-1.3-0.9-2.1c0-2,0.9-2.9,2.4-2.9c1.5,0,2.4,0.9,2.4,2.9c0,0.8-0.3,1.6-0.9,2.1
		c0.9,0.6,1.1,1.4,1.1,2.7c0,2-0.9,3-2.5,3c-1.7,0-2.5-1.1-2.5-3C313.9,444,314.1,443.2,314.9,442.6z M317.3,445.2
		c0-1.1-0.2-1.7-0.9-1.7c-0.7,0-0.9,0.6-0.9,1.7c0,1.1,0.2,1.7,0.9,1.7C317.1,446.9,317.3,446.2,317.3,445.2z M317.2,440.5
		c0-1-0.2-1.4-0.8-1.4c-0.5,0-0.8,0.4-0.8,1.4c0,1,0.2,1.4,0.8,1.4C316.9,441.9,317.2,441.5,317.2,440.5z"/>
	<path fill="#FFFFFF" d="M320.7,439.2v-1.5h4.7v1l-2.1,9.4h-1.7l2.1-8.9H320.7z"/>
	<path fill="#FFFFFF" d="M329.5,445.7h-3.1v-1.3l3-6.6h1.7v6.6h0.9v1.3h-0.9v2.5h-1.6V445.7z M329.6,444.3v-4.1h0l-1.7,4.1H329.6z"
		/>
</g>
<polygon fill="#FFFFFF" points="269.5,441.7 270.4,439.9 271.3,441.7 273.3,442.1 271.8,443.5 272.1,445.5 270.3,444.5 268.5,445.4 
	268.9,443.4 267.4,441.9 "/>
<polygon fill="#FFFFFF" points="342,441.7 342.9,439.9 343.8,441.7 345.8,442.1 344.3,443.5 344.6,445.5 342.8,444.5 341,445.4 
	341.4,443.4 339.9,441.9 "/>
<polygon fill="#FFFFFF" points="492.3,479.4 493.3,477.6 494.1,479.4 496.1,479.8 494.6,481.2 494.9,483.2 493.1,482.2 491.3,483.1 
	491.7,481.1 490.3,479.6 "/>
<polygon fill="#FFFFFF" points="119.6,479.4 120.6,477.6 121.4,479.4 123.4,479.8 121.9,481.2 122.2,483.2 120.4,482.2 118.6,483.1 
	119,481.1 117.6,479.6 "/>
<path fill="none" stroke="#D55727" stroke-width="0.75" stroke-linecap="round" stroke-miterlimit="10" d="M359,492.8"/>
<g>
	<g>
		
			<line fill="none" stroke="#FFFFFF" stroke-width="0.75" stroke-linecap="round" stroke-miterlimit="10" x1="306.6" y1="495.3" x2="306.6" y2="508"/>
		
			<line fill="none" stroke="#FFFFFF" stroke-width="0.75" stroke-linecap="round" stroke-miterlimit="10" x1="307.1" y1="494.8" x2="311.3" y2="507.1"/>
		
			<line fill="none" stroke="#FFFFFF" stroke-width="0.75" stroke-linecap="round" stroke-miterlimit="10" x1="307.7" y1="494.5" x2="315.7" y2="504.6"/>
		
			<line fill="none" stroke="#FFFFFF" stroke-width="0.75" stroke-linecap="round" stroke-miterlimit="10" x1="308.1" y1="493.9" x2="319" y2="500.8"/>
		
			<line fill="none" stroke="#FFFFFF" stroke-width="0.75" stroke-linecap="round" stroke-miterlimit="10" x1="308.7" y1="493.4" x2="320.6" y2="497"/>
		
			<line fill="none" stroke="#FFFFFF" stroke-width="0.75" stroke-linecap="round" stroke-miterlimit="10" x1="306" y1="494.9" x2="302" y2="507.2"/>
		
			<line fill="none" stroke="#FFFFFF" stroke-width="0.75" stroke-linecap="round" stroke-miterlimit="10" x1="305.6" y1="494.4" x2="297.6" y2="504.7"/>
		
			<line fill="none" stroke="#FFFFFF" stroke-width="0.75" stroke-linecap="round" stroke-miterlimit="10" x1="305.1" y1="493.9" x2="294.3" y2="500.9"/>
		
			<line fill="none" stroke="#FFFFFF" stroke-width="0.75" stroke-linecap="round" stroke-miterlimit="10" x1="292.7" y1="497" x2="304.6" y2="493.4"/>
	</g>
	<g>
		<g>
			<path fill="none" stroke="#FFFFFF" stroke-width="0.75" stroke-linecap="round" stroke-miterlimit="10" d="M80,487.2
				c0,0,2.3-6.8,34.6-16.6c21-6.4,29.9-11.9,29.6-16.8c-0.2-3.1-4.6-0.9-4.8,4.8c-0.2,5.4,0,25.2,0,30.5c0,8.3-5.1,10.1-6.2,8.6
				c-1-1.4,0.9-5,8.6-5h69.7H304l2.6,2.5l2.6-2.5h93.3"/>
		</g>
		<path fill="none" stroke="#FFFFFF" stroke-width="0.75" stroke-linecap="round" stroke-miterlimit="10" d="M121.3,459.1
			c-1.6,1.2-0.5,6.1,5.6,3.7c8.5-3.3,10.4-5.9,11.4-8.9c1.2-3.6-3.2-4.9-3.2,1.2c0,6.1,0.4,33.4,0.4,33.4c0,3.8-3.7,5.5-5.1,4.4
			c-1.6-1.3,0.8-4.9,7-5c10.1-0.1,7.4,11,7.4,11"/>
		<path fill="none" stroke="#FFFFFF" stroke-width="0.75" stroke-linecap="round" stroke-miterlimit="10" d="M108,472.7
			c0,0-7.5,2.2-9.7,5.6c-2.1,3.3,0.3,6,2,6.2"/>
	</g>
	<g>
		<g>
			<path fill="none" stroke="#FFFFFF" stroke-width="0.75" stroke-linecap="round" stroke-miterlimit="10" d="M533.9,487.2
				c0,0-2.3-6.8-34.6-16.6c-21-6.4-29.9-11.9-29.6-16.8c0.2-3.1,4.6-0.9,4.8,4.8c0.2,5.4,0,25.2,0,30.5c0,8.3,5.1,10.1,6.2,8.6
				c1-1.4-0.9-5-8.6-5h-69.7"/>
		</g>
		<path fill="none" stroke="#FFFFFF" stroke-width="0.75" stroke-linecap="round" stroke-miterlimit="10" d="M492.5,459.1
			c1.6,1.2,0.5,6.1-5.6,3.7c-8.5-3.3-10.4-5.9-11.4-8.9c-1.2-3.6,3.2-4.9,3.2,1.2c0,6.1-0.4,33.4-0.4,33.4c0,3.8,3.7,5.5,5.1,4.4
			c1.6-1.3-0.8-4.9-7-5c-10.1-0.1-7.4,11-7.4,11"/>
		<path fill="none" stroke="#FFFFFF" stroke-width="0.75" stroke-linecap="round" stroke-miterlimit="10" d="M505.8,472.7
			c0,0,7.5,2.2,9.7,5.6c2.1,3.3-0.3,6-2,6.2"/>
	</g>
	<g>
		<path fill="none" stroke="#FFFFFF" stroke-width="0.75" stroke-linecap="round" stroke-miterlimit="10" d="M247.8,438.4
			c-0.9,1-0.7,3.7,2.2,4c2.3,0.2,3.9-1.9,3.5-4.3c-0.7-4.3-6.3-5.5-17-2.6c-10.1,2.8-14.8,4.5-26.7,9c-12.3,4.7-22,7.3-32.6,8.7
			c-11.9,1.6-22-0.3-22.4-4.1c-0.4-4.2,15.6-9,31.2-8.6c6.6,0.1,14.5,1.5,21.8,3.1c8.6,1.9,14.9,3.5,17.5,3.6c12,0.6,8-6.6-3.5-3.6
			c-5.5,1.4-10.2,3.6-20.3,7.1c-8.8,3.1-20.5,7.1-23.8,1.1c-1.9-3.4,1.1-6.6,3.9-6.6c2.2,0.1,2.4,1.7,2.4,1.7"/>
		<path fill="none" stroke="#FFFFFF" stroke-width="0.75" stroke-linecap="round" stroke-miterlimit="10" d="M243.8,434L243.8,434
			l15.8-1.4c2.3-0.2,2.2-2.2,2.2-2.2"/>
	</g>
	<g>
		<path fill="none" stroke="#FFFFFF" stroke-width="0.75" stroke-linecap="round" stroke-miterlimit="10" d="M365.4,438.4
			c0.9,1,0.7,3.7-2.2,4c-2.3,0.2-3.9-1.9-3.5-4.3c0.7-4.3,6.3-5.5,17-2.6c10.1,2.8,14.8,4.5,26.7,9c12.3,4.7,22,7.3,32.6,8.7
			c11.9,1.6,22-0.3,22.4-4.1c0.4-4.2-15.6-9-31.2-8.6c-6.6,0.1-14.5,1.5-21.8,3.1c-8.6,1.9-14.9,3.5-17.5,3.6c-12,0.6-8-6.6,3.5-3.6
			c5.5,1.4,10.2,3.6,20.3,7.1c8.8,3.1,20.5,7.1,23.8,1.1c1.9-3.4-1.1-6.6-3.9-6.6c-2.2,0.1-2.4,1.7-2.4,1.7"/>
		<path fill="none" stroke="#FFFFFF" stroke-width="0.75" stroke-linecap="round" stroke-miterlimit="10" d="M369.3,434L369.3,434
			l-15.8-1.4c-2.3-0.2-2.2-2.2-2.2-2.2"/>
	</g>
	<g>
		<g>
			<g>
				
					<line fill="none" stroke="#FFFFFF" stroke-width="0.75" stroke-linecap="round" stroke-miterlimit="10" x1="15.9" y1="350.8" x2="23.4" y2="371.6"/>
				
					<line fill="none" stroke="#FFFFFF" stroke-width="0.75" stroke-linecap="round" stroke-miterlimit="10" x1="15.9" y1="350.8" x2="29.4" y2="368.1"/>
				
					<line fill="none" stroke="#FFFFFF" stroke-width="0.75" stroke-linecap="round" stroke-miterlimit="10" x1="15.9" y1="350.8" x2="34" y2="362.8"/>
				
					<line fill="none" stroke="#FFFFFF" stroke-width="0.75" stroke-linecap="round" stroke-miterlimit="10" x1="15.9" y1="350.8" x2="36.2" y2="357.4"/>
				<path fill="none" stroke="#FFFFFF" stroke-width="0.75" stroke-linecap="round" stroke-miterlimit="10" d="M16.9,352.2"/>
			</g>
		</g>
		<path fill="none" stroke="#FFFFFF" stroke-width="0.75" stroke-linecap="round" stroke-miterlimit="10" d="M128.1,362.8
			c-3.7,3.5-9-2.4-3.4-5.4c8.6-4.7,26.4-5.4,26.4-5.4c-12.2-0.1-89.8-0.2-102.2-0.2s-32.7,0.4-36.5-2s-0.2-6.7,2.2-3.1
			c2.4,3.6,1.4,11.6,1.4,22.6c-0.1,9.1,0,29.9,0,29.9c0,6.9-3.3,9.3-3.3,9.3"/>
		<path fill="none" stroke="#FFFFFF" stroke-width="0.75" stroke-linecap="round" stroke-miterlimit="10" d="M151.1,351.9
			c0,0-23.6-1.1-58.1,10.9c-40.3,14-36.4,28.3-60.4,26.6c-7.4-0.5-6.6-8.8,5.4-13.9c13.8-5.9,38,2.8,48.1,4.7
			c10.1,1.9,12.3-6.3,6.4-7.7c-5.8-1.3-21,4-25.9,7.8c0,0-13.5-4-22.8-2.1c-9.3,1.9-8.9,7.1-1.4,5.3c3.5-0.8,15.1-5.4,21.2-13.5
			c5-6.7,1.6-12.4-2.3-12.7c-4.4-0.2-7.1,3-6.5,6.1s3.7,3.1,3.7,3.1"/>
	</g>
	<g>
		<g>
			<g>
				
					<line fill="none" stroke="#FFFFFF" stroke-width="0.75" stroke-linecap="round" stroke-miterlimit="10" x1="596.2" y1="350.8" x2="588.7" y2="371.6"/>
				
					<line fill="none" stroke="#FFFFFF" stroke-width="0.75" stroke-linecap="round" stroke-miterlimit="10" x1="596.2" y1="350.8" x2="582.7" y2="368.1"/>
				
					<line fill="none" stroke="#FFFFFF" stroke-width="0.75" stroke-linecap="round" stroke-miterlimit="10" x1="596.2" y1="350.8" x2="578.1" y2="362.8"/>
				
					<line fill="none" stroke="#FFFFFF" stroke-width="0.75" stroke-linecap="round" stroke-miterlimit="10" x1="596.2" y1="350.8" x2="575.9" y2="357.4"/>
				<path fill="none" stroke="#FFFFFF" stroke-width="0.75" stroke-linecap="round" stroke-miterlimit="10" d="M595.2,352.2"/>
			</g>
		</g>
		<path fill="none" stroke="#FFFFFF" stroke-width="0.75" stroke-linecap="round" stroke-miterlimit="10" d="M484.1,362.8
			c3.7,3.5,9-2.4,3.4-5.4c-8.6-4.7-26.4-5.4-26.4-5.4c12.2-0.1,89.8-0.2,102.2-0.2s32.7,0.4,36.5-2c3.8-2.4,0.2-6.7-2.2-3.1
			c-2.4,3.6-1.4,11.6-1.4,22.6c0.1,9.1,0,29.9,0,29.9c0,6.9,3.3,9.3,3.3,9.3"/>
		<path fill="none" stroke="#FFFFFF" stroke-width="0.75" stroke-linecap="round" stroke-miterlimit="10" d="M461.1,351.9
			c0,0,31.2-0.1,57.7,8.2c33.9,10.6,35.4,30.5,60.9,29.3c7.4-0.3,6.6-8.8-5.4-13.9c-13.8-5.9-37-1.6-48.9,0.3
			c-10.1,1.7-13.6-6.5-6.4-7.7c5.8-1,20.3,6.2,25.3,10c0,0,15-1.9,24.3,0c9.3,1.9,8.9,7.1,1.4,5.3c-3.5-0.8-15.1-5.4-21.2-13.5
			c-5-6.7-1.6-12.4,2.3-12.7c4.4-0.2,7.1,3,6.5,6.1c-0.6,3.1-3.7,3.1-3.7,3.1"/>
	</g>
	<g>
		<path fill="none" stroke="#FFFFFF" stroke-width="0.75" stroke-linecap="round" stroke-miterlimit="10" d="M68.9,495
			c0,0-3.2-2.3-9-2.3H21.1c-5.4,0-7.8,0.5-9.3,1.5c-2.8,2-0.2,5.5,2.2,2.6c1.7-1.9,2-8.3,2-9.8s0-8.9,0-8.9c0-6.7-2.6-10.3-2.6-10.3
			"/>
		
			<line fill="none" stroke="#FFFFFF" stroke-width="0.75" stroke-linecap="round" stroke-miterlimit="10" x1="16.5" y1="492.7" x2="30.3" y2="488"/>
		
			<line fill="none" stroke="#FFFFFF" stroke-width="0.75" stroke-linecap="round" stroke-miterlimit="10" x1="16.4" y1="492.7" x2="27.8" y2="483.7"/>
		
			<line fill="none" stroke="#FFFFFF" stroke-width="0.75" stroke-linecap="round" stroke-miterlimit="10" x1="16.2" y1="492.7" x2="24" y2="480.4"/>
		
			<line fill="none" stroke="#FFFFFF" stroke-width="0.75" stroke-linecap="round" stroke-miterlimit="10" x1="16" y1="492.7" x2="20.1" y2="478.8"/>
	</g>
	<g>
		<path fill="none" stroke="#FFFFFF" stroke-width="0.75" stroke-linecap="round" stroke-miterlimit="10" d="M542.4,495
			c0,0,3.2-2.3,9-2.3h38.8c5.4,0,7.8,0.5,9.3,1.5c2.8,2,0.2,5.5-2.2,2.6c-1.7-1.9-2-8.3-2-9.8s0-8.9,0-8.9c0-6.7,2.6-10.3,2.6-10.3"
			/>
		
			<line fill="none" stroke="#FFFFFF" stroke-width="0.75" stroke-linecap="round" stroke-miterlimit="10" x1="594.8" y1="492.7" x2="581" y2="488"/>
		
			<line fill="none" stroke="#FFFFFF" stroke-width="0.75" stroke-linecap="round" stroke-miterlimit="10" x1="594.9" y1="492.7" x2="583.5" y2="483.7"/>
		
			<line fill="none" stroke="#FFFFFF" stroke-width="0.75" stroke-linecap="round" stroke-miterlimit="10" x1="595.1" y1="492.7" x2="587.3" y2="480.4"/>
		
			<line fill="none" stroke="#FFFFFF" stroke-width="0.75" stroke-linecap="round" stroke-miterlimit="10" x1="595.3" y1="492.7" x2="591.2" y2="478.8"/>
	</g>
	<g>
		<g>
			<path fill="none" stroke="#FFFFFF" stroke-width="0.75" stroke-linecap="round" stroke-miterlimit="10" d="M442.5,351.2
				c0,0,1.8,5.9-7.6,4.1c-9.2-1.8-64.9-9.1-126.7-10.7l-2.6-2.5l-2.4,2.5c-46.7,0-88.3,4.2-110.1,7l-6.3,0.9"/>
			<g>
				
					<line fill="none" stroke="#FFFFFF" stroke-width="0.75" stroke-linecap="round" stroke-miterlimit="10" x1="305.5" y1="342.1" x2="305.6" y2="329.6"/>
				
					<line fill="none" stroke="#FFFFFF" stroke-width="0.75" stroke-linecap="round" stroke-miterlimit="10" x1="304.9" y1="342.4" x2="301" y2="330.4"/>
				
					<line fill="none" stroke="#FFFFFF" stroke-width="0.75" stroke-linecap="round" stroke-miterlimit="10" x1="304.4" y1="342.9" x2="296.6" y2="332.9"/>
				
					<line fill="none" stroke="#FFFFFF" stroke-width="0.75" stroke-linecap="round" stroke-miterlimit="10" x1="303.8" y1="343.4" x2="293.3" y2="336.7"/>
				
					<line fill="none" stroke="#FFFFFF" stroke-width="0.75" stroke-linecap="round" stroke-miterlimit="10" x1="303.6" y1="344.1" x2="291.6" y2="340.5"/>
				
					<line fill="none" stroke="#FFFFFF" stroke-width="0.75" stroke-linecap="round" stroke-miterlimit="10" x1="306.1" y1="342.7" x2="310.3" y2="330.4"/>
				
					<line fill="none" stroke="#FFFFFF" stroke-width="0.75" stroke-linecap="round" stroke-miterlimit="10" x1="306.6" y1="343.1" x2="314.7" y2="332.9"/>
				
					<line fill="none" stroke="#FFFFFF" stroke-width="0.75" stroke-linecap="round" stroke-miterlimit="10" x1="307.3" y1="343.5" x2="317.9" y2="336.7"/>
				
					<line fill="none" stroke="#FFFFFF" stroke-width="0.75" stroke-linecap="round" stroke-miterlimit="10" x1="319.6" y1="340.7" x2="307.6" y2="344.1"/>
			</g>
		</g>
		<g>
			<path fill="none" stroke="#FFFFFF" stroke-width="0.75" stroke-linecap="round" stroke-miterlimit="10" d="M169.5,350
				c0,0-1.8,5.9,7.6,4.1c1.7-0.3,5-0.8,9.5-1.5"/>
		</g>
	</g>
</g>
</svg>
